<svg width="154" height="51" viewBox="0 0 154 51" fill="none" xmlns="http://www.w3.org/2000/svg">
<path d="M37.9401 37.5437C35.2943 44.9984 29.1591 50.1577 20.253 50.1577C6.82277 50.1577 0.5 39.9075 0.5 31.1134C0.5 22.8982 6.56584 12.5796 19.9301 12.5796C28.9646 12.5796 35.5513 17.804 37.9401 25.4471H28.2702C26.5932 22.1994 23.5585 20.6063 19.8086 20.6063C12.965 20.6063 9.09355 25.5738 9.09355 31.2436C9.09355 37.2971 13.2254 42.1343 19.8086 42.1343C21.2912 42.1343 25.8779 41.8808 28.2702 37.5471L37.9401 37.5437Z" fill="#1B1B1B"/>
<path d="M49.1932 31.4286C49.1932 37.16 53.2625 42.1275 59.5888 42.1275C65.9185 42.1275 69.9809 37.16 69.9809 31.4286C69.9809 25.6972 65.9844 20.5995 59.5888 20.5995C53.1896 20.5995 49.1932 25.6937 49.1932 31.4286ZM78.564 31.4286C78.564 41.6822 70.4948 50.1508 59.5888 50.1508C48.6828 50.1508 40.5996 41.6787 40.5996 31.4286C40.5996 21.11 48.6064 12.5728 59.5818 12.5728C70.5573 12.5728 78.5571 21.11 78.5571 31.4286" fill="#1B1B1B"/>
<path d="M84.3949 21.2368H80.8359V13.7239H84.3949V12.2337C84.3949 4.33367 89.4295 0.00683594 96.787 0.00683594H98.4015V8.46867H97.3043C93.9815 8.46867 92.978 10.4454 92.978 12.2302V13.7205H98.4015V21.2334H92.9815V49.0067H84.3984V21.2368H84.3949Z" fill="#1B1B1B"/>
<path d="M112.497 0H103.91V8.46869H112.497V0Z" fill="#1B1B1B"/>
<path d="M112.497 13.7207H103.91V49.0103H112.497V13.7207Z" fill="#1B1B1B"/>
<path d="M142.616 49.0103H153.501L140.005 30.915L152.31 13.7207H142.047L134.415 24.7142L126.783 13.7207H116.513L128.533 30.915L115.457 49.0103H126.356L134.484 37.1706L142.616 49.0103Z" fill="#1B1B1B"/>
</svg>
