<svg width="154" height="51" viewBox="0 0 154 51" fill="none" xmlns="http://www.w3.org/2000/svg">
<g id="Logo">
<path id="Vector" d="M37.9401 38.388C35.2943 45.8426 29.1591 51.0019 20.253 51.0019C6.82277 51.0019 0.5 40.7518 0.5 31.9576C0.5 23.7425 6.56584 13.4238 19.9301 13.4238C28.9646 13.4238 35.5513 18.6482 37.9401 26.2913H28.2702C26.5932 23.0436 23.5585 21.4506 19.8086 21.4506C12.965 21.4506 9.09355 26.4181 9.09355 32.0878C9.09355 38.1413 13.2254 42.9786 19.8086 42.9786C21.2912 42.9786 25.8779 42.7251 28.2702 38.3914L37.9401 38.388Z" fill="#FDFDFD"/>
<path id="Vector_2" d="M49.1932 32.2719C49.1932 38.0033 53.2625 42.9708 59.5888 42.9708C65.9185 42.9708 69.9809 38.0033 69.9809 32.2719C69.9809 26.5404 65.9844 21.4428 59.5888 21.4428C53.1896 21.4428 49.1932 26.537 49.1932 32.2719ZM78.564 32.2719C78.564 42.5254 70.4948 50.9941 59.5888 50.9941C48.6828 50.9941 40.5996 42.522 40.5996 32.2719C40.5996 21.9532 48.6064 13.416 59.5818 13.416C70.5573 13.416 78.5571 21.9532 78.5571 32.2719" fill="#FDFDFD"/>
<path id="Vector_3" d="M84.3949 22.0805H80.8359V14.5677H84.3949V13.0774C84.3949 5.17742 89.4295 0.850586 96.787 0.850586H98.4015V9.31242H97.3043C93.9815 9.31242 92.978 11.2891 92.978 13.074V14.5642H98.4015V22.0771H92.9815V49.8504H84.3984V22.0805H84.3949Z" fill="#FDFDFD"/>
<path id="Vector_4" d="M112.497 0.84375H103.91V9.31244H112.497V0.84375Z" fill="#FDFDFD"/>
<path id="Vector_5" d="M112.497 14.5645H103.91V49.8541H112.497V14.5645Z" fill="#FDFDFD"/>
<path id="Vector_6" d="M142.616 49.8541H153.501L140.005 31.7588L152.31 14.5645H142.047L134.415 25.558L126.783 14.5645H116.513L128.533 31.7588L115.457 49.8541H126.356L134.484 38.0144L142.616 49.8541Z" fill="#FDFDFD"/>
</g>
</svg>
