<svg width="560" height="440" viewBox="0 0 560 440" fill="none" xmlns="http://www.w3.org/2000/svg">
<path d="M450.056 0.527649H131.728C121.329 0.527649 112.898 8.96936 112.898 19.3827V244.331C112.898 254.744 121.329 263.186 131.728 263.186H450.056C460.456 263.186 468.886 254.744 468.886 244.331V19.3827C468.886 8.96936 460.456 0.527649 450.056 0.527649Z" fill="#FDFDFD"/>
<path d="M450.056 263.716H131.731C121.055 263.716 112.37 255.02 112.37 244.33V19.3864C112.37 8.69661 121.055 0 131.731 0H450.056C460.732 0 469.417 8.69661 469.417 19.3864V244.332C469.417 255.022 460.732 263.719 450.056 263.719V263.716ZM131.731 1.05792C121.639 1.05792 113.429 9.27847 113.429 19.384V244.33C113.429 254.435 121.639 262.656 131.731 262.656H450.056C460.148 262.656 468.358 254.435 468.358 244.33V19.3864C468.358 9.28087 460.148 1.06033 450.056 1.06033H131.731V1.05792Z" fill="#1B1B1B"/>
<path d="M438.929 262.332L119.763 263.186C109.349 263.186 100.909 254.732 100.909 244.307V19.4068C100.909 8.97902 109.351 0.527649 119.763 0.527649H438.929C449.342 0.527649 457.783 8.98142 457.783 19.4068V244.304C457.783 254.732 449.34 262.332 438.929 262.332Z" fill="#FDFDFD"/>
<path d="M101.276 234.852C100.983 234.852 100.748 234.616 100.748 234.323V19.3985C100.748 8.70142 109.438 0 120.121 0H438.938C449.621 0 458.311 8.70142 458.311 19.3985V53.8002C458.311 54.0936 458.073 54.3292 457.783 54.3292C457.492 54.3292 457.254 54.0936 457.254 53.8002V19.3985C457.254 9.28568 449.038 1.05792 438.938 1.05792H120.121C110.021 1.05792 101.805 9.28568 101.805 19.3985V234.32C101.805 234.614 101.567 234.849 101.276 234.849V234.852Z" fill="#1B1B1B"/>
<path d="M248.074 46.4831H248.062C240.126 46.4759 233.676 39.9769 233.684 31.992C233.686 28.1257 235.187 24.4903 237.905 21.7566C240.623 19.0252 244.234 17.5225 248.074 17.5225H248.086C256.022 17.5297 262.471 24.0287 262.464 32.0136C262.462 35.8798 260.961 39.5152 258.243 42.249C255.525 44.9804 251.913 46.4831 248.074 46.4831ZM248.074 18.2678C244.434 18.2678 241.01 19.6936 238.433 22.2831C235.854 24.875 234.43 28.3229 234.428 31.992C234.423 39.5657 240.539 45.7305 248.064 45.7378H248.074C251.714 45.7378 255.138 44.312 257.715 41.7225C260.293 39.1305 261.717 35.6827 261.72 32.0136C261.724 24.4398 255.609 18.275 248.083 18.2678H248.074Z" fill="#1B1B1B"/>
<path d="M255.736 44.1475C255.709 44.1475 255.683 44.1451 255.659 44.1403C255.561 44.1187 255.477 44.061 255.421 43.9744L248.004 32.2579C247.901 32.0944 247.939 31.878 248.093 31.7626L259.107 23.3882C259.186 23.3281 259.287 23.3016 259.386 23.3161C259.484 23.3305 259.573 23.3834 259.633 23.4651C261.446 25.9609 262.404 28.9158 262.401 32.0151C262.397 36.8839 259.984 41.3969 255.942 44.0874C255.88 44.1283 255.808 44.1499 255.736 44.1499V44.1475ZM248.816 32.1473L255.844 43.2483C259.489 40.6756 261.655 36.5016 261.657 32.0127C261.657 29.202 260.829 26.5115 259.251 24.2129L248.816 32.1473Z" fill="#1B1B1B"/>
<path d="M251.075 18.238L248.321 32.0584L259.335 23.6887C257.362 20.9718 254.449 18.9954 251.075 18.238Z" fill="#1B1B1B"/>
<path d="M248.073 36.2991C250.433 36.2991 252.345 34.3744 252.345 32.0001C252.345 29.6258 250.433 27.7011 248.073 27.7011C245.714 27.7011 243.802 29.6258 243.802 32.0001C243.802 34.3744 245.714 36.2991 248.073 36.2991Z" fill="#FDFDFD"/>
<path d="M248.074 36.6734H248.069C245.509 36.6734 243.427 34.5744 243.43 31.9993C243.43 30.7515 243.915 29.5805 244.791 28.6981C245.668 27.8157 246.835 27.3325 248.074 27.3325H248.078C250.638 27.3325 252.72 29.4315 252.717 32.0066C252.717 33.2544 252.232 34.4254 251.356 35.3078C250.48 36.1878 249.313 36.6734 248.074 36.6734ZM248.074 28.0754C247.034 28.0754 246.054 28.4817 245.319 29.2223C244.582 29.9628 244.174 30.9486 244.174 31.9993C244.174 34.1633 245.92 35.9257 248.071 35.9281H248.074C249.113 35.9281 250.093 35.5217 250.828 34.7812C251.565 34.0407 251.973 33.0549 251.973 32.0042C251.973 29.8402 250.227 28.0778 248.076 28.0754H248.074Z" fill="#1B1B1B"/>
<path d="M195.116 133.155H131.918C124.179 133.155 117.883 126.851 117.883 119.102V30.6475C117.883 22.8982 124.179 16.5939 131.918 16.5939H195.116C202.855 16.5939 209.151 22.8982 209.151 30.6475V119.102C209.151 126.851 202.855 133.155 195.116 133.155ZM131.915 17.748C124.813 17.748 119.033 23.5354 119.033 30.6475V119.102C119.033 126.214 124.813 132.001 131.915 132.001H195.114C202.217 132.001 207.996 126.214 207.996 119.102V30.6475C207.996 23.5354 202.217 17.748 195.114 17.748H131.915Z" fill="#1B1B1B"/>
<path d="M148.8 50.1502H129.171V114.746H148.8V50.1502Z" fill="#1B1B1B"/>
<path d="M173.331 32.3256H153.701V114.747H173.331V32.3256Z" fill="#1B1B1B"/>
<path d="M197.861 76.2365H178.231V114.747H197.861V76.2365Z" fill="#1B1B1B"/>
<path d="M334.154 67.3019C334.043 67.3019 333.935 67.2611 333.851 67.1865L319.699 54.4169C319.514 54.251 319.499 53.9649 319.665 53.7798C319.833 53.5946 320.117 53.5802 320.301 53.7461L334.115 66.2079L368.08 27.5721C368.159 27.4807 368.272 27.4278 368.392 27.4206C368.51 27.4134 368.63 27.4543 368.721 27.536L386.744 43.7968L408.477 19.0726C408.643 18.8851 408.926 18.8683 409.113 19.0318C409.301 19.1977 409.318 19.4814 409.154 19.6689L387.119 44.7345C387.04 44.8259 386.927 44.8788 386.807 44.886C386.684 44.8932 386.569 44.8523 386.478 44.7706L368.454 28.5098L334.49 67.1457C334.411 67.237 334.298 67.2923 334.178 67.2971C334.168 67.2971 334.161 67.2971 334.151 67.2971L334.154 67.3019Z" fill="#1B1B1B"/>
<path d="M259.487 109.328C259.377 109.328 259.269 109.287 259.185 109.212L239.241 91.2204C239.056 91.0545 239.041 90.7683 239.207 90.5832C239.375 90.3981 239.658 90.3836 239.843 90.5495L259.449 108.236L306.93 54.2267C307.093 54.0392 307.379 54.0223 307.566 54.1858C307.753 54.3517 307.77 54.6354 307.607 54.823L259.826 109.176C259.747 109.268 259.634 109.323 259.514 109.328C259.504 109.328 259.497 109.328 259.487 109.328Z" fill="#1B1B1B"/>
<path d="M241.977 93.2741C243.16 92.0708 243.027 90.0173 241.679 88.6875C240.331 87.3577 238.278 87.2552 237.095 88.4584C235.911 89.6617 236.044 91.7152 237.392 93.045C238.74 94.3749 240.793 94.4774 241.977 93.2741Z" fill="#1B1B1B"/>
<path d="M336.672 69.1105C337.856 67.9072 337.722 65.8537 336.374 64.5239C335.026 63.1941 332.974 63.0915 331.79 64.2948C330.606 65.4981 330.739 67.5516 332.087 68.8814C333.436 70.2112 335.488 70.3138 336.672 69.1105Z" fill="#1B1B1B"/>
<path d="M365.487 27.5036C365.28 25.7099 366.56 24.2577 368.342 24.2577C370.123 24.2577 371.735 25.7123 371.941 27.5036C372.148 29.2973 370.868 30.7495 369.086 30.7495C367.304 30.7495 365.693 29.2948 365.487 27.5036Z" fill="#1B1B1B"/>
<path d="M383.986 44.197C383.779 42.4033 385.059 40.951 386.841 40.951C388.622 40.951 390.234 42.4057 390.44 44.197C390.647 45.9906 389.367 47.4429 387.585 47.4429C385.803 47.4429 384.192 45.9882 383.986 44.197Z" fill="#1B1B1B"/>
<path d="M410.611 22.7276C411.795 21.5243 411.662 19.4708 410.314 18.141C408.966 16.8112 406.913 16.7086 405.729 17.9119C404.546 19.1152 404.679 21.1687 406.027 22.4985C407.375 23.8283 409.428 23.9308 410.611 22.7276Z" fill="#1B1B1B"/>
<path d="M262.177 110.889C263.361 109.686 263.227 107.632 261.879 106.302C260.531 104.973 258.479 104.87 257.295 106.073C256.111 107.277 256.244 109.33 257.592 110.66C258.94 111.99 260.993 112.092 262.177 110.889Z" fill="#1B1B1B"/>
<path d="M315.57 50.5197C316.754 49.3164 316.621 47.263 315.273 45.9331C313.925 44.6033 311.872 44.5008 310.688 45.7041C309.505 46.9074 309.638 48.9608 310.986 50.2906C312.334 51.6205 314.387 51.723 315.57 50.5197Z" fill="#1B1B1B"/>
<path d="M251.208 119.572C251.87 119.572 252.408 120.11 252.408 120.774V191.972C252.408 192.636 251.87 193.174 251.208 193.174H235.471C234.808 193.174 234.27 192.636 234.27 191.972V120.774C234.27 120.11 234.808 119.572 235.471 119.572H251.208ZM251.208 118.37H235.471C234.145 118.37 233.069 119.447 233.069 120.774V191.972C233.069 193.3 234.145 194.377 235.471 194.377H251.208C252.533 194.377 253.609 193.3 253.609 191.972V120.774C253.609 119.447 252.533 118.37 251.208 118.37Z" fill="#1B1B1B"/>
<path d="M273.995 124.342C274.658 124.342 275.195 124.881 275.195 125.545V191.973C275.195 192.636 274.658 193.175 273.995 193.175H258.258C257.595 193.175 257.057 192.636 257.057 191.973V125.545C257.057 124.881 257.595 124.342 258.258 124.342H273.995ZM273.995 123.14H258.258C256.932 123.14 255.856 124.217 255.856 125.545V191.973C255.856 193.3 256.932 194.377 258.258 194.377H273.995C275.32 194.377 276.396 193.3 276.396 191.973V125.545C276.396 124.217 275.32 123.14 273.995 123.14Z" fill="#1B1B1B"/>
<path d="M296.779 99.0078C297.442 99.0078 297.98 99.5464 297.98 100.21V191.975C297.98 192.639 297.442 193.177 296.779 193.177H281.042C280.379 193.177 279.841 192.639 279.841 191.975V100.21C279.841 99.5464 280.379 99.0078 281.042 99.0078H296.779ZM296.779 97.8057H281.042C279.716 97.8057 278.641 98.8828 278.641 100.21V191.975C278.641 193.303 279.716 194.38 281.042 194.38H296.779C298.105 194.38 299.18 193.303 299.18 191.975V100.21C299.18 98.8828 298.105 97.8057 296.779 97.8057Z" fill="#1B1B1B"/>
<path d="M319.567 73.3733C320.23 73.3733 320.768 73.9118 320.768 74.5755V191.974C320.768 192.637 320.23 193.176 319.567 193.176H303.83C303.167 193.176 302.629 192.637 302.629 191.974V74.5755C302.629 73.9118 303.167 73.3733 303.83 73.3733H319.567ZM319.567 72.1711H303.83C302.504 72.1711 301.429 73.2482 301.429 74.5755V191.974C301.429 193.301 302.504 194.378 303.83 194.378H319.567C320.893 194.378 321.968 193.301 321.968 191.974V74.5755C321.968 73.2482 320.893 72.1711 319.567 72.1711Z" fill="#1B1B1B"/>
<path d="M342.354 81.7182C343.017 81.7182 343.555 82.2568 343.555 82.9204V191.973C343.555 192.637 343.017 193.175 342.354 193.175H326.617C325.954 193.175 325.416 192.637 325.416 191.973V82.9204C325.416 82.2568 325.954 81.7182 326.617 81.7182H342.354ZM342.354 80.516H326.617C325.292 80.516 324.216 81.5931 324.216 82.9204V191.973C324.216 193.3 325.292 194.377 326.617 194.377H342.354C343.68 194.377 344.755 193.3 344.755 191.973V82.9204C344.755 81.5931 343.68 80.516 342.354 80.516Z" fill="#1B1B1B"/>
<path d="M365.14 63.2394C365.803 63.2394 366.341 63.778 366.341 64.4416V191.974C366.341 192.638 365.803 193.176 365.14 193.176H349.403C348.74 193.176 348.203 192.638 348.203 191.974V64.4416C348.203 63.778 348.74 63.2394 349.403 63.2394H365.14ZM365.14 62.0372H349.403C348.078 62.0372 347.002 63.1144 347.002 64.4416V191.974C347.002 193.302 348.078 194.379 349.403 194.379H365.14C366.466 194.379 367.542 193.302 367.542 191.974V64.4416C367.542 63.1144 366.466 62.0372 365.14 62.0372Z" fill="#1B1B1B"/>
<path d="M387.926 56.3836C388.588 56.3836 389.126 56.9222 389.126 57.5858V191.973C389.126 192.637 388.588 193.175 387.926 193.175H372.188C371.526 193.175 370.988 192.637 370.988 191.973V57.5858C370.988 56.9222 371.526 56.3836 372.188 56.3836H387.926ZM387.926 55.1814H372.188C370.863 55.1814 369.787 56.2586 369.787 57.5858V191.973C369.787 193.301 370.863 194.378 372.188 194.378H387.926C389.251 194.378 390.327 193.301 390.327 191.973V57.5858C390.327 56.2586 389.251 55.1814 387.926 55.1814Z" fill="#1B1B1B"/>
<path d="M410.713 93.641C411.375 93.641 411.913 94.1795 411.913 94.8432V191.973C411.913 192.636 411.375 193.175 410.713 193.175H394.975C394.313 193.175 393.775 192.636 393.775 191.973V94.8432C393.775 94.1795 394.313 93.641 394.975 93.641H410.713ZM410.713 92.4388H394.975C393.65 92.4388 392.574 93.5159 392.574 94.8432V191.973C392.574 193.3 393.65 194.377 394.975 194.377H410.713C412.038 194.377 413.114 193.3 413.114 191.973V94.8432C413.114 93.5159 412.038 92.4388 410.713 92.4388Z" fill="#1B1B1B"/>
<path d="M433.5 115.101C434.162 115.101 434.7 115.64 434.7 116.303V191.971C434.7 192.635 434.162 193.174 433.5 193.174H417.762C417.1 193.174 416.562 192.635 416.562 191.971V116.303C416.562 115.64 417.1 115.101 417.762 115.101H433.5ZM433.5 113.899H417.762C416.437 113.899 415.361 114.976 415.361 116.303V191.971C415.361 193.299 416.437 194.376 417.762 194.376H433.5C434.825 194.376 435.901 193.299 435.901 191.971V116.303C435.901 114.976 434.825 113.899 433.5 113.899Z" fill="#1B1B1B"/>
<path d="M317.253 438.242L280.764 286.634L244.276 438.242H235.531L275.621 270.436L285.905 270.419L325.998 438.242H317.253Z" fill="#FDFDFD"/>
<path d="M325.997 438.772H317.252C317.007 438.772 316.796 438.604 316.738 438.366L280.764 288.893L244.79 438.366C244.732 438.604 244.521 438.772 244.276 438.772H235.531C235.37 438.772 235.216 438.697 235.115 438.57C235.015 438.443 234.979 438.277 235.017 438.118L275.107 270.312C275.165 270.074 275.376 269.906 275.621 269.906L285.905 269.891C286.15 269.891 286.361 270.06 286.419 270.298L326.514 438.12C326.552 438.279 326.514 438.445 326.415 438.572C326.314 438.7 326.163 438.774 326 438.774L325.997 438.772ZM317.668 437.714H325.327L285.487 270.952L276.039 270.966L236.201 437.714H243.861L280.25 286.51C280.308 286.272 280.519 286.104 280.764 286.104C281.009 286.104 281.22 286.272 281.278 286.51L317.668 437.714Z" fill="#1B1B1B"/>
<path d="M29.0707 270.508L326.6 270.508V257.628L29.0707 257.628V270.508Z" fill="#FDFDFD"/>
<path d="M326.602 271.038H29.0732C28.7802 271.038 28.5449 270.802 28.5449 270.509V257.629C28.5449 257.336 28.7826 257.1 29.0732 257.1H326.602C326.895 257.1 327.13 257.336 327.13 257.629V270.509C327.13 270.802 326.893 271.038 326.602 271.038ZM29.6038 269.98H326.074V258.16H29.6014V269.98H29.6038Z" fill="#1B1B1B"/>
<path d="M112.024 438.237L75.536 286.61L39.0478 438.237H30.3027L70.3927 270.412L80.6769 270.395L120.769 438.237H112.024Z" fill="#FDFDFD"/>
<path d="M120.769 438.767H112.024C111.779 438.767 111.568 438.599 111.51 438.361L75.536 288.869L39.5617 438.361C39.5041 438.599 39.2928 438.767 39.0479 438.767H30.3028C30.1419 438.767 29.9883 438.693 29.8874 438.565C29.7866 438.438 29.7505 438.272 29.789 438.113L69.8789 270.288C69.9365 270.05 70.1478 269.882 70.3927 269.882L80.677 269.867C80.9219 269.867 81.1332 270.036 81.1908 270.274L121.283 438.113C121.322 438.272 121.283 438.438 121.185 438.565C121.084 438.693 120.933 438.767 120.769 438.767ZM112.44 437.709H120.099L80.2591 270.928L70.8105 270.942L30.9727 437.709H38.6325L75.0222 286.486C75.0798 286.248 75.2911 286.08 75.536 286.08C75.781 286.08 75.9923 286.248 76.0499 286.486L112.44 437.709Z" fill="#1B1B1B"/>
<path d="M236.789 268.394C236.496 268.394 236.261 268.158 236.261 267.865V259.921C236.261 259.628 236.498 259.392 236.789 259.392C237.08 259.392 237.317 259.628 237.317 259.921V267.865C237.317 268.158 237.08 268.394 236.789 268.394Z" fill="#1B1B1B"/>
<path d="M138.413 405.292L141.816 422.257C141.931 422.831 142.464 423.219 142.963 423.091L152.907 420.559C153.336 420.451 153.588 419.994 153.495 419.501L150.63 404.342L138.413 405.294V405.292Z" fill="#FDFDFD"/>
<path d="M142.766 423.646C142.509 423.646 142.25 423.571 142.017 423.425C141.647 423.192 141.383 422.804 141.294 422.362L137.892 405.397C137.863 405.248 137.897 405.094 137.988 404.974C138.079 404.853 138.218 404.776 138.367 404.764L150.584 403.812C150.856 403.791 151.094 403.976 151.144 404.243L154.009 419.405C154.155 420.176 153.735 420.895 153.031 421.073L143.088 423.605C142.98 423.632 142.872 423.646 142.764 423.646H142.766ZM139.047 405.774L142.332 422.153C142.363 422.309 142.456 422.449 142.581 422.528C142.629 422.557 142.725 422.605 142.831 422.581L152.774 420.049C152.928 420.008 153.014 419.818 152.974 419.602L150.198 404.906L139.047 405.774Z" fill="#1B1B1B"/>
<path d="M107.152 390.895L96.8198 407.997L106.396 413.077L119.477 398.221L107.152 390.895Z" fill="#FDFDFD"/>
<path d="M106.396 413.606C106.312 413.606 106.228 413.587 106.148 413.544L96.5724 408.463C96.4428 408.396 96.3491 408.276 96.3107 408.137C96.2723 407.997 96.2915 407.846 96.3683 407.721L106.701 390.618C106.849 390.371 107.174 390.289 107.423 390.438L119.749 397.764C119.883 397.846 119.977 397.98 120.001 398.137C120.025 398.293 119.979 398.452 119.876 398.57L106.794 413.426C106.691 413.544 106.544 413.606 106.398 413.606H106.396ZM97.5617 407.79L106.273 412.414L118.658 398.348L107.332 391.616L97.5617 407.79Z" fill="#1B1B1B"/>
<path d="M138.273 414.792C137.594 417.232 136.16 424.106 135.56 428.242C135.183 430.836 136.82 433.291 139.327 433.971C146.413 435.89 163.353 435.808 177.455 436.431C178.421 436.474 180.202 436.001 180.992 433.659C183.677 425.712 168.854 423.25 154.202 415.172C153.914 415.013 153.564 415.027 153.297 415.22C153.129 415.34 152.913 415.487 152.661 415.648C150.113 417.271 145.875 417.273 143.287 415.715L140.364 413.955C139.562 413.472 138.528 413.885 138.273 414.794V414.792Z" fill="#FDFDFD"/>
<path d="M177.578 436.963C177.528 436.963 177.48 436.963 177.432 436.961C173.825 436.802 169.981 436.687 166.261 436.576C155.082 436.242 144.521 435.927 139.188 434.484C136.408 433.732 134.624 431.017 135.034 428.168C135.632 424.052 137.058 417.18 137.762 414.653C137.928 414.059 138.348 413.588 138.917 413.362C139.484 413.136 140.11 413.189 140.634 413.504L143.556 415.264C145.986 416.728 150.025 416.699 152.373 415.204C152.618 415.047 152.824 414.905 152.988 414.79C153.42 414.48 153.982 414.451 154.455 414.711C158.875 417.149 163.349 419.089 167.294 420.799C176.711 424.884 183.516 427.834 181.49 433.833C180.704 436.155 178.925 436.968 177.576 436.968L177.578 436.963ZM139.637 414.28C139.527 414.28 139.416 414.302 139.311 414.343C139.051 414.446 138.859 414.663 138.782 414.934C138.091 417.411 136.66 424.345 136.084 428.317C135.747 430.635 137.202 432.844 139.467 433.46C144.677 434.871 155.178 435.184 166.295 435.516C170.017 435.626 173.866 435.742 177.48 435.9C177.845 435.92 179.686 435.876 180.493 433.486C182.208 428.411 175.777 425.624 166.879 421.763C162.912 420.044 158.414 418.094 153.948 415.629C153.835 415.567 153.703 415.571 153.605 415.644C153.43 415.769 153.206 415.92 152.945 416.088C150.25 417.805 145.796 417.839 143.016 416.163L140.093 414.403C139.952 414.319 139.796 414.276 139.637 414.276V414.28Z" fill="#1B1B1B"/>
<path d="M135.132 430.117C135.118 430.189 135.108 430.239 135.106 430.261C134.729 432.855 137.19 434.449 139.543 435.555C146.526 438.837 174.718 436.957 175.808 436.883C175.83 436.883 175.846 436.883 175.868 436.883C176.219 436.887 179.799 436.887 180.829 434.659C180.956 434.382 181.035 433.993 181.083 433.627C181.163 433.031 181.122 432.425 180.99 431.838C180.882 431.36 180.414 431.062 179.943 431.182C174.708 432.521 162.436 433.396 150.279 431.619C145.796 430.963 138.636 428.953 136.753 427.825C136.239 427.518 135.584 427.816 135.466 428.407C135.368 428.9 135.25 429.501 135.13 430.114L135.132 430.117Z" fill="#FDFDFD"/>
<path d="M158.124 438.01C150.512 438.01 142.619 437.587 139.318 436.036C137.073 434.98 134.141 433.228 134.583 430.186C134.585 430.162 134.597 430.102 134.614 430.015L134.95 428.306C135.039 427.856 135.339 427.479 135.754 427.294C136.165 427.111 136.64 427.14 137.027 427.373C138.859 428.469 145.962 430.455 150.358 431.097C163.245 432.98 175.266 431.836 179.814 430.669C180.176 430.576 180.553 430.633 180.872 430.83C181.197 431.03 181.422 431.347 181.506 431.725C181.658 432.401 181.691 433.064 181.607 433.697C181.54 434.197 181.439 434.593 181.307 434.882C180.138 437.406 176.289 437.409 175.859 437.411C175.21 437.455 166.85 438.01 158.124 438.01ZM136.316 428.234C136.261 428.234 136.213 428.248 136.184 428.263C136.083 428.308 136.011 428.4 135.99 428.513L135.654 430.22C135.642 430.275 135.634 430.314 135.632 430.335C135.37 432.148 136.645 433.61 139.769 435.079C146.613 438.296 174.586 436.437 175.772 436.358C175.808 436.358 175.832 436.356 175.868 436.356C176.024 436.356 179.446 436.389 180.349 434.439C180.409 434.31 180.495 434.05 180.56 433.562C180.628 433.052 180.599 432.514 180.476 431.958C180.455 431.864 180.399 431.785 180.32 431.737C180.246 431.691 180.159 431.679 180.075 431.701C174.272 433.187 161.829 433.85 150.205 432.15C145.621 431.48 138.439 429.458 136.484 428.287C136.424 428.251 136.367 428.239 136.316 428.239V428.234Z" fill="#1B1B1B"/>
<path d="M155.206 422.122C155.048 422.122 154.889 422.05 154.786 421.913C154.608 421.679 154.654 421.347 154.887 421.17L159.163 417.909C159.396 417.731 159.728 417.777 159.905 418.01C160.083 418.243 160.038 418.575 159.805 418.753L155.528 422.013C155.432 422.086 155.319 422.122 155.209 422.122H155.206Z" fill="#1B1B1B"/>
<path d="M160.89 424.456C160.729 424.456 160.57 424.384 160.467 424.244C160.292 424.011 160.34 423.679 160.573 423.504L164.314 420.693C164.549 420.517 164.878 420.565 165.053 420.799C165.228 421.032 165.18 421.364 164.948 421.539L161.207 424.35C161.11 424.422 161 424.456 160.89 424.456Z" fill="#1B1B1B"/>
<path d="M106.324 407.159C103.627 407.875 100.753 407.413 98.4167 405.887L97.1657 405.069L88.0628 415.721C87.1072 417.793 87.8659 420.476 89.8037 421.705C92.3249 423.304 98.6928 428.545 103.02 429.938C111.181 432.563 119.326 440.098 126.345 436.396C133.363 432.693 132.897 432.417 133.248 429.88C133.599 427.343 126.642 422.347 121.939 419.063C118.975 416.992 112.401 410.746 109.546 407.993C108.691 407.168 107.469 406.853 106.324 407.159Z" fill="#FDFDFD"/>
<path d="M122.234 437.921C118.406 437.921 114.389 435.862 110.466 433.855C107.971 432.578 105.392 431.258 102.859 430.443C99.6028 429.395 95.3311 426.303 92.212 424.043C91.1195 423.252 90.1782 422.569 89.5203 422.153C87.3832 420.799 86.514 417.815 87.5825 415.5C87.6018 415.457 87.6282 415.416 87.6618 415.377L96.7646 404.726C96.9375 404.524 97.2328 404.483 97.4562 404.627L98.7072 405.445C100.914 406.887 103.642 407.327 106.192 406.649C107.51 406.298 108.936 406.669 109.916 407.614C112.641 410.239 119.297 416.572 122.246 418.63C129.413 423.639 134.117 427.481 133.776 429.955C133.752 430.13 133.731 430.296 133.711 430.453C133.421 432.799 133.133 433.415 126.594 436.868C125.182 437.613 123.723 437.923 122.236 437.923L122.234 437.921ZM88.5142 416.01C87.705 417.849 88.4013 420.191 90.087 421.258C90.7713 421.691 91.727 422.384 92.8315 423.184C95.893 425.401 100.085 428.438 103.181 429.433C105.795 430.275 108.415 431.616 110.946 432.912C116.392 435.701 121.537 438.334 126.097 435.927C132.376 432.614 132.424 432.22 132.657 430.32C132.677 430.159 132.698 429.989 132.722 429.808C133.046 427.469 124.755 421.677 121.634 419.496C118.625 417.392 111.918 411.018 109.176 408.373C108.461 407.683 107.419 407.414 106.456 407.671C103.618 408.426 100.58 407.938 98.1237 406.332L97.2617 405.769L88.5094 416.01H88.5142Z" fill="#1B1B1B"/>
<path d="M111.794 418.477C111.621 418.477 111.45 418.393 111.35 418.236C111.191 417.991 111.261 417.664 111.506 417.503L116.471 414.269C116.716 414.108 117.043 414.178 117.204 414.426C117.362 414.671 117.292 414.998 117.048 415.156L112.082 418.39C111.993 418.448 111.892 418.477 111.794 418.477Z" fill="#1B1B1B"/>
<path d="M115.326 422.182C115.153 422.182 114.983 422.098 114.882 421.941C114.723 421.696 114.793 421.369 115.038 421.211L120.004 417.977C120.248 417.816 120.575 417.888 120.736 418.133C120.894 418.378 120.825 418.705 120.58 418.864L115.614 422.098C115.525 422.155 115.424 422.184 115.326 422.184V422.182Z" fill="#1B1B1B"/>
<path d="M132.77 431.777C132.77 431.777 127.248 435.804 121.17 433.703C115.093 431.599 87.5708 415.473 87.5708 415.473L85.9764 417.389C85.3377 418.791 84.5405 421.861 86.9345 423.299C92.923 426.896 112.99 437.495 121.442 438.072C131.973 438.791 132.773 431.777 132.773 431.777H132.77Z" fill="#FDFDFD"/>
<path d="M122.894 438.654C122.419 438.654 121.922 438.637 121.403 438.601C112.874 438.019 92.6636 427.361 86.6607 423.754C84.2451 422.304 84.5237 419.301 85.4937 417.168C85.513 417.125 85.5394 417.084 85.5682 417.048L87.1626 415.132C87.3282 414.932 87.6116 414.884 87.8349 415.014C88.111 415.175 115.384 431.138 121.341 433.201C127.077 435.187 132.403 431.386 132.456 431.349C132.626 431.227 132.852 431.215 133.032 431.321C133.212 431.426 133.315 431.628 133.291 431.838C133.284 431.91 132.398 438.654 122.892 438.654H122.894ZM86.4278 417.673C86.1661 418.274 84.9103 421.47 87.2034 422.848C93.1511 426.42 113.136 436.978 121.475 437.546C128.638 438.036 131.07 434.807 131.87 432.953C129.863 434.052 125.617 435.8 120.997 434.203C115.261 432.217 91.1821 418.198 87.6884 416.156L86.4254 417.673H86.4278Z" fill="#1B1B1B"/>
<path d="M115.53 296.98C115.53 296.98 153.461 312.426 167.455 329.401C180.827 345.621 120.596 404.525 120.596 404.525C120.522 404.804 101.989 394.785 101.989 394.429L117.609 360.314C123.773 347.005 136.103 339.403 131.075 334.729C126.498 330.473 99.204 331.153 86.1488 330.699C62.9559 329.891 63.1768 296.035 63.1768 296.035L115.527 296.978L115.53 296.98Z" fill="#1B1B1B"/>
<path d="M120.574 405.06C120.55 405.06 120.529 405.06 120.505 405.056C119.902 404.976 113.484 401.521 110.751 400.04C101.461 395.003 101.461 394.823 101.461 394.431C101.461 394.354 101.478 394.279 101.509 394.209L117.129 360.094C119.724 354.492 123.429 349.851 126.409 346.124C130.931 340.464 133.176 337.404 130.717 335.117C127.219 331.864 108.902 331.604 95.5279 331.417C92.0606 331.369 88.783 331.321 86.1321 331.229C76.4098 330.89 69.2639 324.668 65.4652 313.233C62.6271 304.685 62.6487 296.121 62.6511 296.034C62.6511 295.892 62.7087 295.758 62.8096 295.659C62.9104 295.56 63.0401 295.517 63.1889 295.508L115.539 296.45C115.604 296.45 115.669 296.464 115.729 296.489C116.108 296.645 153.944 312.182 167.863 329.063C181.389 345.468 123.441 402.485 120.968 404.904C120.865 405.003 120.719 405.06 120.574 405.06ZM102.647 394.27C104.82 395.666 118.317 402.988 120.457 403.923C124.481 399.939 179.554 344.905 167.049 329.739C153.629 313.461 117.496 298.364 115.422 297.508L63.7172 296.578C63.8252 300.874 65.3428 329.445 86.1705 330.171C88.8118 330.263 92.0822 330.308 95.5447 330.359C109.844 330.561 127.641 330.811 131.437 334.343C134.732 337.406 131.589 341.342 127.238 346.788C124.296 350.471 120.635 355.057 118.094 360.541L102.65 394.272L102.647 394.27Z" fill="#FDFDFD"/>
<path d="M147.842 339.032C151.117 351.297 154.229 388.192 154.947 408.828C154.957 409.112 134.074 409.312 134.031 408.941C133.822 407.126 118.385 351.248 109.762 336.474C105.183 328.626 75.6389 330.874 69.0501 329.563C51.4543 326.065 52.6093 290.497 52.6093 290.497L134.981 323.437C142.024 324.509 145.984 332.083 147.84 339.032H147.842Z" fill="#1B1B1B"/>
<path d="M139.955 409.674C133.587 409.674 133.57 409.525 133.507 408.999C133.26 406.866 117.775 351.248 109.308 336.738C106.151 331.328 89.71 330.922 78.8327 330.652C74.3594 330.542 70.8272 330.455 68.9495 330.08C51.1208 326.536 52.0357 291.949 52.0837 290.478C52.0885 290.305 52.1774 290.146 52.3238 290.052C52.4679 289.958 52.6504 289.939 52.8089 290.004L135.126 322.922C143.263 324.206 146.906 333.475 148.354 338.895C151.646 351.219 154.772 388.535 155.478 408.809C155.497 409.355 154.962 409.395 154.489 409.432C152.782 409.561 147.451 409.648 143.069 409.667C141.892 409.672 140.86 409.677 139.957 409.677L139.955 409.674ZM134.487 408.494C136.804 408.705 151.655 408.616 154.407 408.383C153.672 388.059 150.584 351.33 147.336 339.169C145.95 333.985 142.495 325.117 134.91 323.961C134.869 323.956 134.83 323.944 134.792 323.93L53.133 291.276C53.1018 296.421 53.6109 325.954 69.1584 329.046C70.9473 329.402 74.6139 329.493 78.8616 329.597C90.6393 329.888 106.77 330.287 110.226 336.206C118.459 350.318 133.296 403.094 134.489 408.496L134.487 408.494Z" fill="#FDFDFD"/>
<path d="M47.3365 234.172C47.3365 234.172 48.0424 205.793 64.7065 200.285C66.1232 199.816 67.6072 199.585 69.0959 199.528L83.7982 198.972C88.1612 198.939 91.7749 199.994 96.4452 201.704C100.347 203.134 104.693 205.801 107.229 208.106C118.411 218.279 118.524 252.429 128.196 251.623C131.442 251.351 136.878 245.92 142.257 239.274C146.565 233.951 153.987 227.418 153.987 227.418L166.912 233.951C163.839 239.168 161.07 244.571 158.806 250.195C154.078 261.943 146.317 271.805 136.598 280.226C133.363 283.027 128.789 283.601 124.971 281.695C118.774 278.6 109.486 273.618 103.716 268.911C101.593 276.256 103.485 284.267 108.713 289.927C110.283 291.627 111.983 293.187 113.772 294.459C115.532 295.712 115.95 298.189 114.742 299.989C112.792 302.892 108.902 306.229 101.473 305.447C91.7125 304.421 63.9238 304.531 51.6514 304.637C48.3954 304.666 45.7661 301.963 45.843 298.674L47.3317 234.172H47.3365Z" fill="#FDFDFD"/>
<path d="M103.622 306.095C102.924 306.095 102.191 306.057 101.423 305.975C91.6286 304.944 63.3597 305.066 51.6612 305.167C49.966 305.16 48.35 304.516 47.147 303.294C45.9272 302.056 45.2789 300.411 45.3197 298.663L46.8084 234.161C46.8372 232.986 47.7185 205.345 64.5435 199.784C65.9313 199.324 67.4561 199.062 69.0793 199L83.7816 198.444C88.1277 198.413 91.7799 199.433 96.6303 201.207C100.441 202.604 104.845 205.22 107.589 207.716C113.071 212.702 115.943 223.313 118.479 232.675C121.096 242.346 123.564 251.475 128.158 251.098C130.825 250.874 135.688 246.558 141.854 238.941C146.142 233.644 153.572 227.088 153.646 227.023C153.807 226.879 154.04 226.85 154.234 226.948L167.16 233.481C167.289 233.546 167.388 233.664 167.429 233.806C167.47 233.945 167.45 234.096 167.376 234.224C164.058 239.86 161.419 245.149 159.306 250.398C154.849 261.47 147.329 271.641 136.953 280.631C133.555 283.574 128.763 284.18 124.743 282.172C118.392 279.001 109.75 274.334 104.023 269.833C102.299 276.776 104.213 284.271 109.109 289.57C110.754 291.349 112.428 292.85 114.087 294.03C116.065 295.439 116.56 298.245 115.189 300.289C113.35 303.025 109.89 306.098 103.625 306.098L103.622 306.095ZM66.3395 304.044C79.1906 304.044 94.7478 304.208 101.533 304.924C108.687 305.675 112.428 302.496 114.31 299.697C115.364 298.127 114.99 295.973 113.474 294.893C111.755 293.672 110.026 292.121 108.334 290.289C103.005 284.521 101.044 276.274 103.217 268.765C103.267 268.594 103.397 268.46 103.567 268.407C103.735 268.352 103.92 268.388 104.059 268.501C109.693 273.095 118.673 277.955 125.216 281.222C128.852 283.037 133.188 282.489 136.262 279.828C146.51 270.948 153.934 260.912 158.326 249.999C160.398 244.854 162.97 239.67 166.18 234.171L154.078 228.054C152.714 229.273 146.45 234.948 142.678 239.607C136.146 247.676 131.291 251.896 128.249 252.151C122.784 252.632 120.315 243.498 117.46 232.952C114.966 223.731 112.135 213.279 106.881 208.5C104.271 206.124 99.9079 203.535 96.2701 202.202C91.4221 200.426 88.0221 199.474 83.808 199.502L69.1201 200.058C67.5977 200.115 66.169 200.361 64.8772 200.789C48.7606 206.117 47.8769 233.907 47.8697 234.188L46.381 298.69C46.3474 300.149 46.8877 301.52 47.9057 302.554C48.907 303.571 50.2421 304.131 51.6564 304.112C55.2989 304.081 60.5455 304.047 66.3419 304.047L66.3395 304.044Z" fill="#1B1B1B"/>
<path d="M103.908 269.592C103.793 269.592 103.68 269.556 103.582 269.479C101.877 268.14 96.6831 263.314 93.953 259.309C93.7897 259.068 93.8497 258.739 94.0922 258.573C94.3324 258.409 94.6613 258.47 94.827 258.712C97.4899 262.622 102.566 267.337 104.232 268.645C104.463 268.825 104.504 269.157 104.324 269.388C104.22 269.52 104.064 269.592 103.908 269.592Z" fill="#1B1B1B"/>
<path d="M155.608 227.784L157.582 217.078C157.582 217.078 159.198 208.913 161.172 207.823C162.625 207.023 163.592 210.052 163.287 213.88C163.237 214.515 164.099 214.743 164.361 214.164C165.391 211.884 166.466 209.215 166.56 207.823C166.74 205.102 167.278 199.475 169.792 200.021C172.306 200.565 176.794 209.276 173.382 216.715C169.97 224.154 162.072 231.05 162.072 231.05L155.608 227.784Z" fill="#FDFDFD"/>
<path d="M162.07 231.58C161.988 231.58 161.906 231.56 161.832 231.522L155.368 228.254C155.159 228.149 155.044 227.918 155.087 227.684L157.061 216.978C157.234 216.11 158.787 208.531 160.917 207.355C161.405 207.086 161.916 207.096 162.358 207.382C163.657 208.221 164.024 211.27 163.813 213.917L163.866 213.96C165.215 210.981 165.96 208.853 166.029 207.783C166.325 203.311 167.043 200.792 168.286 199.851C168.759 199.493 169.316 199.371 169.9 199.498C171.012 199.738 172.299 201.128 173.341 203.218C175.055 206.653 176.093 212.058 173.859 216.932C170.44 224.39 162.742 231.161 162.416 231.447C162.317 231.534 162.192 231.577 162.067 231.577L162.07 231.58ZM156.199 227.49L161.986 230.413C163.378 229.146 169.924 222.982 172.899 216.492C174.976 211.96 174.001 206.908 172.395 203.694C171.401 201.705 170.313 200.674 169.677 200.537C169.393 200.474 169.153 200.527 168.923 200.7C168.267 201.195 167.415 202.84 167.083 207.856C167.004 209.067 166.248 211.263 164.838 214.379C164.615 214.872 164.096 215.122 163.573 214.987C163.049 214.852 162.713 214.376 162.756 213.835C162.992 210.9 162.444 208.704 161.782 208.274C161.702 208.223 161.611 208.183 161.424 208.286C160.142 208.993 158.703 214.117 158.096 217.18L156.194 227.49H156.199Z" fill="#1B1B1B"/>
<path d="M88.9897 203.344C89.4003 203.27 89.5011 202.714 89.1385 202.505C87.9139 201.796 86.1803 200.509 86.2883 198.954L86.0242 192.95C86.0434 192.217 86.5237 191.58 87.2176 191.368L91.5301 190.055C92.1952 189.853 92.6442 189.228 92.6298 188.526L92.4954 182.159L94.5868 180.469C94.7501 180.337 94.7789 180.096 94.6516 179.93L91.6286 175.934C90.6489 174.432 89.7508 170.897 88.8864 171.099C88.8864 171.099 71.0193 168.279 69.581 177.17C69.3601 178.529 69.6939 179.921 70.4406 181.07L71.9534 183.393C73.4733 185.725 74.2057 188.533 73.8023 191.296C73.675 192.164 71.6556 200.151 71.6556 200.151C71.6556 200.151 68.0707 201.777 65.8784 202.385C65.4054 202.517 65.3814 203.183 65.8424 203.351L69.8523 204.311C73.8599 205.256 78.0139 205.359 82.0623 204.616L88.9873 203.347L88.9897 203.344Z" fill="#FDFDFD"/>
<path d="M76.6837 205.635C74.3545 205.635 72.0326 205.363 69.7347 204.822L65.7247 203.863C65.7055 203.858 65.6863 203.85 65.6671 203.846C65.2421 203.689 64.9707 203.281 64.9876 202.829C65.0068 202.369 65.3021 201.994 65.7439 201.872C67.5544 201.369 70.3902 200.133 71.2138 199.768C71.8141 197.39 73.1899 191.882 73.2884 191.215C73.6582 188.674 73.0315 185.998 71.5187 183.678L70.006 181.355C69.1632 180.062 68.8294 178.544 69.0671 177.083C70.5367 168.004 87.3857 170.334 88.8936 170.562C89.7964 170.463 90.3487 171.798 91.0426 173.459C91.3836 174.272 91.7342 175.113 92.0776 175.642L95.079 179.607C95.3816 180.006 95.3143 180.564 94.9253 180.879L93.0356 182.408L93.1653 188.515C93.1845 189.451 92.5794 190.292 91.691 190.564L87.3785 191.877C86.9006 192.021 86.5717 192.459 86.5597 192.963L86.8238 198.931C86.8238 198.95 86.8238 198.972 86.8238 198.991C86.7325 200.294 88.4062 201.465 89.4123 202.047C89.77 202.254 89.9549 202.653 89.8829 203.064C89.8108 203.478 89.5011 203.793 89.0929 203.867L82.1679 205.137C80.3454 205.471 78.5181 205.637 76.6909 205.637L76.6837 205.635ZM66.1113 202.867L69.9772 203.793C73.9343 204.726 77.9707 204.827 81.9686 204.093L88.6991 202.86C87.2608 201.997 85.664 200.645 85.7601 198.948L85.4983 192.971C85.5224 191.973 86.1515 191.139 87.0663 190.86L91.3788 189.547C91.8158 189.415 92.1136 188.999 92.104 188.535L91.9695 182.168C91.9671 182.004 92.0391 181.848 92.1664 181.745L94.1522 180.139L91.2107 176.251C90.7929 175.611 90.4207 174.724 90.063 173.866C89.746 173.106 89.2226 171.853 88.9248 171.625C88.8864 171.627 88.848 171.625 88.8096 171.62C88.6367 171.591 71.4467 168.982 70.1068 177.251C69.9124 178.453 70.1909 179.706 70.8872 180.778L72.4 183.101C74.052 185.637 74.7363 188.573 74.3281 191.369C74.1984 192.254 72.2535 199.951 72.1695 200.278C72.131 200.434 72.0206 200.564 71.8741 200.631C71.7276 200.698 68.3156 202.24 66.1065 202.869L66.1113 202.867Z" fill="#1B1B1B"/>
<path d="M90.0772 157.267C85.952 156.883 91.0016 161.34 75.8647 156.315C69.8377 154.315 72.6711 161.566 71.1079 161.052C65.3283 159.15 65.5276 159.208 62.651 159.859C60.7469 160.292 59.3974 163.745 59.664 166.368C60.0145 169.833 63.6667 175.464 66.9011 181.388C68.5747 184.456 71.7538 184.862 75.795 180.571C76.2248 180.114 74.2463 177.233 75.3916 176.074C78.3691 173.066 79.4352 177.846 81.7931 176.483C84.0574 175.175 85.0059 174.307 87.4263 172.287C90.3557 169.842 94.9227 174.033 96.7981 168.332C97.7753 165.36 95.7247 157.794 90.0748 157.265L90.0772 157.267Z" fill="#1B1B1B"/>
<path d="M74.8182 437.731H87.7437L87.7437 332.121H74.8182L74.8182 437.731Z" fill="#FDFDFD"/>
<path d="M87.7438 438.261H74.8183C74.5254 438.261 74.29 438.025 74.29 437.732V332.122C74.29 331.829 74.5278 331.593 74.8183 331.593H87.7438C88.0367 331.593 88.2721 331.829 88.2721 332.122V437.732C88.2721 438.025 88.0343 438.261 87.7438 438.261ZM75.3466 437.203H87.2155V332.651H75.3466V437.203Z" fill="#1B1B1B"/>
<path d="M126.779 439.468H35.7822V437.328C35.7822 429.432 42.1837 423.02 50.0715 423.02H112.49C120.375 423.02 126.779 429.43 126.779 437.328V439.468Z" fill="#FDFDFD"/>
<path d="M126.779 439.997H35.7822C35.4892 439.997 35.2539 439.761 35.2539 439.468V437.33C35.2539 429.148 41.9003 422.493 50.0715 422.493H112.492C120.664 422.493 127.31 429.148 127.31 437.33V439.468C127.31 439.761 127.072 439.997 126.782 439.997H126.779ZM36.3104 438.939H126.249V437.33C126.249 429.732 120.075 423.551 112.49 423.551H50.0715C42.4838 423.551 36.3128 429.732 36.3128 437.33V438.939H36.3104Z" fill="#1B1B1B"/>
<path d="M42.6856 236.186H49.188C66.5268 236.186 81.5269 248.388 85.2319 265.509L92.8004 300.476C94.5701 308.658 101.74 314.491 110.026 314.491H123.696C130.842 314.491 136.634 320.346 136.634 327.568C136.634 334.791 130.842 340.646 123.696 340.646H101.495L101.507 340.706H62.4448C48.775 340.706 36.9468 331.084 34.027 317.586L22.0259 262.129C19.1397 248.796 29.1862 236.183 42.688 236.183L42.6856 236.186Z" fill="#FDFDFD"/>
<path d="M101.507 341.237H62.4447C48.6307 341.237 36.4616 331.339 33.5106 317.701L21.5071 262.244C20.088 255.687 21.68 248.941 25.8724 243.735C30.0073 238.602 36.135 235.659 42.6854 235.659H49.1878C57.6951 235.659 66.0296 238.628 72.6568 244.019C79.2817 249.41 83.9327 257.003 85.7504 265.401L93.3189 300.368C95.0237 308.247 102.052 313.965 110.029 313.965H123.698C131.125 313.965 137.164 320.069 137.164 327.571C137.164 335.073 131.123 341.177 123.698 341.177H101.754C101.68 341.216 101.596 341.237 101.509 341.237H101.507ZM42.6854 236.717C36.4568 236.717 30.6292 239.518 26.696 244.399C22.7053 249.354 21.1902 255.776 22.542 262.018L34.5455 317.475C37.3932 330.629 49.1278 340.177 62.4471 340.177H101.252C101.327 340.139 101.411 340.117 101.497 340.117H123.698C130.542 340.117 136.108 334.488 136.108 327.569C136.108 320.649 130.542 315.02 123.698 315.02H110.029C101.557 315.02 94.0945 308.949 92.284 300.587L84.7155 265.62C81.0897 248.871 66.1497 236.715 49.1878 236.715H42.6854V236.717Z" fill="#1B1B1B"/>
<path d="M254.321 401.562C254.321 401.562 250.736 417.96 254.7 422.646L255.929 424.654L252.095 426.293C247.223 428.375 241.575 427.447 237.642 423.915L237.111 423.439L238.043 421.367C239.7 417.681 242.552 406.238 242.276 402.341L254.318 401.562H254.321Z" fill="#FDFDFD"/>
<path d="M246.747 427.913C243.314 427.913 239.923 426.672 237.289 424.309L236.759 423.833C236.588 423.679 236.535 423.431 236.629 423.222L237.561 421.149C239.177 417.557 242.015 406.139 241.751 402.378C241.741 402.239 241.787 402.099 241.88 401.994C241.974 401.888 242.104 401.823 242.245 401.813L254.287 401.034C254.453 401.032 254.614 401.092 254.722 401.217C254.83 401.342 254.873 401.513 254.837 401.676C254.801 401.837 251.353 417.872 255.104 422.303C255.12 422.325 255.137 422.347 255.152 422.368L256.381 424.376C256.46 424.506 256.479 424.667 256.434 424.814C256.388 424.96 256.28 425.08 256.138 425.141L252.304 426.78C250.52 427.543 248.628 427.915 246.75 427.915L246.747 427.913ZM237.753 423.301L237.995 423.518C241.765 426.903 247.218 427.797 251.888 425.802L255.161 424.402L254.273 422.95C250.652 418.593 253.022 405.345 253.665 402.131L242.829 402.833C242.853 407.214 240.154 417.968 238.531 421.58L237.757 423.299L237.753 423.301Z" fill="#1B1B1B"/>
<path d="M255.715 417.03L257.874 418.951C262.179 422.779 267.342 425.494 272.917 426.859L273.981 427.119C274.387 427.218 274.716 427.513 274.862 427.908L274.936 428.107C275.765 430.336 273.781 435.893 265.706 438.703C263.61 439.432 257.999 438.888 249.664 438.881C246.048 438.879 242.321 438.869 240.163 438.864C238.042 438.86 235.941 438.287 234.184 437.087C232.22 435.748 230.44 433.5 231.18 429.867C231.907 426.306 234.77 419.331 236.318 416.708C236.619 416.201 237.269 416.085 237.74 416.436L239.344 420.375C240.429 423.041 243.152 424.755 245.974 424.32C246.151 424.294 246.329 424.258 246.509 424.217C248.319 423.801 249.88 422.644 250.975 421.13L253.78 417.242C254.236 416.609 255.132 416.511 255.713 417.028L255.715 417.03Z" fill="#FDFDFD"/>
<path d="M261.555 439.611C260.309 439.611 258.847 439.575 257.161 439.531C254.969 439.476 252.483 439.414 249.662 439.411C246.046 439.409 242.319 439.399 240.158 439.394C237.836 439.39 235.668 438.743 233.884 437.526C231.123 435.644 230.008 432.96 230.659 429.763C231.384 426.214 234.203 419.248 235.86 416.44C236.079 416.07 236.427 415.82 236.842 415.735C237.26 415.651 237.702 415.752 238.052 416.012C238.129 416.07 238.189 416.147 238.228 416.238L239.832 420.176C240.843 422.66 243.395 424.184 245.892 423.8C246.058 423.773 246.224 423.742 246.392 423.703C247.996 423.336 249.47 422.311 250.546 420.821L253.35 416.933C253.655 416.51 254.126 416.236 254.642 416.178C255.158 416.123 255.675 416.286 256.064 416.632L258.222 418.551C262.446 422.307 267.57 425.002 273.04 426.339L274.104 426.598C274.68 426.738 275.146 427.156 275.355 427.716L275.429 427.918C275.828 428.988 275.638 430.532 274.927 432.047C274.087 433.836 271.794 437.142 265.877 439.2C264.972 439.515 263.536 439.608 261.555 439.608V439.611ZM237.14 416.764C237.111 416.764 237.082 416.767 237.054 416.774C236.969 416.791 236.854 416.841 236.773 416.978C235.19 419.662 232.39 426.579 231.699 429.974C231.13 432.758 232.066 435.004 234.482 436.651C236.091 437.747 238.055 438.329 240.165 438.334C242.326 438.339 246.053 438.349 249.667 438.351C252.503 438.351 254.995 438.416 257.192 438.474C261.284 438.577 264.24 438.651 265.534 438.202C271.085 436.269 273.206 433.234 273.974 431.597C274.673 430.111 274.675 428.914 274.442 428.289L274.368 428.089C274.281 427.858 274.092 427.688 273.856 427.63L272.793 427.37C267.157 425.99 261.877 423.215 257.523 419.344L255.365 417.426C255.197 417.277 254.983 417.209 254.762 417.233C254.539 417.257 254.344 417.373 254.212 417.556L251.408 421.443C250.181 423.141 248.485 424.312 246.632 424.737C246.437 424.781 246.245 424.819 246.055 424.848C243.08 425.307 240.05 423.511 238.857 420.578L237.318 416.803C237.26 416.779 237.202 416.767 237.142 416.767L237.14 416.764Z" fill="#1B1B1B"/>
<path d="M244.199 435.532C237.43 435.532 234.09 431.954 233.946 431.795C233.749 431.579 233.764 431.245 233.98 431.048C234.196 430.85 234.53 430.867 234.727 431.081C234.76 431.117 238.182 434.748 244.999 434.457C250.072 434.238 257.588 434.33 261.617 434.402C264.016 434.455 266.266 433.801 268.134 432.538C268.754 432.12 269.224 431.704 269.529 431.3C269.704 431.067 270.036 431.021 270.269 431.197C270.502 431.372 270.547 431.706 270.37 431.937C269.995 432.435 269.44 432.93 268.722 433.416C266.672 434.801 264.194 435.51 261.596 435.46C257.579 435.387 250.087 435.299 245.042 435.515C244.756 435.527 244.473 435.534 244.199 435.534V435.532Z" fill="#1B1B1B"/>
<path d="M189.193 407.149L187.118 423.992L199.035 426.665L202.707 407.24L189.193 407.149Z" fill="#FDFDFD"/>
<path d="M199.035 427.196C198.997 427.196 198.959 427.191 198.92 427.184L187.003 424.51C186.737 424.45 186.561 424.2 186.595 423.928L188.67 407.085C188.703 406.819 188.929 406.621 189.195 406.621H189.198L202.712 406.713C202.868 406.713 203.017 406.785 203.115 406.905C203.216 407.028 203.254 407.186 203.225 407.34L199.554 426.765C199.528 426.907 199.446 427.03 199.326 427.109C199.239 427.167 199.139 427.196 199.035 427.196ZM187.702 423.579L198.618 426.029L202.07 407.766L189.661 407.682L187.704 423.579H187.702Z" fill="#1B1B1B"/>
<path d="M204.272 415.054L206.43 416.975C210.736 420.802 215.898 423.517 221.474 424.883L222.537 425.142C222.943 425.241 223.272 425.537 223.419 425.931L223.493 426.131C224.321 428.359 222.338 433.916 214.263 436.727C212.167 437.455 206.555 436.912 198.221 436.905C194.605 436.902 190.878 436.893 188.719 436.888C186.599 436.883 184.498 436.311 182.74 435.111C180.776 433.772 178.997 431.524 179.737 427.891C180.464 424.33 183.326 417.355 184.875 414.731C185.175 414.224 185.826 414.109 186.297 414.46L187.901 418.398C188.986 421.065 191.709 422.779 194.53 422.344C194.708 422.317 194.886 422.281 195.066 422.24C196.876 421.824 198.437 420.668 199.532 419.153L202.336 415.265C202.793 414.633 203.688 414.534 204.269 415.051L204.272 415.054Z" fill="#FDFDFD"/>
<path d="M210.117 437.637C208.868 437.637 207.406 437.601 205.72 437.557C203.528 437.502 201.043 437.437 198.224 437.435C194.607 437.432 190.881 437.423 188.72 437.418C186.398 437.411 184.227 436.766 182.445 435.55C179.684 433.667 178.57 430.984 179.221 427.786C179.943 424.237 182.765 417.272 184.422 414.463C184.64 414.093 184.988 413.843 185.404 413.759C185.822 413.675 186.263 413.776 186.614 414.035C186.691 414.093 186.751 414.17 186.789 414.261L188.393 418.202C189.404 420.686 191.954 422.213 194.454 421.825C194.617 421.799 194.785 421.768 194.953 421.729C196.557 421.361 198.031 420.34 199.107 418.849L201.912 414.961C202.217 414.538 202.687 414.264 203.204 414.206C203.717 414.148 204.236 414.314 204.625 414.66L206.784 416.579C211.01 420.335 216.132 423.03 221.601 424.367L222.665 424.627C223.241 424.768 223.71 425.187 223.916 425.745L223.991 425.944C224.389 427.014 224.199 428.555 223.489 430.07C222.648 431.859 220.355 435.165 214.439 437.223C213.533 437.538 212.098 437.632 210.117 437.632V437.637ZM185.699 414.79C185.67 414.79 185.641 414.793 185.613 414.797C185.529 414.814 185.413 414.865 185.329 415.004C183.747 417.688 180.947 424.605 180.256 428C179.687 430.784 180.623 433.03 183.039 434.677C184.647 435.773 186.612 436.355 188.722 436.36C190.881 436.365 194.61 436.374 198.224 436.377C201.057 436.377 203.549 436.442 205.746 436.499C209.84 436.603 212.796 436.68 214.091 436.23C219.642 434.297 221.762 431.263 222.531 429.625C223.229 428.139 223.232 426.942 222.999 426.319L222.924 426.12C222.838 425.889 222.648 425.718 222.413 425.66L221.349 425.401C215.714 424.021 210.434 421.246 206.08 417.375L203.922 415.456C203.753 415.307 203.54 415.235 203.319 415.264C203.096 415.288 202.901 415.403 202.769 415.586L199.964 419.474C198.74 421.171 197.042 422.342 195.189 422.768C194.996 422.811 194.804 422.85 194.615 422.879C191.589 423.345 188.629 421.587 187.414 418.608L185.874 414.831C185.819 414.807 185.759 414.795 185.699 414.795V414.79Z" fill="#1B1B1B"/>
<path d="M223.412 324.106C227.477 342.754 211.356 393.765 207.975 406.198C207.533 407.826 206.045 408.958 204.347 408.958H189.325C187.236 408.958 185.548 407.268 185.567 405.191C185.707 390.442 188.384 336.664 179.2 321.182C173.883 312.218 164.144 308.177 157.632 303.911C142.003 293.673 147.886 271.005 147.886 271.005L206.921 306.092C215.097 307.318 221.657 316.07 223.41 324.106H223.412Z" fill="#1B1B1B"/>
<path d="M201.022 276.869C201.022 276.869 252.555 277.331 268.804 296.717C283.408 314.142 261.757 390.851 257.223 406.205C256.753 407.797 255.286 408.886 253.619 408.886H234.259C233.85 408.886 233.521 408.557 233.521 408.153V326.873C233.521 321.752 232.518 324.498 228.191 321.723C222.123 317.833 211.118 321.136 195.953 321.249C147.792 321.607 155.548 276.206 155.548 276.206L201.024 276.872L201.022 276.869Z" fill="#1B1B1B"/>
<path d="M248.586 251.55L254.695 249.265C257.283 248.297 260.119 248.33 262.681 249.379C265.874 250.689 270.211 252.812 273.179 255.627C273.923 256.334 273.467 257.628 272.463 257.628H248.872L248.588 251.55H248.586Z" fill="#FDFDFD"/>
<path d="M272.463 258.157H248.872C248.588 258.157 248.355 257.936 248.343 257.652L248.06 251.574C248.05 251.343 248.187 251.134 248.403 251.052L254.512 248.768C257.237 247.748 260.21 247.792 262.882 248.888C266.066 250.194 270.501 252.355 273.544 255.24C274.055 255.726 274.216 256.467 273.954 257.128C273.702 257.763 273.131 258.154 272.463 258.154V258.157ZM249.376 257.099H272.463C272.792 257.099 272.927 256.846 272.97 256.738C273.051 256.534 273.054 256.238 272.816 256.012C269.889 253.24 265.581 251.141 262.479 249.869C260.054 248.874 257.355 248.835 254.879 249.761L249.133 251.908L249.376 257.096V257.099Z" fill="#1B1B1B"/>
<path d="M249.05 249.428C243.275 247.95 221.225 242.093 216.103 237.587C210.197 232.391 208.165 211.971 198.928 204.01C188.687 195.183 177.569 196.725 177.569 196.725L160.271 197.703C160.279 197.722 160.288 197.744 160.293 197.763C143.955 200.622 144.623 224.344 144.623 224.344L143.66 281.799C143.66 281.799 152.828 284.087 165.249 284.794C174.342 285.311 186.574 284.869 191.203 284.665C202.592 284.157 204.155 276.757 204.155 276.757C201.699 275.569 199.379 273.59 197.326 271.385C192.433 266.132 191.213 258.548 193.768 251.852C195.036 248.532 195.232 245.553 195.199 243.752C197.972 246.663 200.486 249.248 202.527 251.352C205.915 254.843 210.578 256.817 215.458 256.817H250.419L250.438 251.217C250.44 250.376 249.873 249.64 249.055 249.431L249.05 249.428Z" fill="#FDFDFD"/>
<path d="M175.305 285.568C171.873 285.568 168.37 285.503 165.217 285.323C152.89 284.623 143.624 282.334 143.53 282.312C143.292 282.252 143.124 282.036 143.129 281.791L144.092 224.336C144.085 224.119 143.609 200.357 159.983 197.284C160.057 197.224 160.144 197.183 160.24 197.176L177.538 196.197C177.61 196.183 188.97 194.731 199.271 203.61C204.522 208.135 207.466 216.534 210.066 223.942C212.057 229.618 213.937 234.978 216.451 237.19C220.408 240.671 235.953 245.53 249.179 248.916C250.233 249.185 250.966 250.132 250.961 251.219L250.942 256.819C250.942 257.11 250.704 257.345 250.413 257.345H215.452C210.463 257.345 205.612 255.295 202.143 251.722L201.607 251.171C199.933 249.447 197.902 247.351 195.705 245.054C195.623 246.923 195.273 249.375 194.257 252.041C191.707 258.728 193.03 266.001 197.71 271.024C199.991 273.472 202.236 275.241 204.383 276.28C204.601 276.386 204.721 276.629 204.671 276.867C204.654 276.944 202.887 284.674 191.224 285.193C188.098 285.332 181.829 285.568 175.305 285.568ZM144.195 281.382C146.104 281.824 154.508 283.654 165.277 284.267C174.632 284.796 187.467 284.301 191.179 284.135C200.539 283.719 203.009 278.504 203.521 277.032C201.379 275.919 199.168 274.142 196.937 271.748C191.981 266.427 190.574 258.73 193.27 251.664C194.488 248.476 194.701 245.607 194.668 243.761C194.663 243.542 194.793 243.345 194.994 243.261C195.196 243.177 195.426 243.227 195.578 243.386C198.113 246.045 200.471 248.478 202.368 250.433L202.904 250.984C206.174 254.354 210.748 256.288 215.455 256.288H249.887L249.904 251.214C249.904 250.616 249.501 250.091 248.917 249.942C242.441 248.283 220.91 242.523 215.752 237.985C213.029 235.591 211.193 230.354 209.068 224.293C206.513 217.01 203.617 208.753 198.582 204.413C188.655 195.858 177.747 197.236 177.639 197.251L160.54 198.22C160.492 198.253 160.439 198.277 160.379 198.287C144.675 201.035 145.139 224.098 145.146 224.329L144.19 281.382H144.195Z" fill="#1B1B1B"/>
<path d="M195.95 246.292C195.808 246.292 195.666 246.234 195.563 246.124C190.931 241.132 187.341 235.376 184.892 229.019C184.787 228.747 184.923 228.44 185.195 228.336C185.466 228.23 185.773 228.368 185.879 228.639C188.278 234.871 191.798 240.512 196.336 245.405C196.535 245.619 196.523 245.953 196.31 246.153C196.209 246.246 196.079 246.295 195.95 246.295V246.292Z" fill="#1B1B1B"/>
<path d="M187.88 166.711C187.88 166.711 188.528 172.503 191.429 175.723C191.65 175.968 191.7 176.324 191.532 176.61L190.336 178.61C190.233 178.783 190.147 178.968 190.082 179.158L188.099 185.001C187.916 185.535 187.436 185.915 186.872 185.963C185.63 186.066 182.485 185.583 182.228 186.412C181.942 187.338 182.163 194.842 182.273 198.105C182.302 198.973 181.695 199.73 180.842 199.887L174.129 201.127C171.101 201.687 167.991 201.315 165.199 200.084C164.293 199.685 163.888 198.622 164.308 197.723C165.842 194.438 169.204 186.595 168.76 181.796L165.775 173.436C165.849 169.428 169.192 166.249 173.221 166.348L187.882 166.713L187.88 166.711Z" fill="#FDFDFD"/>
<path d="M171.343 201.908C169.165 201.908 167.007 201.456 164.982 200.564C164.411 200.311 163.974 199.849 163.755 199.265C163.537 198.683 163.563 198.053 163.825 197.493C165.287 194.363 168.632 186.601 168.236 181.906L165.273 173.608C165.251 173.548 165.242 173.483 165.242 173.421C165.28 171.35 166.128 169.42 167.626 167.982C169.139 166.532 171.127 165.763 173.23 165.813L187.892 166.179C188.156 166.186 188.375 166.385 188.403 166.65C188.411 166.705 189.069 172.315 191.818 175.366C192.202 175.791 192.267 176.4 191.981 176.878L190.785 178.878C190.701 179.018 190.632 179.169 190.579 179.326L188.596 185.168C188.346 185.904 187.686 186.423 186.912 186.486C186.509 186.52 185.947 186.498 185.354 186.474C184.6 186.443 183.051 186.383 182.72 186.606C182.588 187.195 182.54 190.489 182.799 198.082C182.838 199.219 182.055 200.196 180.936 200.402L174.222 201.643C173.266 201.821 172.304 201.908 171.343 201.908ZM166.303 173.346L169.254 181.615C169.269 181.656 169.278 181.699 169.283 181.744C169.742 186.69 166.289 194.721 164.783 197.943C164.641 198.246 164.629 198.582 164.745 198.895C164.862 199.21 165.098 199.457 165.407 199.595C168.126 200.792 171.105 201.143 174.028 200.602L180.741 199.361C181.342 199.251 181.762 198.727 181.74 198.118C181.572 193.211 181.433 187.169 181.719 186.25C182.019 185.281 183.659 185.344 185.395 185.414C185.957 185.435 186.485 185.457 186.824 185.428C187.176 185.399 187.479 185.161 187.594 184.824L189.578 178.982C189.654 178.756 189.755 178.537 189.878 178.33L191.074 176.33C191.131 176.234 191.088 176.13 191.033 176.07C188.502 173.262 187.635 168.686 187.414 167.222L173.202 166.866C171.379 166.816 169.662 167.487 168.356 168.742C167.086 169.961 166.358 171.588 166.301 173.339L166.303 173.346Z" fill="#1B1B1B"/>
<path d="M189.237 164.658C189.832 165.569 189.474 166.8 188.48 167.255L187.88 167.531L176.362 173.213C176.069 173.357 175.718 173.338 175.454 173.148C174.976 172.802 174.119 172.376 173.262 172.924C172.066 173.689 171.821 177.774 174.899 178.858C175.305 179 175.528 179.431 175.365 179.827C175.187 180.255 174.923 180.825 174.563 181.445C171.847 186.12 165.139 186.398 161.904 182.063C159.52 178.87 157.337 173.617 160.024 166.437C164.238 155.175 181.452 152.752 189.237 164.661V164.658Z" fill="#1B1B1B"/>
<path d="M161.188 162.046C161.188 162.046 156.163 156.073 148.808 158.389C141.453 160.704 141.081 173.166 140.226 180.937C137.222 208.299 130.552 218.257 128.398 220.729C126.009 223.472 144.803 221.611 151.137 219.45C169.391 213.22 159.779 195.623 158.922 192.454C158.064 189.285 151.26 171.552 159.719 169.48L164.01 165.823L161.191 162.046H161.188Z" fill="#1B1B1B"/>
<path d="M158.876 170.584L158.968 170.617C159.77 170.911 160.658 170.502 160.951 169.706L163.194 163.64C163.489 162.844 163.078 161.959 162.276 161.668L162.185 161.635C161.383 161.341 160.495 161.75 160.202 162.546L157.959 168.612C157.664 169.408 158.074 170.293 158.876 170.584Z" fill="#FDFDFD"/>
<path d="M159.498 171.244C159.26 171.244 159.02 171.203 158.785 171.117L158.694 171.083C158.173 170.893 157.757 170.511 157.524 170.008C157.294 169.508 157.272 168.948 157.462 168.431L159.705 162.365C160.098 161.297 161.294 160.746 162.365 161.138L162.456 161.172C162.977 161.362 163.393 161.744 163.626 162.247C163.856 162.747 163.878 163.307 163.688 163.824L161.445 169.89C161.136 170.725 160.341 171.244 159.496 171.244H159.498ZM161.652 162.071C161.237 162.071 160.848 162.324 160.696 162.732L158.454 168.799C158.36 169.049 158.372 169.32 158.485 169.563C158.598 169.809 158.802 169.996 159.056 170.09L159.148 170.124C159.676 170.316 160.262 170.047 160.454 169.525L162.696 163.459C162.79 163.209 162.778 162.937 162.665 162.694C162.552 162.449 162.348 162.261 162.094 162.167L162.003 162.134C161.887 162.091 161.767 162.071 161.652 162.071Z" fill="#1B1B1B"/>
<path d="M179.28 437.731H192.205V332.121H179.28V437.731Z" fill="#FDFDFD"/>
<path d="M192.205 438.261H179.279C178.986 438.261 178.751 438.025 178.751 437.732V332.122C178.751 331.829 178.989 331.593 179.279 331.593H192.205C192.498 331.593 192.733 331.829 192.733 332.122V437.732C192.733 438.025 192.495 438.261 192.205 438.261ZM179.807 437.203H191.676V332.651H179.807V437.203Z" fill="#1B1B1B"/>
<path d="M231.24 439.468H140.243V437.328C140.243 429.432 146.644 423.02 154.532 423.02H216.953C224.838 423.02 231.242 429.43 231.242 437.328V439.468H231.24Z" fill="#FDFDFD"/>
<path d="M231.24 439.997H140.243C139.95 439.997 139.715 439.761 139.715 439.468V437.33C139.715 429.148 146.361 422.493 154.532 422.493H216.953C225.124 422.493 231.771 429.148 231.771 437.33V439.468C231.771 439.761 231.533 439.997 231.243 439.997H231.24ZM140.771 438.939H230.71V437.33C230.71 429.732 224.536 423.551 216.951 423.551H154.53C146.942 423.551 140.769 429.732 140.769 437.33V438.939H140.771Z" fill="#1B1B1B"/>
<path d="M147.147 236.185H153.649C170.988 236.185 185.988 248.388 189.693 265.509L197.261 300.476C199.033 308.658 206.201 314.491 214.487 314.491H228.157C235.303 314.491 241.095 320.346 241.095 327.568C241.095 334.791 235.303 340.646 228.157 340.646H205.956L205.968 340.706H166.906C153.236 340.706 141.408 331.084 138.488 317.585L126.484 262.129C123.598 248.796 133.645 236.183 147.147 236.183V236.185Z" fill="#FDFDFD"/>
<path d="M205.968 341.237H166.906C153.092 341.237 140.923 331.339 137.972 317.701L125.968 262.244C124.549 255.687 126.141 248.941 130.333 243.735C134.468 238.602 140.596 235.659 147.146 235.659H153.649C162.156 235.659 170.491 238.628 177.118 244.019C183.743 249.41 188.394 257.003 190.211 265.401L197.78 300.368C199.485 308.247 206.513 313.965 214.49 313.965H228.159C235.586 313.965 241.625 320.069 241.625 327.571C241.625 335.073 235.584 341.177 228.159 341.177H206.215C206.141 341.216 206.057 341.237 205.97 341.237H205.968ZM147.146 236.717C140.918 236.717 135.09 239.518 131.157 244.399C127.166 249.354 125.651 255.776 127.003 262.018L139.006 317.475C141.854 330.629 153.586 340.177 166.908 340.177H205.713C205.788 340.139 205.872 340.117 205.958 340.117H228.159C235.003 340.117 240.569 334.488 240.569 327.569C240.569 320.649 235.003 315.02 228.159 315.02H214.49C206.018 315.02 198.555 308.949 196.745 300.587L189.176 265.62C185.551 248.871 170.611 236.715 153.649 236.715H147.146V236.717Z" fill="#1B1B1B"/>
<path d="M462.091 226.647C468.202 226.647 472.178 219.98 469.446 214.313C468.819 213.014 468.18 211.704 467.551 210.435C462.855 200.942 449.413 203.015 447.737 213.541C447.708 213.726 447.333 213.911 447.307 214.099C446.44 220.759 451.557 226.647 458.04 226.647H462.089H462.091Z" fill="#1B1B1B"/>
<path d="M509.168 351.912L511.804 370.447L518.552 370.471L518.869 352.241L509.168 351.912Z" fill="#FDFDFD"/>
<path d="M518.552 371.001L511.807 370.974C511.545 370.974 511.322 370.779 511.286 370.52L508.65 351.985C508.628 351.831 508.676 351.672 508.779 351.557C508.885 351.441 509.027 351.374 509.19 351.381L518.891 351.713C519.179 351.722 519.407 351.963 519.402 352.251L519.085 370.481C519.08 370.77 518.845 371.001 518.557 371.001H518.552ZM512.266 369.919L518.033 369.94L518.334 352.754L509.783 352.463L512.266 369.921V369.919Z" fill="#1B1B1B"/>
<path d="M511.576 388.166C514.222 388.45 518.165 388.563 523.433 388.099C525.318 387.933 526.646 386.185 526.341 384.317C525.522 379.287 523.241 370.412 519.641 366.341L517.865 368.878L516.811 366.257C516.64 365.974 512.169 365.786 512.075 366.32L511.804 368.878L509.266 366.029L509.405 375.382C509.42 376.416 509.324 377.445 509.115 378.457L508.447 381.691C508.046 383.639 508.543 385.697 509.9 387.146C510.431 387.714 511.021 388.108 511.576 388.168V388.166Z" fill="#FDFDFD"/>
<path d="M516.703 388.944C514.484 388.944 512.762 388.828 511.521 388.694C510.87 388.624 510.176 388.215 509.516 387.508C508.075 385.97 507.482 383.755 507.931 381.584L508.599 378.35C508.801 377.376 508.894 376.381 508.88 375.388L508.74 366.035C508.738 365.814 508.873 365.614 509.077 365.535C509.283 365.455 509.516 365.511 509.663 365.674L511.406 367.631L511.552 366.261C511.646 365.715 512.249 365.605 512.474 365.561C513.003 365.463 516.835 365.266 517.265 365.982C517.279 366.006 517.291 366.03 517.301 366.057L517.992 367.773L519.21 366.035C519.303 365.903 519.452 365.819 519.613 365.811C519.774 365.799 519.932 365.867 520.038 365.989C524.634 371.19 526.648 382.911 526.862 384.231C527.033 385.277 526.759 386.354 526.111 387.189C525.462 388.023 524.528 388.535 523.479 388.626C520.85 388.857 518.595 388.941 516.703 388.941V388.944ZM509.816 367.441L509.934 375.373C509.951 376.441 509.847 377.516 509.631 378.564L508.964 381.798C508.584 383.633 509.079 385.498 510.284 386.785C510.762 387.294 511.24 387.6 511.631 387.641C513.889 387.883 517.759 388.066 523.385 387.573C524.139 387.506 524.809 387.14 525.275 386.539C525.743 385.936 525.94 385.159 525.818 384.402C525.088 379.918 522.999 371.464 519.675 367.211L518.295 369.18C518.184 369.338 517.997 369.427 517.802 369.401C517.61 369.379 517.445 369.252 517.373 369.074L516.4 366.658C515.682 366.497 513.276 366.446 512.573 366.617L512.328 368.932C512.306 369.141 512.162 369.317 511.963 369.379C511.764 369.442 511.545 369.384 511.406 369.228L509.811 367.439L509.816 367.441Z" fill="#1B1B1B"/>
<path d="M516.398 385.639C513.466 385.639 511.658 385.28 511.536 385.256C511.25 385.199 511.065 384.92 511.123 384.633C511.18 384.347 511.459 384.165 511.745 384.22C511.79 384.23 516.451 385.143 522.961 383.996C523.249 383.946 523.522 384.138 523.573 384.427C523.623 384.715 523.431 384.989 523.143 385.04C520.543 385.497 518.245 385.641 516.396 385.641L516.398 385.639Z" fill="#1B1B1B"/>
<path d="M520.365 378.526H514.244C513.951 378.526 513.716 378.291 513.716 377.997C513.716 377.704 513.954 377.469 514.244 377.469H520.365C520.658 377.469 520.893 377.704 520.893 377.997C520.893 378.291 520.655 378.526 520.365 378.526Z" fill="#1B1B1B"/>
<path d="M460.747 353.568L458.374 375.171L449.298 377.073L449.853 351.743L460.747 353.568Z" fill="#FDFDFD"/>
<path d="M449.298 377.604C449.176 377.604 449.056 377.561 448.959 377.481C448.835 377.378 448.765 377.224 448.77 377.063L449.322 351.73C449.324 351.577 449.396 351.432 449.514 351.334C449.632 351.235 449.785 351.194 449.939 351.218L460.836 353.043C461.112 353.089 461.304 353.344 461.275 353.623L458.9 375.226C458.876 375.454 458.706 375.64 458.482 375.685L449.408 377.587C449.372 377.594 449.336 377.599 449.3 377.599L449.298 377.604ZM450.367 352.365L449.843 376.419L457.892 374.731L460.168 354.005L450.367 352.363V352.365Z" fill="#1B1B1B"/>
<path d="M462.212 385.476C462.411 381.689 462.416 374.719 460.113 371.358L452.854 373.947V372.394C452.854 371.894 452.499 371.48 452.043 371.456L447.994 371.223C446.484 371.136 444.978 371.449 443.598 372.129C439.528 374.132 427.145 379.273 425.428 385.053C424.921 386.758 426.252 388.462 428.029 388.513C432.103 388.631 441.903 388.758 459.489 388.157C460.953 388.106 462.137 386.945 462.214 385.478L462.212 385.476Z" fill="#FDFDFD"/>
<path d="M436.154 389.136C432.425 389.136 429.759 389.088 428.011 389.038C426.984 389.009 426.006 388.489 425.401 387.653C424.815 386.843 424.64 385.837 424.919 384.897C426.499 379.584 436.31 374.975 441.583 372.498C442.274 372.173 442.877 371.89 443.362 371.652C444.822 370.933 446.431 370.601 448.023 370.692L452.071 370.926C452.806 370.966 453.382 371.611 453.382 372.392V373.195L459.935 370.858C460.161 370.779 460.413 370.858 460.547 371.058C462.931 374.537 462.943 381.601 462.737 385.503C462.646 387.256 461.253 388.622 459.5 388.682C449.19 389.035 441.554 389.139 436.149 389.139L436.154 389.136ZM447.506 371.736C446.248 371.736 444.988 372.032 443.83 372.601C443.34 372.842 442.73 373.13 442.032 373.457C437.275 375.691 427.375 380.341 425.932 385.2C425.747 385.823 425.865 386.491 426.256 387.035C426.669 387.607 427.337 387.961 428.04 387.982C432.309 388.105 442.068 388.22 459.467 387.626C460.667 387.585 461.62 386.65 461.683 385.448C461.875 381.808 461.885 375.338 459.894 371.998L453.031 374.446C452.871 374.503 452.69 374.479 452.549 374.378C452.41 374.28 452.326 374.119 452.326 373.945V372.392C452.326 372.176 452.186 371.993 452.013 371.981L447.965 371.748C447.814 371.738 447.66 371.736 447.506 371.736Z" fill="#1B1B1B"/>
<path d="M438.961 385.548C433.561 385.548 430.156 385.298 430.088 385.293C429.798 385.272 429.579 385.017 429.601 384.726C429.623 384.435 429.872 384.209 430.168 384.238C430.295 384.247 443.079 385.183 458.545 383.387C458.835 383.355 459.097 383.56 459.131 383.851C459.164 384.142 458.955 384.404 458.667 384.437C451.068 385.32 444.107 385.548 438.958 385.548H438.961Z" fill="#1B1B1B"/>
<path d="M441.211 379.359C441.047 379.359 440.884 379.282 440.781 379.138C440.61 378.9 440.666 378.571 440.901 378.4L447.891 373.368C448.128 373.197 448.457 373.25 448.628 373.488C448.798 373.726 448.743 374.055 448.508 374.226L441.518 379.258C441.424 379.326 441.316 379.359 441.211 379.359Z" fill="#1B1B1B"/>
<path d="M457.915 202.618C457.915 202.618 444.906 302.75 447.679 362.393L451.737 362.799C453.919 363.018 456.114 363.071 458.306 362.963L462.156 362.768C462.156 362.768 477.669 261.395 485.416 246.348C485.416 246.348 506.481 337.69 507.293 359.52C507.293 359.52 516.657 360.462 520.389 359.118C522.394 338.053 522.972 305.474 523.073 291.786C523.359 252.609 519.62 234.812 517.572 226.37C515.69 218.619 513.67 212.319 512.196 208.056L507.271 193.988L457.92 202.62L457.915 202.618Z" fill="#1B1B1B"/>
<path d="M485.19 248.343C484.938 248.343 484.717 248.163 484.669 247.908L483.461 241.171C482.94 239.279 481.386 237.819 479.42 237.413L477.396 236.995C477.11 236.934 476.925 236.656 476.985 236.369C477.045 236.083 477.324 235.901 477.609 235.958L479.633 236.377C481.991 236.865 483.855 238.613 484.493 240.938L485.713 247.72C485.764 248.009 485.574 248.283 485.286 248.336C485.255 248.341 485.223 248.343 485.192 248.343H485.19Z" fill="#FDFDFD"/>
<path d="M511.884 236.841C511.855 236.841 511.826 236.841 511.797 236.834C499.799 234.831 497.354 225.285 497.333 225.189C497.263 224.906 497.438 224.619 497.722 224.55C498.007 224.48 498.291 224.656 498.36 224.937C498.449 225.302 500.685 233.903 511.973 235.785C512.261 235.833 512.455 236.108 512.407 236.394C512.364 236.653 512.141 236.836 511.886 236.836L511.884 236.841Z" fill="#FDFDFD"/>
<path d="M457.332 228.931C457.128 228.931 456.934 228.813 456.847 228.613C456.732 228.344 456.854 228.034 457.121 227.916C463.46 225.158 463.34 219.388 463.33 219.142C463.321 218.849 463.549 218.606 463.839 218.594C464.127 218.573 464.375 218.811 464.387 219.102C464.387 219.169 464.56 225.834 457.541 228.885C457.471 228.914 457.402 228.928 457.33 228.928L457.332 228.931Z" fill="#FDFDFD"/>
<path d="M538.583 152.003C538.583 128.599 534.045 117.794 502.248 109.042C495.232 107.111 485.325 106.152 475.281 106.787C444.707 107.763 432.722 121.485 421.723 121.136C409.337 120.744 399.053 104.644 399.053 104.644C394.954 100.189 390.608 102.444 388.282 103.769C385.496 105.356 384.305 109.071 383.803 111.675C383.479 113.358 383.765 115.103 384.591 116.587C388.697 123.949 403.121 148.139 416.469 150.13C425.108 151.419 440.822 147.728 451.569 145.309C457.855 169.392 447.305 214.089 447.305 214.089C455.392 208.29 482.472 215.767 499.828 222.372C508.506 225.673 516.295 223.831 521.983 220.571C527.672 217.311 517.597 183.645 517.597 183.645C517.597 183.645 538.583 172.404 538.583 152.001V152.003Z" fill="#FDFDFD"/>
<path d="M509.048 224.625C505.895 224.625 502.726 224.043 499.64 222.87C484.191 216.991 455.85 208.616 447.614 214.522C447.434 214.649 447.196 214.654 447.011 214.531C446.829 214.409 446.74 214.185 446.79 213.969C446.896 213.526 457.096 169.735 451.185 145.939L450.287 146.141C439.515 148.572 424.76 151.905 416.389 150.654C402.815 148.63 388.264 124.264 384.127 116.844C383.234 115.243 382.934 113.372 383.282 111.574C383.832 108.72 385.102 104.969 388.019 103.307C390.087 102.132 394.925 99.3738 399.442 104.284C399.463 104.305 399.483 104.332 399.499 104.358C399.6 104.517 409.781 120.227 421.741 120.607C425.924 120.746 430.342 118.736 435.935 116.2C444.637 112.254 456.556 106.851 475.266 106.255C484.868 105.647 495.016 106.5 502.392 108.53C533.566 117.111 539.115 127.38 539.115 152.001C539.115 170.959 521.085 182.233 518.228 183.897C519.697 188.869 527.95 217.765 522.25 221.033C518.086 223.418 513.584 224.625 509.05 224.625H509.048ZM456.554 211.507C469.004 211.507 488.232 217.395 500.017 221.879C509.269 225.399 516.929 222.862 521.724 220.114C525.63 217.876 521.095 197.169 517.094 183.799C517.022 183.558 517.13 183.298 517.351 183.181C517.558 183.07 538.057 171.846 538.057 152.003C538.057 129.873 534.51 118.472 502.111 109.552C494.843 107.551 484.823 106.717 475.316 107.315C456.801 107.907 444.992 113.259 436.372 117.169C430.655 119.76 426.138 121.821 421.708 121.667C409.375 121.278 399.341 106.065 398.635 104.971C395.165 101.23 391.588 102.497 388.543 104.231C385.974 105.695 384.831 109.143 384.322 111.778C384.021 113.331 384.281 114.949 385.052 116.332C389.129 123.644 403.449 147.656 416.548 149.611C424.721 150.832 439.364 147.526 450.056 145.112L451.456 144.797C451.732 144.735 452.011 144.903 452.083 145.18C457.754 166.898 449.708 205.686 448.094 213.009C450.198 211.959 453.12 211.509 456.556 211.509L456.554 211.507Z" fill="#1B1B1B"/>
<path d="M391.419 119.985C390.031 119.985 388.641 119.401 387.349 118.269C387.13 118.076 387.106 117.742 387.301 117.521C387.493 117.302 387.827 117.278 388.048 117.473C389.383 118.644 390.751 119.113 392.12 118.865C394.296 118.471 396.461 116.287 398.558 112.38C398.695 112.123 399.016 112.024 399.273 112.164C399.53 112.301 399.626 112.623 399.489 112.88C397.232 117.088 394.817 119.452 392.307 119.906C392.012 119.959 391.717 119.985 391.421 119.985H391.419Z" fill="#1B1B1B"/>
<path d="M488.72 173.707C488.52 173.707 488.328 173.594 488.239 173.399C488.117 173.135 488.232 172.82 488.496 172.697C510.959 162.293 511.728 142.481 511.735 142.282C511.742 141.988 511.97 141.738 512.277 141.767C512.568 141.775 512.801 142.017 512.794 142.308C512.789 142.513 512.023 162.967 488.943 173.659C488.871 173.693 488.796 173.707 488.722 173.707H488.72Z" fill="#1B1B1B"/>
<path d="M493.935 190.122C493.647 190.122 493.41 189.888 493.407 189.597C493.405 189.307 493.638 189.066 493.931 189.061C508.328 188.891 517.846 183.529 517.942 183.476C518.197 183.332 518.519 183.418 518.665 183.673C518.809 183.928 518.723 184.25 518.471 184.394C518.375 184.45 508.635 189.946 493.945 190.122H493.938H493.935Z" fill="#1B1B1B"/>
<path d="M480.543 188.665C480.543 188.665 483.506 188.982 489.37 187.513C493.802 186.402 492.494 171.995 487.103 175.897C482.601 179.155 479.969 179.579 479.969 179.579L475.628 177.412C473.923 176.561 472.096 176.003 470.218 175.782C462.736 174.9 463.187 176.631 463.187 176.631C462.866 178.379 463.492 178.643 464.866 179.223L470.717 181.685C471.529 182.026 471.714 183.132 471.061 183.738C470.045 184.678 468.871 185.421 467.598 185.924C465.291 186.835 461.269 188.302 457.127 189.239C455.179 189.682 454.56 192.098 456.356 192.993L469.274 193.945C472.547 194.185 475.777 193.048 478.231 190.788L480.541 188.66L480.543 188.665Z" fill="#FDFDFD"/>
<path d="M470.125 194.512C469.829 194.512 469.532 194.502 469.236 194.478L456.318 193.523C456.251 193.519 456.184 193.499 456.121 193.47C455.173 192.997 454.659 192.083 454.779 191.083C454.916 189.946 455.811 188.998 457.01 188.727C461.212 187.774 465.327 186.255 467.404 185.433C468.617 184.954 469.726 184.255 470.701 183.353C470.881 183.187 470.96 182.942 470.917 182.696C470.874 182.456 470.728 182.266 470.514 182.175L464.662 179.713C463.291 179.136 462.295 178.715 462.655 176.613C462.645 176.407 462.715 176.14 462.929 175.892C463.726 174.976 466.129 174.769 470.281 175.26C472.204 175.486 474.084 176.053 475.864 176.94L480.039 179.025C480.654 178.876 483.074 178.162 486.794 175.471C488.309 174.375 489.454 174.649 490.148 175.075C492.165 176.308 492.902 180.436 492.427 183.555C492.05 186.027 490.984 187.657 489.497 188.029C484.484 189.287 481.566 189.256 480.731 189.212L478.589 191.186C476.265 193.326 473.222 194.514 470.122 194.514L470.125 194.512ZM456.505 192.477L469.313 193.422C472.423 193.648 475.542 192.552 477.873 190.405L480.183 188.277C480.294 188.174 480.443 188.123 480.596 188.14C480.625 188.142 483.564 188.424 489.241 187C490.292 186.736 491.073 185.421 491.38 183.391C491.851 180.309 491.015 176.842 489.594 175.974C488.974 175.596 488.261 175.709 487.411 176.325C482.861 179.619 480.164 180.083 480.051 180.1C479.941 180.119 479.83 180.1 479.732 180.052L475.391 177.885C473.719 177.051 471.957 176.52 470.154 176.308C464.684 175.661 463.805 176.481 463.711 176.599C463.711 176.64 463.711 176.683 463.704 176.724C463.459 178.056 463.704 178.159 465.068 178.732L470.92 181.194C471.465 181.422 471.851 181.915 471.955 182.507C472.06 183.11 471.858 183.714 471.417 184.122C470.346 185.113 469.126 185.885 467.791 186.411C465.217 187.428 461.298 188.832 457.24 189.751C456.359 189.95 455.895 190.624 455.826 191.201C455.763 191.73 456.008 192.187 456.503 192.468L456.505 192.477Z" fill="#1B1B1B"/>
<path d="M362.922 82.9293C363.205 82.0733 364.055 81.5708 364.903 81.756C367.275 82.2777 379.49 84.973 381.767 85.4923C384.045 86.0093 384.136 88.5507 385.433 90.8757C386.562 92.8978 390.444 100.308 394.678 105.473C395.953 107.028 396.13 109.26 395.139 111.027C394.57 112.041 393.844 113.037 392.987 113.623C390.78 115.133 389.119 116.934 384.686 106.312C384.415 105.663 383.961 105.107 383.375 104.72C382.549 104.177 381.253 103.189 379.982 101.681C379.982 101.681 372.556 110.762 370.656 92.3232C370.488 90.6834 371.216 89.0869 372.594 88.2814C372.705 88.2165 372.82 88.154 372.94 88.0891L364.041 85.2327C363.109 84.9345 362.603 83.8886 362.92 82.9293H362.922Z" fill="#FDFDFD"/>
<path d="M390.61 115.306C390.401 115.306 390.188 115.277 389.964 115.212C388.259 114.714 386.535 112.115 384.199 106.518C383.966 105.96 383.58 105.491 383.085 105.164C382.29 104.64 381.14 103.765 379.973 102.476C379.145 103.31 377.2 104.933 375.135 104.31C372.551 103.534 370.868 99.5186 370.131 92.38C369.965 90.7715 370.577 89.2254 371.723 88.2565L363.88 85.7391C363.307 85.554 362.836 85.15 362.555 84.5994C362.269 84.0368 362.219 83.366 362.418 82.7649C362.785 81.6517 363.904 80.9977 365.016 81.2405C369.389 82.2047 379.788 84.5009 381.884 84.9769C383.748 85.4001 384.348 86.9437 384.987 88.5787C385.248 89.2519 385.522 89.9492 385.897 90.62C386.022 90.8412 386.178 91.1297 386.365 91.4735C387.856 94.1977 391.35 100.579 395.086 105.14C396.493 106.857 396.7 109.328 395.6 111.288C394.879 112.572 394.102 113.507 393.285 114.063L392.995 114.265C392.255 114.779 391.496 115.308 390.61 115.308V115.306ZM379.983 101.154C380.139 101.154 380.288 101.223 380.386 101.341C381.599 102.781 382.84 103.733 383.664 104.277C384.336 104.722 384.857 105.352 385.172 106.107C387.282 111.165 388.946 113.81 390.257 114.192C390.915 114.382 391.496 114.012 392.389 113.389L392.687 113.183C393.367 112.719 394.037 111.903 394.675 110.761C395.564 109.179 395.401 107.186 394.267 105.804C390.469 101.168 386.941 94.7242 385.436 91.9736C385.251 91.6346 385.095 91.3485 384.97 91.1273C384.559 90.3916 384.274 89.6606 384 88.9562C383.339 87.2611 382.902 86.2873 381.649 86.0036C379.558 85.5275 369.161 83.2337 364.788 82.2696C364.209 82.1422 363.621 82.4956 363.422 83.0919C363.309 83.4333 363.335 83.7964 363.499 84.1138C363.65 84.4095 363.9 84.6283 364.205 84.7245L373.103 87.5809C373.305 87.6458 373.449 87.8261 373.468 88.0377C373.487 88.2493 373.377 88.4536 373.19 88.5522C373.077 88.6123 372.969 88.6724 372.866 88.7325C371.694 89.4178 371.033 90.8027 371.185 92.2646C372.04 100.574 373.97 102.846 375.437 103.289C377.445 103.897 379.555 101.365 379.577 101.341C379.678 101.221 379.824 101.149 379.983 101.149C379.983 101.149 379.983 101.149 379.985 101.149L379.983 101.154Z" fill="#1B1B1B"/>
<path d="M381.683 98.0536C381.592 98.0536 381.5 98.0295 381.416 97.9814C380.826 97.6376 379.735 96.8634 379.294 96.546C376.864 94.8004 375.505 93.0645 374.912 92.1845C374.482 91.5449 374.263 90.8284 374.282 90.1071C374.318 88.6981 375.245 88.3736 375.641 88.2365C377.149 87.7099 379.512 89.1285 379.776 89.292C380.024 89.4459 380.1 89.7729 379.949 90.0206C379.795 90.2682 379.471 90.3475 379.222 90.1937C378.388 89.6791 376.772 88.9626 375.99 89.2367C375.637 89.3593 375.356 89.4579 375.339 90.136C375.327 90.6337 375.481 91.1386 375.788 91.593C376.343 92.4129 377.613 94.0359 379.904 95.6804C380.338 95.993 381.397 96.7456 381.949 97.0678C382.201 97.2144 382.286 97.539 382.139 97.7915C382.041 97.9598 381.863 98.0536 381.683 98.0536Z" fill="#1B1B1B"/>
<path d="M380.081 102.322C379.939 102.322 379.8 102.266 379.697 102.156C377.675 100.004 377.795 97.7003 377.802 97.6041C377.822 97.3108 378.069 97.0944 378.364 97.1088C378.655 97.1281 378.876 97.3781 378.859 97.6691C378.854 97.758 378.78 99.6334 380.468 101.432C380.667 101.646 380.657 101.98 380.444 102.18C380.343 102.276 380.211 102.324 380.081 102.324V102.322Z" fill="#1B1B1B"/>
<path d="M490.701 108.498L489.894 86.6882L474.615 94.7236L474.783 108.508C474.896 111.581 477.415 113.295 477.415 113.295C480.537 115.673 484.911 115.24 488.095 112.951L488.833 112.42C490.064 111.533 490.77 110.051 490.701 108.498Z" fill="#FDFDFD"/>
<path d="M482.297 115.426C480.414 115.426 478.596 114.859 477.096 113.714C477.007 113.654 474.375 111.827 474.255 108.525L474.087 94.7292C474.087 94.5297 474.195 94.3469 474.37 94.2531L489.649 86.2177C489.81 86.1336 490.002 86.136 490.16 86.2298C490.316 86.3211 490.417 86.487 490.424 86.6674L491.231 108.475C491.311 110.216 490.528 111.851 489.142 112.849L488.405 113.378C486.513 114.738 484.366 115.424 482.299 115.424L482.297 115.426ZM475.148 95.0394L475.312 108.499C475.412 111.242 477.689 112.839 477.713 112.856C480.469 114.955 484.604 114.808 487.786 112.519L488.523 111.99C489.618 111.202 490.235 109.906 490.172 108.523C490.172 108.523 490.172 108.521 490.172 108.518L489.397 87.5474L475.148 95.0418V95.0394Z" fill="#1B1B1B"/>
<path d="M467.681 61.7079C471.76 61.4651 466.631 65.7881 481.715 61.2511C487.721 59.443 484.683 66.6657 486.244 66.2017C492.002 64.4849 491.805 64.5378 494.617 65.2976C496.478 65.8001 497.69 69.3346 497.34 71.977C496.879 75.4633 494.086 76.3649 491.613 83.7295C489.877 88.9013 490.302 92.0463 488.29 92.8012C486.256 93.5634 484.753 90.7527 482.469 91.4115C479.513 92.2675 480.099 97.5378 477.22 99.7234C475.407 101.101 471.186 101.743 464.422 98.3529C463.325 97.8047 462.763 96.5208 463.087 95.3042C463.503 93.7461 464.038 91.7818 464.701 89.9472C467.861 81.2097 470.881 79.2334 469.786 76.9684C468.11 73.5013 461.74 75.4897 460.686 72.643C459.591 69.6856 462.1 62.0397 467.685 61.7055L467.681 61.7079Z" fill="#1B1B1B"/>
<path d="M481.915 76.7502L480.748 78.9934C480.198 80.0514 479.72 81.1453 479.317 82.2706C478.56 84.3816 477.124 87.9521 476.339 89.9694C473.816 96.4564 466.072 89.3298 466.072 89.3298L465.534 87.5434L464.492 87.1058C464.29 87.0216 464.105 86.8942 463.971 86.7163C463.637 86.2739 463.635 85.6848 463.92 85.252C465.476 82.8837 468.72 77.5676 469.887 72.7974C469.887 72.7974 476.534 71.0278 481.915 76.7478V76.7502Z" fill="#FDFDFD"/>
<path d="M472.843 93.2251C469.563 93.2251 465.885 89.8782 465.714 89.7219C465.645 89.657 465.594 89.5753 465.566 89.4863L465.097 87.9403L464.286 87.5989C463.981 87.4715 463.726 87.2767 463.546 87.0387C463.088 86.4328 463.059 85.5984 463.477 84.9661C464.862 82.8599 468.207 77.4428 469.371 72.6774C469.417 72.4898 469.561 72.3407 469.748 72.2902C470.032 72.2157 476.762 70.5086 482.297 76.3897C482.451 76.5532 482.484 76.796 482.381 76.998L481.214 79.2413C480.678 80.2728 480.205 81.3523 479.812 82.4511C479.262 83.9851 478.34 86.3198 477.6 88.1976C477.312 88.9285 477.046 89.6065 476.827 90.1643C476.188 91.8089 475.17 92.8019 473.806 93.1193C473.489 93.1939 473.168 93.2275 472.839 93.2275L472.843 93.2251ZM466.536 89.0343C467.203 89.6186 470.903 92.7082 473.573 92.0854C474.592 91.8474 475.336 91.0924 475.847 89.7772C476.066 89.2194 476.332 88.539 476.621 87.8057C477.358 85.9351 478.275 83.61 478.82 82.0905C479.231 80.946 479.72 79.8231 480.28 78.7484L481.272 76.8417C476.805 72.3311 471.619 72.9923 470.32 73.2448C469.102 77.9069 466.079 82.9296 464.363 85.5456C464.192 85.8052 464.204 86.149 464.394 86.3991C464.478 86.5121 464.605 86.5818 464.699 86.6203L465.738 87.0579C465.885 87.118 465.995 87.2406 466.041 87.3921L466.538 89.0343H466.536Z" fill="#1B1B1B"/>
<path d="M480.268 84.585C480.268 84.585 483.067 79.1848 485.168 81.0241C487.272 82.8635 484.045 88.7277 480.268 84.585Z" fill="#FDFDFD"/>
<path d="M469.911 85.6882C469.273 85.6882 468.72 85.4766 468.298 85.0678C467.52 84.3153 467.198 82.9664 467.311 80.9419C467.4 79.3743 467.851 78.4318 468.694 78.0591C469.311 77.785 469.969 77.7658 470.541 78.0086C471.023 78.2106 471.393 78.576 471.556 79.0088C472.51 81.543 472.104 83.6348 471.407 84.748C471.059 85.3059 470.627 85.6353 470.19 85.6761C470.096 85.6834 470.003 85.6882 469.911 85.6882ZM469.121 79.0256C468.682 79.2204 468.428 79.884 468.365 80.9996C468.247 83.0866 468.663 83.9498 469.03 84.3056C469.292 84.5581 469.64 84.6639 470.092 84.6206C470.132 84.6134 470.344 84.4932 470.577 84.0724C471.081 83.1636 471.343 81.4517 470.565 79.3815C470.519 79.2589 470.38 79.0882 470.13 78.9848C469.827 78.8573 469.467 78.8742 469.119 79.0281L469.121 79.0256Z" fill="#1B1B1B"/>
<path d="M482.794 80.565C482.77 80.565 482.748 80.565 482.724 80.5602L469.972 78.8939C469.681 78.8555 469.477 78.591 469.515 78.3001C469.554 78.0115 469.823 77.8072 470.108 77.8432L482.861 79.5095C483.152 79.5479 483.356 79.8124 483.317 80.1033C483.281 80.3702 483.056 80.565 482.794 80.565Z" fill="#1B1B1B"/>
<path d="M464.326 84.3183C464.25 84.3183 464.173 84.3014 464.098 84.2654C463.772 84.1091 463.488 83.6523 463.253 82.9069C462.852 81.635 462.72 79.7572 463.546 78.2905C463.837 77.7736 464.274 77.4466 464.807 77.348C466.075 77.1124 467.477 78.2136 467.633 78.341C467.859 78.5262 467.892 78.858 467.71 79.084C467.525 79.31 467.193 79.3436 466.965 79.1609C466.668 78.9205 465.666 78.2617 465.001 78.3867C464.86 78.4131 464.648 78.4877 464.468 78.8099C463.515 80.5049 464.257 82.9646 464.6 83.3325C464.831 83.4719 464.924 83.7677 464.804 84.0153C464.713 84.2053 464.523 84.3159 464.326 84.3159V84.3183Z" fill="#1B1B1B"/>
<path d="M306.077 225.613C306.077 225.683 306.077 225.755 306.07 225.827C306.063 225.904 306.058 225.981 306.053 226.055H283.506C283.502 225.99 283.497 225.928 283.492 225.865C283.485 225.793 283.482 225.724 283.482 225.651L306.077 225.613Z" fill="#FDFDFD"/>
<path d="M306.054 226.054C305.994 226.85 305.936 227.65 305.879 228.446C305.852 228.8 305.828 229.151 305.799 229.507C305.746 230.235 305.696 230.959 305.641 231.687C305.631 231.836 305.619 231.983 305.61 232.132C305.494 233.707 305.381 235.284 305.266 236.857C305.249 237.083 305.235 237.306 305.218 237.532C305.163 238.258 305.113 238.985 305.06 239.711C304.899 241.911 304.74 244.106 304.58 246.306C304.395 248.847 304.212 251.384 304.027 253.923C303.95 254.981 303.35 255.883 302.49 256.38C302.13 256.589 301.727 256.729 301.297 256.777C301.182 256.791 301.067 256.799 300.949 256.799L288.722 256.818C287.879 256.818 287.109 256.481 286.547 255.928C286.03 255.418 285.689 254.728 285.632 253.952C285.437 251.413 285.248 248.876 285.051 246.337C285.008 245.748 284.962 245.157 284.916 244.568C284.722 241.995 284.527 239.425 284.33 236.854C284.213 235.291 284.093 233.729 283.975 232.168C283.879 230.937 283.785 229.711 283.694 228.485C283.632 227.677 283.572 226.864 283.507 226.054H306.054Z" fill="#1B1B1B"/>
<path d="M305.53 222.496L284.018 222.532C284.066 222.248 284.116 221.964 284.164 221.681C284.311 220.829 284.455 219.981 284.603 219.13C284.656 218.817 284.709 218.509 284.764 218.197C284.98 216.932 286.073 216.009 287.353 216.006L302.173 215.98C303.453 215.98 304.55 216.896 304.768 218.161C304.824 218.473 304.877 218.781 304.932 219.093C305.083 219.945 305.232 220.793 305.381 221.645C305.429 221.928 305.482 222.212 305.53 222.496Z" fill="#1B1B1B"/>
<path d="M308.505 225.16C308.505 225.41 308.305 225.609 308.058 225.609L306.077 225.614L283.482 225.652L281.501 225.657C281.251 225.657 281.052 225.455 281.052 225.21L281.045 221.572C281.045 221.325 281.247 221.125 281.492 221.125L308.048 221.079C308.298 221.079 308.497 221.281 308.497 221.527L308.505 225.162V225.16Z" fill="#1B1B1B"/>
<path d="M299.704 236.297C298.993 238.326 297.349 239.73 294.96 239.73C291.355 239.73 289.66 236.939 289.66 234.544C289.66 232.308 291.288 229.497 294.873 229.497C297.298 229.497 299.063 230.92 299.704 233H297.109C296.66 232.115 295.846 231.683 294.839 231.683C293.005 231.683 291.965 233.036 291.965 234.578C291.965 236.225 293.075 237.542 294.839 237.542C295.238 237.542 296.467 237.472 297.109 236.294H299.702L299.704 236.297Z" fill="#FDFDFD"/>
<path d="M305.51 229.501C302.566 229.501 300.417 231.823 300.417 234.634C300.417 237.279 302.364 239.491 305.058 239.712C305.111 238.986 305.162 238.26 305.217 237.534C303.687 237.387 302.722 236.103 302.722 234.634C302.722 233.071 303.793 231.686 305.512 231.686C305.555 231.686 305.599 231.686 305.64 231.691C305.695 230.963 305.745 230.239 305.798 229.51C305.704 229.503 305.608 229.503 305.51 229.503V229.501Z" fill="#FDFDFD"/>
<path d="M286.541 246.759V247.165H287.996V249.211H286.543V255.927C286.027 255.417 285.686 254.727 285.629 253.95C285.434 251.411 285.244 248.875 285.048 246.336C285.004 245.747 284.959 245.155 284.913 244.566C285.497 243.823 286.426 243.431 287.564 243.431H287.996V245.735H287.703C286.81 245.735 286.541 246.273 286.541 246.756V246.759Z" fill="#FDFDFD"/>
<path d="M291.78 243.431H289.478V245.737H291.78V243.431Z" fill="#FDFDFD"/>
<path d="M291.78 247.168H289.478V256.776H291.78V247.168Z" fill="#FDFDFD"/>
<path d="M302.49 256.379C302.13 256.589 301.726 256.728 301.297 256.776H299.863L297.681 253.552L295.498 256.776H292.573L296.081 251.849L292.857 247.168H295.613L297.661 250.162L299.71 247.168H302.464L299.164 251.849L302.492 256.379H302.49Z" fill="#FDFDFD"/>
<path d="M474.922 140.256C474.528 141.381 473.616 142.163 472.288 142.163C470.288 142.163 469.347 140.614 469.347 139.284C469.347 138.044 470.25 136.483 472.24 136.483C473.585 136.483 474.564 137.272 474.922 138.426H473.482C473.232 137.936 472.78 137.695 472.221 137.695C471.203 137.695 470.627 138.445 470.627 139.301C470.627 140.215 471.241 140.946 472.221 140.946C472.442 140.946 473.124 140.907 473.482 140.253H474.92L474.922 140.256Z" fill="#1B1B1B"/>
<path d="M476.596 139.333C476.596 140.198 477.201 140.948 478.145 140.948C479.088 140.948 479.691 140.198 479.691 139.333C479.691 138.467 479.095 137.695 478.145 137.695C477.194 137.695 476.596 138.465 476.596 139.333ZM480.968 139.333C480.968 140.881 479.768 142.16 478.145 142.16C476.521 142.16 475.318 140.881 475.318 139.333C475.318 137.784 476.509 136.483 478.145 136.483C479.78 136.483 480.968 137.772 480.968 139.333Z" fill="#1B1B1B"/>
<path d="M481.837 137.79H481.307V136.655H481.837V136.429C481.837 135.236 482.586 134.582 483.681 134.582H483.922V135.862H483.758C483.264 135.862 483.115 136.16 483.115 136.429V136.655H483.922V137.79H483.115V141.985H481.837V137.79Z" fill="#1B1B1B"/>
<path d="M486.021 134.582H484.743V135.862H486.021V134.582Z" fill="#1B1B1B"/>
<path d="M486.021 136.653H484.743V141.984H486.021V136.653Z" fill="#1B1B1B"/>
<path d="M490.505 141.984H492.124L490.116 139.25L491.946 136.653H490.419L489.283 138.315L488.148 136.653H486.618L488.407 139.25L486.462 141.984H488.083L489.293 140.195L490.505 141.984Z" fill="#1B1B1B"/>
</svg>
