<svg width="560" height="440" viewBox="0 0 560 440" fill="none" xmlns="http://www.w3.org/2000/svg">
<g clip-path="url(#clip0_35_103535)">
<path d="M283.434 298.529L197.465 299.068C196.907 299.068 196.725 299.585 196.725 300.084V373.232C196.725 380.235 147.879 398.431 147.405 397.506L147.345 405.247C147.342 406.689 148.607 407.966 150.224 407.966H223.4C226.744 407.966 230.048 407.216 233.076 405.949L272.706 389.26C279.84 386.256 284.342 379.804 284.342 372.765V299.542C284.342 299.046 283.992 298.526 283.436 298.526L283.434 298.529Z" fill="#1B1B1B"/>
<path d="M188.02 294.811V367.976C188.02 375.187 183.38 381.759 176.088 384.874L149.353 396.285C147.606 397.03 148.201 399.37 150.139 399.37H223.592C226.896 399.37 230.159 398.719 233.146 397.461L262.768 384.989C270.115 381.896 274.801 375.297 274.801 368.048V294.811C274.801 294.511 274.528 294.269 274.192 294.269H188.631C188.296 294.269 188.023 294.511 188.023 294.811H188.02Z" fill="#FDFDFD"/>
<path d="M223.592 399.894H150.138C148.794 399.894 148.011 399.012 147.831 398.138C147.63 397.158 148.16 396.216 149.147 395.795L175.881 384.383C182.936 381.372 187.495 374.93 187.495 367.972V294.807C187.495 294.218 188.006 293.736 188.631 293.736H274.192C274.817 293.736 275.327 294.215 275.327 294.807V368.044C275.327 375.469 270.476 382.309 262.971 385.471L233.349 397.944C230.317 399.22 226.944 399.896 223.592 399.896V399.894ZM188.549 294.819V367.972C188.549 375.354 183.739 382.177 176.296 385.354L149.561 396.765C149.024 396.995 148.763 397.428 148.866 397.924C148.96 398.38 149.389 398.837 150.138 398.837H223.592C226.805 398.837 230.036 398.19 232.94 396.968L262.561 384.496C269.676 381.501 274.273 375.042 274.273 368.042V294.805C274.273 294.819 274.245 294.79 274.192 294.79H188.631C188.585 294.79 188.559 294.807 188.549 294.817V294.819Z" fill="#1B1B1B"/>
<path d="M27.877 336.264L381.369 337.036L387.506 337.05L398.919 337.074C402.163 337.074 404.826 334.542 405.238 331.317L434.795 100.317C435.514 94.6963 431.418 89.3896 425.764 89.3896L59.5228 89.7227L27.877 336.264Z" fill="#1B1B1B"/>
<path d="M412.025 89.3397C418.4 89.3397 423.584 95.7604 422.767 102.1L392.999 331.329C392.585 334.551 389.847 336.966 386.605 336.966L383.814 337.072L22.9753 336.966C19.0873 336.966 16.0832 333.54 16.5815 329.676L46.9505 95.782C47.3649 92.5597 49.8444 89.3397 53.0856 89.3397H412.025Z" fill="#FDFDFD"/>
<path d="M383.834 337.599L22.9755 337.493C20.9752 337.493 19.0683 336.631 17.7435 335.126C16.4164 333.617 15.8007 331.605 16.057 329.606L46.4284 95.7124C46.8644 92.32 49.4756 88.8101 53.0858 88.8101H412.023C415.068 88.8101 418.072 90.238 420.264 92.7296C422.58 95.3626 423.711 98.8892 423.289 102.164L393.522 331.396C393.074 334.872 390.101 337.493 386.605 337.493L383.836 337.599H383.834ZM53.0858 89.8667C50.0937 89.8667 47.8442 92.9716 47.4753 95.849L17.1063 329.743C16.8883 331.439 17.4105 333.147 18.5389 334.429C19.6624 335.706 21.2794 336.439 22.9779 336.439L383.817 336.547L386.586 336.442C389.574 336.442 392.096 334.216 392.477 331.264L422.245 102.032C422.628 99.0545 421.591 95.8394 419.473 93.4292C417.482 91.1652 414.768 89.8667 412.025 89.8667H53.0858Z" fill="#1B1B1B"/>
<path d="M395.733 101.102C401.566 101.102 406.307 106.837 405.562 112.499L378.329 317.238C377.95 320.118 375.445 322.272 372.479 322.272L369.925 322.368L39.8047 322.272C36.2473 322.272 33.4995 319.212 33.9547 315.76L61.7388 106.854C62.1173 103.974 64.3859 101.1 67.3517 101.1H395.735L395.733 101.102Z" fill="#FDFDFD"/>
<path d="M369.944 322.896L39.8047 322.803C37.9313 322.803 36.1538 322.002 34.932 320.608C33.7462 319.254 33.2 317.462 33.4324 315.692L61.2165 106.786C61.619 103.734 64.0241 100.574 67.3516 100.574H395.733C398.584 100.574 401.379 101.896 403.403 104.203C405.492 106.587 406.47 109.635 406.084 112.567L378.851 317.307C378.439 320.438 375.698 322.8 372.479 322.8L369.947 322.894L369.944 322.896ZM67.3492 101.63C64.6374 101.63 62.5964 104.378 62.2586 106.925L34.4745 315.831C34.2804 317.299 34.7356 318.787 35.7202 319.911C36.7431 321.078 38.2284 321.746 39.7999 321.746L369.92 321.842L372.452 321.748C375.164 321.748 377.454 319.781 377.799 317.172L405.035 112.433C405.382 109.805 404.496 107.059 402.606 104.905C400.783 102.826 398.277 101.635 395.728 101.635H67.3492V101.63Z" fill="#1B1B1B"/>
<path d="M326.823 298.959L107.102 295.083C106.321 295.069 105.796 294.484 105.877 293.717L130.456 66.1171C130.554 65.2019 131.467 64.4089 132.399 64.4257L352.121 68.3021C352.902 68.3164 353.426 68.901 353.345 69.6677L328.766 297.268C328.668 298.183 327.755 298.976 326.823 298.959Z" fill="#FDFDFD"/>
<path d="M326.854 299.488H326.816L107.094 295.611C106.563 295.602 106.091 295.393 105.765 295.024C105.444 294.66 105.3 294.176 105.355 293.661L129.934 66.0609C130.063 64.8678 131.199 63.8783 132.411 63.8999L352.133 67.7763C352.665 67.7859 353.137 67.9943 353.46 68.3632C353.781 68.7274 353.927 69.2114 353.87 69.7265L329.291 297.327C329.164 298.508 328.052 299.488 326.852 299.488H326.854ZM132.373 64.9564C131.724 64.9564 131.05 65.5434 130.983 66.1759L106.405 293.776C106.381 293.997 106.433 294.188 106.558 294.33C106.685 294.473 106.881 294.555 107.114 294.56L326.835 298.436C327.494 298.424 328.174 297.854 328.244 297.217L352.823 69.6162C352.847 69.3958 352.794 69.2042 352.669 69.0652C352.542 68.9215 352.346 68.84 352.114 68.8352L132.392 64.9588H132.373V64.9564Z" fill="#1B1B1B"/>
<path d="M313.374 202.312H313.365L148.454 199.403C148.306 199.401 148.167 199.336 148.068 199.224C147.97 199.113 147.925 198.965 147.939 198.819L148.706 191.73C148.734 191.459 148.948 191.241 149.24 191.258L314.15 194.166C314.299 194.169 314.438 194.233 314.536 194.346C314.634 194.456 314.68 194.605 314.665 194.751L313.901 201.84C313.872 202.108 313.645 202.312 313.377 202.312H313.374ZM149.048 198.359L312.9 201.248L313.551 195.213L149.7 192.321L149.048 198.356V198.359Z" fill="#1B1B1B"/>
<path d="M268.795 215.504H268.785L146.947 213.355C146.799 213.353 146.66 213.288 146.562 213.176C146.463 213.066 146.418 212.917 146.432 212.771L147.199 205.682C147.228 205.409 147.453 205.203 147.733 205.21L269.571 207.359C269.719 207.361 269.858 207.426 269.956 207.538C270.055 207.649 270.1 207.797 270.086 207.943L269.319 215.032C269.29 215.301 269.063 215.504 268.795 215.504ZM147.541 212.311L268.32 214.441L268.972 208.406L148.193 206.276L147.541 212.311Z" fill="#1B1B1B"/>
<path d="M309.297 240.065H309.287L144.377 237.157C144.229 237.154 144.09 237.09 143.991 236.977C143.893 236.867 143.848 236.718 143.862 236.572L144.629 229.483C144.657 229.212 144.868 229.011 145.163 229.011L310.073 231.919C310.222 231.922 310.361 231.987 310.459 232.099C310.557 232.209 310.603 232.358 310.588 232.504L309.822 239.593C309.793 239.862 309.565 240.065 309.297 240.065ZM144.971 236.112L308.823 239.001L309.474 232.966L145.623 230.075L144.971 236.11V236.112Z" fill="#1B1B1B"/>
<path d="M264.718 253.258H264.708L142.868 251.109C142.72 251.107 142.581 251.042 142.483 250.93C142.384 250.82 142.339 250.671 142.353 250.525L143.12 243.436C143.149 243.165 143.371 242.973 143.654 242.964L265.492 245.113C265.64 245.115 265.779 245.18 265.877 245.292C265.976 245.403 266.021 245.551 266.007 245.697L265.243 252.786C265.214 253.055 264.986 253.258 264.718 253.258ZM143.465 250.065L264.244 252.195L264.895 246.16L144.116 244.03L143.465 250.065Z" fill="#1B1B1B"/>
<path d="M304.653 273.149H304.643L139.732 270.24C139.584 270.238 139.445 270.173 139.347 270.061C139.249 269.95 139.203 269.802 139.217 269.656L139.984 262.567C140.013 262.296 140.243 262.068 140.518 262.095L305.429 265.003C305.577 265.006 305.716 265.07 305.814 265.183C305.913 265.293 305.958 265.442 305.944 265.588L305.18 272.677C305.151 272.945 304.923 273.149 304.655 273.149H304.653ZM140.327 269.193L304.178 272.085L304.83 266.05L140.978 263.161L140.327 269.196V269.193Z" fill="#1B1B1B"/>
<path d="M260.073 286.341H260.063L138.226 284.192C138.077 284.189 137.938 284.125 137.84 284.012C137.742 283.902 137.696 283.753 137.711 283.607L138.477 276.518C138.506 276.247 138.748 276.032 139.011 276.046L260.849 278.195C260.998 278.197 261.137 278.262 261.235 278.375C261.333 278.485 261.378 278.633 261.364 278.78L260.598 285.869C260.569 286.137 260.341 286.341 260.073 286.341ZM138.82 283.147L259.599 285.277L260.25 279.242L139.471 277.112L138.82 283.147Z" fill="#1B1B1B"/>
<path d="M501.968 312.478L428.953 325.243L356.525 312.552C356.422 312.535 356.422 312.387 356.525 312.37L429.782 299.541L501.968 312.476V312.478Z" fill="#FDFDFD"/>
<path d="M428.955 325.771C428.924 325.771 428.895 325.769 428.864 325.764L356.436 313.073C356.138 313.021 355.923 312.764 355.923 312.462C355.923 312.16 356.138 311.904 356.436 311.851L429.693 299.022C429.755 299.012 429.815 299.012 429.877 299.022L502.064 311.957C502.315 312.002 502.5 312.22 502.497 312.477C502.497 312.733 502.313 312.951 502.061 312.997L429.046 325.761C429.017 325.766 428.986 325.769 428.955 325.769V325.771ZM359.061 312.462L428.955 324.707L498.942 312.472L429.781 300.079L359.061 312.462Z" fill="#1B1B1B"/>
<path d="M428.969 433.428V325.134L356.304 312.414V420.491L428.969 433.428Z" fill="#1B1B1B"/>
<path d="M401.482 329.901V320.09L385.362 317.836V327.594L401.482 329.901Z" fill="#FDFDFD"/>
<path d="M401.482 330.427C401.458 330.427 401.432 330.427 401.408 330.422L385.288 328.115C385.029 328.077 384.835 327.854 384.835 327.593V317.837C384.835 317.684 384.902 317.54 385.017 317.44C385.132 317.339 385.285 317.294 385.436 317.315L401.556 319.57C401.817 319.605 402.011 319.828 402.011 320.092V329.9C402.011 330.053 401.944 330.2 401.829 330.298C401.733 330.382 401.609 330.427 401.484 330.427H401.482ZM385.889 327.133L400.955 329.289V320.547L385.889 318.439V327.131V327.133Z" fill="#1B1B1B"/>
<path d="M428.969 433.429V325.135L502.269 312.43V420.427L428.969 433.429Z" fill="#FDFDFD"/>
<path d="M428.969 433.958C428.847 433.958 428.725 433.915 428.629 433.836C428.509 433.735 428.439 433.587 428.439 433.431V325.136C428.439 324.88 428.624 324.66 428.878 324.616L502.178 311.912C502.332 311.885 502.49 311.928 502.607 312.029C502.727 312.13 502.796 312.276 502.796 312.431V420.429C502.796 420.685 502.612 420.903 502.36 420.949L429.06 433.951C429.029 433.956 428.998 433.958 428.966 433.958H428.969ZM429.496 325.58V432.801L501.742 419.988V313.059L429.496 325.58Z" fill="#1B1B1B"/>
<path d="M491.118 222.877L431.868 233.236L373.183 222.953C373.082 222.937 373.082 222.791 373.183 222.774L432.539 212.381L491.118 222.879V222.877Z" fill="#FDFDFD"/>
<path d="M431.866 233.764C431.835 233.764 431.806 233.762 431.775 233.757L373.09 223.474C372.793 223.421 372.577 223.165 372.577 222.863C372.577 222.561 372.793 222.305 373.09 222.252L432.446 211.859C432.508 211.847 432.57 211.85 432.63 211.859L491.209 222.358C491.461 222.403 491.645 222.621 491.643 222.878C491.643 223.134 491.459 223.352 491.207 223.397L431.954 233.757C431.926 233.762 431.895 233.764 431.863 233.764H431.866ZM375.725 222.863L431.866 232.7L488.09 222.87L432.537 212.916L375.723 222.866L375.725 222.863Z" fill="#1B1B1B"/>
<path d="M431.878 321.03V233.147L491.363 222.838V310.479L431.878 321.03Z" fill="#FDFDFD"/>
<path d="M431.878 321.558C431.756 321.558 431.634 321.515 431.538 321.436C431.418 321.336 431.349 321.187 431.349 321.031V233.149C431.349 232.893 431.533 232.672 431.787 232.629L491.272 222.32C491.425 222.294 491.583 222.337 491.701 222.437C491.821 222.538 491.89 222.684 491.89 222.84V310.48C491.89 310.737 491.706 310.955 491.454 311L431.969 321.551C431.938 321.556 431.907 321.558 431.876 321.558H431.878ZM432.405 233.592V320.399L490.834 310.035V223.463L432.405 233.59V233.592Z" fill="#1B1B1B"/>
<path d="M431.878 321.033V233.151L372.91 222.83V310.535L431.878 321.033Z" fill="#1B1B1B"/>
<path d="M410.43 239.185V229.376L397.422 227.122V236.878L410.43 239.185Z" fill="#FDFDFD"/>
<path d="M410.43 239.711C410.398 239.711 410.367 239.709 410.336 239.704L397.326 237.397C397.074 237.354 396.89 237.133 396.89 236.877V227.119C396.89 226.963 396.959 226.815 397.077 226.717C397.196 226.616 397.354 226.575 397.505 226.599L410.516 228.854C410.77 228.897 410.954 229.117 410.954 229.373V239.182C410.954 239.338 410.885 239.486 410.765 239.587C410.669 239.668 410.549 239.709 410.425 239.709L410.43 239.711ZM397.949 236.434L409.903 238.554V229.819L397.949 227.747V236.434Z" fill="#1B1B1B"/>
<path d="M454.533 216.449L396.67 226.892L409.661 229.163L467.556 218.696L454.533 216.449Z" fill="#FDFDFD"/>
<path d="M409.661 229.691C409.63 229.691 409.601 229.689 409.57 229.684L396.579 227.413C396.327 227.367 396.143 227.149 396.143 226.895C396.143 226.639 396.325 226.418 396.576 226.375L454.439 215.932C454.499 215.92 454.562 215.92 454.624 215.932L467.646 218.179C467.898 218.222 468.082 218.44 468.085 218.697C468.085 218.953 467.903 219.174 467.651 219.219L409.757 229.689C409.726 229.694 409.694 229.696 409.663 229.696L409.661 229.691ZM399.686 226.883L409.659 228.627L464.522 218.706L454.535 216.984L399.686 226.883Z" fill="#1B1B1B"/>
<path d="M423.656 302.376V254.88L380.471 247.271V294.59L423.656 302.376Z" fill="#FDFDFD"/>
<path d="M423.656 302.903C423.625 302.903 423.594 302.9 423.562 302.895L380.377 295.109C380.125 295.063 379.943 294.845 379.943 294.589V247.27C379.943 247.114 380.013 246.966 380.133 246.865C380.252 246.764 380.408 246.721 380.564 246.75L423.749 254.359C424.001 254.402 424.185 254.623 424.185 254.879V302.375C424.185 302.531 424.116 302.68 423.996 302.78C423.9 302.859 423.78 302.903 423.658 302.903H423.656ZM380.997 294.148L423.129 301.743V255.32L380.997 247.898V294.148Z" fill="#1B1B1B"/>
<path d="M385.722 282.61V289.917L418.405 295.521V288.374L385.722 282.61Z" fill="#1B1B1B"/>
<path d="M416.829 266.609L410.083 256.848L403.373 264.225L406.818 264.831V282.145L413.346 283.264V265.983L416.829 266.609Z" fill="#1B1B1B"/>
<path d="M400.754 263.884L394.008 254.123L387.301 261.5L390.746 262.108V279.42L397.271 280.542V263.258L400.754 263.884Z" fill="#1B1B1B"/>
<path d="M304.329 365.494L348.988 373.302L393.148 365.566C393.237 365.549 393.237 365.42 393.148 365.405L348.482 357.583L304.331 365.494H304.329Z" fill="#FDFDFD"/>
<path d="M348.978 439.474V373.237L304.145 365.468V431.522L348.978 439.474Z" fill="#1B1B1B"/>
<path d="M348.979 439.472V373.235L393.424 365.454V431.558L348.979 439.472Z" fill="#FDFDFD"/>
<path d="M348.979 440C348.856 440 348.734 439.957 348.638 439.878C348.519 439.778 348.449 439.629 348.449 439.473V373.237C348.449 372.981 348.634 372.76 348.885 372.717L393.328 364.935C393.482 364.909 393.64 364.952 393.76 365.05C393.879 365.151 393.946 365.3 393.946 365.455V431.56C393.946 431.816 393.762 432.034 393.51 432.08L349.067 439.993C349.036 439.998 349.005 440 348.976 440H348.979ZM349.506 373.68V438.843L392.895 431.117V366.083L349.506 373.678V373.68Z" fill="#1B1B1B"/>
<path d="M334.003 360.416L378.116 368.179L366.04 370.45L321.93 362.69L334.003 360.416Z" fill="#FDFDFD"/>
<path d="M366.04 370.977C366.008 370.977 365.977 370.975 365.948 370.97L321.838 363.21C321.587 363.165 321.402 362.949 321.402 362.693C321.402 362.439 321.582 362.218 321.834 362.171L333.907 359.899C333.97 359.887 334.034 359.887 334.097 359.899L378.209 367.659C378.461 367.702 378.645 367.92 378.645 368.177C378.645 368.431 378.465 368.651 378.214 368.699L366.138 370.97C366.107 370.977 366.073 370.98 366.04 370.98V370.977ZM324.876 362.671L366.037 369.914L375.169 368.196L334.006 360.953L324.876 362.671Z" fill="#1B1B1B"/>
<path d="M348.987 373.828C348.956 373.828 348.928 373.826 348.896 373.821L304.238 366.013C303.986 365.97 303.802 365.75 303.802 365.493C303.802 365.237 303.984 365.019 304.235 364.973L348.386 357.063C348.448 357.051 348.508 357.051 348.571 357.063L393.237 364.885C393.526 364.935 393.74 365.187 393.74 365.484C393.74 365.781 393.529 366.032 393.237 366.085L349.076 373.823C349.045 373.828 349.016 373.831 348.985 373.831L348.987 373.828ZM307.357 365.486L348.987 372.765L390.549 365.484L348.482 358.117L307.357 365.486Z" fill="#1B1B1B"/>
<path d="M348.979 440C348.856 440 348.734 439.957 348.638 439.878C348.519 439.777 348.449 439.628 348.449 439.473V373.236C348.449 372.98 348.634 372.759 348.885 372.716L393.328 364.935C393.482 364.908 393.64 364.952 393.76 365.05C393.879 365.15 393.946 365.299 393.946 365.455V431.559C393.946 431.816 393.762 432.034 393.51 432.079L349.067 439.993C349.036 439.997 349.005 440 348.976 440H348.979ZM349.506 373.679V438.843L392.895 431.116V366.082L349.506 373.677V373.679Z" fill="#1B1B1B"/>
<path d="M348.978 439.999C348.947 439.999 348.916 439.996 348.885 439.992L304.051 432.04C303.8 431.994 303.615 431.776 303.615 431.52V365.466C303.615 365.31 303.685 365.161 303.804 365.063C303.924 364.963 304.08 364.919 304.233 364.946L349.067 372.715C349.321 372.759 349.505 372.979 349.505 373.235V439.472C349.505 439.627 349.436 439.776 349.316 439.877C349.22 439.956 349.1 439.999 348.976 439.999H348.978ZM304.672 431.077L348.449 438.842V373.678L304.672 366.091V431.077Z" fill="#1B1B1B"/>
<path d="M459.12 83.1209L490.014 88.521L520.562 83.1688C520.625 83.1568 520.625 83.0682 520.562 83.0562L489.664 77.6465L459.123 83.1209H459.12Z" fill="#FDFDFD"/>
<path d="M490.007 134.3V88.4802L458.993 83.104V128.799L490.007 134.3Z" fill="#1B1B1B"/>
<path d="M490.007 134.3V88.48L520.752 83.0967V128.825L490.007 134.3Z" fill="#FDFDFD"/>
<path d="M479.649 79.6104L510.164 84.9793L501.811 86.5486L471.298 81.182L479.649 79.6104Z" fill="#1B1B1B"/>
<path d="M490.012 88.9321C489.988 88.9321 489.964 88.9321 489.942 88.9273L459.051 83.5272C458.855 83.4937 458.713 83.3236 458.711 83.1247C458.711 82.9259 458.852 82.7558 459.049 82.7198L489.59 77.2455C489.638 77.2359 489.686 77.2359 489.734 77.2455L520.632 82.6552C520.855 82.6935 521.018 82.8876 521.018 83.1152C521.018 83.3428 520.855 83.5368 520.632 83.5751L490.086 88.9273C490.062 88.9321 490.038 88.9321 490.014 88.9321H490.012ZM461.468 83.1176L490.012 88.108L518.505 83.1152L489.662 78.0648L461.468 83.1176Z" fill="#1B1B1B"/>
<path d="M490.007 134.709C489.911 134.709 489.818 134.675 489.744 134.613C489.65 134.534 489.598 134.422 489.598 134.299V88.4798C489.598 88.281 489.741 88.1109 489.935 88.0773L520.681 82.694C520.8 82.6748 520.923 82.7059 521.016 82.785C521.109 82.8641 521.162 82.9767 521.162 83.0989V128.827C521.162 129.026 521.021 129.196 520.824 129.23L490.079 134.704C490.055 134.709 490.031 134.711 490.007 134.711V134.709ZM490.417 88.8224V133.811L520.343 128.482V83.5852L490.417 88.8248V88.8224Z" fill="#1B1B1B"/>
<path d="M490.007 134.708C489.983 134.708 489.959 134.708 489.935 134.701L458.922 129.2C458.725 129.166 458.584 128.996 458.584 128.797V83.1025C458.584 82.9827 458.637 82.8677 458.73 82.7887C458.824 82.7096 458.946 82.6785 459.063 82.6976L490.076 88.0738C490.273 88.1073 490.417 88.2774 490.417 88.4763V134.296C490.417 134.418 490.364 134.531 490.271 134.61C490.196 134.672 490.103 134.705 490.007 134.705V134.708ZM459.403 128.455L489.597 133.812V88.8261L459.403 83.5937V128.457V128.455Z" fill="#1B1B1B"/>
<path d="M543.22 34.6467C533.18 12.0376 508.441 -2.42338 481.227 0.33657C454.006 3.09652 432.675 22.2509 427.386 46.4244L427.429 46.4005C432.982 39.9294 440.528 40.6482 448.093 44.2371L448.28 44.285C455.287 36.1513 464.733 37.7517 471.206 41.9323L471.292 41.9515L472.085 42.2725C481.5 36.4268 489.633 34.3089 499.371 39.1053C505.176 34.3424 513.608 31.6927 522.294 36.7646L522.345 36.7766L522.46 36.7191C527.268 31.9706 535.724 30.732 543.076 34.6084L543.222 34.6467H543.22Z" fill="#1B1B1B"/>
<path d="M477.657 1.42969C458.435 7.27063 451.998 23.3536 448.354 43.8664C454.818 37.6852 462.493 36.1519 472.066 42.0503C470.813 25.7158 474.222 12.5821 477.657 1.42969Z" fill="#FDFDFD"/>
<path d="M448.354 44.2731C448.287 44.2731 448.222 44.2563 448.16 44.2252C448.004 44.1413 447.921 43.9664 447.952 43.7915C451.246 25.2529 457.11 7.24371 477.54 1.03621C477.686 0.990689 477.842 1.03142 477.949 1.13923C478.057 1.24704 478.096 1.40516 478.05 1.54891C474.689 12.4641 471.208 25.4925 472.475 42.0162C472.487 42.1696 472.411 42.3181 472.281 42.3972C472.15 42.4762 471.984 42.4762 471.853 42.3972C463.106 37.0066 455.512 37.584 448.637 44.1605C448.558 44.2347 448.457 44.2731 448.354 44.2731ZM477.037 2.05203C458.052 8.20202 452.221 25.1115 448.972 42.7422C455.733 36.8174 463.152 36.343 471.601 41.2927C470.516 25.3703 473.781 12.7133 477.037 2.05442V2.05203Z" fill="#1B1B1B"/>
<path d="M485.902 0.60614C508.28 3.44036 516.566 18.0715 521.843 36.5095C515.89 33.1913 507.86 34.4946 499.368 39.1065C496.603 23.5075 492.569 10.5056 485.902 0.60614Z" fill="#FDFDFD"/>
<path d="M499.368 39.5153C499.309 39.5153 499.246 39.5009 499.191 39.4746C499.071 39.4171 498.988 39.3069 498.966 39.1775C495.938 22.0979 491.681 9.91527 485.563 0.835222C485.472 0.701058 485.469 0.528561 485.553 0.392001C485.637 0.255441 485.795 0.183567 485.953 0.200337C509.593 3.19508 517.362 19.3667 522.234 36.396C522.28 36.5565 522.225 36.7266 522.095 36.8296C521.966 36.9326 521.786 36.947 521.643 36.8655C516.061 33.7534 508.424 34.6518 499.563 39.465C499.503 39.4985 499.433 39.5153 499.366 39.5153H499.368ZM486.741 1.1323C492.591 10.1237 496.714 22.0356 499.67 38.4779C508.144 33.993 515.546 33.0443 521.183 35.7108C516.43 19.5056 508.8 4.29954 486.739 1.1323H486.741Z" fill="#1B1B1B"/>
<path d="M488.955 83.956C488.88 83.956 488.806 83.9369 488.739 83.8961L427.788 46.299C427.596 46.1792 427.536 45.9276 427.654 45.736C427.774 45.5443 428.025 45.4844 428.217 45.6018L488.902 83.0336L542.082 33.4839C542.247 33.3305 542.506 33.3377 542.662 33.5054C542.815 33.6707 542.808 33.9295 542.64 34.0852L489.23 83.8482C489.151 83.9201 489.053 83.9584 488.95 83.9584L488.955 83.956Z" fill="#1B1B1B"/>
<path d="M488.955 83.957C488.85 83.957 488.747 83.9163 488.666 83.8372L448.154 43.5639C447.993 43.4058 447.993 43.1447 448.154 42.9842C448.314 42.8236 448.573 42.8236 448.733 42.9842L487.851 81.8703L471.424 40.5069C471.341 40.2961 471.444 40.0589 471.654 39.975C471.865 39.8912 472.102 39.9942 472.186 40.205L489.341 83.3988C489.413 83.5785 489.348 83.7845 489.185 83.8923C489.116 83.9378 489.037 83.9594 488.96 83.9594L488.955 83.957Z" fill="#1B1B1B"/>
<path d="M488.955 83.956C488.898 83.956 488.843 83.9441 488.788 83.9201C488.608 83.841 488.512 83.6446 488.555 83.4529L498.969 39.011C499.022 38.7906 499.242 38.6564 499.46 38.7067C499.68 38.7594 499.817 38.9798 499.764 39.1979L489.837 81.5674L522.561 34.7656C522.69 34.5812 522.946 34.5356 523.131 34.665C523.315 34.7944 523.361 35.0507 523.231 35.2352L489.288 83.7812C489.209 83.8938 489.082 83.956 488.953 83.956H488.955Z" fill="#1B1B1B"/>
<path d="M64.2061 404.021L65.4302 415.775L73.3261 416.707V402.768L64.2061 404.021Z" fill="#FDFDFD"/>
<path d="M73.3256 417.234C73.304 417.234 73.2849 417.234 73.2633 417.23L65.3674 416.298C65.1231 416.269 64.929 416.075 64.9051 415.828L63.6785 404.072C63.6498 403.789 63.8486 403.533 64.1313 403.494L73.2537 402.244C73.4047 402.222 73.558 402.268 73.673 402.368C73.788 402.469 73.8526 402.613 73.8526 402.766V416.705C73.8526 416.856 73.788 417 73.6754 417.1C73.5795 417.186 73.4526 417.234 73.3256 417.234ZM65.9112 415.301L72.7986 416.113V403.372L64.7829 404.472L65.9112 415.299V415.301Z" fill="#1B1B1B"/>
<path d="M74.5691 437.173C71.2776 437.64 65.8803 438.05 59.5439 437.166C57.4718 436.876 56.0967 434.849 56.5974 432.806C57.9916 427.099 60.3944 416.272 64.5196 411.253L65.5449 413.975L66.9607 411.414C67.1548 411.064 67.5021 410.827 67.8974 410.776L70.9973 410.381C71.6441 410.3 72.2478 410.731 72.382 411.373L72.8754 413.733L74.7656 410.637L75.604 422.197C75.7837 424.674 76.155 427.133 76.7156 429.55L77.5612 433.196C77.8128 435.125 76.4832 436.903 74.5691 437.176V437.173Z" fill="#FDFDFD"/>
<path d="M67.1066 438.215C64.7949 438.215 62.2196 438.071 59.4719 437.688C58.3388 437.53 57.3182 436.895 56.6738 435.944C56.027 434.99 55.8114 433.8 56.0845 432.678L56.3839 431.442C57.8069 425.549 60.1929 415.685 64.1121 410.915C64.2319 410.769 64.4188 410.695 64.6056 410.731C64.7925 410.762 64.9458 410.889 65.0129 411.066L65.6357 412.717L66.4982 411.155C66.7736 410.659 67.2719 410.318 67.8301 410.247L70.93 409.851C71.8427 409.739 72.7075 410.354 72.8968 411.258L73.1172 412.314L74.3126 410.357C74.4324 410.16 74.6647 410.065 74.8875 410.12C75.1103 410.175 75.2732 410.366 75.29 410.594L76.1285 422.154C76.3057 424.595 76.677 427.041 77.228 429.427L78.0737 433.074C78.3731 435.333 76.828 437.384 74.6432 437.693C72.7051 437.968 70.1275 438.213 67.1042 438.213L67.1066 438.215ZM64.3637 412.329C60.926 417.151 58.7436 426.183 57.4117 431.691L57.1122 432.93C56.9086 433.761 57.0691 434.645 57.5482 435.352C58.0249 436.056 58.7795 436.526 59.618 436.643C65.8394 437.511 71.1432 437.127 74.497 436.651C76.1141 436.423 77.2544 434.902 77.0388 433.263L76.2027 429.667C75.6374 427.23 75.2588 424.729 75.0792 422.233L74.3581 412.314L73.3256 414.006C73.213 414.19 72.9974 414.288 72.7866 414.25C72.5734 414.214 72.4033 414.049 72.3602 413.838L71.8667 411.478C71.7876 411.102 71.4403 410.85 71.0666 410.903L67.9667 411.298C67.7391 411.327 67.5354 411.466 67.4229 411.67L66.0071 414.231C65.9064 414.41 65.7148 414.516 65.5064 414.502C65.3004 414.487 65.1231 414.353 65.0512 414.161L64.3613 412.331L64.3637 412.329Z" fill="#1B1B1B"/>
<path d="M67.351 434.72C65.3914 434.72 63.0605 434.517 60.4397 433.915C60.1547 433.851 59.9774 433.568 60.0445 433.283C60.1091 432.998 60.3918 432.818 60.6769 432.888C68.3548 434.649 73.5604 432.833 73.6131 432.813C73.8862 432.713 74.1881 432.856 74.2887 433.13C74.3869 433.403 74.2456 433.705 73.9725 433.805C73.8239 433.86 71.3756 434.72 67.3534 434.72H67.351Z" fill="#1B1B1B"/>
<path d="M63.5371 425.689C63.2544 425.689 63.0196 425.464 63.0101 425.179C63.0005 424.887 63.2281 424.645 63.5203 424.635L70.9203 424.388C71.215 424.355 71.4545 424.606 71.4641 424.899C71.4737 425.191 71.2461 425.433 70.9539 425.442L63.5539 425.689C63.5539 425.689 63.5419 425.689 63.5347 425.689H63.5371Z" fill="#1B1B1B"/>
<path d="M101.187 397.76L102.37 414.914H111.871L112.314 397.76H101.187Z" fill="#FDFDFD"/>
<path d="M111.871 415.442H102.37C102.092 415.442 101.862 415.226 101.843 414.951L100.659 397.797C100.65 397.651 100.7 397.507 100.801 397.402C100.901 397.294 101.04 397.234 101.186 397.234H112.312C112.453 397.234 112.589 397.292 112.69 397.392C112.791 397.495 112.843 397.632 112.841 397.773L112.4 414.927C112.393 415.212 112.158 415.442 111.873 415.442H111.871ZM102.863 414.388H111.358L111.773 398.288H101.754L102.866 414.388H102.863Z" fill="#1B1B1B"/>
<path d="M99.8881 424.598C99.8641 426.22 100.966 427.646 102.535 428.015C107.997 429.294 120.301 432.142 123.81 432.67C128.365 433.352 133.963 431.948 136.371 429.265C138.778 426.584 130.981 420.178 127.282 417.849C121.786 414.387 116.504 407.547 114.29 407.238C112.077 406.932 107.942 413.398 107.942 413.398L101.186 410.542C101.186 410.542 100.008 416.371 99.8881 424.601V424.598Z" fill="#FDFDFD"/>
<path d="M126.192 433.368C125.36 433.368 124.536 433.311 123.734 433.191C120.181 432.659 107.642 429.753 102.415 428.529C100.619 428.107 99.3321 426.452 99.3608 424.592C99.483 416.408 100.659 410.496 100.671 410.438C100.702 410.282 100.803 410.151 100.942 410.076C101.081 410.002 101.246 409.995 101.395 410.057L107.743 412.743C108.838 411.087 112.146 406.413 114.364 406.72C115.644 406.897 117.445 408.62 119.939 411.001C122.251 413.208 124.869 415.709 127.564 417.408C130.544 419.283 136.85 424.255 137.324 427.64C137.432 428.421 137.245 429.087 136.766 429.621C134.72 431.902 130.391 433.373 126.194 433.373L126.192 433.368ZM100.415 424.607C100.396 425.975 101.337 427.192 102.655 427.501C107.868 428.723 120.373 431.622 123.889 432.149C128.429 432.829 133.74 431.409 135.978 428.915C136.243 428.62 136.339 428.248 136.275 427.784C135.91 425.175 130.652 420.599 126.999 418.299C124.213 416.543 121.554 414.003 119.206 411.763C117.124 409.775 115.157 407.896 114.216 407.764C112.92 407.592 110.026 411.119 108.385 413.684C108.246 413.902 107.971 413.986 107.736 413.886L101.586 411.286C101.287 413.009 100.511 418.071 100.415 424.609V424.607Z" fill="#1B1B1B"/>
<path d="M126.122 429.165C117.842 429.165 107.146 425.379 103.246 423.882C102.973 423.777 102.839 423.472 102.942 423.199C103.047 422.928 103.352 422.792 103.625 422.895C107.314 424.311 126.076 431.139 133.11 426.529C133.354 426.369 133.68 426.438 133.84 426.68C134.001 426.925 133.931 427.25 133.689 427.411C131.766 428.674 129.099 429.162 126.124 429.162L126.122 429.165Z" fill="#1B1B1B"/>
<path d="M115.569 419.829C115.432 419.829 115.296 419.776 115.193 419.671C114.989 419.462 114.992 419.129 115.2 418.926L119.136 415.071C119.345 414.867 119.677 414.872 119.881 415.078C120.085 415.286 120.08 415.619 119.874 415.823L115.938 419.678C115.835 419.778 115.703 419.829 115.569 419.829Z" fill="#1B1B1B"/>
<path d="M61.5107 285.927C61.5107 285.927 58.5665 339.555 57.0261 358.067C55.4858 376.579 60.6291 406.338 60.6291 406.338L75.295 405.561C75.295 405.561 76.3011 369.38 77.3887 359.332C77.3887 359.332 83.5837 345.712 85.4188 333.563C87.2538 321.414 93.5087 302.226 93.5087 302.226C93.5087 302.226 98.5873 397.998 99.076 405.523C99.076 405.523 110.575 406.038 114.698 403.427C114.698 403.427 122.004 368.506 120.955 349.505C119.906 330.504 121.058 283.299 121.058 283.299L61.5083 285.927H61.5107Z" fill="#FDFDFD"/>
<path d="M60.6289 406.866C60.375 406.866 60.1522 406.682 60.109 406.428C60.0563 406.131 54.9729 376.392 56.5013 358.023C58.0225 339.729 60.9547 286.434 60.9858 285.898C61.0002 285.627 61.2182 285.411 61.4889 285.399L121.039 282.771C121.19 282.759 121.326 282.819 121.432 282.922C121.537 283.025 121.594 283.166 121.59 283.313C121.578 283.785 120.449 330.716 121.487 349.477C122.526 368.327 115.294 403.186 115.22 403.536C115.191 403.675 115.107 403.797 114.985 403.874C110.769 406.543 99.5334 406.071 99.0567 406.051C98.7884 406.039 98.5703 405.826 98.5536 405.558C98.1176 398.859 93.9948 321.252 93.1395 305.16C91.3548 310.917 87.3398 324.405 85.9432 333.643C84.1896 345.246 78.4138 358.337 77.9059 359.472C76.8351 369.499 75.8337 405.215 75.8242 405.577C75.817 405.853 75.599 406.075 75.3235 406.09L60.6576 406.866C60.6576 406.866 60.6385 406.866 60.6289 406.866ZM62.0112 286.434C61.7141 291.811 58.9975 340.733 57.5506 358.112C56.1372 375.093 60.4325 401.943 61.0697 405.786L74.7797 405.06C74.9043 400.709 75.8529 368.593 76.8638 359.276C76.871 359.221 76.8854 359.166 76.907 359.113C76.9693 358.977 83.0924 345.416 84.8963 333.483C86.7169 321.432 92.9431 302.254 93.0054 302.062C93.0844 301.82 93.3288 301.667 93.5755 301.703C93.8271 301.736 94.0187 301.945 94.0331 302.199C94.0834 303.14 98.9393 394.712 99.5717 405.012C101.723 405.069 110.623 405.177 114.228 403.095C114.848 400.067 121.417 367.458 120.428 349.535C119.45 331.854 120.392 289.261 120.516 283.852L62.0088 286.434H62.0112Z" fill="#1B1B1B"/>
<path d="M74.6889 359.854H70.2067C69.9145 359.854 69.6797 359.617 69.6797 359.327C69.6797 359.037 69.9169 358.8 70.2067 358.8H74.6889C74.9811 358.8 75.2159 359.037 75.2159 359.327C75.2159 359.617 74.9787 359.854 74.6889 359.854Z" fill="#1B1B1B"/>
<path d="M106.62 387.712H106.61C106.318 387.707 106.088 387.465 106.093 387.175C106.256 378.303 115.917 362.414 116.329 361.741C116.48 361.494 116.806 361.413 117.055 361.566C117.304 361.717 117.383 362.043 117.23 362.292C117.132 362.455 107.305 378.608 107.149 387.194C107.145 387.482 106.91 387.712 106.622 387.712H106.62Z" fill="#1B1B1B"/>
<path d="M130.1 201.09C130.912 201.025 137.672 212.631 140.849 218.17C141.752 219.746 143.767 220.256 145.307 219.305L170.156 203.963C172.186 202.71 173.927 201.033 175.238 199.034C177.312 195.872 178.548 192.657 181.325 190.41C183.584 188.582 185.872 186.552 186.557 186.02C186.986 185.687 188.979 187.106 187.477 189.626C187.014 190.4 185.292 191.969 184.82 192.681C184.068 193.816 184.068 195.331 184.904 196.404C185.795 197.549 186.54 199.387 185.539 201.941C184.058 205.721 180.702 206.655 178.802 206.876C177.849 206.986 176.97 207.448 176.337 208.174L153.406 234.454C149.849 238.531 143.901 239.451 139.292 236.636C131.837 232.082 122.237 222.904 115.321 211.301L130.097 201.08L130.1 201.09Z" fill="#FDFDFD"/>
<path d="M145.058 238.797C142.988 238.797 140.899 238.239 139.018 237.091C132.222 232.939 122.309 224.055 114.871 211.576C114.729 211.339 114.796 211.03 115.024 210.871L129.8 200.651C129.877 200.598 129.965 200.567 130.059 200.56C130.557 200.526 131.307 200.471 141.309 217.903C141.675 218.54 142.267 218.991 142.973 219.17C143.68 219.35 144.411 219.238 145.031 218.854L169.881 203.512C171.848 202.297 173.548 200.649 174.799 198.744C175.398 197.831 175.935 196.902 176.45 196.003C177.738 193.763 178.955 191.65 180.996 189.999C182.302 188.945 183.591 187.843 184.626 186.957C185.359 186.329 185.939 185.835 186.238 185.603C186.612 185.313 187.189 185.423 187.706 185.881C188.499 186.58 189.034 188.051 187.934 189.896C187.656 190.361 187.029 191.025 186.42 191.664C185.946 192.163 185.457 192.68 185.263 192.972C184.614 193.952 184.64 195.201 185.323 196.08C186.257 197.282 187.139 199.307 186.032 202.134C184.448 206.178 180.86 207.17 178.864 207.4C178.04 207.496 177.286 207.893 176.735 208.521L153.804 234.801C151.521 237.417 148.311 238.792 145.055 238.792L145.058 238.797ZM116.03 211.461C123.339 223.552 132.955 232.153 139.567 236.193C143.96 238.878 149.614 238.004 153.009 234.113L175.942 207.834C176.665 207.007 177.659 206.482 178.745 206.358C180.505 206.154 183.667 205.284 185.052 201.753C185.795 199.856 185.608 198.164 184.492 196.731C183.529 195.493 183.485 193.751 184.384 192.393C184.628 192.024 185.126 191.497 185.656 190.941C186.197 190.368 186.811 189.721 187.029 189.357C187.671 188.281 187.548 187.541 187.335 187.11C187.167 186.77 186.914 186.58 186.779 186.521C186.475 186.765 185.953 187.211 185.311 187.759C184.324 188.603 182.975 189.755 181.66 190.819C179.772 192.345 178.603 194.376 177.365 196.528C176.84 197.441 176.299 198.382 175.681 199.321C174.346 201.355 172.533 203.114 170.434 204.408L145.585 219.75C144.717 220.284 143.697 220.443 142.712 220.193C141.723 219.942 140.899 219.317 140.391 218.428C134.088 207.443 130.998 202.663 130.102 201.722L116.03 211.456V211.461Z" fill="#1B1B1B"/>
<path d="M44.8111 222.669C44.8111 222.669 43.1581 192.118 66.2517 183.536C84.1348 176.89 106.97 179.758 114.128 182.24C131.75 188.352 140.422 211.636 140.422 211.636L119.772 214.547C119.772 214.547 125.995 281.445 123.296 296.366C123.296 296.366 106.677 298.316 99.6271 295.523C92.5793 292.729 69.4019 288.812 58.3222 293.937L60.3345 222.381L44.8087 222.669H44.8111Z" fill="#1B1B1B"/>
<path d="M73.5943 279.718C73.3427 279.718 73.1199 279.538 73.0744 279.282C73.0241 278.994 73.2158 278.721 73.5008 278.671C99.8764 273.977 107.578 255.599 107.652 255.415C107.763 255.144 108.069 255.015 108.34 255.123C108.611 255.23 108.74 255.539 108.632 255.808C108.556 255.999 100.665 274.909 73.6853 279.708C73.6542 279.713 73.623 279.715 73.5919 279.715L73.5943 279.718Z" fill="#FDFDFD"/>
<path d="M122.864 247.275H89.0312L99.6294 209.232H133.462L122.864 247.275Z" fill="#FDFDFD"/>
<path d="M122.865 247.805H89.0316C88.8663 247.805 88.7106 247.729 88.6124 247.597C88.5118 247.465 88.4807 247.295 88.5238 247.137L99.1219 209.092C99.1842 208.864 99.3926 208.706 99.6298 208.706H133.463C133.628 208.706 133.784 208.783 133.882 208.914C133.983 209.046 134.014 209.216 133.971 209.374L123.373 247.42C123.31 247.647 123.102 247.805 122.865 247.805ZM89.7264 246.751H122.465L132.768 209.763H100.03L89.7264 246.751Z" fill="#1B1B1B"/>
<path d="M48.8193 222.696L63.6984 222.021C63.6984 222.021 63.811 234.634 65.1525 234.86C69.9341 235.662 79.9501 235.703 86.4709 234.91C88.7419 234.634 90.5386 232.886 90.9651 230.624C91.2885 228.916 92.206 226.91 94.5369 225.466C96.7888 224.071 94.568 228.461 96.6738 231.288C97.8045 232.806 101.388 232.133 106.273 230.993C111.158 229.855 112.398 235.109 106.925 238.286C100.988 241.728 97.2176 241.343 95.325 241.745C91.5544 242.548 58.2173 247.809 53.0715 244.991C49.0948 242.816 48.8193 222.694 48.8193 222.694V222.696Z" fill="#FDFDFD"/>
<path d="M59.537 246.351C56.406 246.351 53.9816 246.097 52.8173 245.46C48.6897 243.203 48.3208 224.798 48.2921 222.707C48.2873 222.422 48.5101 222.184 48.7951 222.172L63.6742 221.497C63.8155 221.482 63.9569 221.542 64.0599 221.641C64.1629 221.739 64.2228 221.875 64.2252 222.019C64.2731 227.376 64.7067 233.536 65.3272 234.355C70.1806 235.15 79.9906 235.167 86.406 234.389C88.4327 234.142 90.0569 232.592 90.445 230.529C90.8858 228.198 92.2034 226.293 94.2564 225.021C94.6253 224.793 95.1691 224.518 95.641 224.784C96.1992 225.098 96.192 225.833 96.1848 226.849C96.1752 228.061 96.1609 229.722 97.0952 230.975C98.0462 232.252 101.759 231.506 106.153 230.483C108.826 229.858 110.316 230.991 110.82 232.259C111.5 233.974 110.652 236.734 107.188 238.747C102.423 241.511 99.0691 241.854 96.8508 242.079C96.2926 242.137 95.8087 242.185 95.4326 242.266C93.5473 242.668 71.4383 246.351 59.537 246.351ZM49.3557 223.203C49.4755 229.058 50.3738 242.92 53.3228 244.532C58.253 247.228 91.3721 242.05 95.2122 241.231C95.6434 241.14 96.1537 241.087 96.743 241.027C98.8727 240.809 102.09 240.481 106.658 237.831C109.583 236.135 110.357 233.955 109.84 232.647C109.406 231.55 108.084 231.116 106.392 231.509C101.297 232.697 97.5863 233.399 96.2495 231.605C95.1044 230.067 95.1212 228.124 95.1308 226.839C95.1332 226.475 95.138 226.003 95.0948 225.764C95.0326 225.79 94.9391 225.836 94.8122 225.915C92.9915 227.043 91.8704 228.66 91.4823 230.721C91.0079 233.236 89.0196 235.131 86.533 235.433C80.0002 236.226 69.9674 236.202 65.066 235.378C64.6324 235.306 63.3244 235.086 63.1783 222.573L49.3581 223.2L49.3557 223.203Z" fill="#1B1B1B"/>
<path d="M100.053 182.788C100.053 182.788 96.2013 180.416 96.2396 179.031L95.14 171.916C95.1281 171.264 95.5305 170.68 96.1366 170.466L100.693 168.902C101.273 168.696 101.649 168.123 101.608 167.501L101.254 161.846L103.038 160.265C103.177 160.141 103.196 159.927 103.077 159.784L100.257 156.346C99.3347 155.047 98.41 151.94 97.653 152.151C97.653 152.151 81.581 150.294 80.7976 158.399C80.685 159.573 81.0372 160.744 81.7175 161.703L83.1405 163.71C84.5707 165.725 85.3229 168.195 85.069 170.665C85.0163 171.178 84.3479 174.482 83.9023 176.667C83.6484 177.908 82.9608 179.01 81.9619 179.779C80.7066 180.747 79.1782 181.978 79.4273 182.057C79.4273 182.057 81.2073 183.365 84.0173 184.523C89.0073 186.581 94.6825 186.068 99.2916 183.253L100.056 182.786L100.053 182.788Z" fill="#FDFDFD"/>
<path d="M90.3559 186.298C88.128 186.298 85.9049 185.874 83.8159 185.011C80.9795 183.842 79.19 182.539 79.1158 182.483C78.9984 182.397 78.905 182.261 78.881 182.122C78.8187 181.762 78.7828 181.563 81.6407 179.362C82.5391 178.669 83.1595 177.675 83.3871 176.561C84.3454 171.882 84.525 170.826 84.5466 170.612C84.779 168.353 84.1274 166.01 82.714 164.017L81.291 162.009C80.5148 160.914 80.1531 159.616 80.2776 158.348C80.4381 156.688 81.1999 155.298 82.5415 154.213C87.0164 150.595 96.5677 151.503 97.6337 151.618C98.4602 151.499 99.0136 152.675 99.6987 154.148C100.027 154.858 100.369 155.588 100.691 156.041L103.489 159.448C103.788 159.814 103.747 160.346 103.393 160.66L101.8 162.071L102.14 167.469C102.193 168.324 101.673 169.117 100.873 169.4L96.3138 170.964C95.9353 171.099 95.6789 171.463 95.6741 171.875L96.7665 178.95C96.7713 178.981 96.7737 179.012 96.7737 179.045C96.7569 179.692 98.6015 181.269 100.338 182.337C100.494 182.433 100.59 182.603 100.59 182.788C100.59 182.972 100.494 183.142 100.336 183.238L99.5718 183.703C96.7569 185.421 93.5564 186.295 90.3631 186.295L90.3559 186.298ZM80.1674 181.923C80.8454 182.366 82.2875 183.241 84.216 184.034C88.9928 186.003 94.5242 185.543 99.016 182.802L99.0615 182.773C97.787 181.916 95.7364 180.342 95.7125 179.069L94.6201 171.995C94.6153 171.971 94.6153 171.947 94.6129 171.923C94.5985 171.044 95.1399 170.255 95.9616 169.965L100.52 168.399C100.873 168.274 101.105 167.917 101.081 167.529L100.726 161.875C100.717 161.712 100.782 161.554 100.904 161.446L102.561 159.98L99.8497 156.676C99.4496 156.115 99.0879 155.339 98.7405 154.587C98.4434 153.947 97.9523 152.893 97.684 152.673C97.6553 152.673 97.6241 152.673 97.5954 152.67C97.4948 152.658 87.5027 151.554 83.2027 155.03C82.0743 155.943 81.4587 157.059 81.3245 158.446C81.2263 159.46 81.5209 160.507 82.1486 161.393L83.5716 163.401C85.1335 165.603 85.8522 168.2 85.5935 170.715C85.5503 171.127 85.1551 173.164 84.4172 176.767C84.1393 178.128 83.3799 179.345 82.2827 180.191C81.0706 181.125 80.4669 181.64 80.1674 181.918V181.923Z" fill="#1B1B1B"/>
<path d="M98.1876 139.819C94.5248 139.629 99.1554 143.405 85.5892 139.505C80.1871 137.952 82.9612 144.292 81.5598 143.891C76.3805 142.418 76.5578 142.461 74.04 143.149C72.3727 143.604 71.309 146.723 71.642 149.045C72.0804 152.111 75.5181 156.977 78.5988 162.123C80.1943 164.788 83.0163 165.03 86.4324 161.065C86.7966 160.643 84.9376 158.156 85.9078 157.085C88.428 154.299 89.5467 158.508 91.583 157.207C93.5354 155.959 94.3427 155.154 96.4077 153.266C98.9063 150.983 103.099 154.536 104.546 149.399C105.3 146.721 103.204 140.073 98.19 139.816L98.1876 139.819Z" fill="#1B1B1B"/>
<path d="M92.8386 165.879C90.328 165.879 87.9779 164.561 86.8376 162.367L85.5799 159.947C85.4458 159.688 85.5464 159.369 85.8051 159.235C86.0638 159.101 86.3825 159.202 86.5166 159.461L87.7743 161.88C88.9697 164.18 91.7654 165.33 94.4245 164.616L96.7027 163.933C96.983 163.85 97.2752 164.008 97.3591 164.288C97.4429 164.568 97.2848 164.861 97.0045 164.945L94.7119 165.63C94.0891 165.797 93.4566 165.879 92.8386 165.879Z" fill="#1B1B1B"/>
<path d="M84.8174 153.985C84.5634 153.985 84.3383 153.801 84.2975 153.542C84.2592 153.298 83.3776 147.541 86.6021 143.83C88.3724 141.793 91.0268 140.782 94.4668 140.854C94.7591 140.859 94.9891 141.101 94.9843 141.391C94.9795 141.678 94.7447 141.908 94.4573 141.908H94.4477C91.3166 141.844 88.957 142.728 87.4022 144.517C84.5035 147.852 85.3324 153.319 85.3396 153.375C85.3851 153.662 85.1887 153.933 84.9012 153.978C84.8725 153.983 84.8461 153.985 84.8174 153.985Z" fill="#FDFDFD"/>
<path d="M92.2562 157.268C92.582 154.877 90.9291 152.714 88.5646 152.436C88.3059 152.405 87.3428 152.383 87.0913 152.397C85.0383 152.524 83.9818 154.132 83.6896 156.262C83.3757 158.557 84.3196 160.701 86.5355 161.111C86.6266 161.128 87.283 161.176 87.3788 161.176C89.9708 161.183 91.9304 159.657 92.2586 157.266L92.2562 157.268Z" fill="#FDFDFD"/>
<path d="M87.3978 161.705H87.3763C87.2637 161.705 86.5737 161.655 86.4396 161.631C84.0967 161.199 82.7815 159.014 83.1672 156.192C83.5241 153.578 84.9423 152.004 87.0576 151.873C87.3499 151.856 88.3465 151.88 88.6244 151.913C89.9012 152.062 91.0343 152.704 91.8201 153.715C92.6178 154.745 92.958 156.032 92.7783 157.34C92.4214 159.954 90.2582 161.705 87.3954 161.705H87.3978ZM87.3547 152.922C87.2541 152.922 87.175 152.922 87.1247 152.927C85.0861 153.054 84.4153 154.851 84.2141 156.336C83.9601 158.188 84.6093 160.222 86.6336 160.593C86.7223 160.605 87.2924 160.648 87.3858 160.651H87.405C89.7503 160.651 91.4512 159.297 91.7386 157.196C91.8776 156.171 91.6141 155.164 90.9912 154.359C90.3827 153.574 89.4988 153.075 88.507 152.96C88.3345 152.941 87.7236 152.922 87.3571 152.922H87.3547Z" fill="#1B1B1B"/>
<path d="M89.6878 157.187C89.9633 154.792 88.2648 152.659 85.8932 152.425C83.5216 152.19 81.3751 153.944 81.0996 156.339C80.8241 158.735 82.5226 160.867 84.8942 161.102C87.2659 161.337 89.4123 159.583 89.6878 157.187Z" fill="#FDFDFD"/>
<path d="M85.3184 161.649C85.1603 161.649 85.0021 161.642 84.8416 161.625C83.5624 161.498 82.4149 160.88 81.61 159.881C80.7931 158.868 80.4242 157.588 80.5751 156.278C80.8841 153.599 83.2917 151.63 85.9436 151.898C87.2229 152.025 88.3704 152.644 89.1753 153.643C89.9946 154.656 90.3611 155.938 90.2102 157.246C89.9203 159.761 87.7762 161.649 85.316 161.649H85.3184ZM85.4693 152.929C83.5384 152.929 81.8519 154.416 81.6243 156.398C81.507 157.426 81.792 158.427 82.4317 159.218C83.0593 159.994 83.9505 160.475 84.947 160.574C87.0288 160.782 88.9213 159.232 89.1633 157.124C89.2807 156.096 88.9932 155.094 88.356 154.301C87.7283 153.525 86.8372 153.044 85.8406 152.945C85.716 152.933 85.5915 152.926 85.4693 152.926V152.929Z" fill="#1B1B1B"/>
<path d="M96.1158 167.065C97.5103 167.065 98.6407 165.928 98.6407 164.525C98.6407 163.123 97.5103 161.986 96.1158 161.986C94.7213 161.986 93.5908 163.123 93.5908 164.525C93.5908 165.928 94.7213 167.065 96.1158 167.065Z" fill="#1B1B1B"/>
<path d="M256.844 110.887C256.824 111.017 256.803 111.151 256.774 111.28C256.743 111.421 256.712 111.563 256.685 111.702H215.112C215.122 111.584 215.127 111.469 215.136 111.35C215.143 111.215 215.155 111.086 215.172 110.957L256.846 110.887H256.844Z" fill="#FDFDFD"/>
<path d="M256.686 111.7C256.369 113.166 256.053 114.639 255.744 116.103C255.605 116.755 255.469 117.402 255.325 118.053C255.04 119.393 254.757 120.729 254.467 122.069C254.41 122.342 254.35 122.613 254.292 122.886C253.674 125.787 253.054 128.691 252.436 131.587C252.347 132.002 252.261 132.416 252.172 132.831C251.885 134.167 251.6 135.507 251.317 136.844C250.452 140.892 249.592 144.939 248.725 148.988C247.726 153.667 246.734 158.339 245.735 163.015C245.321 164.963 243.982 166.623 242.264 167.543C241.548 167.929 240.767 168.183 239.96 168.272C239.744 168.298 239.528 168.312 239.31 168.312L216.763 168.348C215.208 168.353 213.874 167.73 212.98 166.71C212.161 165.773 211.711 164.501 211.804 163.07C212.101 158.396 212.408 153.724 212.705 149.05C212.777 147.965 212.849 146.877 212.916 145.792C213.222 141.053 213.529 136.319 213.831 131.585C214.018 128.707 214.202 125.828 214.389 122.953C214.53 120.686 214.676 118.43 214.825 116.168C214.918 114.68 215.019 113.185 215.11 111.693H256.683L256.686 111.7Z" fill="#1B1B1B"/>
<path d="M256.642 105.146L216.969 105.213C217.129 104.691 217.297 104.169 217.457 103.646C217.946 102.08 218.435 100.513 218.928 98.9483C219.108 98.3733 219.285 97.8055 219.465 97.2305C220.191 94.9018 222.445 93.2032 224.805 93.1984L252.138 93.1505C254.498 93.1457 256.283 94.8395 256.362 97.1658C256.381 97.7408 256.403 98.3086 256.422 98.8836C256.482 100.448 256.534 102.015 256.59 103.579C256.606 104.102 256.628 104.624 256.645 105.144L256.642 105.146Z" fill="#1B1B1B"/>
<path d="M261.44 110.049C261.381 110.509 260.957 110.878 260.499 110.878L256.846 110.885L215.172 110.954L211.519 110.961C211.059 110.961 210.742 110.592 210.805 110.137L211.734 103.439C211.799 102.983 212.22 102.615 212.676 102.615L261.656 102.528C262.116 102.528 262.432 102.897 262.37 103.355L261.44 110.051V110.049Z" fill="#1B1B1B"/>
<path d="M242.328 130.566C240.493 134.303 237.096 136.891 232.691 136.891C226.048 136.891 223.642 131.752 224.26 127.341C224.84 123.223 228.568 118.048 235.18 118.048C239.65 118.048 242.539 120.666 243.183 124.5H238.399C237.798 122.87 236.409 122.073 234.554 122.073C231.169 122.073 228.903 124.564 228.503 127.406C228.077 130.441 229.78 132.868 233.036 132.868C233.769 132.868 236.056 132.741 237.544 130.568H242.326L242.328 130.566Z" fill="#FDFDFD"/>
<path d="M254.795 118.044C249.366 118.044 244.803 122.323 244.077 127.498C243.392 132.368 246.41 136.441 251.319 136.851C251.604 135.514 251.887 134.175 252.174 132.838C249.393 132.567 247.944 130.203 248.324 127.498C248.729 124.62 251.065 122.069 254.232 122.069C254.313 122.069 254.39 122.069 254.467 122.076C254.754 120.737 255.039 119.4 255.324 118.061C255.152 118.049 254.975 118.046 254.793 118.046L254.795 118.044Z" fill="#FDFDFD"/>
<path d="M215.352 149.831L215.246 150.578H217.929L217.4 154.347H214.719L212.982 166.714C212.163 165.777 211.713 164.505 211.806 163.075C212.103 158.4 212.41 153.729 212.707 149.054C212.779 147.969 212.851 146.881 212.918 145.796C214.187 144.426 216.003 143.705 218.102 143.705H218.897L218.301 147.947H217.759C216.111 147.947 215.476 148.939 215.352 149.831Z" fill="#FDFDFD"/>
<path d="M221.623 143.701H225.87L225.274 147.946H221.026L221.623 143.701Z" fill="#FDFDFD"/>
<path d="M220.658 150.582H224.905L222.418 168.275H218.171L220.658 150.582Z" fill="#FDFDFD"/>
<path d="M242.268 167.546C241.552 167.932 240.771 168.186 239.963 168.275H237.321L234.133 162.338L229.274 168.275H223.882L231.627 159.202L226.891 150.582H231.972L234.973 156.092L239.523 150.582H244.601L237.304 159.202L242.268 167.544V167.546Z" fill="#FDFDFD"/>
<path d="M315.65 99.0475L304.597 115.682L311.664 114.251L314.09 120.691L322.394 102.512L315.65 99.0475Z" fill="#FDFDFD"/>
<path d="M314.054 120.864C313.997 120.857 313.947 120.821 313.925 120.766L311.544 114.451L304.613 115.852C304.546 115.867 304.479 115.84 304.443 115.783C304.407 115.728 304.41 115.654 304.45 115.594L315.504 98.9621C315.556 98.883 315.657 98.8519 315.736 98.8926L322.48 102.357C322.556 102.395 322.585 102.489 322.547 102.573L314.244 120.752C314.212 120.816 314.148 120.862 314.078 120.864C314.069 120.864 314.059 120.864 314.052 120.864H314.054ZM311.697 114.08C311.755 114.087 311.805 114.123 311.826 114.178L314.112 120.239L322.168 102.596L315.698 99.2735L304.961 115.431L311.644 114.08C311.664 114.075 311.683 114.075 311.699 114.08H311.697Z" fill="#1B1B1B"/>
<path d="M321.576 103.078L322.958 122.041L327.925 116.55L334.033 119.659L329.383 101.32L321.576 103.078Z" fill="#FDFDFD"/>
<path d="M322.923 122.215C322.923 122.215 322.906 122.212 322.899 122.21C322.834 122.193 322.791 122.138 322.784 122.071L321.404 103.108C321.397 103.017 321.464 102.933 321.552 102.912L329.357 101.151C329.446 101.132 329.53 101.18 329.551 101.264L334.201 119.603C334.218 119.67 334.192 119.742 334.136 119.79C334.079 119.836 334.005 119.848 333.945 119.817L327.953 116.767L323.083 122.152C323.042 122.198 322.98 122.222 322.923 122.215ZM321.763 103.214L323.105 121.635L327.8 116.443C327.858 116.381 327.946 116.362 328.013 116.398L333.765 119.323L329.252 101.525L321.763 103.214Z" fill="#1B1B1B"/>
<path d="M338.036 97.0916L335.483 99.358L335.792 102.573L332.644 103.759L331.678 106.957L328.416 106.89L326.327 109.586L323.45 108.27L320.549 110.046L318.491 107.688L315.226 108.28L314.306 105.235L311.17 104.547L311.522 101.279L308.992 99.4251L310.568 96.4303L309.035 93.6848L311.589 91.4183L311.28 88.2032L314.428 87.0173L315.393 83.8189L318.656 83.886L320.745 81.1907L323.622 82.506L326.521 80.7307L328.581 83.0882L331.846 82.4964L332.766 85.5415L335.9 86.2291L335.55 89.4969L338.079 91.3513L336.503 94.346L338.036 97.0916Z" fill="#1B1B1B"/>
<path d="M330.357 102.659C334.7 98.4806 335.118 91.8676 331.29 87.8884C327.463 83.9092 320.839 84.0706 316.496 88.249C312.153 92.4273 311.735 99.0404 315.562 103.02C319.39 106.999 326.014 106.837 330.357 102.659Z" fill="#FDFDFD"/>
<path d="M321.28 106.014C315.523 105.339 311.805 100.056 312.991 94.2367C314.177 88.4173 319.823 84.2366 325.577 84.9123C331.332 85.5879 335.052 90.8706 333.866 96.69C332.68 102.507 327.034 106.69 321.28 106.014ZM325.508 85.2572C319.941 84.6032 314.479 88.6497 313.331 94.2774C312.184 99.9051 315.782 105.015 321.349 105.669C326.917 106.323 332.378 102.277 333.526 96.6492C334.673 91.0215 331.075 85.9113 325.508 85.2572Z" fill="#1B1B1B"/>
<path d="M321.857 100.655C321.718 100.638 321.595 100.566 321.521 100.453L318.421 95.8512C318.268 95.6236 318.34 95.2953 318.584 95.1228C318.829 94.9479 319.15 94.9935 319.305 95.2211L322.063 99.3179L328.617 92.497C328.825 92.2814 329.156 92.2575 329.355 92.4467C329.554 92.636 329.549 92.9642 329.34 93.1799L322.324 100.482C322.211 100.6 322.055 100.664 321.9 100.66C321.885 100.66 321.871 100.66 321.857 100.657V100.655Z" fill="#1B1B1B"/>
<path d="M89.0217 203.055C88.6983 204.073 87.8982 204.792 86.7124 204.825C84.9229 204.875 84.0413 203.515 84.0077 202.326C83.9766 201.217 84.7456 199.799 86.5279 199.749C87.7329 199.715 88.6288 200.395 88.9786 201.418L87.6898 201.454C87.455 201.023 87.043 200.817 86.5447 200.831C85.632 200.858 85.1361 201.543 85.1576 202.31C85.1816 203.127 85.7493 203.766 86.6285 203.74C86.8274 203.735 87.4358 203.682 87.7401 203.088L89.0289 203.052L89.0217 203.055Z" fill="#FDFDFD"/>
<path d="M90.4977 202.189C90.5193 202.963 91.0798 203.619 91.9231 203.595C92.7663 203.571 93.2886 202.886 93.267 202.11C93.2454 201.336 92.6944 200.663 91.8416 200.687C90.9888 200.711 90.4761 201.413 90.4977 202.189ZM94.4121 202.079C94.4504 203.463 93.4083 204.637 91.9542 204.678C90.5001 204.719 89.3909 203.605 89.3526 202.22C89.3143 200.826 90.3468 199.642 91.8105 199.601C93.2742 199.561 94.3714 200.684 94.4121 202.079Z" fill="#FDFDFD"/>
<path d="M95.1496 200.677L94.6752 200.691L94.6465 199.676L95.1208 199.661L95.116 199.46C95.0849 198.394 95.7413 197.79 96.7211 197.761L96.9367 197.754L96.9678 198.897L96.8217 198.902C96.3785 198.914 96.2515 199.184 96.2587 199.426L96.2635 199.628L96.987 199.606L97.0157 200.622L96.2923 200.641L96.3977 204.393L95.2526 204.424L95.1472 200.672L95.1496 200.677Z" fill="#FDFDFD"/>
<path d="M98.8028 197.711L97.6582 197.743L97.6904 198.888L98.8351 198.856L98.8028 197.711Z" fill="#FDFDFD"/>
<path d="M98.8546 199.561L97.71 199.593L97.844 204.361L98.9886 204.329L98.8546 199.561Z" fill="#FDFDFD"/>
<path d="M103.017 204.213L104.469 204.172L102.6 201.778L104.174 199.409L102.806 199.447L101.831 200.961L100.773 199.505L99.4023 199.543L101.072 201.819L99.3975 204.313L100.849 204.272L101.889 202.643L103.017 204.213Z" fill="#FDFDFD"/>
</g>
<defs>
<clipPath id="clip0_35_103535">
<rect width="560" height="440" fill="white"/>
</clipPath>
</defs>
</svg>
