<svg width="560" height="440" viewBox="0 0 560 440" fill="none" xmlns="http://www.w3.org/2000/svg">
<path d="M448.165 27.5109L500.186 42.6279L537.107 1.60468L448.165 27.5109Z" fill="#FDFDFD"/>
<path d="M500.186 43.1574C500.136 43.1574 500.087 43.1506 500.038 43.1372L448.017 28.0224C447.79 27.9573 447.635 27.7484 447.635 27.5126C447.635 27.2768 447.79 27.0679 448.017 27.0028L536.956 1.09435C537.186 1.02697 537.428 1.1213 537.554 1.32118C537.68 1.52106 537.658 1.78158 537.5 1.95901L500.579 42.9822C500.478 43.0967 500.332 43.1574 500.184 43.1574H500.186ZM450.065 27.5104L500.013 42.0232L535.464 2.63277L450.065 27.5081V27.5104Z" fill="#1B1B1B"/>
<path d="M474.085 51.898L466.826 32.9293L524.312 8.71649L475.969 35.5862L486.842 38.7461L474.085 51.898Z" fill="#FDFDFD"/>
<path d="M474.085 52.4284C474.049 52.4284 474.013 52.4239 473.979 52.4171C473.801 52.3812 473.655 52.2554 473.59 52.087L466.331 33.1206C466.23 32.8533 466.358 32.5524 466.621 32.4423L524.109 8.2295C524.37 8.1217 524.669 8.23175 524.793 8.48553C524.916 8.73932 524.819 9.04476 524.572 9.18175L477.342 35.4338L486.993 38.2389C487.172 38.2906 487.31 38.4321 487.357 38.6117C487.404 38.7914 487.355 38.9845 487.224 39.1171L474.467 52.2689C474.366 52.3722 474.229 52.4306 474.085 52.4306V52.4284ZM467.505 33.2194L474.283 50.9304L485.846 39.0093L475.82 36.0963C475.616 36.0357 475.465 35.8583 475.44 35.6472C475.416 35.4338 475.523 35.2272 475.71 35.1239L515.522 12.9953L467.505 33.2194Z" fill="#1B1B1B"/>
<path d="M474.746 46.7046C474.725 46.7046 474.705 46.7046 474.685 46.7001C474.393 46.6664 474.184 46.4036 474.217 46.1117L475.44 35.5291C475.474 35.2371 475.737 35.026 476.029 35.062C476.322 35.0957 476.531 35.3584 476.497 35.6504L475.274 46.233C475.243 46.5025 475.013 46.7024 474.748 46.7024L474.746 46.7046Z" fill="#1B1B1B"/>
<path d="M359.59 415.528H175.267C167.325 415.528 161.698 409.127 162.701 401.233L208.087 43.7049C209.09 35.8106 216.342 29.4099 224.284 29.4099L399.355 27.3706C419.45 27.3706 422.177 35.8106 421.174 43.7049L375.787 401.233C374.785 409.127 367.533 415.528 359.59 415.528Z" fill="#1B1B1B"/>
<path d="M348.499 415.532H164.175C156.233 415.532 150.606 409.1 151.609 401.163L196.996 41.8113C197.998 33.8766 205.25 27.4422 213.192 27.4422H397.516C405.458 27.4422 411.085 33.8744 410.082 41.8113L364.695 401.163C363.693 409.098 356.441 415.532 348.499 415.532Z" fill="#FDFDFD"/>
<path d="M348.499 416.025H164.177C160.212 416.025 156.671 414.484 154.203 411.688C151.708 408.861 150.613 405.101 151.119 401.099L196.503 41.7473C197.535 33.5858 205.021 26.947 213.192 26.947H397.516C401.481 26.947 405.022 28.4876 407.49 31.2837C409.986 34.1113 411.08 37.8709 410.574 41.8731L365.188 401.225C364.158 409.386 356.67 416.027 348.499 416.027V416.025ZM213.192 27.9374C205.504 27.9374 198.459 34.1877 197.488 41.8731L152.101 401.225C151.631 404.942 152.643 408.425 154.945 411.035C157.222 413.615 160.5 415.035 164.175 415.035H348.496C356.187 415.035 363.232 408.782 364.201 401.099L409.588 41.7473C410.057 38.0304 409.046 34.547 406.744 31.9373C404.467 29.3568 401.189 27.9374 397.514 27.9374H213.19H213.192Z" fill="#1B1B1B"/>
<path d="M162.114 401.657L205.45 58.5368C205.682 56.7042 207.357 55.2197 209.189 55.2197H394.501C396.336 55.2197 397.635 56.7042 397.403 58.5368L354.067 401.657C353.835 403.49 352.161 404.975 350.328 404.975H165.016C163.181 404.975 161.882 403.49 162.114 401.657Z" fill="#FDFDFD"/>
<path d="M303.045 46.2111C301.469 46.2111 300.059 45.598 299.075 44.4818C298.081 43.3543 297.643 41.8608 297.845 40.2707C298.25 37.0636 301.192 34.4539 304.405 34.4539C305.981 34.4539 307.39 35.067 308.375 36.1832C309.368 37.3107 309.807 38.8042 309.604 40.3943C309.2 43.6014 306.257 46.2088 303.045 46.2088V46.2111ZM304.405 35.4466C301.676 35.4466 299.174 37.6678 298.83 40.3965C298.666 41.6991 299.016 42.9186 299.821 43.8282C300.615 44.7266 301.759 45.2229 303.047 45.2229C305.776 45.2229 308.278 43.0017 308.622 40.273C308.786 38.9704 308.435 37.7509 307.631 36.8413C306.837 35.9429 305.693 35.4466 304.405 35.4466Z" fill="#1B1B1B"/>
<path d="M381.877 181.716C381.857 181.716 381.834 181.716 381.814 181.712C381.542 181.678 381.351 181.431 381.385 181.159L396.912 58.4714C397.006 57.7236 396.806 57.0251 396.347 56.5063C395.895 55.9942 395.239 55.7113 394.502 55.7113H209.189C207.6 55.7113 206.143 57.0049 205.941 58.595L198.761 115.454C198.727 115.726 198.477 115.919 198.208 115.883C197.936 115.849 197.745 115.602 197.778 115.33L204.958 58.4714C205.219 56.403 207.116 54.7208 209.189 54.7208H394.502C395.527 54.7208 396.446 55.1228 397.089 55.8505C397.739 56.5871 398.024 57.5619 397.894 58.595L382.367 181.283C382.336 181.532 382.122 181.716 381.877 181.716Z" fill="#1B1B1B"/>
<path d="M177.658 274.937C177.638 274.937 177.618 274.937 177.598 274.932C177.326 274.898 177.132 274.651 177.166 274.382L178.566 262.843C178.6 262.571 178.85 262.38 179.117 262.411C179.389 262.445 179.583 262.692 179.549 262.962L178.148 274.501C178.117 274.752 177.903 274.937 177.658 274.937Z" fill="#1B1B1B"/>
<path d="M168.945 348.066C168.925 348.066 168.903 348.066 168.882 348.062C168.61 348.028 168.419 347.781 168.453 347.509L175.901 288.539C175.934 288.267 176.186 288.083 176.454 288.11C176.726 288.144 176.917 288.391 176.883 288.663L169.435 347.633C169.404 347.882 169.19 348.066 168.945 348.066Z" fill="#1B1B1B"/>
<path d="M214.733 405.631L165.014 405.467C163.989 405.467 163.069 405.065 162.426 404.337C161.777 403.6 161.491 402.626 161.622 401.592L166.068 366.386C166.102 366.114 166.351 365.93 166.621 365.957C166.893 365.991 167.084 366.238 167.051 366.51L162.604 401.716C162.51 402.464 162.71 403.162 163.168 403.681C163.62 404.193 164.277 404.476 165.014 404.476L214.733 404.64C215.007 404.64 215.227 404.862 215.227 405.136C215.227 405.41 215.005 405.631 214.733 405.631Z" fill="#1B1B1B"/>
<path d="M375.614 81.4432H275.929C273.924 81.4432 272.002 80.592 270.66 79.1052C269.315 77.6185 268.659 75.6241 268.861 73.632C269.23 69.9937 272.269 67.2493 275.929 67.2493H375.614C377.619 67.2493 379.539 68.1004 380.883 69.5872C382.227 71.074 382.884 73.0683 382.681 75.0604C382.313 78.6987 379.273 81.4432 375.614 81.4432ZM275.929 68.2397C272.779 68.2397 270.165 70.6001 269.846 73.7309C269.673 75.4445 270.235 77.1626 271.392 78.4405C272.55 79.7184 274.202 80.4528 275.929 80.4528H375.614C378.763 80.4528 381.377 78.0924 381.697 74.9616C381.87 73.2458 381.308 71.5299 380.15 70.2498C378.992 68.9719 377.34 68.2375 375.616 68.2375H275.931L275.929 68.2397Z" fill="#1B1B1B"/>
<path d="M372.991 107.345H293.124C291.119 107.345 289.199 106.493 287.855 105.007C286.511 103.52 285.854 101.525 286.057 99.5334C286.425 95.895 289.465 93.1506 293.124 93.1506H372.991C374.996 93.1506 376.916 94.0018 378.26 95.4885C379.604 96.9753 380.258 98.9696 380.058 100.962C379.69 104.6 376.65 107.345 372.991 107.345ZM293.124 94.1388C289.975 94.1388 287.36 96.4992 287.041 99.6299C286.868 101.346 287.43 103.062 288.588 104.342C289.745 105.62 291.398 106.354 293.122 106.354H372.988C376.138 106.354 378.752 103.994 379.069 100.863C379.242 99.1471 378.68 97.4312 377.523 96.1511C376.365 94.8732 374.713 94.1388 372.988 94.1388H293.122H293.124Z" fill="#1B1B1B"/>
<path d="M276.25 315.569C271.918 317.334 266.716 314.642 264.662 309.57L239.165 246.764L254.789 240.402L280.332 303.32C282.371 308.349 280.548 313.82 276.252 315.569H276.25Z" fill="#FDFDFD"/>
<path d="M275.387 316.309C273.681 316.738 271.835 316.58 270.088 315.844C267.517 314.759 265.39 312.531 264.255 309.735L238.758 246.929C238.668 246.707 238.776 246.451 238.999 246.361L254.622 239.998C254.73 239.953 254.849 239.955 254.957 239.998C255.065 240.043 255.148 240.128 255.193 240.236L280.737 303.154C282.859 308.387 280.921 314.139 276.417 315.972C276.082 316.109 275.738 316.221 275.389 316.309H275.387ZM239.734 247.003L265.066 309.405C266.114 311.99 268.07 314.042 270.428 315.037C272.318 315.835 274.328 315.88 276.084 315.163C280.141 313.51 281.863 308.271 279.923 303.482L254.546 240.968L239.734 247.001V247.003Z" fill="#1B1B1B"/>
<path d="M268.405 189.513L225.625 210.364L208.154 223.305L200.585 232.652L200.533 232.726C199.086 234.321 199.05 238.55 200.522 243.102C201.977 247.603 204.492 250.976 206.589 251.495L206.52 251.518L217.553 254.603L239.129 254.765L286.406 246.287L340.255 265.051L340.644 265.128C327.099 260.243 311.422 238.503 302.181 209.904C292.95 181.338 292.957 154.633 301.084 142.824L301.072 142.817L268.818 188.925L268.405 189.516V189.513Z" fill="#FDFDFD"/>
<path d="M350.002 265.554C364.891 260.738 367.638 228.068 356.139 192.584C344.64 157.1 323.248 132.238 308.36 137.054C293.471 141.87 290.723 174.54 302.223 210.024C313.722 245.508 335.113 270.37 350.002 265.554Z" fill="#FDFDFD"/>
<path d="M349.321 266.213C342.071 268.033 333.273 263.415 324.438 253.118C315.379 242.558 307.327 227.259 301.763 210.04C293.335 183.956 292.328 158.481 299.2 145.136C301.495 140.678 304.55 137.817 308.28 136.629C314.118 134.776 321.039 137.224 328.3 143.723C335.33 150.014 342.148 159.59 348.024 171.415C348.132 171.631 348.042 171.893 347.826 172.001C347.61 172.111 347.347 172.021 347.24 171.803C335.514 148.199 320.351 134.472 309.235 137.264C309.001 137.322 308.772 137.388 308.543 137.459C305.043 138.573 302.161 141.289 299.976 145.533C293.205 158.681 294.232 183.895 302.592 209.77C313.969 244.981 335.15 269.825 349.809 265.167C353.309 264.053 356.191 261.338 358.376 257.093C365.147 243.946 364.12 218.731 355.759 192.856C354.008 187.433 351.981 182.137 349.739 177.113C349.64 176.893 349.739 176.634 349.96 176.536C350.182 176.439 350.438 176.536 350.537 176.756C352.792 181.807 354.831 187.134 356.591 192.587C365.019 218.67 366.026 244.148 359.154 257.49C356.859 261.948 353.804 264.81 350.074 265.996C349.825 266.074 349.571 266.146 349.317 266.211L349.321 266.213Z" fill="#1B1B1B"/>
<path d="M346.994 258.72C340.567 260.332 332.773 256.245 324.952 247.129C316.943 237.793 309.821 224.264 304.9 209.039C297.448 185.974 296.56 163.443 302.639 151.636C304.673 147.684 307.384 145.146 310.693 144.092C319.541 141.274 331.339 149.983 341.48 166.816C341.603 167.023 341.538 167.292 341.331 167.416C341.124 167.539 340.855 167.474 340.731 167.265C330.811 150.799 319.416 142.242 310.961 144.923C307.881 145.903 305.343 148.297 303.419 152.034C297.442 163.643 298.35 185.913 305.734 208.767C315.621 239.363 333.881 261.105 346.78 257.871C346.989 257.819 347.194 257.761 347.401 257.693C359.117 253.965 362.307 229.734 354.821 201.333C354.761 201.1 354.9 200.861 355.134 200.799C355.359 200.749 355.606 200.877 355.669 201.111C359.317 214.954 360.56 228.376 359.169 238.904C357.75 249.649 353.666 256.618 347.666 258.527C347.443 258.596 347.219 258.661 346.994 258.718V258.72Z" fill="#1B1B1B"/>
<path d="M325.882 218.809C329.329 217.694 329.966 210.129 327.303 201.912C324.64 193.695 319.687 187.938 316.239 189.054C312.791 190.169 312.155 197.734 314.817 205.951C317.48 214.167 322.434 219.924 325.882 218.809Z" fill="#FDFDFD"/>
<path d="M325.802 219.292C322.081 220.227 317.111 214.491 314.387 206.062C312.408 199.942 312.184 193.943 313.813 190.776C314.387 189.662 315.16 188.944 316.113 188.641C319.833 187.439 324.95 193.238 327.722 201.815C329.7 207.935 329.925 213.936 328.295 217.1C327.722 218.214 326.948 218.933 325.995 219.236C325.93 219.256 325.865 219.274 325.8 219.292H325.802ZM316.522 189.433C316.475 189.445 316.428 189.458 316.381 189.474C315.659 189.703 315.057 190.276 314.593 191.176C313.065 194.145 313.31 199.883 315.221 205.792C317.754 213.635 322.574 219.425 325.732 218.403C326.454 218.174 327.056 217.601 327.519 216.701C329.048 213.731 328.803 207.993 326.892 202.084C324.397 194.359 319.687 188.641 316.522 189.433Z" fill="#1B1B1B"/>
<path d="M340.747 265.549C340.686 265.565 340.621 265.567 340.556 265.554L340.167 265.478C340.147 265.473 340.127 265.469 340.106 265.462L286.366 246.736L239.201 255.194C239.174 255.198 239.147 255.2 239.12 255.2L217.544 255.041C217.506 255.041 217.468 255.034 217.429 255.025L206.396 251.939C206.331 251.921 206.273 251.89 206.225 251.847C203.973 251.091 201.538 247.688 200.1 243.237C198.582 238.541 198.618 234.215 200.185 232.454L200.223 232.4L207.81 223.031C207.833 223.001 207.86 222.977 207.889 222.954L225.36 210.013C225.383 209.998 225.405 209.984 225.43 209.971L268.106 189.169L300.708 142.563C300.845 142.368 301.115 142.318 301.313 142.453C301.41 142.518 301.482 142.624 301.502 142.738C301.522 142.853 301.502 142.974 301.439 143.071C293.137 155.135 293.6 181.94 302.592 209.769C311.598 237.642 326.947 259.724 340.788 264.716C341.003 264.795 341.123 265.024 341.06 265.244C341.017 265.399 340.893 265.514 340.745 265.552L340.747 265.549ZM239.089 254.327L286.326 245.855C286.4 245.842 286.476 245.849 286.546 245.873L335.039 262.771C322.541 254.666 309.687 234.563 301.76 210.038C293.895 185.693 292.535 162.071 297.822 148.22L268.76 189.765C268.717 189.825 268.661 189.875 268.594 189.906L225.85 210.739L208.458 223.621L200.889 232.978C200.877 232.991 200.866 233.007 200.855 233.02C199.515 234.496 199.549 238.68 200.936 242.967C202.296 247.174 204.717 250.581 206.693 251.073C206.76 251.088 206.821 251.122 206.871 251.162L217.611 254.167L239.089 254.327Z" fill="#1B1B1B"/>
<path d="M268.502 189.376L301.073 142.817L301.084 142.823C292.958 154.634 292.951 181.338 302.181 209.903C311.422 238.502 327.1 260.24 340.644 265.127L340.255 265.051L286.497 246.318L285.249 245.889C279.007 243.679 271.811 233.876 267.661 220.933C263.401 207.648 264.332 195.267 268.095 189.94L268.504 189.376H268.502Z" fill="#FDFDFD"/>
<path d="M340.747 265.55C340.687 265.566 340.621 265.568 340.556 265.555L340.167 265.478C340.147 265.474 340.127 265.469 340.107 265.463L286.346 246.73L285.101 246.301C278.507 243.967 271.332 233.825 267.238 221.066C262.589 206.567 264.235 194.637 267.733 189.689L268.142 189.123L300.711 142.566C300.848 142.371 301.118 142.321 301.315 142.456C301.412 142.521 301.484 142.627 301.504 142.741C301.524 142.856 301.504 142.977 301.441 143.074C293.139 155.138 293.603 181.943 302.594 209.772C311.6 237.645 326.949 259.727 340.79 264.719C341.006 264.798 341.125 265.027 341.062 265.247C341.019 265.402 340.896 265.517 340.747 265.555V265.55ZM297.824 148.219L268.859 189.624C268.859 189.624 268.857 189.628 268.854 189.631L268.445 190.197C264.965 195.122 263.718 207.22 268.072 220.801C272.085 233.315 279.045 243.233 285.391 245.477L286.634 245.906L335.04 262.772C322.541 254.664 309.687 234.564 301.76 210.039C293.895 185.694 292.535 162.071 297.822 148.221L297.824 148.219Z" fill="#1B1B1B"/>
<path d="M217.06 254.861C216.988 254.879 216.912 254.879 216.836 254.859L206.398 251.939C206.333 251.921 206.275 251.89 206.227 251.847C203.975 251.09 201.54 247.688 200.102 243.236C198.584 238.54 198.62 234.215 200.187 232.454L200.225 232.4L207.812 223.03C207.965 222.844 208.239 222.815 208.428 222.965C208.617 223.118 208.646 223.392 208.493 223.58L200.888 232.979C200.877 232.993 200.866 233.009 200.855 233.022C199.515 234.498 199.549 238.682 200.936 242.969C202.296 247.176 204.717 250.583 206.693 251.074C206.76 251.09 206.821 251.124 206.87 251.164L217.072 254.019C217.303 254.084 217.44 254.324 217.375 254.558C217.33 254.715 217.207 254.827 217.06 254.863V254.861Z" fill="#1B1B1B"/>
<path d="M217.659 254.558C214.245 253.736 210.237 248.038 207.865 240.696C205.352 232.919 205.723 225.368 208.434 223.111L200.586 232.649L200.534 232.723C199.087 234.318 199.051 238.547 200.523 243.099C201.978 247.6 204.493 250.973 206.59 251.492L206.521 251.514L217.662 254.555L217.659 254.558Z" fill="#FDFDFD"/>
<path d="M217.765 254.983C217.7 254.999 217.628 255.001 217.556 254.983C217.47 254.963 217.383 254.938 217.297 254.914L206.403 251.94C206.338 251.922 206.28 251.891 206.23 251.846C203.978 251.089 201.543 247.686 200.105 243.235C198.587 238.539 198.623 234.213 200.19 232.453L200.228 232.399L207.127 224.013C207.424 223.516 207.766 223.099 208.155 222.775C208.328 222.631 208.582 222.643 208.744 222.8C208.903 222.959 208.917 223.213 208.773 223.388L207.815 224.552C206.073 227.579 206.199 234.112 208.28 240.56C210.555 247.599 214.328 253.088 217.533 254.069L217.774 254.134C218.003 254.197 218.142 254.433 218.082 254.664C218.041 254.824 217.915 254.941 217.765 254.979V254.983ZM206.869 251.161L214.555 253.259C211.868 250.873 209.234 246.359 207.446 240.832C205.72 235.489 205.309 230.187 206.149 226.575L200.889 232.978C200.878 232.992 200.867 233.007 200.855 233.021C199.516 234.496 199.549 238.681 200.936 242.968C202.296 247.174 204.717 250.581 206.693 251.073C206.759 251.089 206.819 251.12 206.869 251.161Z" fill="#1B1B1B"/>
<path d="M238.338 254.757L239.257 254.728C234.251 254.926 227.844 246.364 224.2 235.083C220.482 223.578 221.208 212.831 225.625 210.363L225.041 210.797L208.48 223.075C205.726 225.282 205.337 232.876 207.864 240.698C210.303 248.246 214.565 254.034 218.036 254.596L238.34 254.757H238.338Z" fill="#FDFDFD"/>
<path d="M239.365 255.152C239.336 255.159 239.307 255.163 239.275 255.165C239.253 255.165 239.228 255.165 239.206 255.165L238.354 255.192C238.354 255.192 238.342 255.192 238.336 255.192L218.032 255.031C218.009 255.031 217.987 255.031 217.964 255.024C214.28 254.427 209.953 248.59 207.446 240.828C204.888 232.907 205.214 225.127 208.204 222.731L224.448 210.688C224.747 210.407 225.068 210.169 225.41 209.978C225.612 209.866 225.866 209.929 225.99 210.122C226.116 210.315 226.068 210.574 225.882 210.711L224.942 211.407C221.483 214.719 221.271 224.599 224.614 234.946C228.222 246.11 234.469 254.402 239.176 254.29H239.242C239.482 254.281 239.685 254.469 239.694 254.71C239.7 254.918 239.559 255.1 239.363 255.15L239.365 255.152ZM218.075 254.159L236.05 254.303C231.607 251.889 226.826 244.635 223.785 235.218C220.894 226.272 220.669 217.61 222.87 212.95L208.739 223.424C206.073 225.56 205.866 233.093 208.278 240.561C210.643 247.88 214.757 253.587 218.072 254.157L218.075 254.159Z" fill="#1B1B1B"/>
<path d="M316.248 189.06C312.795 190.158 312.002 197.76 314.805 205.931C319.506 219.631 325.164 219.049 325.836 218.925C325.847 218.925 325.852 218.939 325.841 218.946L312.584 226.384C309.965 221.003 307.585 215.105 305.557 208.828C303.612 202.813 302.138 196.891 301.117 191.225L316.246 189.057L316.248 189.06Z" fill="#1B1B1B"/>
<path d="M312.692 226.807C312.616 226.828 312.533 226.825 312.456 226.801C312.341 226.765 312.247 226.684 312.193 226.576C309.507 221.051 307.133 215.127 305.143 208.964C303.235 203.055 301.735 197.112 300.69 191.302C300.67 191.186 300.697 191.067 300.767 190.97C300.836 190.873 300.94 190.808 301.059 190.793L316.188 188.625C316.413 188.594 316.626 188.738 316.676 188.96C316.727 189.182 316.599 189.405 316.381 189.474C315.633 189.712 315.01 190.316 314.529 191.273C313.002 194.303 313.281 200.135 315.219 205.786C319.807 219.162 325.164 218.601 325.76 218.493C325.971 218.455 326.191 218.583 326.261 218.785C326.331 218.987 326.239 219.225 326.05 219.329L312.8 226.765C312.766 226.785 312.73 226.798 312.692 226.807ZM301.63 191.594C302.666 197.223 304.125 202.974 305.975 208.694C307.904 214.662 310.192 220.407 312.778 225.774L324.316 219.299C322.03 218.819 317.937 216.402 314.392 206.069C312.35 200.12 312.096 194.157 313.746 190.878C313.965 190.444 314.212 190.067 314.486 189.75L301.63 191.592V191.594Z" fill="#1B1B1B"/>
<path d="M411.577 410.382L414.861 431.904L422.815 427.864L420.542 406.391L411.577 410.382Z" fill="#FDFDFD"/>
<path d="M414.861 432.399C414.783 432.399 414.706 432.381 414.634 432.345C414.493 432.273 414.396 432.136 414.371 431.979L411.085 410.459C411.051 410.239 411.17 410.023 411.372 409.933L420.34 405.942C420.484 405.877 420.652 405.886 420.789 405.965C420.926 406.044 421.019 406.183 421.034 406.342L423.307 427.815C423.33 428.019 423.222 428.215 423.04 428.309L415.088 432.35C415.019 432.385 414.94 432.403 414.864 432.403L414.861 432.399ZM412.121 410.681L415.246 431.152L422.282 427.577L420.117 407.122L412.119 410.684L412.121 410.681Z" fill="#1B1B1B"/>
<path d="M412.813 423.762C411.904 425.837 411.043 429.76 410.169 434.872C409.755 437.295 411.659 439.503 414.152 439.503H443.403C445.417 439.503 446.368 437.053 444.867 435.725C439.047 430.584 430.131 424.889 422.434 421.538L419.498 425.682C419.498 425.682 413.067 423.182 412.813 423.762Z" fill="#FDFDFD"/>
<path d="M443.404 439.996H414.153C412.804 439.996 411.534 439.407 410.668 438.385C409.821 437.384 409.461 436.072 409.682 434.788C410.657 429.072 411.507 425.505 412.359 423.563C412.543 423.143 412.795 422.568 419.316 425.081L422.03 421.252C422.165 421.061 422.416 420.991 422.632 421.083C430.19 424.371 439.258 430.107 445.195 435.353C446.043 436.101 446.321 437.22 445.924 438.271C445.526 439.32 444.537 439.996 443.404 439.996ZM413.177 424.167C412.388 426.08 411.586 429.523 410.657 434.954C410.486 435.949 410.767 436.968 411.424 437.745C412.1 438.545 413.094 439.005 414.151 439.005H443.401C444.271 439.005 444.795 438.444 444.993 437.918C445.188 437.404 445.171 436.654 444.534 436.095C438.764 430.996 429.997 425.429 422.601 422.152L419.896 425.966C419.766 426.15 419.525 426.224 419.312 426.141C416.88 425.195 413.982 424.225 413.17 424.167H413.177Z" fill="#1B1B1B"/>
<path d="M442.861 437.49H412.048C411.774 437.49 411.554 437.268 411.554 436.996C411.554 436.724 411.776 436.502 412.048 436.502H442.861C443.136 436.502 443.356 436.724 443.356 436.996C443.356 437.268 443.133 437.49 442.861 437.49Z" fill="#1B1B1B"/>
<path d="M426.059 431.305C425.973 431.305 425.885 431.283 425.807 431.235C425.571 431.096 425.492 430.793 425.631 430.557L428.635 425.473C428.774 425.237 429.078 425.16 429.314 425.297C429.55 425.437 429.628 425.74 429.489 425.976L426.486 431.06C426.394 431.218 426.227 431.303 426.059 431.303V431.305Z" fill="#1B1B1B"/>
<path d="M430.46 432.046C430.379 432.046 430.296 432.025 430.219 431.983C429.981 431.85 429.896 431.547 430.028 431.309L431.975 427.828C432.108 427.59 432.411 427.502 432.649 427.637C432.888 427.769 432.973 428.073 432.841 428.311L430.894 431.792C430.804 431.954 430.635 432.046 430.46 432.046Z" fill="#1B1B1B"/>
<path d="M431.273 271.779C431.273 271.779 453.431 305.313 460.998 326.613C462.437 330.662 461.326 335.174 458.17 338.096C449.371 346.239 430.551 363.458 418.47 373.069L414.86 363.914C414.86 363.914 419.221 342.718 435.582 333.168L415.283 302.928L410.812 279.391L431.273 271.779Z" fill="#1B1B1B"/>
<path d="M392.846 280.855C392.846 280.855 399.408 330.981 400.413 343.783C401.418 356.584 400.491 370.827 399.995 381.28C399.498 391.732 411.369 416.035 411.369 416.035L422.812 414.013L424.934 296.273L428.011 274.479L392.844 280.855H392.846Z" fill="#1B1B1B"/>
<path d="M423.591 371.393C423.317 371.393 423.097 371.171 423.097 370.897L423.157 352.762C423.157 352.488 423.38 352.267 423.652 352.267C423.926 352.267 424.146 352.49 424.146 352.764L424.086 370.899C424.086 371.173 423.863 371.393 423.591 371.393Z" fill="#FDFDFD"/>
<path d="M424.77 315.353C424.496 315.353 424.275 315.131 424.275 314.859V305.503C424.275 305.336 424.359 305.181 424.496 305.089L430.015 301.424C430.244 301.274 430.55 301.334 430.702 301.563C430.853 301.79 430.792 302.098 430.565 302.251L425.269 305.77V314.861C425.269 315.135 425.046 315.355 424.774 315.355L424.77 315.353Z" fill="#FDFDFD"/>
<path d="M397.378 307.773C397.237 307.773 397.097 307.713 396.998 307.598C396.823 307.389 396.848 307.077 397.057 306.9C397.118 306.848 403.086 301.674 405.091 288.987C405.134 288.717 405.39 288.531 405.658 288.576C405.927 288.618 406.112 288.872 406.069 289.142C404.001 302.226 397.952 307.441 397.695 307.657C397.603 307.735 397.488 307.773 397.376 307.773H397.378Z" fill="#FDFDFD"/>
<path d="M452.238 239.622C453.389 239.068 454.453 238.349 455.424 237.52C456.543 236.566 458.96 234.994 463.881 233.39C465.259 232.941 464.829 234.239 463.82 235.301C463.074 236.085 459.05 238.852 459.221 238.845C466.072 238.641 471.034 237.192 471.034 237.192C470.045 246.34 455.122 245.814 453.412 245.996" fill="#FDFDFD"/>
<path d="M451.487 238.935C452.542 238.428 454.223 237.55 455.212 236.71C456.44 235.665 458.933 234.084 463.84 232.483C464.685 232.207 465.07 232.476 465.243 232.75C465.778 233.595 464.553 234.954 464.301 235.219C463.831 235.71 462.289 236.838 461.048 237.741C461.003 237.774 460.956 237.808 460.909 237.842C466.785 237.491 470.962 236.292 471.007 236.281C471.173 236.234 471.342 236.27 471.472 236.377C471.602 236.485 471.667 236.649 471.649 236.818C470.717 245.449 458.49 245.884 454.473 246.026C454.057 246.041 452.753 246.143 452.587 246.16L451.487 238.935ZM453.418 245.076C453.436 245.071 453.457 245.069 453.472 245.067C453.668 245.046 453.989 245.035 454.437 245.02C458.114 244.889 469.062 244.501 470.532 237.444C468.873 237.853 464.647 238.76 459.351 238.92C459.13 238.926 458.926 238.787 458.854 238.578C458.766 238.321 459.299 237.771 460.455 236.928C461.534 236.142 463.163 234.951 463.57 234.525C464.018 234.055 464.256 233.626 464.335 233.39C464.287 233.399 464.227 233.415 464.152 233.44C459.4 234.989 457.024 236.49 455.866 237.476C454.812 238.372 453.704 239.104 452.571 239.647" fill="#1B1B1B"/>
<path d="M452.033 238.989C452.033 238.989 444.541 250.948 437.55 249.693C432.609 248.806 430.05 243.476 425.811 237.498C421.571 231.519 416.436 228.361 416.436 228.361C416.436 228.361 407.258 225.26 396.036 225.743C385.005 226.216 375.307 233.125 371.45 243.46C368.451 251.494 366.268 263.231 368.186 279.412C371.843 310.271 397.67 306.262 397.67 306.262L401.861 299.677C401.861 299.677 390.308 298.909 387.604 283.012C386.615 277.202 388.842 268.558 388.842 268.558L390.686 281.833C390.944 283.695 392.448 285.133 394.321 285.306C396.432 285.501 399.633 285.478 404.086 284.652C413.235 282.952 422.266 277.189 428.09 276.531C432.004 276.088 432.943 273.724 432.732 270.591C435.012 271.098 437.253 271.21 439.31 270.698C453.892 267.065 456.552 242.045 456.552 242.045L452.031 238.987L452.033 238.989Z" fill="#FDFDFD"/>
<path d="M394.719 306.936C391.016 306.936 384.535 306.197 378.74 301.802C372.614 297.156 368.896 289.641 367.691 279.469C366.059 265.686 367.165 253.511 370.982 243.286C374.892 232.813 384.715 225.732 396.011 225.247C407.197 224.766 416.5 227.859 416.592 227.89C416.628 227.902 416.661 227.917 416.693 227.938C416.906 228.068 421.964 231.217 426.213 237.209C427.018 238.343 427.755 239.443 428.468 240.508C431.467 244.984 433.834 248.519 437.635 249.202C437.954 249.26 438.278 249.287 438.602 249.287C444.916 249.287 451.541 238.835 451.611 238.722C451.683 238.608 451.797 238.529 451.928 238.5C452.06 238.473 452.198 238.5 452.308 238.574L456.194 245.078C456.345 245.181 456.428 245.359 456.41 245.541C456.3 246.576 454.178 267.499 439.429 271.175C437.608 271.629 435.533 271.638 433.251 271.2C433.296 274.719 431.619 276.624 428.144 277.017C425.435 277.324 422.03 278.757 418.087 280.415C413.831 282.205 409.009 284.235 404.174 285.133C400.415 285.832 397.084 286.052 394.274 285.794C392.163 285.598 390.484 283.995 390.194 281.897L388.735 271.389C388.164 274.382 387.469 279.263 388.092 282.926C390.702 298.261 401.782 299.17 401.892 299.179C402.067 299.19 402.223 299.294 402.301 299.449C402.38 299.606 402.371 299.79 402.276 299.938L398.086 306.523C398.01 306.644 397.886 306.725 397.745 306.748C397.607 306.768 396.477 306.936 394.719 306.936ZM398.408 226.186C397.634 226.186 396.85 226.202 396.056 226.235C385.16 226.705 375.683 233.532 371.913 243.632C368.152 253.709 367.062 265.727 368.676 279.352C369.849 289.248 373.437 296.536 379.34 301.014C386.878 306.732 395.87 305.973 397.374 305.8L401.031 300.051C398.316 299.518 389.434 296.747 387.112 283.096C386.116 277.248 388.267 268.792 388.359 268.435C388.418 268.206 388.627 268.06 388.867 268.065C389.103 268.078 389.297 268.256 389.33 268.491L391.174 281.767C391.401 283.409 392.714 284.662 394.364 284.814C396.234 284.987 399.422 285.017 403.992 284.168C408.724 283.29 413.494 281.282 417.702 279.51C421.715 277.821 425.181 276.363 428.032 276.04C431.208 275.68 432.467 274.061 432.235 270.625C432.224 270.47 432.289 270.317 432.406 270.216C432.525 270.115 432.685 270.075 432.836 270.108C435.214 270.638 437.352 270.677 439.186 270.219C452.425 266.919 455.028 248.528 455.387 245.732L452.171 239.681C450.714 241.876 444.004 251.349 437.46 250.179C433.245 249.422 430.772 245.732 427.645 241.06C426.935 240 426.202 238.904 425.406 237.781C421.486 232.254 416.745 229.144 416.223 228.811C415.508 228.58 407.892 226.186 398.408 226.186Z" fill="#1B1B1B"/>
<path d="M389.778 267.424C389.729 267.424 389.677 267.417 389.627 267.401C389.367 267.318 389.223 267.04 389.304 266.779L393.89 252.313C393.973 252.053 394.252 251.907 394.512 251.99C394.773 252.073 394.917 252.352 394.836 252.612L390.25 267.078C390.183 267.289 389.989 267.424 389.778 267.424Z" fill="#1B1B1B"/>
<path d="M432.553 267.557C432.301 267.557 432.085 267.366 432.061 267.11C431.314 259.407 423.28 241.621 423.199 241.442C423.087 241.192 423.199 240.898 423.446 240.786C423.696 240.674 423.988 240.784 424.103 241.033C424.435 241.77 432.283 259.15 433.047 267.013C433.074 267.285 432.874 267.528 432.602 267.555C432.587 267.555 432.571 267.557 432.553 267.557Z" fill="#1B1B1B"/>
<path d="M403.495 210.91L393.217 226.27C393.217 226.27 401.818 229.964 407.08 230.762C412.343 231.557 405.918 225.994 405.918 225.994L410.077 216.541L403.495 210.91Z" fill="#FDFDFD"/>
<path d="M407.988 231.337C407.653 231.337 407.309 231.296 407.006 231.251C401.741 230.456 393.374 226.879 393.021 226.726C392.886 226.668 392.783 226.553 392.742 226.412C392.7 226.27 392.724 226.117 392.805 225.996L403.083 210.637C403.162 210.52 403.288 210.441 403.427 210.421C403.566 210.398 403.708 210.443 403.816 210.535L410.398 216.166C410.564 216.307 410.618 216.541 410.528 216.741L406.516 225.861C407.813 227.02 410.137 229.336 409.546 230.616C409.285 231.182 408.649 231.337 407.988 231.337ZM393.963 226.048C395.937 226.865 402.775 229.61 407.154 230.272C408.46 230.468 408.647 230.203 408.647 230.2C408.851 229.756 407.397 227.93 405.592 226.367C405.428 226.225 405.376 225.992 405.464 225.794L409.476 216.678L403.598 211.649L393.963 226.048Z" fill="#1B1B1B"/>
<path d="M423.376 203.589C420.516 201.063 416.949 203.461 413.615 200.371C412.089 198.954 411.99 197.667 410.124 196.854C408.887 196.315 406.669 195.895 405.142 196.973C403.198 198.345 404.508 200.643 402.791 205.626C401.584 209.125 400.035 210.61 400.828 211.883C401.631 213.17 403.634 212.326 404.614 213.664C405.884 215.398 403.357 217.945 404.03 220.35C404.452 221.866 406.509 224.033 411.652 225.161C412.486 225.343 413.332 224.907 413.662 224.121C414.085 223.113 414.613 221.839 415.013 220.577C416.926 214.567 416.09 212.211 417.639 211.483C420.013 210.367 422.688 214.181 424.459 213.123C426.3 212.025 426.312 206.185 423.376 203.591V203.589Z" fill="#1B1B1B"/>
<path d="M411.048 206.114L412.102 206.534C412.102 206.534 409.079 213.447 408.591 215.549C408.105 217.654 414.512 219.653 414.512 219.653L415.555 218.938L416.337 219.165C416.58 219.235 416.841 219.192 417.048 219.048C417.254 218.905 417.385 218.673 417.403 218.422C417.535 216.49 417.972 212.264 419.325 209.225C419.325 209.225 416.405 205.409 411.05 206.117L411.048 206.114Z" fill="#FDFDFD"/>
<path d="M411.54 206.176C411.728 206.169 411.897 206.115 412.007 206.068C412.117 206.023 412.187 206.021 412.29 206.061C412.551 206.163 412.679 206.457 412.578 206.715L412.574 206.728L412.569 206.737C412.003 208.056 411.456 209.388 410.915 210.715C410.375 212.042 409.842 213.381 409.391 214.722C409.285 215.049 409.175 215.404 409.11 215.69C409.074 215.851 409.139 216.058 409.305 216.289C409.642 216.75 410.225 217.154 410.809 217.5C412 218.189 413.34 218.73 414.664 219.175L414.233 219.24C414.583 219.007 414.925 218.76 415.285 218.537L415.325 218.513C415.44 218.441 415.577 218.432 415.696 218.472C415.928 218.553 416.153 218.659 416.38 218.751L416.505 218.807C416.537 218.818 416.571 218.829 416.604 218.832C416.674 218.836 416.746 218.825 416.809 218.789C416.937 218.724 417.025 218.591 417.049 218.452L417.101 217.756C417.182 216.772 417.285 215.791 417.416 214.811C417.692 212.855 418.084 210.895 418.877 209.019L418.936 209.52C418.506 209.006 417.928 208.498 417.337 208.092C416.739 207.676 416.09 207.337 415.411 207.083C414.732 206.827 414.019 206.666 413.3 206.587C412.938 206.553 412.576 206.524 412.212 206.533C412.03 206.529 411.848 206.547 411.666 206.553L411.598 206.558C411.585 206.558 411.596 206.558 411.598 206.553C411.605 206.547 411.625 206.524 411.639 206.484C411.675 206.401 411.639 206.255 411.549 206.176H411.54ZM410.557 206.055C410.658 205.958 410.814 205.79 411.038 205.686C411.148 205.635 411.263 205.603 411.367 205.585C411.416 205.576 411.474 205.57 411.508 205.567L411.585 205.563C411.787 205.552 411.987 205.531 412.189 205.531C412.594 205.516 412.999 205.54 413.403 205.574C414.21 205.664 415.006 205.85 415.764 206.14C416.523 206.428 417.243 206.809 417.906 207.274C418.571 207.748 419.169 208.253 419.718 208.925C419.835 209.069 419.853 209.26 419.781 209.417L419.776 209.426C419.385 210.281 419.084 211.191 418.825 212.116C418.567 213.042 418.356 213.985 418.189 214.939C418.021 215.892 417.89 216.855 417.807 217.821L417.776 218.182C417.762 218.317 417.767 218.389 417.735 218.587C417.672 218.928 417.445 219.231 417.142 219.4C416.991 219.485 416.822 219.541 416.647 219.561C416.559 219.57 416.469 219.577 416.382 219.568C416.287 219.561 416.2 219.541 416.15 219.534C415.907 219.492 415.662 219.46 415.422 219.406L415.831 219.341C415.494 219.595 415.141 219.824 414.795 220.069C414.664 220.161 414.502 220.179 414.363 220.134C412.954 219.674 411.596 219.144 410.283 218.403C409.636 218.016 408.981 217.612 408.444 216.916C408.314 216.736 408.195 216.534 408.114 216.291C408.035 216.051 408.006 215.766 408.06 215.496C408.154 215.079 408.262 214.749 408.377 214.389C408.849 212.999 409.384 211.658 409.93 210.317C410.476 208.977 411.052 207.656 411.634 206.331L411.913 207.007C411.663 206.908 411.382 206.767 411.142 206.58C410.899 206.396 410.719 206.201 410.555 206.055H410.557Z" fill="#1B1B1B"/>
<path d="M408.68 210.99C408.68 210.99 409.398 206.912 407.471 206.977C405.545 207.044 404.868 211.554 408.68 210.99Z" fill="#FDFDFD"/>
<path d="M59.2006 267.581C58.9331 268.298 58.5532 268.96 58.0272 269.547C56.6806 271.045 54.6439 271.687 52.7107 272.264C51.1146 272.74 49.4938 273.221 47.8281 273.234C44.5325 273.261 41.455 271.465 38.1617 271.307C35.9317 271.2 33.7467 271.849 31.5459 272.221C27.3939 272.927 24.0691 271.251 20.9804 268.536C15.511 263.723 15.801 250.198 21.095 241.628C26.6902 232.573 35.3989 233.049 36.6039 225.28C37.2985 220.811 34.3514 218.949 35.8395 214.186C36.6196 211.693 38.8698 209.55 43.3703 205.263C49.541 199.385 52.124 198.492 53.0187 198.211C54.536 197.737 57.6113 196.823 60.8686 198.159C61.8465 198.561 64.2541 199.547 65.1285 201.948C66.0457 204.468 64.7059 206.976 63.9776 208.34C62.3478 211.394 60.2707 212.216 59.1017 213.649C53.8639 220.072 63.7348 229.163 61.3879 243.674C60.8844 246.787 59.6367 249.612 58.8274 252.633C57.7754 256.559 59.4097 257.574 59.6749 261.102C59.8368 263.26 59.9357 265.612 59.1984 267.579L59.2006 267.581Z" fill="#1B1B1B"/>
<path d="M88.618 406.425L86.1699 411.766C86.2801 412.22 86.5296 412.667 87.0197 413.226C89.6183 416.188 96.659 413.825 98.3405 413.262C104.527 411.187 105.309 408.624 110.878 406.663C114.701 405.316 118.143 405.181 120.369 405.26C120.106 404.714 119.647 403.86 118.802 403.101C117.599 402.021 115.562 400.939 112.222 400.93C105.539 400.912 88.6225 406.425 88.6225 406.425H88.618Z" fill="#FDFDFD"/>
<path d="M91.2414 415.174C88.7596 415.174 87.3974 414.406 86.6488 413.552C86.1205 412.951 85.826 412.436 85.6911 411.884C85.6642 411.776 85.6754 411.661 85.7226 411.56L88.1707 406.22C88.2291 406.094 88.337 405.997 88.4674 405.955C89.1598 405.73 105.48 400.434 112.188 400.434H112.222C115.83 400.445 117.972 401.69 119.132 402.734C120.031 403.543 120.524 404.441 120.816 405.047C120.89 405.204 120.879 405.389 120.784 405.532C120.69 405.678 120.535 405.775 120.353 405.757C117.093 405.645 113.962 406.105 111.046 407.131C108.432 408.052 106.921 409.094 105.321 410.197C103.581 411.394 101.782 412.634 98.5047 413.734C95.3867 414.781 93.0286 415.176 91.2482 415.176L91.2414 415.174ZM86.6982 411.805C86.8129 412.144 87.0332 412.488 87.3929 412.901C88.2831 413.916 90.8682 415.248 98.1809 412.796C101.328 411.74 103.068 410.541 104.752 409.382C106.337 408.29 107.973 407.163 110.711 406.197C113.443 405.236 116.351 404.749 119.375 404.749H119.526C119.274 404.34 118.932 403.888 118.467 403.468C116.988 402.137 114.825 401.431 112.217 401.422H112.186C106.031 401.422 90.9222 406.204 88.9799 406.826L86.6982 411.803V411.805Z" fill="#1B1B1B"/>
<path d="M109.774 431.345C109.774 431.345 121.128 435.707 121.117 428.271C121.117 428.028 111.785 397.947 111.785 397.947L98.4189 405.17L109.774 431.345Z" fill="#FDFDFD"/>
<path d="M116.113 433.11C113.04 433.11 109.792 431.882 109.598 431.808C109.475 431.761 109.373 431.664 109.322 431.543L97.9672 405.367C97.8638 405.131 97.9605 404.857 98.1853 404.734L111.552 397.511C111.682 397.441 111.837 397.432 111.974 397.488C112.112 397.545 112.217 397.659 112.26 397.801C121.612 427.954 121.614 428.176 121.614 428.27C121.616 430.042 121.016 431.354 119.829 432.169C118.815 432.866 117.482 433.11 116.113 433.11ZM110.145 430.954C111.235 431.341 116.686 433.131 119.267 431.354C120.171 430.732 120.613 429.742 120.622 428.327C120.326 427.199 114.647 408.844 111.493 398.67L99.0552 405.389L110.145 430.954Z" fill="#1B1B1B"/>
<path d="M108.375 439.13H136.511C137.271 439.13 137.858 438.463 137.759 437.713L137.55 436.114C137.021 434.697 135.992 433.518 134.656 432.804L119.397 424.624C119.397 424.624 114.474 425.666 114.899 430.823C114.899 430.823 111.583 427.645 108.528 429.87C108.528 429.87 107.337 433.832 107.436 438.216C107.447 438.726 107.867 439.132 108.377 439.132L108.375 439.13Z" fill="#FDFDFD"/>
<path d="M136.511 439.625H108.375C107.599 439.625 106.954 438.996 106.939 438.226C106.84 433.815 108.002 429.891 108.051 429.727C108.083 429.624 108.146 429.534 108.233 429.469C110.427 427.87 112.88 428.75 114.386 429.779C114.651 425.179 119.242 424.151 119.291 424.14C119.406 424.115 119.525 424.133 119.628 424.189L134.888 432.369C136.331 433.141 137.442 434.412 138.012 435.944C138.026 435.98 138.035 436.016 138.039 436.052L138.249 437.651C138.314 438.149 138.161 438.652 137.828 439.03C137.495 439.409 137.014 439.627 136.511 439.627V439.625ZM108.955 430.172C108.739 430.954 107.845 434.444 107.928 438.201C107.932 438.439 108.132 438.632 108.375 438.632H136.511C136.733 438.632 136.938 438.54 137.084 438.374C137.23 438.208 137.295 437.994 137.266 437.777L137.064 436.234C136.572 434.951 135.634 433.889 134.42 433.238L119.329 425.148C118.504 425.377 115.045 426.594 115.391 430.778C115.409 430.983 115.297 431.176 115.11 431.266C114.923 431.356 114.703 431.32 114.555 431.178C114.433 431.064 111.596 428.409 108.955 430.172Z" fill="#1B1B1B"/>
<path d="M128.643 433.859C128.618 433.859 128.591 433.859 128.564 433.852C121.148 432.686 116.755 428.803 116.571 428.639C116.366 428.457 116.351 428.145 116.533 427.941C116.715 427.739 117.03 427.721 117.232 427.903C117.275 427.941 121.607 431.757 128.717 432.873C128.987 432.915 129.171 433.169 129.131 433.439C129.092 433.684 128.881 433.856 128.643 433.856V433.859Z" fill="#1B1B1B"/>
<path d="M136.726 437.804H108.424C108.15 437.804 107.93 437.581 107.93 437.31C107.93 437.038 108.152 436.815 108.424 436.815H136.726C137.001 436.815 137.221 437.038 137.221 437.31C137.221 437.581 136.998 437.804 136.726 437.804Z" fill="#1B1B1B"/>
<path d="M49.7641 414.359C47.2779 413.808 42.5121 412.755 41.4578 409.501C40.6598 407.037 42.3683 404.472 42.7572 403.888C47.5634 396.675 63.4881 394.635 72.5025 401.699C77.2592 405.425 80.4784 411.987 78.7969 414.082C77.774 415.356 75.6182 414.136 70.3467 413.674C60.5073 412.809 57.9918 416.178 49.7641 414.359Z" fill="#FDFDFD"/>
<path d="M54.4823 415.4C53.0593 415.4 51.4925 415.249 49.6581 414.843C47.028 414.261 42.1296 413.176 40.9899 409.655C40.4189 407.892 40.8888 405.805 42.3477 403.616C44.499 400.388 48.8241 398.041 54.2148 397.174C61.1364 396.063 68.0871 397.61 72.8101 401.309C76.3665 404.096 79.3316 408.649 79.707 411.901C79.8306 412.967 79.6553 413.807 79.1854 414.394C78.3514 415.431 77.0454 415.198 74.8783 414.811C73.6869 414.598 72.2032 414.335 70.3059 414.167C65.7312 413.762 62.7055 414.301 60.0371 414.773C58.2455 415.09 56.51 415.397 54.4846 415.397L54.4823 415.4ZM49.8717 413.877C54.1249 414.818 56.7843 414.346 59.8618 413.801C62.5908 413.316 65.6863 412.768 70.3891 413.181C72.3313 413.351 73.8375 413.621 75.0491 413.837C77.1083 414.205 77.9603 414.331 78.4099 413.774C78.7044 413.408 78.8123 412.799 78.7224 412.015C78.4211 409.414 75.8989 404.99 72.1965 402.091C67.687 398.558 61.0217 397.089 54.3699 398.154C49.2513 398.976 45.1689 401.165 43.1705 404.166C41.8846 406.095 41.4552 407.887 41.9296 409.352C42.8962 412.334 47.4326 413.338 49.8717 413.879L49.7661 414.362L49.874 413.879L49.8717 413.877Z" fill="#1B1B1B"/>
<path d="M51.1438 400.933C50.7481 401.185 55.8893 432.492 55.8893 432.492L66.1581 433.743L65.7062 403.579L51.1438 400.933Z" fill="#FDFDFD"/>
<path d="M66.1583 434.236C66.1381 434.236 66.1178 434.236 66.0976 434.232L55.8288 432.981C55.6108 432.954 55.4354 432.787 55.3994 432.57C55.386 432.491 54.1001 424.651 52.8772 416.88C50.355 400.842 50.4876 400.759 50.8765 400.512C50.9822 400.445 51.108 400.42 51.2294 400.442L65.7919 403.088C66.0257 403.131 66.1943 403.331 66.1988 403.569L66.6506 433.733C66.6506 433.877 66.5922 434.014 66.4865 434.108C66.3943 434.189 66.2774 434.234 66.1561 434.234L66.1583 434.236ZM56.3189 432.044L65.6548 433.18L65.2164 403.991L51.6408 401.523C51.9151 404.662 54.4913 420.898 56.3189 432.042V432.044Z" fill="#1B1B1B"/>
<path d="M82.7975 439.128H54.5358C54.5358 439.128 53.495 432.123 55.1225 429.004L56.0038 429.99C56.4601 430.502 57.2446 430.542 57.7527 430.084C58.8767 429.076 60.8504 427.432 62.5544 426.655C65.8634 425.148 76.9392 432.624 81.1812 435.16C82.186 435.762 82.7997 436.842 82.7997 438.012V439.126L82.7975 439.128Z" fill="#FDFDFD"/>
<path d="M82.7976 439.624H54.5359C54.2909 439.624 54.0819 439.444 54.0459 439.202C54.0032 438.91 53.0006 431.999 54.6843 428.776C54.7607 428.632 54.9001 428.534 55.062 428.513C55.2216 428.493 55.3857 428.554 55.4936 428.675L56.3748 429.661C56.5052 429.807 56.6873 429.895 56.8828 429.906C57.0874 429.913 57.274 429.85 57.4224 429.715C58.7307 428.54 60.6482 426.977 62.3477 426.205C65.1869 424.913 72.2523 429.046 79.2458 433.389C80.0866 433.91 80.8306 434.373 81.4331 434.734C82.5796 435.419 83.2922 436.677 83.2922 438.011V439.125C83.2922 439.399 83.0696 439.619 82.7976 439.619V439.624ZM54.9698 438.633H82.3031V438.013C82.3031 437.023 81.7748 436.093 80.925 435.586C80.3158 435.222 79.5673 434.757 78.722 434.231C74.0485 431.327 65.351 425.924 62.7591 427.107C61.0911 427.867 59.1128 429.531 58.0833 430.454C57.7371 430.764 57.2897 430.912 56.8266 430.896C56.3636 430.869 55.9409 430.667 55.633 430.321L55.271 429.917C54.3336 432.612 54.7967 437.223 54.9698 438.636V438.633Z" fill="#1B1B1B"/>
<path d="M81.4777 437.422H55.1313C54.857 437.422 54.6367 437.2 54.6367 436.928C54.6367 436.656 54.8593 436.434 55.1313 436.434H81.4777C81.7519 436.434 81.9722 436.656 81.9722 436.928C81.9722 437.2 81.7497 437.422 81.4777 437.422Z" fill="#1B1B1B"/>
<path d="M69.6179 434.049C69.5437 434.049 69.4673 434.031 69.3954 433.995L61.2464 429.887C61.0014 429.764 60.9047 429.467 61.0284 429.223C61.152 428.98 61.451 428.881 61.6938 429.002L69.8427 433.11C70.0877 433.234 70.1844 433.53 70.0608 433.775C69.9731 433.948 69.8 434.047 69.6179 434.047V434.049Z" fill="#1B1B1B"/>
<path d="M120.367 405.261C114.933 388.044 109.45 370.839 103.914 353.647C96.4526 330.476 88.8994 307.337 81.2562 284.231C69.3869 285.621 42.8809 276.624 45.6481 288.402C47.0194 294.241 46.8935 295.532 46.7451 297.706C45.5987 314.687 43.8183 326.826 43.8745 331.071C43.9262 334.835 44.0723 346.148 43.8183 361.613C43.7778 364.137 43.7059 366.832 43.5912 370.077C43.0112 386.418 41.9142 390.405 41.8266 403.716C41.8153 405.587 41.8221 407.399 41.8468 409.16C47.8871 407.979 54.7884 407.649 62.1056 409.299C67.8919 410.604 68.5461 411.932 73.7569 412.635C75.4699 412.866 77.0705 412.945 78.5924 412.911C74.3189 356.034 74.6337 342.99 74.6337 342.99C76.259 355.623 78.2776 368.809 80.7752 382.479C82.6095 392.521 84.5967 402.22 86.6896 411.588C92.8558 409.769 98.2622 406.58 105.624 405.223C109.468 404.516 114.378 404.213 120.367 405.259V405.261Z" fill="#1B1B1B"/>
<path d="M74.6335 342.534C74.366 342.534 74.1456 342.321 74.1389 342.054L73.3791 314.158C73.3746 313.989 73.4555 313.832 73.5926 313.738L77.2299 311.234C77.4547 311.079 77.7627 311.135 77.92 311.359C78.0751 311.584 78.0189 311.894 77.7919 312.049L74.3749 314.4L75.1258 342.029C75.1325 342.303 74.9167 342.53 74.6447 342.537H74.6312L74.6335 342.534Z" fill="#FDFDFD"/>
<path d="M112.592 234.073L107.844 234.389C107.277 236.44 106.23 239.413 104.195 242.573C102.312 245.497 98.3012 251.723 93.4366 251.871C88.4213 252.022 84.7549 241.378 78.3751 235.746C70.0373 235.023 62.9449 235.355 57.57 235.916C50.5608 236.649 45.2533 237.897 43.084 238.439C37.7765 239.768 33.2221 241.372 29.2993 242.946C27.0199 250.135 20.3906 267.669 23.3152 288.506C25.5519 304.445 42.803 314.518 47.4631 319.699C48.6118 318.412 49.5694 316.916 50.3674 315.319C49.0074 312.874 46.9685 309.211 44.4755 304.759C39.703 296.234 38.7566 294.61 38.3542 293.844C36.2389 289.822 35.2947 283.181 39.0533 271.502C38.8757 273.715 38.8308 276.106 38.9926 278.655C39.4265 285.389 39.8064 291.304 43.7943 294.049C47.1753 296.375 49.6391 294.011 63.9655 291.585C75.6978 289.6 80.6366 290.071 84.1142 285.741C86.0295 283.356 86.6207 280.612 86.814 278.651C85.8969 274.307 84.9954 269.919 84.103 265.51C88.0392 267.574 92.4835 268.448 96.1904 267.833C106.596 266.106 116.009 251.853 112.589 234.07L112.592 234.073Z" fill="#FDFDFD"/>
<path d="M47.4633 320.196C47.3217 320.196 47.1891 320.138 47.0947 320.032C46.0314 318.851 44.2487 317.366 42.1828 315.648C35.1668 309.811 24.5653 300.989 22.8232 288.579C20.1233 269.347 25.5657 252.757 28.1824 244.784C28.4206 244.054 28.6387 243.394 28.8253 242.801C28.8702 242.659 28.9759 242.547 29.113 242.491C33.8495 240.591 38.3792 239.111 42.9629 237.963C47.5173 236.822 52.5505 235.946 57.5186 235.428C64.4064 234.707 71.4381 234.648 78.4181 235.255C78.5237 235.264 78.6227 235.306 78.7036 235.376C81.3854 237.743 83.6177 241.013 85.5892 243.897C88.3272 247.908 90.6966 251.378 93.3335 251.378C93.3627 251.378 93.3942 251.378 93.4234 251.378C98.0273 251.239 101.912 245.206 103.78 242.309C105.369 239.843 106.576 237.134 107.368 234.262C107.424 234.06 107.601 233.914 107.813 233.9L112.56 233.584C112.81 233.566 113.033 233.739 113.08 233.984C114.914 243.524 113.192 252.975 108.357 259.912C105.099 264.586 100.808 267.573 96.2738 268.325C92.7557 268.909 88.6217 268.213 84.7911 266.409C85.724 271.007 86.5243 274.888 87.2999 278.555C87.3111 278.605 87.3134 278.656 87.3089 278.706C87.0211 281.625 86.077 284.098 84.5034 286.056C81.7091 289.535 77.964 290.059 71.1683 291.004C69.1047 291.292 66.7645 291.617 64.0512 292.078C58.8876 292.951 55.2481 293.823 52.591 294.458C47.8275 295.599 45.856 296.071 43.5159 294.458C39.3301 291.577 38.9457 285.605 38.5006 278.69C38.4332 277.648 38.3994 276.597 38.3994 275.543C36.419 283.281 36.5494 289.349 38.7951 293.616C38.9839 293.978 39.3144 294.562 40.1079 295.97C40.9824 297.522 42.4301 300.086 44.9096 304.518C47.4026 308.971 49.4416 312.634 50.8016 315.08C50.8803 315.221 50.8848 315.394 50.8128 315.54C49.9473 317.274 48.9447 318.783 47.8365 320.028C47.7421 320.133 47.6094 320.194 47.4678 320.194L47.4633 320.196ZM29.6997 243.322C29.5289 243.859 29.3333 244.449 29.1243 245.092C26.5323 252.995 21.1394 269.437 23.8055 288.442C25.4938 300.475 35.9199 309.149 42.8167 314.889C44.6848 316.443 46.3258 317.809 47.4476 318.963C48.3108 317.923 49.1021 316.708 49.8057 315.336C48.4479 312.892 46.4562 309.321 44.0419 305.005C41.5624 300.576 40.1169 298.009 39.2424 296.459C38.4197 295 38.1117 294.454 37.9139 294.079C35.1781 288.877 35.4006 281.23 38.5793 271.355C38.6557 271.115 38.9007 270.969 39.148 271.02C39.3953 271.07 39.5661 271.294 39.5459 271.546C39.3571 273.906 39.3369 276.289 39.4875 278.627C39.9146 285.286 40.2855 291.036 44.0756 293.645C46.0516 295.006 47.6409 294.627 52.3572 293.495C55.0278 292.855 58.6853 291.979 63.8826 291.101C66.6094 290.64 68.9563 290.312 71.0267 290.023C77.7864 289.079 81.1786 288.608 83.7256 285.434C85.162 283.644 86.032 281.372 86.3108 278.681C85.4858 274.773 84.6293 270.616 83.6154 265.61C83.5772 265.424 83.6514 265.23 83.8043 265.116C83.9571 265.001 84.1617 264.986 84.3325 265.073C88.2238 267.115 92.5175 267.941 96.1097 267.346C100.379 266.636 104.439 263.795 107.543 259.342C112.154 252.725 113.837 243.728 112.185 234.597L108.226 234.862C107.408 237.705 106.192 240.389 104.612 242.844C102.654 245.884 98.5758 252.213 93.4526 252.368C93.4121 252.368 93.3717 252.368 93.329 252.368C90.1728 252.368 87.6663 248.699 84.7686 244.456C82.8624 241.664 80.7043 238.504 78.1686 236.225C71.3055 235.641 64.3951 235.702 57.622 236.409C52.7011 236.923 47.7151 237.793 43.2056 238.92C38.7366 240.038 34.3171 241.478 29.702 243.32L29.6997 243.322Z" fill="#1B1B1B"/>
<path d="M107.104 227.238L109.638 218.825C109.813 218.241 110.382 217.866 110.991 217.936C111.679 218.014 112.176 218.632 112.104 219.319L111.74 222.769L115.096 225.457C116.13 226.286 116.535 227.667 116.112 228.92L114.995 232.235C114.435 233.895 112.913 235.043 111.16 235.126L109.98 235.182C108.163 235.269 106.491 234.196 105.818 232.511L105.025 230.526C104.526 229.282 105.182 227.874 106.457 227.452L107.104 227.236V227.238Z" fill="#FDFDFD"/>
<path d="M109.777 235.686C107.84 235.686 106.084 234.51 105.36 232.699L104.567 230.714C104.274 229.984 104.297 229.189 104.627 228.477C104.96 227.763 105.553 227.235 106.302 226.986L106.707 226.851L109.166 218.685C109.411 217.872 110.202 217.351 111.05 217.448C112.005 217.555 112.7 218.42 112.601 219.375L112.266 222.557L115.413 225.077C116.604 226.031 117.077 227.642 116.589 229.086L115.471 232.401C114.842 234.267 113.161 235.534 111.189 235.628L110.009 235.684C109.932 235.686 109.856 235.689 109.782 235.689L109.777 235.686ZM110.847 218.425C110.512 218.425 110.211 218.642 110.112 218.97L107.579 227.383C107.532 227.538 107.415 227.66 107.26 227.711L106.612 227.927C106.124 228.089 105.738 228.432 105.524 228.895C105.308 229.357 105.295 229.872 105.484 230.346L106.277 232.331C106.873 233.818 108.35 234.766 109.955 234.691L111.135 234.635C112.695 234.561 114.026 233.557 114.525 232.082L115.642 228.767C115.998 227.716 115.654 226.541 114.786 225.847L111.43 223.159C111.297 223.053 111.23 222.889 111.248 222.721L111.612 219.271C111.654 218.856 111.353 218.478 110.935 218.431C110.906 218.427 110.877 218.427 110.847 218.427V218.425Z" fill="#1B1B1B"/>
<path d="M107.104 227.242L110.022 227.613C110.022 227.613 110.454 229.982 108.617 229.937L107.107 227.242H107.104Z" fill="#FDFDFD"/>
<path d="M108.667 230.431C108.646 230.431 108.624 230.431 108.604 230.431C108.329 230.424 108.114 230.197 108.12 229.923C108.127 229.649 108.343 229.441 108.628 229.441C108.93 229.454 109.152 229.371 109.298 229.2C109.541 228.917 109.584 228.419 109.57 228.053L107.044 227.731C106.772 227.698 106.58 227.448 106.614 227.179C106.648 226.907 106.9 226.721 107.169 226.75L110.087 227.121C110.301 227.148 110.474 227.311 110.512 227.523C110.539 227.673 110.759 229.021 110.054 229.843C109.822 230.112 109.395 230.431 108.669 230.431H108.667Z" fill="#1B1B1B"/>
<path d="M111.926 228.168C111.899 228.168 111.87 228.165 111.843 228.161C111.573 228.116 111.391 227.86 111.438 227.591L112.151 223.418C112.196 223.148 112.454 222.966 112.722 223.013C112.991 223.058 113.174 223.314 113.126 223.584L112.414 227.757C112.373 227.997 112.162 228.168 111.926 228.168Z" fill="#1B1B1B"/>
<path d="M114.015 229.166C113.986 229.166 113.956 229.164 113.927 229.16C113.658 229.11 113.48 228.854 113.527 228.585L114.127 225.27C114.177 225 114.435 224.823 114.703 224.87C114.973 224.919 115.15 225.175 115.103 225.445L114.503 228.76C114.46 229 114.251 229.166 114.015 229.166Z" fill="#1B1B1B"/>
<path d="M83.928 262.826C83.701 262.826 83.4986 262.671 83.4447 262.44L80.1199 247.824C80.0592 247.556 80.2256 247.291 80.4931 247.231C80.7606 247.17 81.0258 247.339 81.0865 247.604L84.4113 262.22C84.472 262.487 84.3057 262.752 84.0381 262.813C84.0022 262.822 83.964 262.824 83.928 262.824V262.826Z" fill="#1B1B1B"/>
<path d="M44.5235 322.316C44.3279 322.316 44.1413 322.2 44.0649 322.006C43.9615 321.753 44.0851 321.465 44.3369 321.362C54.1853 317.371 52.7376 295.265 52.7219 295.042C52.7017 294.771 52.9085 294.533 53.1805 294.515C53.466 294.492 53.6908 294.701 53.7088 294.973C53.7762 295.912 55.2172 318.022 44.7078 322.28C44.6471 322.305 44.5842 322.316 44.5212 322.316H44.5235Z" fill="#FDFDFD"/>
<path d="M66.2817 235.325C63.2762 234.836 61.1204 232.168 61.28 229.134L61.5272 224.422C64.3799 224.199 66.7516 222.845 66.7448 221.944C66.7403 221.507 65.695 217.224 65.0408 215.454C65.5938 215.005 66.266 213.769 65.0746 213.013C63.8854 212.256 61.2103 207.438 61.2103 207.438C57.9125 203.614 56.9571 209.004 54.4933 209.453C52.7871 209.763 51.8609 210.8 52.5061 213.024C53.1512 215.25 51.9261 214.133 50.6695 213.498C49.4151 212.864 48.5609 213.356 49.2487 215.38C49.9366 217.403 52.4476 218.618 52.4476 218.618L53.6368 220.947L51.1303 232.404C50.656 234.569 49.0959 236.338 47.003 237.084L43.5479 238.312L61.7071 247.797L70.4787 236.01L66.284 235.325H66.2817Z" fill="#FDFDFD"/>
<path d="M61.7067 248.292C61.628 248.292 61.5494 248.274 61.4774 248.236L43.3182 238.751C43.1429 238.662 43.0394 238.475 43.0529 238.278C43.0664 238.08 43.1946 237.911 43.3811 237.846L46.8363 236.618C48.7808 235.926 50.206 234.311 50.6466 232.299L53.1172 221.016L52.0808 218.985C51.4941 218.673 49.4327 217.456 48.7808 215.54C48.3694 214.33 48.4234 213.485 48.9472 213.032C49.2079 212.805 49.8059 212.508 50.8939 213.059C51.1299 213.178 51.3637 213.312 51.584 213.44C51.7594 213.541 51.9887 213.674 52.1708 213.762C52.1505 213.631 52.1101 213.438 52.0314 213.164C51.6874 211.974 51.7391 211.004 52.1887 210.276C52.6091 209.6 53.3532 209.16 54.4053 208.967C55.1179 208.836 55.7541 208.1 56.37 207.388C57.1388 206.498 57.9323 205.58 59.0518 205.58C59.8656 205.58 60.6951 206.083 61.5853 207.116C61.6078 207.141 61.6258 207.17 61.6438 207.199C62.6554 209.02 64.5527 212.095 65.3417 212.596C66.0341 213.036 66.2072 213.6 66.2297 213.993C66.2656 214.599 65.9756 215.185 65.616 215.587C66.2724 217.505 67.239 221.427 67.2435 221.939C67.2525 223.199 64.8067 224.544 62.0012 224.872L61.7764 229.159C61.6303 231.946 63.6018 234.388 66.3645 234.837L70.5593 235.522C70.7301 235.549 70.874 235.663 70.9392 235.825C71.0044 235.984 70.9819 236.166 70.8785 236.306L62.1069 248.09C62.0102 248.22 61.8618 248.29 61.709 248.29L61.7067 248.292ZM44.7816 238.399L61.5606 247.162L69.5927 236.369L66.2004 235.816C62.9409 235.284 60.6119 232.4 60.7828 229.108L61.0301 224.396C61.0436 224.149 61.2391 223.947 61.4864 223.929C64.3841 223.704 66.2499 222.361 66.2477 221.948C66.2252 221.528 65.2248 217.386 64.5729 215.626C64.4987 215.428 64.5617 215.203 64.7258 215.071C64.9528 214.887 65.2608 214.449 65.2383 214.051C65.2248 213.809 65.0832 213.607 64.8067 213.431C63.5793 212.652 61.1784 208.405 60.8008 207.725C60.1331 206.959 59.5442 206.57 59.0496 206.57C58.3819 206.57 57.7682 207.282 57.1163 208.037C56.3902 208.879 55.6372 209.748 54.5806 209.941C53.8163 210.081 53.2948 210.368 53.0295 210.797C52.7328 211.275 52.717 211.978 52.98 212.888C53.2228 213.73 53.2993 214.359 52.8744 214.689C52.4023 215.057 51.7931 214.705 51.085 214.296C50.8782 214.177 50.6601 214.051 50.4421 213.941C49.961 213.699 49.671 213.71 49.5923 213.777C49.4934 213.863 49.3923 214.274 49.7137 215.221C50.3297 217.027 52.6361 218.161 52.6608 218.172C52.7575 218.22 52.8362 218.298 52.8856 218.393L54.0748 220.722C54.1265 220.823 54.1422 220.939 54.1175 221.052L51.611 232.508C51.0962 234.855 49.435 236.739 47.1645 237.548L44.7771 238.397L44.7816 238.399Z" fill="#1B1B1B"/>
<path d="M60.5016 225.039C58.3457 225.039 57.0082 223.48 56.5608 222.524C56.4462 222.277 56.5519 221.98 56.8014 221.866C57.0487 221.751 57.3431 221.857 57.46 222.104C57.5117 222.211 58.6784 224.581 61.412 223.936C61.6773 223.871 61.9448 224.037 62.0077 224.305C62.0707 224.57 61.9066 224.837 61.639 224.9C61.2367 224.994 60.8567 225.039 60.5016 225.039Z" fill="#1B1B1B"/>
<path d="M138.107 118.227C147.721 118.227 155.515 110.477 155.515 100.918C155.515 91.3584 147.721 83.6089 138.107 83.6089C128.492 83.6089 120.698 91.3584 120.698 100.918C120.698 110.477 128.492 118.227 138.107 118.227Z" fill="#FDFDFD"/>
<path d="M138.116 118.723C130.412 118.723 123.279 113.735 120.957 106.03C119.588 101.486 120.073 96.6847 122.328 92.5051C124.594 88.3031 128.373 85.233 132.968 83.8652C142.423 81.0466 152.422 86.4031 155.256 95.8065C156.625 100.35 156.14 105.152 153.885 109.331C151.619 113.533 147.84 116.603 143.245 117.971C141.539 118.481 139.813 118.721 138.116 118.721V118.723ZM138.098 84.1033C136.492 84.1033 134.863 84.3324 133.249 84.813C128.91 86.1066 125.34 89.0038 123.2 92.9745C121.071 96.9205 120.613 101.457 121.905 105.745C124.583 114.625 134.029 119.685 142.962 117.023C147.301 115.73 150.871 112.833 153.011 108.862C155.139 104.916 155.598 100.381 154.305 96.0918C152.111 88.8151 145.374 84.1033 138.098 84.1033Z" fill="#1B1B1B"/>
<path d="M132.86 107.694L131.774 94.4927C131.718 93.8189 132.39 93.3203 133.019 93.5696L146.775 98.9956C147.474 99.2719 147.557 100.226 146.916 100.619L134.244 108.395C133.664 108.752 132.914 108.37 132.857 107.694H132.86Z" fill="#1B1B1B"/>
<path d="M163.455 35.495C173.176 35.495 181.057 27.66 181.057 17.9951C181.057 8.3302 173.176 0.495239 163.455 0.495239C153.734 0.495239 145.854 8.3302 145.854 17.9951C145.854 27.66 153.734 35.495 163.455 35.495Z" fill="#FDFDFD"/>
<path d="M163.465 35.9932C155.678 35.9932 148.468 30.9512 146.121 23.1625C144.737 18.5697 145.229 13.7163 147.508 9.49182C149.799 5.24486 153.618 2.14331 158.263 0.759847C167.819 -2.09017 177.928 3.32688 180.792 12.8292C182.177 17.4198 181.684 22.2754 179.405 26.4998C177.114 30.7468 173.295 33.8484 168.651 35.2318C166.924 35.7461 165.18 35.9909 163.465 35.9909V35.9932ZM147.07 22.8772C149.779 31.8585 159.331 36.9769 168.367 34.2841C172.758 32.977 176.366 30.0438 178.531 26.0305C180.684 22.0395 181.147 17.4512 179.841 13.1144C177.132 4.13091 167.581 -0.985199 158.544 1.70761C154.153 3.01471 150.545 5.94782 148.381 9.96121C146.227 13.9521 145.764 18.5405 147.07 22.8772Z" fill="#1B1B1B"/>
<path d="M159.618 29.4618H156.817L160.369 6.79413H163.17L159.618 29.4618Z" fill="#1B1B1B"/>
<path d="M154.551 16.1647L154.931 13.5033H173.067L172.685 16.1647H154.551Z" fill="#1B1B1B"/>
<path d="M153.686 22.2113L154.068 19.5522H172.202L171.822 22.2113H153.686Z" fill="#1B1B1B"/>
<path d="M166.321 29.4618H163.521L167.072 6.79413H169.871L166.321 29.4618Z" fill="#1B1B1B"/>
<path d="M105.117 71.977C117.457 71.977 127.46 61.9832 127.46 49.6552C127.46 37.3272 117.457 27.3334 105.117 27.3334C92.7776 27.3334 82.7744 37.3272 82.7744 49.6552C82.7744 61.9832 92.7776 71.977 105.117 71.977Z" fill="#FDFDFD"/>
<path d="M105.118 72.4699C92.5243 72.4699 82.2803 62.2355 82.2803 49.6541C82.2803 37.0727 92.5266 26.8382 105.118 26.8382C117.709 26.8382 127.957 37.0727 127.957 49.6541C127.957 62.2355 117.711 72.4699 105.118 72.4699ZM105.118 27.8264C93.0706 27.8264 83.2694 37.6184 83.2694 49.6541C83.2694 61.6897 93.0706 71.4817 105.118 71.4817C117.165 71.4817 126.966 61.6897 126.966 49.6541C126.966 37.6184 117.165 27.8264 105.118 27.8264Z" fill="#1B1B1B"/>
<path d="M105.241 60.8797C105.021 61.0167 104.742 61.0234 104.515 60.8954C102.546 59.7949 93.4125 54.297 93.77 47.1057C94.1476 39.5034 102.404 40.8218 104.443 44.5634C104.52 44.7049 104.673 44.7902 104.835 44.7812C104.996 44.7723 105.138 44.6734 105.201 44.523C106.201 42.1199 109.432 40.3793 112.473 41.5202C116.101 42.8812 119.788 51.8715 105.244 60.8774L105.241 60.8797Z" fill="#1B1B1B"/>
<path d="M491.767 179.195L477.742 174.941C476.013 174.418 474.138 174.946 472.94 176.298L466.85 183.157L464.807 173.517C464.458 171.871 463.238 170.544 461.626 170.054L448.727 166.142C446.283 165.401 444.903 162.82 445.645 160.379L453.956 133.026C454.698 130.585 457.28 129.206 459.724 129.947L502.764 142.998C505.207 143.739 506.588 146.32 505.846 148.761L497.535 176.114C496.793 178.555 494.21 179.934 491.767 179.193V179.195Z" fill="#FDFDFD"/>
<path d="M466.605 183.588C466.484 183.518 466.394 183.402 466.365 183.26L464.321 173.621C464.009 172.15 462.921 170.966 461.482 170.528L448.583 166.618C445.881 165.801 444.35 162.937 445.171 160.238L453.479 132.885C454.3 130.185 457.164 128.658 459.866 129.476L502.906 142.527C505.606 143.346 507.139 146.208 506.318 148.907L498.007 176.26C497.187 178.959 494.323 180.489 491.621 179.669L477.596 175.415C476.058 174.948 474.374 175.424 473.306 176.626L467.217 183.485C467.093 183.624 466.9 183.682 466.72 183.635C466.677 183.624 466.639 183.608 466.603 183.588H466.605ZM462.808 170.027C464.067 170.742 464.982 171.968 465.29 173.416L467.131 182.094L472.569 175.97C473.891 174.481 475.979 173.89 477.886 174.47L491.911 178.723C494.089 179.384 496.4 178.151 497.061 175.974L505.372 148.622C506.033 146.446 504.798 144.137 502.62 143.477L459.58 130.426C457.402 129.766 455.091 130.998 454.43 133.175L446.122 160.527C445.802 161.581 445.91 162.697 446.432 163.669C446.951 164.642 447.819 165.354 448.873 165.673L461.772 169.583C462.138 169.693 462.487 169.843 462.813 170.027H462.808Z" fill="#1B1B1B"/>
<path d="M463.112 143.386C462.917 143.274 462.816 143.038 462.883 142.813C462.962 142.551 463.238 142.402 463.501 142.481L494.485 151.788C494.748 151.867 494.897 152.143 494.818 152.403C494.739 152.666 494.463 152.814 494.2 152.736L463.216 143.429C463.18 143.418 463.146 143.404 463.112 143.386Z" fill="#1B1B1B"/>
<path d="M460.181 150.411C459.985 150.298 459.884 150.063 459.952 149.838C460.03 149.575 460.307 149.427 460.57 149.506L483.533 156.403C483.796 156.479 483.944 156.758 483.866 157.018C483.787 157.281 483.51 157.429 483.247 157.351L460.284 150.453C460.248 150.442 460.215 150.429 460.181 150.411Z" fill="#1B1B1B"/>
<path d="M458.782 158.096C458.587 157.983 458.486 157.748 458.553 157.523C458.632 157.26 458.908 157.112 459.171 157.191L490.155 166.497C490.416 166.576 490.567 166.852 490.488 167.113C490.409 167.376 490.133 167.524 489.87 167.445L458.886 158.138C458.85 158.127 458.816 158.114 458.782 158.096Z" fill="#1B1B1B"/>
<path d="M492.792 110.8L535.122 98.9209C536.353 98.5754 537.634 99.2937 537.98 100.524L542.293 115.865C542.639 117.095 541.92 118.375 540.689 118.72L498.359 130.599C497.127 130.945 495.846 130.227 495.501 128.996L491.187 113.656C490.841 112.425 491.56 111.146 492.792 110.8Z" fill="#FDFDFD"/>
<path d="M540.825 119.192L498.495 131.072C497.003 131.492 495.445 130.619 495.027 129.128L490.713 113.786C490.293 112.295 491.167 110.738 492.66 110.321L501.011 107.978C501.274 107.904 501.548 108.057 501.622 108.322C501.697 108.587 501.544 108.859 501.278 108.933L492.927 111.275C491.961 111.547 491.394 112.553 491.666 113.521L495.98 128.863C496.252 129.828 497.259 130.394 498.228 130.122L540.557 118.242C541.524 117.97 542.091 116.964 541.819 115.996L537.505 100.654C537.233 99.6886 536.226 99.1226 535.257 99.3944L506.905 107.352C506.642 107.426 506.368 107.273 506.294 107.008C506.219 106.743 506.372 106.471 506.638 106.397L534.989 98.4399C536.482 98.0199 538.04 98.8936 538.458 100.385L542.772 115.726C543.192 117.218 542.318 118.774 540.825 119.192Z" fill="#1B1B1B"/>
<path d="M533.364 107.805L499.723 117.246C499.46 117.321 499.186 117.168 499.111 116.903C499.037 116.638 499.19 116.366 499.455 116.292L533.097 106.85C533.36 106.776 533.634 106.929 533.708 107.194C533.782 107.459 533.629 107.731 533.364 107.805Z" fill="#1B1B1B"/>
<path d="M534.627 112.296L527.593 114.27C527.33 114.344 527.056 114.191 526.982 113.926C526.907 113.661 527.06 113.39 527.326 113.315L534.359 111.341C534.622 111.267 534.897 111.42 534.971 111.685C535.045 111.95 534.892 112.222 534.627 112.296Z" fill="#1B1B1B"/>
<path d="M523.098 115.532L500.987 121.738C500.724 121.812 500.449 121.659 500.375 121.394C500.301 121.129 500.454 120.857 500.719 120.783L522.83 114.578C523.093 114.504 523.368 114.656 523.442 114.921C523.516 115.186 523.363 115.458 523.098 115.532Z" fill="#1B1B1B"/>
<path d="M470.537 208.791C470.541 208.856 470.544 208.924 470.541 208.991C470.541 209.063 470.539 209.135 470.539 209.207L449.467 210.426C449.46 210.366 449.451 210.309 449.444 210.249C449.435 210.181 449.426 210.116 449.424 210.051L470.541 208.793L470.537 208.791Z" fill="#FDFDFD"/>
<path d="M470.539 209.206C470.526 209.951 470.515 210.699 470.506 211.445C470.501 211.777 470.497 212.105 470.49 212.438C470.481 213.118 470.472 213.799 470.461 214.479C470.461 214.618 470.456 214.755 470.454 214.895C470.432 216.37 470.411 217.846 470.389 219.319C470.387 219.53 470.382 219.741 470.38 219.952C470.369 220.633 470.36 221.313 470.348 221.992C470.317 224.051 470.288 226.108 470.256 228.168C470.22 230.546 470.189 232.922 470.153 235.301C470.139 236.291 469.627 237.165 468.849 237.677C468.525 237.89 468.154 238.043 467.754 238.11C467.648 238.13 467.541 238.144 467.428 238.151L456.002 238.831C455.215 238.878 454.475 238.607 453.92 238.119C453.41 237.672 453.055 237.046 452.958 236.327C452.639 233.971 452.324 231.615 452.005 229.259C451.931 228.713 451.859 228.163 451.784 227.617C451.463 225.228 451.142 222.843 450.82 220.455C450.625 219.005 450.429 217.554 450.236 216.103C450.078 214.962 449.925 213.823 449.773 212.682C449.671 211.932 449.57 211.178 449.467 210.428L470.539 209.208V209.206Z" fill="#1B1B1B"/>
<path d="M469.858 205.912L449.754 207.112C449.783 206.845 449.815 206.577 449.844 206.31C449.934 205.508 450.024 204.709 450.118 203.907C450.152 203.613 450.183 203.323 450.217 203.029C450.35 201.838 451.323 200.918 452.519 200.846L466.369 200.019C467.565 199.947 468.639 200.747 468.914 201.913C468.981 202.2 469.048 202.485 469.116 202.773C469.302 203.557 469.489 204.343 469.673 205.126C469.734 205.387 469.797 205.65 469.858 205.91V205.912Z" fill="#1B1B1B"/>
<path d="M472.783 208.235C472.798 208.466 472.621 208.666 472.389 208.679L470.537 208.789L449.419 210.047L447.567 210.157C447.333 210.171 447.135 209.993 447.122 209.764L446.92 206.373C446.906 206.142 447.084 205.944 447.313 205.93L472.133 204.45C472.367 204.437 472.565 204.614 472.578 204.843L472.78 208.235H472.783Z" fill="#1B1B1B"/>
<path d="M465.157 219.098C464.604 221.03 463.141 222.429 460.909 222.557C457.541 222.752 455.806 220.241 455.675 218.009C455.554 215.922 456.923 213.214 460.275 213.021C462.541 212.891 464.269 214.121 464.98 216.026L462.554 216.167C462.087 215.368 461.302 215.006 460.36 215.062C458.645 215.161 457.746 216.479 457.829 217.919C457.919 219.455 459.025 220.625 460.677 220.529C461.05 220.506 462.195 220.376 462.732 219.242L465.155 219.1L465.157 219.098Z" fill="#FDFDFD"/>
<path d="M470.217 212.444C467.466 212.603 465.584 214.885 465.735 217.506C465.879 219.972 467.817 221.928 470.348 221.991C470.357 221.313 470.366 220.63 470.379 219.952C468.943 219.898 467.969 218.752 467.891 217.382C467.805 215.927 468.734 214.575 470.339 214.483C470.379 214.481 470.42 214.478 470.458 214.481C470.469 213.8 470.478 213.12 470.487 212.439C470.4 212.439 470.31 212.441 470.217 212.448V212.444Z" fill="#FDFDFD"/>
<path d="M453.423 229.569L453.445 229.949L454.805 229.87L454.915 231.779L453.558 231.858L453.922 238.119C453.411 237.672 453.056 237.046 452.96 236.327C452.64 233.971 452.326 231.615 452.006 229.259C451.932 228.714 451.86 228.163 451.786 227.618C452.292 226.892 453.139 226.477 454.203 226.416L454.605 226.394L454.729 228.541L454.454 228.556C453.62 228.606 453.398 229.122 453.423 229.574V229.569Z" fill="#FDFDFD"/>
<path d="M458.151 226.155L455.999 226.28L456.124 228.43L458.276 228.305L458.151 226.155Z" fill="#FDFDFD"/>
<path d="M458.352 229.64L456.2 229.765L456.72 238.724L458.873 238.599L458.352 229.64Z" fill="#FDFDFD"/>
<path d="M468.848 237.678C468.525 237.891 468.154 238.044 467.753 238.111L466.414 238.19L464.199 235.302L462.334 238.426L459.6 238.583L462.612 233.799L459.344 229.609L461.92 229.46L463.995 232.14L465.746 229.238L468.32 229.09L465.49 233.633L468.846 237.678H468.848Z" fill="#FDFDFD"/>
<path d="M314.37 347.457C317.261 347.457 319.275 349.8 318.87 352.688L313.808 388.68C313.401 391.568 310.728 393.911 307.837 393.911H208.526C205.635 393.911 203.621 391.568 204.025 388.68L209.088 352.688C209.495 349.8 212.168 347.457 215.058 347.457H314.37Z" fill="#FDFDFD"/>
<path d="M307.778 394.305H208.467C205.362 394.305 203.191 391.781 203.627 388.679L208.689 352.687C209.126 349.585 212.008 347.061 215.112 347.061H234.703C234.921 347.061 235.074 347.238 235.043 347.456C235.011 347.674 234.809 347.851 234.591 347.851H215C212.331 347.851 209.856 350.021 209.481 352.687L204.418 388.679C204.043 391.345 205.909 393.515 208.577 393.515H307.889C310.557 393.515 313.032 391.345 313.407 388.679L318.47 352.687C318.845 350.021 316.979 347.851 314.311 347.851H247.793C247.575 347.851 247.422 347.674 247.454 347.456C247.485 347.238 247.685 347.061 247.906 347.061H314.423C317.528 347.061 319.699 349.585 319.263 352.687L314.201 388.679C313.765 391.781 310.883 394.305 307.778 394.305Z" fill="#1B1B1B"/>
<path d="M302.644 364.986H223.718C223.5 364.986 223.347 364.808 223.378 364.59C223.41 364.373 223.61 364.195 223.83 364.195H302.757C302.975 364.195 303.128 364.373 303.096 364.59C303.065 364.808 302.865 364.986 302.644 364.986Z" fill="#1B1B1B"/>
<path d="M301.162 375.525H284.66C284.442 375.525 284.289 375.347 284.321 375.129C284.352 374.911 284.554 374.734 284.772 374.734H301.275C301.493 374.734 301.646 374.911 301.614 375.129C301.583 375.347 301.383 375.525 301.162 375.525Z" fill="#1B1B1B"/>
<path d="M274.113 375.525H222.236C222.018 375.525 221.865 375.347 221.897 375.129C221.928 374.911 222.128 374.734 222.349 374.734H274.225C274.443 374.734 274.596 374.911 274.565 375.129C274.533 375.347 274.333 375.525 274.113 375.525Z" fill="#1B1B1B"/>
<path d="M336.774 356.99C344.857 349.463 346.101 337.672 339.554 330.655C333.007 323.638 321.147 324.052 313.064 331.579C304.982 339.106 303.737 350.897 310.285 357.914C316.832 364.931 328.692 364.517 336.774 356.99Z" fill="#FDFDFD"/>
<path d="M322.243 363.312C311.741 363.312 304.397 354.775 305.873 344.283C307.35 333.79 317.095 325.253 327.598 325.253C338.101 325.253 345.445 333.79 343.968 344.283C342.491 354.775 332.746 363.312 322.243 363.312ZM327.486 326.044C317.419 326.044 308.079 334.226 306.665 344.283C305.251 354.34 312.289 362.522 322.356 362.522C332.422 362.522 341.763 354.34 343.177 344.283C344.591 334.226 337.552 326.044 327.486 326.044Z" fill="#1B1B1B"/>
<path d="M332.949 350.497C332.888 350.452 332.434 350.086 332.09 348.995C331.461 346.992 331.699 344.186 332.011 342.188C332.011 342.179 332.014 342.17 332.016 342.161C332.416 339.517 331.191 337.213 329.087 336.157L329.329 334.594C329.55 333.175 328.579 332.003 327.165 331.98H326.951C325.537 331.955 324.206 333.092 323.986 334.509L323.743 336.072C321.315 337.063 319.375 339.329 318.962 341.983C318.652 343.984 318.018 346.783 316.77 348.757C316.091 349.833 315.525 350.181 315.45 350.226C315.145 350.354 314.956 350.657 314.974 350.969C314.992 351.283 315.25 351.504 315.57 351.508L320.524 351.584C320.257 353.487 321.567 355.048 323.469 355.079C325.371 355.108 327.16 353.594 327.484 351.694L332.438 351.771C332.758 351.775 333.084 351.564 333.198 351.252C333.313 350.942 333.218 350.634 332.953 350.497H332.949ZM325.337 334.531C325.44 333.86 326.07 333.323 326.74 333.332H326.953C327.623 333.346 328.082 333.9 327.978 334.572L327.803 335.697C327.389 335.603 326.956 335.549 326.504 335.542C326.052 335.535 325.602 335.574 325.164 335.657L325.339 334.534L325.337 334.531ZM323.676 353.722C322.518 353.705 321.72 352.759 321.873 351.605L326.128 351.672C325.922 352.824 324.833 353.74 323.676 353.722Z" fill="#1B1B1B"/>
<path d="M154.244 200.201H74.3749C71.9606 200.201 69.9869 198.245 69.9689 195.833L69.5373 143.089C69.517 140.677 71.4593 138.72 73.8736 138.72H153.745C156.159 138.72 158.133 140.677 158.151 143.089L158.582 195.833C158.602 198.245 156.66 200.201 154.246 200.201H154.244Z" fill="#FDFDFD"/>
<path d="M71.0277 199.284C70.0184 198.325 69.4587 197.049 69.4474 195.695L69.0158 142.95C68.9933 140.345 71.1042 138.225 73.7208 138.225H153.592C154.887 138.225 156.127 138.728 157.087 139.64C158.097 140.599 158.656 141.875 158.668 143.229L159.099 195.973C159.122 198.579 157.011 200.699 154.394 200.699H74.5234C73.2285 200.699 71.9876 200.196 71.0277 199.284ZM74.0198 139.22C71.8145 139.22 70.0364 141.019 70.0544 143.229L70.486 195.973C70.495 197.02 70.9064 197.983 71.6459 198.686C72.3361 199.342 73.251 199.704 74.2244 199.704H154.095C156.301 199.704 158.079 197.905 158.061 195.695L157.629 142.95C157.62 141.904 157.209 140.94 156.469 140.237C155.779 139.582 154.864 139.22 153.891 139.22H74.0198Z" fill="#1B1B1B"/>
<path d="M134.895 152.844C134.488 152.456 134.252 151.93 134.248 151.402L134.212 147.001C134.203 146.019 134.974 145.251 135.965 145.251H140.371C140.886 145.251 141.406 145.464 141.797 145.837C142.204 146.226 142.44 146.751 142.444 147.279L142.48 151.681C142.489 152.662 141.718 153.43 140.727 153.43H136.321C135.806 153.43 135.287 153.217 134.895 152.844ZM136.262 146.246C135.709 146.246 135.246 146.72 135.251 147.279L135.287 151.681C135.287 151.91 135.37 152.11 135.511 152.247C135.675 152.402 135.88 152.436 136.022 152.436H140.428C140.981 152.436 141.444 151.962 141.439 151.402L141.403 147.001C141.403 146.771 141.32 146.572 141.178 146.435C141.014 146.277 140.81 146.246 140.668 146.246H136.262Z" fill="#1B1B1B"/>
<path d="M144.09 152.844C143.683 152.456 143.447 151.93 143.442 151.402L143.406 147.001C143.397 146.019 144.168 145.251 145.16 145.251H149.566C150.081 145.251 150.6 145.464 150.991 145.837C151.398 146.226 151.634 146.751 151.638 147.279L151.674 151.681C151.683 152.662 150.912 153.43 149.921 153.43H145.515C145 153.43 144.481 153.217 144.09 152.844ZM145.456 146.246C144.903 146.246 144.44 146.72 144.445 147.279L144.481 151.681C144.481 151.91 144.564 152.11 144.706 152.247C144.87 152.404 145.074 152.436 145.216 152.436H149.622C150.175 152.436 150.638 151.962 150.634 151.402L150.598 147.001C150.598 146.771 150.514 146.572 150.373 146.435C150.209 146.28 150.004 146.246 149.863 146.246H145.456Z" fill="#1B1B1B"/>
<path d="M134.976 162.906C134.57 162.518 134.334 161.992 134.329 161.464L134.293 157.062C134.284 156.081 135.055 155.313 136.046 155.313H140.453C140.967 155.313 141.487 155.526 141.878 155.899C142.285 156.288 142.521 156.813 142.525 157.341L142.561 161.743C142.57 162.724 141.799 163.492 140.808 163.492H136.402C135.887 163.492 135.368 163.279 134.976 162.906ZM136.343 156.308C135.79 156.308 135.327 156.782 135.332 157.341L135.368 161.743C135.368 161.972 135.451 162.172 135.592 162.309C135.756 162.464 135.961 162.497 136.103 162.497H140.509C141.062 162.497 141.525 162.024 141.52 161.464L141.484 157.062C141.484 156.833 141.401 156.634 141.26 156.497C141.095 156.339 140.891 156.308 140.749 156.308H136.343Z" fill="#1B1B1B"/>
<path d="M144.173 162.906C143.766 162.518 143.53 161.992 143.525 161.464L143.489 157.062C143.48 156.081 144.251 155.313 145.243 155.313H149.649C150.164 155.313 150.683 155.526 151.074 155.899C151.481 156.288 151.717 156.813 151.721 157.341L151.757 161.743C151.766 162.724 150.995 163.492 150.004 163.492H145.598C145.083 163.492 144.564 163.279 144.173 162.906ZM145.539 156.308C144.986 156.308 144.523 156.782 144.528 157.341L144.564 161.743C144.564 161.972 144.647 162.172 144.789 162.309C144.953 162.466 145.157 162.497 145.299 162.497H149.705C150.258 162.497 150.721 162.024 150.717 161.464L150.681 157.062C150.681 156.833 150.597 156.634 150.456 156.497C150.292 156.342 150.087 156.308 149.946 156.308H145.539Z" fill="#1B1B1B"/>
<path d="M140.681 165.87H136.275C135.506 165.87 134.886 166.494 134.893 167.263L134.929 171.664C134.935 172.433 135.565 173.057 136.334 173.057H140.74C141.508 173.057 142.129 172.435 142.122 171.664L142.086 167.263C142.079 166.494 141.45 165.87 140.681 165.87Z" fill="#FDFDFD"/>
<path d="M149.878 165.87H145.472C144.704 165.87 144.083 166.494 144.09 167.263L144.126 171.664C144.133 172.433 144.762 173.057 145.531 173.057H149.937C150.706 173.057 151.326 172.435 151.319 171.664L151.283 167.263C151.277 166.494 150.647 165.87 149.878 165.87Z" fill="#FDFDFD"/>
<path d="M140.765 175.932H136.359C135.59 175.932 134.97 176.554 134.977 177.324L135.013 181.726C135.019 182.494 135.649 183.119 136.418 183.119H140.824C141.592 183.119 142.213 182.494 142.206 181.726L142.17 177.324C142.163 176.556 141.534 175.932 140.765 175.932Z" fill="#FDFDFD"/>
<path d="M149.961 175.932H145.555C144.787 175.932 144.166 176.554 144.173 177.324L144.209 181.726C144.216 182.494 144.845 183.119 145.614 183.119H150.02C150.789 183.119 151.409 182.494 151.402 181.726L151.366 177.324C151.36 176.556 150.73 175.932 149.961 175.932Z" fill="#FDFDFD"/>
<path d="M140.848 185.994H136.442C135.673 185.994 135.053 186.618 135.06 187.386L135.096 191.788C135.102 192.556 135.732 193.181 136.501 193.181H140.907C141.675 193.181 142.296 192.556 142.289 191.788L142.253 187.386C142.246 186.618 141.617 185.994 140.848 185.994Z" fill="#FDFDFD"/>
<path d="M150.043 185.994H145.636C144.868 185.994 144.247 186.618 144.254 187.386L144.29 191.788C144.297 192.556 144.926 193.181 145.695 193.181H150.101C150.87 193.181 151.49 192.556 151.483 191.788L151.448 187.386C151.441 186.618 150.811 185.994 150.043 185.994Z" fill="#FDFDFD"/>
<path d="M77.5651 193.479C77.4347 193.353 77.356 193.191 77.3537 193.041L76.9648 145.61C76.9648 145.397 77.1132 145.251 77.3358 145.251H129.163C129.32 145.251 129.489 145.325 129.622 145.451C129.754 145.577 129.831 145.738 129.833 145.889L130.222 193.319C130.222 193.533 130.074 193.679 129.851 193.679H78.0236C77.8663 193.679 77.6977 193.605 77.5651 193.479ZM128.799 146.248H78.0102L78.3901 192.684H129.179L128.799 146.248Z" fill="#1B1B1B"/>
<path d="M83.3696 181.036C83.4753 181.036 83.5742 181.002 83.6439 180.933L92.4583 172.039C93.1371 171.354 94.124 171.044 95.1603 171.192C95.9831 171.309 96.7766 171.709 97.3948 172.32L101.583 176.461C102.136 177.007 102.837 177.366 103.559 177.467C104.404 177.586 105.204 177.344 105.744 176.798L115.864 166.586C116.543 165.901 117.528 165.591 118.566 165.739C119.389 165.856 120.183 166.256 120.801 166.867L121.914 167.967C122.141 168.192 122.467 168.244 122.644 168.084C122.822 167.925 122.779 167.615 122.554 167.39L121.442 166.29C120.599 165.456 119.524 164.911 118.418 164.754C117.101 164.567 115.862 164.949 115.019 165.798L104.899 176.01C104.521 176.389 103.979 176.56 103.41 176.482C103.1 176.437 102.642 176.297 102.224 175.884L98.0355 171.743C97.1925 170.909 96.118 170.364 95.012 170.207C93.6946 170.02 92.456 170.402 91.613 171.253L82.7987 180.147C82.6323 180.315 82.6863 180.627 82.92 180.845C83.0572 180.971 83.2235 181.038 83.3719 181.038L83.3696 181.036Z" fill="#1B1B1B"/>
<path d="M88.6071 163.15C87.3055 161.911 86.5794 160.26 86.5637 158.501C86.5345 155.085 89.3018 152.305 92.7299 152.305C94.4069 152.305 96.0097 152.954 97.2461 154.131C98.55 155.371 99.2738 157.021 99.2895 158.78C99.3188 162.196 96.5515 164.976 93.1233 164.976C91.4463 164.976 89.8435 164.327 88.6049 163.15H88.6071ZM87.6045 158.78C87.6158 160.231 88.1912 161.571 89.2253 162.553C90.192 163.474 91.4711 163.979 92.8266 163.979C95.8434 163.979 98.2757 161.522 98.251 158.499C98.2397 157.048 97.6643 155.707 96.6302 154.726C95.6636 153.805 94.3844 153.3 93.0289 153.3C90.0121 153.3 87.5798 155.757 87.6045 158.78Z" fill="#1B1B1B"/>
<path d="M79.2147 130.158H55.5457C54.1384 130.158 53.0054 131.299 53.0167 132.705L53.1381 147.615C53.1493 149.021 54.3003 150.162 55.7075 150.162H79.3766C80.7838 150.162 81.9168 149.021 81.9055 147.615L81.7842 132.705C81.7729 131.299 80.6219 130.158 79.2147 130.158Z" fill="#FDFDFD"/>
<path d="M53.6299 149.754C52.9937 149.15 52.6273 148.321 52.6205 147.479L52.4991 132.569C52.4856 130.941 53.7602 129.663 55.399 129.663H79.0681C79.8908 129.663 80.6821 129.986 81.2981 130.57C81.9342 131.174 82.3007 132.003 82.3074 132.845L82.4288 147.755C82.4423 149.384 81.1699 150.662 79.5312 150.662H55.8621C55.0394 150.662 54.2481 150.338 53.6344 149.754H53.6299ZM55.6958 130.658C54.5156 130.658 53.5287 131.659 53.5377 132.845L53.6591 147.755C53.6636 148.301 53.8726 148.8 54.2481 149.155C54.5943 149.485 55.0596 149.664 55.5609 149.664H79.2299C80.4101 149.664 81.397 148.663 81.388 147.477L81.2666 132.567C81.2621 132.021 81.053 131.522 80.6776 131.167C80.3314 130.837 79.8661 130.658 79.3648 130.658H55.6958Z" fill="#1B1B1B"/>
<path d="M50.8938 136.523C51.1096 136.523 51.2669 136.382 51.2647 136.164L51.2534 134.922C51.2534 134.659 51.0174 134.383 50.7296 134.304C50.4419 134.228 50.2126 134.378 50.2149 134.643L50.2239 135.885C50.2239 136.148 50.4599 136.424 50.7476 136.503C50.7971 136.516 50.8465 136.523 50.8938 136.523Z" fill="#1B1B1B"/>
<path d="M79.6457 134.645C79.8615 134.645 80.0189 134.503 80.0166 134.286L79.9851 130.548C79.9784 129.706 79.6097 128.878 78.9758 128.273C78.3599 127.687 77.5686 127.366 76.7458 127.366H53.0768C51.438 127.366 50.1634 128.642 50.1769 130.272L50.1993 132.936C50.1993 133.199 50.4354 133.475 50.7231 133.553C51.0109 133.632 51.2424 133.479 51.2379 133.214L51.2154 130.551C51.2064 129.365 52.1933 128.363 53.3735 128.363H77.0425C77.5438 128.363 78.0092 128.545 78.3554 128.873C78.7308 129.23 78.9398 129.726 78.9421 130.272L78.9736 134.009C78.9736 134.272 79.2096 134.548 79.4973 134.627C79.5468 134.64 79.5963 134.647 79.6435 134.647L79.6457 134.645Z" fill="#1B1B1B"/>
<path d="M79.6949 140.662C79.9107 140.662 80.0681 140.521 80.0659 140.303L80.0366 136.793C80.0366 136.53 79.8006 136.254 79.5128 136.175C79.2251 136.099 78.9958 136.249 78.9981 136.514L79.0273 140.024C79.0295 140.287 79.2633 140.563 79.5511 140.642C79.6005 140.655 79.65 140.662 79.6972 140.662H79.6949Z" fill="#1B1B1B"/>
<path d="M39.666 158.454C39.875 158.454 40.0301 158.321 40.0369 158.112C40.2639 151.328 45.9648 145.807 52.747 145.807H61.0421C68.2199 145.807 74.2535 139.981 74.4918 132.822C74.5007 132.561 74.2737 132.28 73.9882 132.193C73.7005 132.105 73.4622 132.247 73.4532 132.507C73.2261 139.292 67.5252 144.812 60.7431 144.812H52.448C45.2702 144.812 39.2366 150.638 38.9983 157.798C38.9893 158.058 39.2164 158.341 39.5019 158.427C39.5581 158.445 39.6143 158.451 39.666 158.451V158.454Z" fill="#1B1B1B"/>
<path d="M74.8516 133.316C74.2402 133.907 73.2803 133.907 72.707 133.316C72.1338 132.726 72.1675 131.767 72.779 131.174C73.3904 130.583 74.3503 130.583 74.9235 131.174C75.4968 131.764 75.4631 132.723 74.8516 133.316Z" fill="#FDFDFD"/>
<path d="M73.5855 134.229C73.1336 134.155 72.7043 133.928 72.376 133.591C71.5825 132.772 71.5758 131.534 72.3603 130.775C72.8054 130.346 73.4191 130.157 74.0463 130.258C74.4981 130.333 74.9275 130.559 75.2557 130.896C76.0493 131.716 76.056 132.954 75.2715 133.713C74.905 134.065 74.4262 134.256 73.9182 134.256C73.808 134.256 73.6979 134.247 73.5855 134.229ZM73.1988 131.57C72.7177 132.035 72.729 132.718 73.0392 133.039C73.1471 133.151 73.2887 133.221 73.4596 133.248C73.7945 133.302 74.1609 133.178 74.433 132.915C74.914 132.45 74.9028 131.768 74.5926 131.447C74.4847 131.334 74.343 131.265 74.1722 131.238C74.1205 131.229 74.0665 131.224 74.0126 131.224C73.7226 131.224 73.4281 131.348 73.1988 131.568V131.57Z" fill="#1B1B1B"/>
<path d="M40.4688 158.975C39.8573 159.566 38.8974 159.566 38.3242 158.975C37.751 158.384 37.7847 157.425 38.3961 156.832C39.0076 156.242 39.9675 156.242 40.5407 156.832C41.114 157.423 41.0802 158.382 40.4688 158.975Z" fill="#FDFDFD"/>
<path d="M39.2027 159.888C38.7508 159.814 38.3214 159.587 37.9932 159.25C37.1997 158.43 37.193 157.193 37.9775 156.434C38.4226 156.005 39.0385 155.816 39.6612 155.917C40.1131 155.991 40.5425 156.218 40.8707 156.555C41.6642 157.375 41.6709 158.612 40.8864 159.371C40.52 159.724 40.0412 159.915 39.5331 159.915C39.423 159.915 39.3128 159.906 39.2004 159.888H39.2027ZM38.816 157.229C38.3349 157.694 38.3462 158.376 38.6586 158.698C38.7665 158.81 38.9082 158.879 39.079 158.906C39.414 158.963 39.7804 158.837 40.0524 158.574C40.5335 158.109 40.5222 157.426 40.2097 157.105C40.1018 156.993 39.9602 156.923 39.7894 156.896C39.7377 156.887 39.6837 156.883 39.6298 156.883C39.3398 156.883 39.0453 157.006 38.816 157.227V157.229Z" fill="#1B1B1B"/>
<path d="M59.7446 144.581L57.265 142.059C56.8312 141.616 56.1208 141.598 55.6802 142.016L53.158 144.401C52.7173 144.819 52.7106 145.515 53.1445 145.958L55.624 148.48C56.0579 148.922 56.7682 148.94 57.2088 148.522L59.7288 146.137C60.1694 145.72 60.1762 145.023 59.7423 144.581H59.7446Z" fill="#FDFDFD"/>
<path d="M56.3254 149.298C55.9432 149.237 55.5791 149.044 55.2981 148.759L52.8185 146.237C52.1599 145.565 52.1261 144.584 52.7443 144L55.2643 141.615C55.5993 141.296 56.0759 141.159 56.5637 141.237C56.9458 141.298 57.3122 141.491 57.5932 141.776L60.0728 144.298C60.7314 144.97 60.7652 145.951 60.147 146.535L57.627 148.92C57.3527 149.179 56.9885 149.318 56.5974 149.318C56.5075 149.318 56.4176 149.311 56.3276 149.295L56.3254 149.298ZM56.9368 142.338C56.8761 142.275 56.793 142.234 56.6896 142.219C56.4805 142.185 56.2579 142.259 56.0938 142.414L53.5738 144.799C53.2884 145.069 53.2839 145.484 53.4727 145.675L55.9522 148.197C56.0129 148.26 56.0961 148.301 56.1995 148.316C56.4063 148.35 56.6311 148.276 56.7952 148.121L59.3152 145.736C59.6007 145.466 59.6029 145.051 59.4164 144.86L56.9368 142.338Z" fill="#1B1B1B"/>
<path d="M60.1671 168.511L63.7616 163.141C63.8695 162.914 63.874 162.654 63.7728 162.429L57.3683 145.684C57.0806 145.044 56.1702 145.044 55.8397 145.684L48.3134 162.429C48.1988 162.654 48.1853 162.914 48.2775 163.141L51.5123 168.511C51.6382 168.819 51.9349 169.014 52.2721 169.014H59.3735C59.7085 169.014 60.021 168.817 60.1671 168.511ZM55.9993 163.772C54.4617 163.772 53.2568 162.526 53.3085 160.99C53.3602 159.453 54.6483 158.207 56.1859 158.207C57.7235 158.207 58.9284 159.453 58.8767 160.99C58.825 162.526 57.5369 163.772 55.9993 163.772Z" fill="#FDFDFD"/>
<path d="M51.0561 168.617L47.8437 163.285C47.8257 163.256 47.81 163.224 47.7987 163.195C47.6526 162.836 47.6639 162.443 47.8257 162.131L55.3587 145.367C55.6285 144.844 56.2152 144.597 56.8177 144.75C57.265 144.864 57.6472 145.185 57.8517 145.641L64.2428 162.355C64.4046 162.712 64.4046 163.11 64.2428 163.447C64.236 163.46 64.2293 163.476 64.2203 163.487L60.637 168.839C60.4279 169.254 60.0031 169.513 59.5197 169.513H52.4183C51.8496 169.513 51.2966 169.147 51.0538 168.617H51.0561ZM63.2874 162.47L56.8963 145.756C56.8806 145.72 56.8784 145.718 56.8424 145.709C56.703 145.675 56.4512 145.74 56.3276 145.98L48.7946 162.744C48.7316 162.865 48.7272 162.982 48.7474 163.056L51.9463 168.367C51.9643 168.397 51.98 168.426 51.9912 168.457C52.0025 168.484 52.016 168.518 52.1216 168.518H59.223C59.4051 168.518 59.5917 168.39 59.6793 168.206C59.6861 168.192 59.6928 168.179 59.7018 168.165L63.2806 162.818C63.3368 162.685 63.3256 162.564 63.2851 162.47H63.2874ZM53.7896 163.298C53.122 162.645 52.7555 161.744 52.7848 160.832C52.8432 159.083 54.2707 157.711 56.0331 157.711C56.9143 157.711 57.7506 158.054 58.389 158.681C59.0566 159.334 59.4231 160.235 59.3938 161.147C59.3354 162.896 57.9079 164.269 56.1455 164.269C55.2643 164.269 54.428 163.925 53.7896 163.298ZM57.7573 159.263C57.3909 158.903 56.8851 158.706 56.3321 158.706C55.017 158.706 53.8683 159.824 53.8256 161.147C53.8054 161.762 54.0167 162.319 54.4236 162.717C54.79 163.076 55.2958 163.274 55.8488 163.274C57.1638 163.274 58.3103 162.155 58.3553 160.832C58.3755 160.217 58.1642 159.66 57.7573 159.263Z" fill="#1B1B1B"/>
<path d="M58.4542 174.867H52.8005C51.7642 174.867 50.9526 174.027 50.9864 172.991L51.0088 172.338C51.0426 171.302 51.9125 170.463 52.9489 170.463H58.6025C59.6389 170.463 60.4504 171.302 60.4167 172.338L60.3942 172.991C60.3605 174.027 59.4905 174.867 58.4542 174.867Z" fill="#1B1B1B"/>
<path d="M56.4083 156.458C56.6151 156.458 56.7702 156.328 56.7792 156.121C57.052 149.397 57.0962 145.943 56.9118 145.761L56.5926 146.05L56.0778 145.967C56.1071 146.365 55.8913 152.067 55.7406 155.8C55.7294 156.06 55.9542 156.343 56.2397 156.431C56.2981 156.449 56.3543 156.458 56.4083 156.458Z" fill="#1B1B1B"/>
<path d="M56.3708 262.559C56.218 263.548 55.584 264.331 54.4893 264.536C52.837 264.843 51.8209 263.711 51.6164 262.618C51.4253 261.594 51.9311 260.17 53.5743 259.864C54.6849 259.658 55.6178 260.156 56.0898 261.052L54.9007 261.275C54.6197 260.909 54.2083 260.781 53.7474 260.866C52.9067 261.023 52.5448 261.731 52.6774 262.436C52.819 263.19 53.4395 263.698 54.2487 263.545C54.4308 263.512 54.9883 263.375 55.1817 262.779L56.3708 262.557V262.559Z" fill="#1B1B1B"/>
<path d="M57.6116 261.543C57.7443 262.257 58.3602 262.782 59.1403 262.636C59.9181 262.49 60.3025 261.779 60.1698 261.064C60.0372 260.35 59.4258 259.807 58.639 259.955C57.8522 260.103 57.479 260.829 57.6116 261.543ZM61.2242 260.869C61.4624 262.147 60.6689 263.387 59.3269 263.636C57.9848 263.885 56.7934 263.016 56.5551 261.74C56.3168 260.465 57.1013 259.209 58.4501 258.955C59.7989 258.702 60.9836 259.582 61.2242 260.869Z" fill="#1B1B1B"/>
<path d="M61.7035 259.461L61.2652 259.542L61.0898 258.606L61.5282 258.525L61.4945 258.338C61.3101 257.355 61.8294 256.701 62.7331 256.53L62.9309 256.494L63.1288 257.548L62.9939 257.572C62.5848 257.649 62.5083 257.918 62.5488 258.141L62.5825 258.327L63.2502 258.204L63.4255 259.14L62.7578 259.264L63.4053 262.722L62.3487 262.92L61.7013 259.461H61.7035Z" fill="#1B1B1B"/>
<path d="M64.6451 256.18L63.5889 256.377L63.7862 257.432L64.8424 257.235L64.6451 256.18Z" fill="#1B1B1B"/>
<path d="M64.9655 257.889L63.9092 258.086L64.731 262.482L65.7872 262.285L64.9655 257.889Z" fill="#1B1B1B"/>
<path d="M69.5124 261.585L70.8499 261.336L68.7683 259.391L69.881 256.968L68.6199 257.203L67.9365 258.749L66.7429 257.554L65.4795 257.79L67.3588 259.656L66.1719 262.209L67.5117 261.96L68.2355 260.298L69.5124 261.585Z" fill="#1B1B1B"/>
<path d="M403.907 245.019C403.7 245.999 403.023 246.747 401.917 246.888C400.251 247.104 399.298 245.918 399.154 244.813C399.02 243.78 399.604 242.387 401.263 242.172C402.385 242.026 403.286 242.576 403.709 243.499L402.508 243.654C402.248 243.272 401.845 243.122 401.38 243.182C400.53 243.292 400.132 243.98 400.224 244.692C400.323 245.453 400.915 245.994 401.733 245.889C401.917 245.864 402.481 245.758 402.709 245.177L403.909 245.022L403.907 245.019Z" fill="#1B1B1B"/>
<path d="M405.204 244.067C405.298 244.788 405.882 245.345 406.669 245.244C407.454 245.143 407.879 244.453 407.784 243.732C407.69 243.012 407.112 242.437 406.319 242.54C405.525 242.643 405.111 243.346 405.206 244.067M408.85 243.595C409.016 244.885 408.155 246.077 406.802 246.252C405.449 246.428 404.307 245.493 404.14 244.206C403.972 242.91 404.826 241.709 406.188 241.531C407.55 241.354 408.681 242.3 408.85 243.595Z" fill="#1B1B1B"/>
<path d="M409.405 242.224L408.962 242.282L408.839 241.339L409.282 241.281L409.257 241.094C409.129 240.101 409.682 239.477 410.595 239.358L410.795 239.331L410.932 240.393L410.795 240.411C410.383 240.465 410.289 240.73 410.318 240.953L410.343 241.139L411.015 241.051L411.139 241.995L410.466 242.082L410.92 245.572L409.855 245.709L409.401 242.219L409.405 242.224Z" fill="#1B1B1B"/>
<path d="M412.557 239.072L411.491 239.21L411.63 240.275L412.695 240.136L412.557 239.072Z" fill="#1B1B1B"/>
<path d="M412.784 240.792L411.719 240.931L412.295 245.365L413.361 245.227L412.784 240.792Z" fill="#1B1B1B"/>
<path d="M417.082 244.774L418.433 244.599L416.464 242.544L417.71 240.186L416.435 240.35L415.668 241.855L414.542 240.597L413.268 240.761L415.039 242.728L413.713 245.212L415.066 245.037L415.88 243.418L417.082 244.774Z" fill="#1B1B1B"/>
</svg>
