<svg width="681" height="380" viewBox="0 0 681 380" fill="none" xmlns="http://www.w3.org/2000/svg">
<path d="M199.748 115.906C201.603 113.272 188.702 109.065 188.592 100.017C188.49 91.7504 199.187 89.2915 198.634 81.7347C198.042 73.6469 185.501 72.4536 185.237 64.1992C185.034 57.8387 192.422 56.6469 192.811 49.8247C193.279 41.6263 182.755 40.8681 179.01 30.1784C175.511 20.1951 182.681 15.1209 177.091 7.30457C176.363 6.28678 171.834 0.212473 165.685 0.314253C155.682 0.47946 143.268 16.9559 145.603 30.8008C147.569 42.4597 158.523 43.5306 159.549 55.9506C160.42 66.4767 152.78 68.4813 155.539 76.5808C158.804 86.1658 170.592 86.5596 173.353 97.391C174.8 103.064 172.021 104.744 174.467 108.714C179.633 117.095 197.702 118.809 199.747 115.905L199.748 115.906Z" fill="#FDFDFD"/>
<path d="M199.383 116.636C198.327 117.28 196.345 117.596 193.733 117.516C187.914 117.338 177.91 114.891 174.202 108.877C172.829 106.648 173.035 105.088 173.275 103.279C173.477 101.757 173.705 100.033 173.051 97.4675C171.63 91.8917 167.699 89.0876 163.9 86.375C160.423 83.8939 156.827 81.3288 155.245 76.6809C153.789 72.4076 155.186 69.6965 156.667 66.8275C158.069 64.1075 159.657 61.0231 159.24 55.9754C158.714 49.6165 155.606 46.3507 152.313 42.8946C149.335 39.7675 146.254 36.5327 145.297 30.8537C143.826 22.1375 148.072 13.2857 152.537 7.90908C156.65 2.95435 161.441 0.0735545 165.681 0.00127646C171.859 -0.100503 176.479 5.9148 177.344 7.1214C180.405 11.402 179.726 14.9437 179.006 18.6947C178.364 22.0387 177.701 25.4962 179.305 30.0719C181.089 35.1638 184.44 37.9708 187.397 40.446C190.604 43.1321 193.374 45.4524 193.123 49.8392C192.923 53.3454 190.959 55.3884 189.062 57.3635C187.206 59.2943 185.452 61.119 185.55 64.1871C185.678 68.214 188.808 70.4738 192.122 72.8649C195.329 75.1793 198.643 77.5733 198.947 81.7094C199.231 85.6006 196.604 88.2277 194.065 90.7677C191.504 93.3284 188.856 95.9776 188.904 100.01C188.967 105.256 193.486 108.855 196.784 111.482C199.185 113.395 200.921 114.777 200.003 116.083C199.86 116.286 199.652 116.471 199.384 116.634L199.383 116.636ZM159.276 2.74489C157.117 4.06212 154.968 5.95463 153.015 8.30735C148.639 13.5777 144.475 22.2423 145.909 30.7504C146.836 36.2421 149.849 39.4061 152.763 42.4668C155.984 45.8491 159.315 49.348 159.859 55.9268C160.291 61.1514 158.658 64.3199 157.218 67.1151C155.74 69.9841 154.463 72.4607 155.833 76.4818C157.352 80.9409 160.707 83.3349 164.259 85.8705C168.151 88.6481 172.176 91.5185 173.654 97.3155C174.337 99.9972 174.1 101.785 173.891 103.363C173.658 105.123 173.474 106.513 174.731 108.553C178.309 114.357 188.066 116.723 193.751 116.897C196.721 116.988 198.92 116.54 199.492 115.729C200.072 114.904 198.449 113.612 196.394 111.975C192.998 109.269 188.346 105.564 188.28 100.024C188.226 95.7269 190.97 92.9847 193.621 90.3326C196.174 87.7793 198.586 85.3675 198.322 81.761C198.041 77.914 194.987 75.7103 191.755 73.3753C188.465 71.0004 185.064 68.5459 184.925 64.2122C184.819 60.8815 186.746 58.8769 188.609 56.9372C190.43 55.0432 192.312 53.0858 192.499 49.8097C192.731 45.7356 190.199 43.6144 186.995 40.9298C183.976 38.4016 180.556 35.537 178.716 30.2843C177.057 25.5493 177.767 21.8484 178.393 18.5826C179.116 14.8094 179.742 11.551 176.836 7.48869C176.004 6.32634 171.557 0.530824 165.688 0.628178C163.673 0.660629 161.468 1.40849 159.273 2.74784L159.276 2.74489Z" fill="#1B1B1B"/>
<path d="M195.793 114.599C195.722 114.641 195.634 114.656 195.548 114.632C187.724 112.471 182.727 109.234 180.696 105.009C179.149 101.791 179.885 99.1399 180.665 96.3328C181.441 93.5361 182.244 90.645 180.85 86.8688C179.376 82.8714 176.892 81.1294 174.491 79.4449C172.141 77.7957 169.921 76.2396 168.845 72.7835C167.322 67.8951 169.768 64.3181 172.134 60.8591C174.405 57.5372 176.753 54.1018 175.665 49.4244C174.787 45.6512 172.235 43.5079 169.535 41.2393C166.597 38.7715 163.267 35.9733 161.58 30.6174C160.326 26.6347 160.31 22.3334 161.53 17.8315C161.574 17.6663 161.745 17.5675 161.911 17.6132C162.076 17.659 162.175 17.8301 162.129 17.9953C160.94 22.3792 160.955 26.5639 162.172 30.43C163.804 35.6134 166.92 38.2302 169.933 40.7614C172.715 43.0993 175.344 45.306 176.269 49.2828C177.419 54.2257 174.993 57.7762 172.645 61.2101C170.258 64.7001 168.004 67.9954 169.438 72.5961C170.451 75.8501 172.586 77.3473 174.847 78.933C177.327 80.6721 179.89 82.4717 181.434 86.6505C182.897 90.6155 182.066 93.6055 181.263 96.4966C180.516 99.1871 179.809 101.729 181.255 104.736C183.206 108.791 188.07 111.918 195.713 114.031C195.88 114.076 195.976 114.247 195.93 114.414C195.908 114.494 195.858 114.557 195.791 114.597L195.793 114.599Z" fill="#1B1B1B"/>
<path d="M215.157 166.93C215.966 164.914 204.814 162.285 195.081 148.564C189.187 140.255 186.763 132.039 184.555 124.323C179.091 105.231 182.964 101.336 177.525 92.5412C170.997 81.9871 163.318 86.3681 154.157 75.5765C142.86 62.2656 150.65 51.0123 139.124 39.0673C132.826 32.5401 121.821 26.9039 112.409 30.2656C106.712 32.2997 100.868 37.8902 100.895 43.7757C100.92 49.4561 106.395 51.1805 110.849 57.9599C118.801 70.0627 110.006 77.739 115.22 90.0926C122.294 106.86 142.74 102.794 152.158 122.745C155.952 130.779 152.949 132.107 156.33 139.787C167.739 165.707 213.559 170.917 215.159 166.93H215.157Z" fill="#1B1B1B"/>
<path d="M207.328 166.259C207.248 166.308 207.148 166.32 207.054 166.284C190.382 159.887 179.785 151.105 175.56 140.179C173.576 135.048 173.218 130.15 172.87 125.412C172.351 118.34 171.862 111.66 166.031 105.078C161.923 100.441 157.718 98.6838 153.652 96.986C149.102 95.0846 144.803 93.2895 141.706 87.5294C139.553 83.5231 139.414 80.2603 139.253 76.4812C139.096 72.764 138.918 68.5498 136.892 62.4164C134.885 56.3421 131.786 50.5968 127.676 45.3397C127.57 45.2039 127.593 45.0092 127.729 44.903C127.867 44.7954 128.059 44.8219 128.165 44.9561C132.319 50.2693 135.453 56.0781 137.481 62.2217C139.535 68.4376 139.715 72.6976 139.874 76.4546C140.037 80.3089 140.167 83.3535 142.253 87.2344C145.245 92.7998 149.252 94.474 153.891 96.4122C157.829 98.0569 162.294 99.9228 166.497 104.667C172.468 111.406 172.964 118.189 173.49 125.368C173.833 130.06 174.19 134.911 176.14 139.955C180.299 150.709 190.775 159.372 207.276 165.703C207.437 165.765 207.516 165.945 207.456 166.106C207.431 166.172 207.384 166.225 207.328 166.261V166.259Z" fill="#FDFDFD"/>
<path d="M185.261 345.763H580.539C585.178 345.763 588.939 341.635 588.939 336.543L588.928 73.2184C588.806 66.3092 585.774 62.3472 580.537 62.3472H185.259C181.09 62.3472 177.536 65.6808 176.868 70.2196L176.859 336.543C176.859 341.635 180.62 345.763 185.259 345.763H185.261Z" fill="#1B1B1B"/>
<path d="M175.734 345.308H571.033C575.674 345.308 579.435 341.19 579.435 336.111L579.424 73.466C579.302 66.5745 576.27 62.6553 571.032 62.6553H175.729C171.559 62.6553 168.005 65.9874 167.338 70.5129L167.332 336.11C167.332 341.188 171.093 345.307 175.734 345.307V345.308Z" fill="#FDFDFD"/>
<path d="M571.033 345.763H175.733C173.379 345.763 171.165 344.76 169.5 342.936C167.836 341.113 166.918 338.69 166.918 336.113L166.924 70.5161C166.924 70.491 166.925 70.4674 166.93 70.4438C167.634 65.669 171.335 62.2041 175.731 62.2041H571.033C576.503 62.2041 579.713 66.3062 579.84 73.4588L579.85 336.113C579.85 341.433 575.895 345.763 571.035 345.763H571.033ZM167.752 70.5515L167.746 336.111C167.746 338.446 168.577 340.643 170.085 342.293C171.594 343.944 173.599 344.854 175.733 344.854H571.033C575.437 344.854 579.021 340.932 579.021 336.111L579.01 73.4662C578.893 66.7901 576.06 63.1098 571.033 63.1098H175.729C171.753 63.1098 168.403 66.2369 167.752 70.5515Z" fill="#1B1B1B"/>
<path d="M212.201 85.7709V94.4989H209.838V76.7583H212.201V85.3918L217.375 76.7583H219.973L214.658 85.2502L220.256 94.4989H217.422L212.201 85.7709Z" fill="#1B1B1B"/>
<path d="M224.463 92.7246V100.413H222.1V82.6721H224.463V84.4465C225.383 83.1927 226.753 82.436 228.337 82.436C231.574 82.436 234.006 84.9672 234.006 88.5856C234.006 92.2039 231.572 94.7351 228.337 94.7351C226.755 94.7351 225.385 93.9784 224.463 92.7246ZM231.644 88.5856C231.644 86.196 230.109 84.6118 228.054 84.6118C225.999 84.6118 224.464 86.196 224.464 88.5856C224.464 90.9752 225.999 92.5594 228.054 92.5594C230.109 92.5594 231.644 90.9752 231.644 88.5856Z" fill="#1B1B1B"/>
<path d="M244.024 92.5117C243.245 94.0723 241.733 94.7346 240.032 94.7346C237.929 94.7346 236.016 93.7168 236.016 91.3759C236.016 86.2663 243.977 88.8211 243.977 86.1247C243.977 84.9653 242.866 84.3266 241.425 84.3266C239.89 84.3266 238.826 85.1069 238.826 86.6439H236.369C236.369 83.592 238.826 82.4341 241.425 82.4341C244.024 82.4341 246.338 83.4755 246.338 86.2191V94.4971H244.024V92.5102V92.5117ZM240.504 92.7477C242.324 92.7477 244.024 91.6827 244.024 89.625V88.7739C242.016 89.743 238.426 89.2474 238.426 91.2343C238.426 92.2521 239.299 92.7477 240.504 92.7477Z" fill="#1B1B1B"/>
<path d="M254.628 84.6118C252.621 84.6118 251.109 86.196 251.109 88.5856C251.109 90.9752 252.621 92.5594 254.628 92.5594C256.354 92.5594 257.818 91.4944 258.054 89.5311H260.511C260.322 92.6538 257.841 94.7351 254.628 94.7351C251.25 94.7351 248.746 92.2039 248.746 88.5856C248.746 84.9672 251.25 82.436 254.628 82.436C257.747 82.436 260.179 84.4229 260.464 87.379H258.006C257.771 85.5809 256.33 84.6118 254.628 84.6118Z" fill="#1B1B1B"/>
<path d="M271.166 89.6032H265.496V94.4989H263.133V82.6719H265.496V87.4496H271.166V82.6719H273.529V94.4989H271.166V89.6032Z" fill="#1B1B1B"/>
<path d="M276.148 88.5856C276.148 84.9672 278.7 82.436 282.125 82.436C285.55 82.436 288.102 84.9672 288.102 88.5856C288.102 92.2039 285.55 94.7351 282.125 94.7351C278.7 94.7351 276.148 92.2039 276.148 88.5856ZM285.739 88.5856C285.739 86.196 284.18 84.6118 282.125 84.6118C280.07 84.6118 278.511 86.196 278.511 88.5856C278.511 90.9752 280.07 92.5594 282.125 92.5594C284.18 92.5594 285.739 90.9752 285.739 88.5856Z" fill="#1B1B1B"/>
<path d="M300.245 94.4984H291.575V97.6919H289.402V92.3227H290.56C291.151 91.2105 291.624 89.6027 291.671 82.6729H300.766V92.3227H302.421V97.6919H300.248V94.4984H300.245ZM292.945 92.3227H298.402V84.8486H293.819C293.795 86.9771 293.701 88.4433 293.56 89.5083C293.371 90.8801 293.181 91.7312 292.945 92.3227Z" fill="#1B1B1B"/>
<path d="M312.315 92.5117C311.536 94.0723 310.024 94.7346 308.323 94.7346C306.22 94.7346 304.307 93.7168 304.307 91.3759C304.307 86.2663 312.268 88.8211 312.268 86.1247C312.268 84.9653 311.157 84.3266 309.716 84.3266C308.181 84.3266 307.117 85.1069 307.117 86.6439H304.66C304.66 83.592 307.117 82.4341 309.716 82.4341C312.315 82.4341 314.629 83.4755 314.629 86.2191V94.4971H312.315V92.5102V92.5117ZM308.795 92.7477C310.615 92.7477 312.315 91.6827 312.315 89.625V88.7739C310.307 89.743 306.717 89.2474 306.717 91.2343C306.717 92.2521 307.59 92.7477 308.795 92.7477Z" fill="#1B1B1B"/>
<path d="M320.277 92.7246V100.413H317.914V82.6721H320.277V84.4465C321.198 83.1927 322.568 82.436 324.151 82.436C327.388 82.436 329.82 84.9672 329.82 88.5856C329.82 92.2039 327.387 94.7351 324.151 94.7351C322.569 94.7351 321.199 93.9784 320.277 92.7246ZM327.459 88.5856C327.459 86.196 325.924 84.6118 323.869 84.6118C321.814 84.6118 320.279 86.196 320.279 88.5856C320.279 90.9752 321.814 92.5594 323.869 92.5594C325.924 92.5594 327.459 90.9752 327.459 88.5856Z" fill="#1B1B1B"/>
<path fill-rule="evenodd" clip-rule="evenodd" d="M189.337 74.8508C183.21 74.8508 178.242 79.8247 178.242 85.9595C178.242 92.0943 183.21 97.0682 189.337 97.0682C195.464 97.0682 200.431 92.0943 200.431 85.9595C200.431 79.8247 195.464 74.8508 189.337 74.8508ZM176.521 85.9595C176.521 78.8733 182.26 73.1279 189.337 73.1279C196.414 73.1279 202.152 78.8733 202.152 85.9595C202.152 93.0457 196.414 98.791 189.337 98.791C182.26 98.791 176.521 93.0457 176.521 85.9595Z" fill="#1B1B1B"/>
<path fill-rule="evenodd" clip-rule="evenodd" d="M189.338 77.6916C184.778 77.6916 181.081 81.3925 181.081 85.9593C181.081 90.5261 184.777 94.227 189.338 94.227C193.899 94.227 197.595 90.5261 197.595 85.9593C197.595 81.3925 193.899 77.6916 189.338 77.6916ZM179.361 85.9593C179.361 80.4426 183.828 75.9702 189.338 75.9702C194.847 75.9702 199.314 80.4426 199.314 85.9593C199.314 91.4761 194.847 95.9485 189.338 95.9485C183.828 95.9485 179.361 91.4761 179.361 85.9593Z" fill="#1B1B1B"/>
<path fill-rule="evenodd" clip-rule="evenodd" d="M189.337 80.8781C186.535 80.8781 184.264 83.1527 184.264 85.9583C184.264 88.7638 186.535 91.0384 189.337 91.0384C192.139 91.0384 194.411 88.7638 194.411 85.9583C194.411 83.1527 192.139 80.8781 189.337 80.8781ZM182.543 85.9583C182.543 82.2013 185.585 79.1553 189.337 79.1553C193.089 79.1553 196.132 82.2013 196.132 85.9583C196.132 89.7152 193.089 92.7612 189.337 92.7612C185.585 92.7612 182.543 89.7152 182.543 85.9583Z" fill="#1B1B1B"/>
<path fill-rule="evenodd" clip-rule="evenodd" d="M189.335 84.0657C188.29 84.0657 187.443 84.9138 187.443 85.9596C187.443 87.0054 188.29 87.8536 189.335 87.8536C190.379 87.8536 191.226 87.0054 191.226 85.9596C191.226 84.9138 190.379 84.0657 189.335 84.0657ZM185.723 85.9596C185.723 83.9624 187.34 82.3428 189.335 82.3428C191.33 82.3428 192.947 83.9624 192.947 85.9596C192.947 87.9569 191.33 89.5765 189.335 89.5765C187.34 89.5765 185.723 87.9569 185.723 85.9596Z" fill="#1B1B1B"/>
<mask id="mask0_13_85300" style="mask-type:luminance" maskUnits="userSpaceOnUse" x="167" y="62" width="412" height="283">
<path d="M570.86 62.8711H175.167C171.012 62.8711 167.645 66.2431 167.645 70.4028V337.324C167.645 341.484 171.012 344.856 175.167 344.856H570.86C575.014 344.856 578.382 341.484 578.382 337.324V70.4028C578.382 66.2431 575.014 62.8711 570.86 62.8711Z" fill="white"/>
</mask>
<g mask="url(#mask0_13_85300)">
<path d="M470.251 40.5659H347.678C346.865 40.5659 346.205 41.2263 346.205 42.041V98.1272C346.205 98.9419 346.865 99.6023 347.678 99.6023H470.251C471.065 99.6023 471.724 98.9419 471.724 98.1272V42.041C471.724 41.2263 471.065 40.5659 470.251 40.5659Z" fill="#FDFDFD"/>
<path d="M470.25 99.9712H347.677C346.662 99.9712 345.836 99.1437 345.836 98.1274V42.0411C345.836 41.0248 346.662 40.1973 347.677 40.1973H470.25C471.265 40.1973 472.092 41.0248 472.092 42.0411V98.1274C472.092 99.1437 471.265 99.9712 470.25 99.9712ZM347.677 40.9348C347.068 40.9348 346.573 41.4304 346.573 42.0411V98.1274C346.573 98.738 347.068 99.2337 347.677 99.2337H470.25C470.86 99.2337 471.355 98.738 471.355 98.1274V42.0411C471.355 41.4304 470.86 40.9348 470.25 40.9348H347.677Z" fill="#1B1B1B"/>
<path d="M470.251 110.874H347.678C346.865 110.874 346.205 111.534 346.205 112.349V168.435C346.205 169.25 346.865 169.91 347.678 169.91H470.251C471.065 169.91 471.724 169.25 471.724 168.435V112.349C471.724 111.534 471.065 110.874 470.251 110.874Z" fill="#FDFDFD"/>
<path d="M470.25 170.278H347.677C346.662 170.278 345.836 169.451 345.836 168.434V112.348C345.836 111.332 346.662 110.504 347.677 110.504H470.25C471.265 110.504 472.092 111.332 472.092 112.348V168.434C472.092 169.451 471.265 170.278 470.25 170.278ZM347.677 111.242C347.068 111.242 346.573 111.738 346.573 112.348V168.434C346.573 169.045 347.068 169.541 347.677 169.541H470.25C470.86 169.541 471.355 169.045 471.355 168.434V112.348C471.355 111.738 470.86 111.242 470.25 111.242H347.677Z" fill="#1B1B1B"/>
<path d="M610.852 61.1226H489.252C488.439 61.1226 487.779 61.783 487.779 62.5976V132.041C487.779 132.855 488.439 133.516 489.252 133.516H610.852C611.665 133.516 612.325 132.855 612.325 132.041V62.5976C612.325 61.783 611.665 61.1226 610.852 61.1226Z" fill="#FDFDFD"/>
<path d="M610.853 133.884H489.254C488.239 133.884 487.412 133.056 487.412 132.04V62.5968C487.412 61.5804 488.239 60.7529 489.254 60.7529H610.853C611.868 60.7529 612.694 61.5804 612.694 62.5968V132.04C612.694 133.056 611.868 133.884 610.853 133.884ZM489.254 61.4905C488.644 61.4905 488.149 61.9861 488.149 62.5968V132.04C488.149 132.65 488.644 133.146 489.254 133.146H610.853C611.463 133.146 611.958 132.65 611.958 132.04V62.5968C611.958 61.9861 611.463 61.4905 610.853 61.4905H489.254Z" fill="#1B1B1B"/>
<path d="M605.212 149.442H494.892C490.964 149.442 487.779 152.63 487.779 156.563V157.999C487.779 161.932 490.964 165.12 494.892 165.12H605.212C609.14 165.12 612.325 161.932 612.325 157.999V156.563C612.325 152.63 609.14 149.442 605.212 149.442Z" fill="#FDFDFD"/>
<path d="M605.213 165.488H494.891C490.766 165.488 487.41 162.128 487.41 157.998V156.563C487.41 152.432 490.766 149.072 494.891 149.072H605.213C609.338 149.072 612.694 152.432 612.694 156.563V157.998C612.694 162.128 609.338 165.488 605.213 165.488ZM494.891 149.81C491.173 149.81 488.147 152.84 488.147 156.563V157.998C488.147 161.721 491.173 164.751 494.891 164.751H605.213C608.931 164.751 611.957 161.721 611.957 157.998V156.563C611.957 152.84 608.931 149.81 605.213 149.81H494.891Z" fill="#1B1B1B"/>
<path fill-rule="evenodd" clip-rule="evenodd" d="M603.134 242.769H482.126C480.965 242.769 480.179 241.583 480.632 240.513L487.66 223.867C487.744 223.667 487.788 223.453 487.788 223.235V185.356C487.788 184.46 488.515 183.732 489.41 183.732H610.714C611.609 183.732 612.335 184.46 612.335 185.356V222.475C612.335 222.684 612.294 222.892 612.216 223.086L604.638 241.755C604.389 242.368 603.795 242.767 603.135 242.767L603.134 242.769Z" fill="#FDFDFD"/>
<path d="M603.134 243.137H482.125C481.457 243.137 480.836 242.804 480.467 242.246C480.097 241.689 480.032 240.987 480.293 240.37L487.321 223.724C487.388 223.569 487.42 223.404 487.42 223.236V185.358C487.42 184.259 488.313 183.365 489.41 183.365H610.713C611.811 183.365 612.704 184.259 612.704 185.358V222.476C612.704 222.734 612.655 222.986 612.556 223.227L604.978 241.897C604.672 242.652 603.948 243.139 603.135 243.139L603.134 243.137ZM489.409 184.101C488.718 184.101 488.155 184.664 488.155 185.356V223.234C488.155 223.503 488.102 223.762 487.997 224.01L480.969 240.656C480.802 241.05 480.842 241.481 481.079 241.838C481.315 242.195 481.697 242.4 482.124 242.4H603.132C603.645 242.4 604.1 242.093 604.293 241.618L611.871 222.948C611.933 222.798 611.964 222.638 611.964 222.476V185.358C611.964 184.666 611.401 184.102 610.71 184.102H489.407L489.409 184.101Z" fill="#1B1B1B"/>
<path fill-rule="evenodd" clip-rule="evenodd" d="M444.681 292.173H367.924C367.33 292.173 366.785 291.848 366.501 291.326L348.485 258.27C347.896 257.187 348.678 255.869 349.908 255.869H457.969C459.118 255.869 459.902 257.031 459.473 258.099L446.184 291.155C445.936 291.77 445.341 292.173 444.68 292.173H444.681Z" fill="#FDFDFD"/>
<path d="M444.682 292.541H367.925C367.196 292.541 366.527 292.142 366.178 291.502L348.162 258.446C347.822 257.822 347.835 257.086 348.198 256.474C348.56 255.863 349.199 255.499 349.909 255.499H457.97C458.631 255.499 459.249 255.826 459.618 256.377C459.988 256.927 460.062 257.622 459.816 258.237L446.526 291.293C446.221 292.051 445.497 292.541 444.68 292.541H444.682ZM349.911 256.238C349.464 256.238 349.061 256.468 348.832 256.853C348.604 257.238 348.595 257.701 348.81 258.095L366.826 291.151C367.045 291.554 367.467 291.805 367.926 291.805H444.683C445.198 291.805 445.654 291.496 445.846 291.019L459.135 257.962C459.293 257.569 459.249 257.142 459.012 256.791C458.774 256.44 458.396 256.238 457.973 256.238H349.912H349.911Z" fill="#1B1B1B"/>
<path fill-rule="evenodd" clip-rule="evenodd" d="M579.63 292.173H463.973C462.824 292.173 462.04 291.011 462.468 289.943L475.758 256.887C476.006 256.272 476.601 255.869 477.262 255.869H579.63C580.526 255.869 581.252 256.596 581.252 257.493V290.549C581.252 291.446 580.526 292.173 579.63 292.173Z" fill="#FDFDFD"/>
<path d="M579.632 292.541H463.974C463.312 292.541 462.695 292.214 462.325 291.664C461.955 291.115 461.882 290.419 462.128 289.804L475.417 256.747C475.722 255.989 476.447 255.5 477.263 255.5H579.632C580.729 255.5 581.622 256.393 581.622 257.492V290.548C581.622 291.647 580.729 292.541 579.632 292.541ZM477.263 256.239C476.749 256.239 476.292 256.547 476.101 257.025L462.811 290.081C462.654 290.475 462.698 290.901 462.935 291.252C463.172 291.603 463.551 291.805 463.974 291.805H579.632C580.322 291.805 580.885 291.242 580.885 290.55V257.494C580.885 256.802 580.322 256.239 579.632 256.239H477.263Z" fill="#1B1B1B"/>
<path d="M581.706 305.101H369.016C368.203 305.101 367.543 305.761 367.543 306.576V351.822C367.543 352.636 368.203 353.297 369.016 353.297H581.706C582.52 353.297 583.18 352.636 583.18 351.822V306.576C583.18 305.761 582.52 305.101 581.706 305.101Z" fill="#FDFDFD"/>
<path d="M581.708 353.665H369.017C368.002 353.665 367.176 352.837 367.176 351.821V306.575C367.176 305.558 368.002 304.731 369.017 304.731H581.708C582.723 304.731 583.549 305.558 583.549 306.575V351.821C583.549 352.837 582.723 353.665 581.708 353.665ZM369.017 305.468C368.407 305.468 367.912 305.964 367.912 306.575V351.821C367.912 352.432 368.407 352.927 369.017 352.927H581.708C582.317 352.927 582.812 352.432 582.812 351.821V306.575C582.812 305.964 582.317 305.468 581.708 305.468H369.017Z" fill="#1B1B1B"/>
<path fill-rule="evenodd" clip-rule="evenodd" d="M353.282 351.74V300.399C353.282 300.139 353.221 299.884 353.101 299.653L331.398 257.631C331.12 257.091 330.565 256.753 329.958 256.753H292.817C291.922 256.753 291.195 257.481 291.195 258.377V351.165C291.195 352.056 291.911 352.78 292.801 352.789L351.644 353.366C352.546 353.374 353.282 352.644 353.282 351.742V351.74Z" fill="#FDFDFD"/>
<path d="M351.662 353.732C351.662 353.732 351.648 353.732 351.642 353.732L292.799 353.156C291.712 353.145 290.828 352.251 290.828 351.163V258.376C290.828 257.277 291.721 256.383 292.818 256.383H329.959C330.706 256.383 331.383 256.796 331.727 257.46L353.429 299.481C353.575 299.763 353.652 300.079 353.652 300.397V351.738C353.652 352.274 353.443 352.777 353.063 353.154C352.687 353.527 352.19 353.731 351.663 353.731L351.662 353.732ZM292.818 257.122C292.127 257.122 291.565 257.685 291.565 258.377V351.164C291.565 351.85 292.122 352.412 292.805 352.42L351.648 352.996C351.987 352.996 352.302 352.871 352.543 352.634C352.783 352.396 352.914 352.079 352.914 351.743V300.402C352.914 300.202 352.865 300.002 352.774 299.825L331.071 257.802C330.854 257.383 330.429 257.123 329.957 257.123H292.817L292.818 257.122Z" fill="#1B1B1B"/>
<path d="M273.661 256.753H159.348C158.535 256.753 157.875 257.414 157.875 258.228V351.889C157.875 352.704 158.535 353.364 159.348 353.364H273.661C274.475 353.364 275.134 352.704 275.134 351.889V258.228C275.134 257.414 274.475 256.753 273.661 256.753Z" fill="#FDFDFD"/>
<path d="M273.66 353.732H159.347C158.332 353.732 157.506 352.904 157.506 351.888V258.228C157.506 257.211 158.332 256.384 159.347 256.384H273.66C274.675 256.384 275.502 257.211 275.502 258.228V351.888C275.502 352.904 274.675 353.732 273.66 353.732ZM159.347 257.121C158.737 257.121 158.242 257.617 158.242 258.228V351.888C158.242 352.499 158.737 352.994 159.347 352.994H273.66C274.27 352.994 274.765 352.499 274.765 351.888V258.228C274.765 257.617 274.27 257.121 273.66 257.121H159.347Z" fill="#1B1B1B"/>
<path fill-rule="evenodd" clip-rule="evenodd" d="M330.606 242.768V112.417C330.606 111.52 329.879 110.793 328.984 110.793H271.276C270.687 110.793 270.144 111.113 269.858 111.631L237.731 169.766C237.598 170.006 237.527 170.278 237.527 170.552V241.143C237.527 242.04 238.252 242.767 239.148 242.767C251.595 242.767 331.522 242.767 330.606 242.767V242.768Z" fill="#FDFDFD"/>
<path d="M330.614 243.137H239.149C238.053 243.137 237.16 242.243 237.16 241.144V170.553C237.16 170.217 237.246 169.884 237.409 169.589L269.536 111.453C269.887 110.819 270.554 110.425 271.278 110.425H328.985C330.082 110.425 330.975 111.319 330.975 112.418V242.769H330.614V243.138V243.137ZM271.278 111.163C270.822 111.163 270.401 111.411 270.181 111.81L238.054 169.946C237.951 170.131 237.898 170.341 237.898 170.553V241.144C237.898 241.836 238.46 242.399 239.15 242.399H330.24V112.417C330.24 111.725 329.677 111.161 328.986 111.161H271.279L271.278 111.163Z" fill="#1B1B1B"/>
<path fill-rule="evenodd" clip-rule="evenodd" d="M248.078 110.632H168.438C167.543 110.632 166.816 111.359 166.816 112.256V168.01C166.816 168.907 167.543 169.634 168.438 169.634H215.864C216.443 169.634 216.978 169.326 217.268 168.823L249.482 113.069C250.108 111.986 249.328 110.632 248.078 110.632Z" fill="#FDFDFD"/>
<path d="M215.864 170.002H168.438C167.34 170.002 166.447 169.108 166.447 168.009V112.255C166.447 111.156 167.34 110.262 168.438 110.262H248.078C248.798 110.262 249.442 110.635 249.801 111.259C250.161 111.883 250.161 112.628 249.801 113.252L217.587 169.007C217.232 169.62 216.572 170.001 215.865 170.001L215.864 170.002ZM168.438 111.001C167.747 111.001 167.184 111.565 167.184 112.256V168.011C167.184 168.703 167.747 169.266 168.438 169.266H215.864C216.31 169.266 216.725 169.026 216.948 168.639L249.162 112.885C249.389 112.493 249.389 112.022 249.162 111.63C248.935 111.236 248.53 111.001 248.076 111.001H168.436H168.438Z" fill="#1B1B1B"/>
<path d="M215.365 184.396H168.626C167.812 184.396 167.152 185.057 167.152 185.872V241.294C167.152 242.109 167.812 242.769 168.626 242.769H215.365C216.179 242.769 216.838 242.109 216.838 241.294V185.872C216.838 185.057 216.179 184.396 215.365 184.396Z" fill="#FDFDFD"/>
<path d="M215.364 243.137H168.625C167.61 243.137 166.783 242.31 166.783 241.293V185.871C166.783 184.854 167.61 184.027 168.625 184.027H215.364C216.379 184.027 217.206 184.854 217.206 185.871V241.293C217.206 242.31 216.379 243.137 215.364 243.137ZM168.625 184.764C168.015 184.764 167.52 185.26 167.52 185.871V241.293C167.52 241.904 168.015 242.399 168.625 242.399H215.364C215.974 242.399 216.469 241.904 216.469 241.293V185.871C216.469 185.26 215.974 184.764 215.364 184.764H168.625Z" fill="#1B1B1B"/>
<path fill-rule="evenodd" clip-rule="evenodd" d="M462.524 242.768H347.827C346.931 242.768 346.205 242.041 346.205 241.144V185.356C346.205 184.459 346.931 183.732 347.827 183.732H470.102C470.998 183.732 471.724 184.459 471.724 185.356V222.474C471.724 222.684 471.683 222.892 471.605 223.085L464.027 241.755C463.778 242.367 463.184 242.767 462.524 242.767V242.768Z" fill="#FDFDFD"/>
<path d="M462.524 243.136H347.826C346.729 243.136 345.836 242.242 345.836 241.143V185.355C345.836 184.256 346.729 183.362 347.826 183.362H470.102C471.199 183.362 472.092 184.256 472.092 185.355V222.474C472.092 222.732 472.043 222.984 471.945 223.224L464.366 241.894C464.06 242.649 463.337 243.136 462.524 243.136ZM347.826 184.1C347.135 184.1 346.573 184.663 346.573 185.355V241.143C346.573 241.835 347.135 242.399 347.826 242.399H462.524C463.036 242.399 463.491 242.092 463.684 241.617L471.262 222.947C471.324 222.797 471.355 222.637 471.355 222.475V185.357C471.355 184.665 470.792 184.101 470.102 184.101H347.826V184.1Z" fill="#1B1B1B"/>
</g>
<path d="M263.37 216.099C254.39 216.099 247.109 223.438 247.109 232.49C247.109 234.753 248.126 237.918 249.651 241.392C253.493 250.149 260.564 260.875 262.725 264.078C263.034 264.537 263.705 264.539 264.014 264.078C267.033 259.605 279.63 240.455 279.63 232.487C279.63 223.435 272.349 216.096 263.37 216.096V216.099ZM263.37 239.985C259.265 239.985 255.935 236.629 255.935 232.49C255.935 228.351 259.265 224.995 263.37 224.995C267.476 224.995 270.805 228.351 270.805 232.49C270.805 236.629 267.476 239.985 263.37 239.985Z" fill="#1B1B1B"/>
<path d="M412.925 140.474C403.944 140.474 396.664 147.812 396.664 156.865C396.664 159.127 397.681 162.293 399.205 165.767C403.047 174.524 410.119 185.249 412.28 188.453C412.589 188.912 413.259 188.913 413.569 188.453C416.587 183.979 429.184 164.83 429.184 156.862C429.184 147.809 421.904 140.471 412.925 140.471V140.474ZM412.925 164.359C408.819 164.359 405.49 161.004 405.49 156.865C405.49 152.726 408.819 149.37 412.925 149.37C417.031 149.37 420.36 152.726 420.36 156.865C420.36 161.004 417.031 164.359 412.925 164.359Z" fill="#1B1B1B"/>
<path d="M544.099 215.013C535.118 215.013 527.838 222.351 527.838 231.404C527.838 233.666 528.854 236.832 530.379 240.306C534.221 249.063 541.292 259.788 543.454 262.992C543.763 263.451 544.433 263.452 544.743 262.992C547.761 258.518 560.358 239.369 560.358 231.401C560.358 222.348 553.078 215.01 544.099 215.01V215.013ZM544.099 238.898C539.993 238.898 536.664 235.543 536.664 231.404C536.664 227.265 539.993 223.909 544.099 223.909C548.205 223.909 551.534 227.265 551.534 231.404C551.534 235.543 548.205 238.898 544.099 238.898Z" fill="#1B1B1B"/>
<path d="M543.599 79.6939C534.618 79.6939 527.338 87.0323 527.338 96.0848C527.338 98.3475 528.354 101.513 529.879 104.987C533.721 113.744 540.792 124.469 542.954 127.673C543.263 128.132 543.933 128.133 544.243 127.673C547.261 123.199 559.858 104.05 559.858 96.0818C559.858 87.0293 552.578 79.6909 543.599 79.6909V79.6939ZM543.599 103.58C539.493 103.58 536.164 100.224 536.164 96.0848C536.164 91.9457 539.493 88.59 543.599 88.59C547.705 88.59 551.034 91.9457 551.034 96.0848C551.034 100.224 547.705 103.58 543.599 103.58Z" fill="#1B1B1B"/>
<path d="M628.271 355.6C628.271 355.6 622.275 328.083 639.708 305.647C640.241 304.961 642.994 306.942 643.536 306.25C644.229 305.365 642.692 301.79 643.457 300.94C646.3 297.781 649.65 294.879 653.598 292.38C653.598 292.38 655.911 301.315 654.317 313.37C654.196 314.279 650.135 315.456 649.967 316.399C649.809 317.288 653.548 317.943 653.343 318.858C650.697 330.695 643.961 344.459 628.27 355.602L628.271 355.6Z" fill="#1B1B1B"/>
<path d="M658.564 318.771C643.188 323.264 637.345 333.674 635.2 342.142C634.182 333.526 631.976 325.596 629.043 319.231C628.654 318.386 624.971 320.404 624.566 319.594C624.165 318.796 626.711 314.128 626.297 313.365C618.184 298.399 607.885 290.204 607.885 290.204C605.436 296.629 604.187 303.003 603.842 309.208C603.788 310.2 607.869 312.698 607.858 313.679C607.846 314.756 603.957 315.317 603.997 316.382C604.586 332.112 610.721 346.092 616.983 356.906C617.116 356.888 617.245 356.868 617.378 356.848C623.503 355.589 629.015 355.929 634.129 354.327C634.153 354.586 634.171 354.724 634.171 354.724C659.368 342.899 658.564 318.771 658.564 318.771Z" fill="#FDFDFD"/>
<path d="M616.983 357.097C616.916 357.097 616.854 357.062 616.818 357.003C608.552 342.729 604.295 329.444 603.806 316.39C603.781 315.725 604.781 315.305 605.84 314.859C606.652 314.517 607.663 314.092 607.667 313.68C607.671 313.284 606.603 312.365 605.745 311.626C604.422 310.487 603.622 309.755 603.651 309.201C604.015 302.659 605.379 296.245 607.705 290.138C607.727 290.081 607.775 290.038 607.834 290.022C607.891 290.006 607.954 290.019 608.003 290.056C608.106 290.138 618.426 298.446 626.465 313.275C626.702 313.711 626.295 314.799 625.615 316.536C625.176 317.654 624.575 319.187 624.737 319.51C624.866 319.77 625.99 319.442 626.733 319.225C627.923 318.877 628.952 318.578 629.217 319.153C632.144 325.502 634.23 333.088 635.271 341.149C637.548 333.089 643.452 322.991 658.512 318.589C658.568 318.573 658.63 318.584 658.677 318.618C658.724 318.651 658.754 318.706 658.755 318.765C658.757 318.825 658.923 324.923 655.995 332.383C654.274 336.764 651.839 340.755 648.755 344.244C644.903 348.604 640.024 352.188 634.252 354.897C634.198 354.923 634.133 354.92 634.08 354.891C634.027 354.861 633.99 354.808 633.982 354.748C633.982 354.748 633.975 354.69 633.963 354.578C631.138 355.431 628.206 355.709 625.108 356.006C622.64 356.242 620.089 356.485 617.417 357.035L617.244 357.061C617.166 357.072 617.088 357.084 617.008 357.094C617 357.094 616.992 357.096 616.983 357.096V357.097ZM607.969 290.522C605.714 296.517 604.389 302.806 604.033 309.221C604.011 309.628 605.11 310.575 605.994 311.335C607.277 312.44 608.054 313.148 608.049 313.683C608.041 314.346 607.044 314.766 605.989 315.21C605.18 315.551 604.173 315.974 604.187 316.375C604.672 329.331 608.891 342.524 617.084 356.699C617.117 356.695 617.153 356.689 617.187 356.684L617.35 356.661C620.031 356.109 622.593 355.864 625.071 355.628C628.231 355.327 631.216 355.041 634.072 354.147C634.127 354.13 634.187 354.138 634.234 354.171C634.281 354.203 634.312 354.255 634.318 354.313C634.323 354.358 634.326 354.401 634.33 354.439C647.122 348.355 652.978 339.022 655.638 332.244C658.207 325.702 658.372 320.234 658.375 319.026C643.072 323.591 637.427 334.129 635.385 342.189C635.363 342.277 635.277 342.336 635.188 342.332C635.096 342.326 635.021 342.255 635.011 342.164C634.019 333.781 631.896 325.879 628.869 319.311C628.742 319.033 627.596 319.368 626.838 319.59C625.672 319.93 624.666 320.222 624.394 319.68C624.171 319.237 624.572 318.143 625.257 316.396C625.693 315.284 626.291 313.76 626.127 313.456C618.75 299.847 609.448 291.76 607.966 290.521L607.969 290.522Z" fill="#1B1B1B"/>
<path d="M626.03 349.219C625.955 349.219 625.884 349.175 625.855 349.101C623.857 344.273 621.964 339.327 620.226 334.401C620.191 334.302 620.242 334.193 620.342 334.157C620.443 334.122 620.55 334.173 620.585 334.274C622.321 339.193 624.212 344.133 626.207 348.955C626.247 349.052 626.201 349.164 626.104 349.204C626.08 349.215 626.055 349.219 626.032 349.219H626.03Z" fill="#1B1B1B"/>
<path d="M618.011 327.466C617.93 327.466 617.857 327.415 617.83 327.335C615.109 318.958 612.733 310.359 610.771 301.777L609.872 297.85C609.848 297.747 609.913 297.645 610.015 297.622C610.118 297.598 610.22 297.663 610.243 297.765L611.142 301.691C613.103 310.263 615.475 318.851 618.193 327.217C618.225 327.317 618.17 327.425 618.07 327.458C618.051 327.464 618.03 327.466 618.011 327.466Z" fill="#1B1B1B"/>
<path d="M637.716 347.103C637.687 347.103 637.656 347.095 637.628 347.08C637.535 347.032 637.498 346.917 637.547 346.824C641.89 338.5 653.485 326.22 653.603 326.096C653.675 326.02 653.796 326.017 653.873 326.089C653.949 326.161 653.952 326.282 653.88 326.359C653.764 326.481 642.204 338.723 637.886 346.999C637.852 347.064 637.786 347.101 637.716 347.101V347.103Z" fill="#1B1B1B"/>
<path d="M613.25 353.761L620.457 378.092C620.582 378.512 620.967 378.801 621.406 378.801H631.998C632.435 378.801 632.821 378.512 632.947 378.092L640.153 353.761C640.342 353.127 639.866 352.488 639.205 352.488H614.199C613.537 352.488 613.063 353.125 613.25 353.761Z" fill="#1B1B1B"/>
<path d="M402.325 264.348C393.345 264.348 386.064 271.686 386.064 280.739C386.064 283.001 387.081 286.167 388.606 289.641C392.448 298.398 399.519 309.123 401.68 312.327C401.99 312.786 402.66 312.787 402.969 312.327C405.988 307.853 418.585 288.704 418.585 280.736C418.585 271.683 411.304 264.345 402.325 264.345V264.348ZM402.325 288.233C398.22 288.233 394.89 284.878 394.89 280.739C394.89 276.6 398.22 273.244 402.325 273.244C406.431 273.244 409.761 276.6 409.761 280.739C409.761 284.878 406.431 288.233 402.325 288.233Z" fill="#1B1B1B"/>
<path d="M75.9721 138.244H75.9706C75.7909 138.244 75.645 138.096 75.6465 137.916L75.6568 135.87C75.6568 135.69 75.8041 135.546 75.9824 135.546H75.9839C76.1636 135.546 76.3094 135.693 76.308 135.873L76.2976 137.919C76.2976 138.099 76.1518 138.244 75.9721 138.244Z" fill="#1B1B1B"/>
<path d="M75.9369 145.402H75.9354C75.7557 145.402 75.6099 145.254 75.6113 145.075L75.6217 143.029C75.6217 142.849 75.7675 142.704 75.9472 142.704H75.9487C76.1284 142.704 76.2743 142.852 76.2728 143.032L76.2625 145.077C76.2625 145.257 76.1166 145.402 75.9369 145.402Z" fill="#1B1B1B"/>
<path d="M71.3627 140.801C71.183 140.801 71.0371 140.655 71.0371 140.475C71.0371 140.295 71.183 140.149 71.3627 140.149H73.406C73.5857 140.149 73.7316 140.293 73.7316 140.475C73.7316 140.656 73.5857 140.801 73.406 140.801H71.3627Z" fill="#1B1B1B"/>
<path d="M78.515 140.8C78.3353 140.8 78.1895 140.654 78.1895 140.474C78.1895 140.294 78.3353 140.148 78.515 140.148H80.5583C80.7381 140.148 80.8839 140.293 80.8839 140.472C80.8839 140.652 80.7381 140.798 80.5583 140.798H78.515V140.8Z" fill="#1B1B1B"/>
<path d="M32.8098 68.2326C32.7258 68.2326 32.6418 68.2001 32.5785 68.1352C32.4518 68.0069 32.4533 67.8004 32.5814 67.675L34.034 66.2368C34.1621 66.11 34.3684 66.1114 34.4936 66.2398C34.6203 66.3681 34.6188 66.5746 34.4907 66.7014L33.0381 68.1396C32.9748 68.2031 32.8923 68.234 32.8098 68.234V68.2326Z" fill="#1B1B1B"/>
<path d="M27.7258 73.2663C27.6418 73.2663 27.5578 73.2338 27.4945 73.1689C27.3678 73.0406 27.3693 72.8341 27.4974 72.7072L28.95 71.269C29.0782 71.1422 29.2844 71.1437 29.4111 71.272C29.5378 71.4003 29.5363 71.6068 29.4082 71.7322L27.9556 73.1704C27.8923 73.2338 27.8098 73.2648 27.7273 73.2648L27.7258 73.2663Z" fill="#1B1B1B"/>
<path d="M29.188 68.2223C29.104 68.2223 29.0215 68.1898 28.9582 68.1264L27.513 66.6808C27.3863 66.554 27.3863 66.3475 27.513 66.2206C27.6397 66.0938 27.8459 66.0938 27.9741 66.2206L29.4193 67.6662C29.546 67.793 29.546 67.9996 29.4193 68.1279C29.3559 68.1913 29.272 68.2238 29.1895 68.2238L29.188 68.2223Z" fill="#1B1B1B"/>
<path d="M34.2466 73.2833C34.1626 73.2833 34.0801 73.2509 34.0168 73.1875L32.5716 71.7419C32.4449 71.615 32.4449 71.4085 32.5716 71.2802C32.6983 71.1533 32.9045 71.1533 33.0327 71.2802L34.4779 72.7258C34.6046 72.8526 34.6046 73.0591 34.4779 73.1875C34.4145 73.2509 34.3306 73.2833 34.2481 73.2833H34.2466Z" fill="#1B1B1B"/>
<path d="M632.787 122.874C632.661 122.744 632.662 122.538 632.79 122.412L634.243 120.974C634.371 120.847 634.576 120.849 634.703 120.974C634.829 121.104 634.828 121.31 634.7 121.436L633.247 122.874C633.119 123.001 632.914 122.999 632.787 122.874Z" fill="#1B1B1B"/>
<path d="M627.703 127.908C627.577 127.778 627.578 127.572 627.706 127.446L629.159 126.008C629.287 125.881 629.492 125.883 629.619 126.008C629.745 126.138 629.744 126.344 629.616 126.47L628.163 127.908C628.035 128.035 627.83 128.033 627.703 127.908Z" fill="#1B1B1B"/>
<path d="M627.72 121.418C627.593 121.291 627.593 121.085 627.72 120.956C627.847 120.83 628.053 120.83 628.181 120.956L629.626 122.402C629.753 122.529 629.753 122.735 629.626 122.864C629.5 122.991 629.293 122.991 629.165 122.864L627.72 121.418Z" fill="#1B1B1B"/>
<path d="M632.779 126.48C632.652 126.353 632.652 126.146 632.779 126.018C632.905 125.891 633.112 125.891 633.24 126.018L634.685 127.464C634.812 127.59 634.812 127.797 634.685 127.925C634.558 128.052 634.352 128.052 634.224 127.925L632.779 126.48Z" fill="#1B1B1B"/>
<path d="M89.2485 245.478V256.873C89.2485 273.205 102.127 286.444 118.014 286.444C133.901 286.444 146.781 299.682 146.781 316.014C146.781 317.47 145.603 318.649 144.151 318.649H68.0052C44.1883 318.649 24.8809 298.802 24.8809 274.319V243.991C24.8809 234.253 32.5605 226.36 42.0331 226.36H70.6511C80.9221 226.36 89.2485 234.92 89.2485 245.478Z" fill="#FDFDFD"/>
<path d="M144.15 318.965H68.0041C44.0517 318.965 24.5645 298.937 24.5645 274.318V243.991C24.5645 234.095 32.4003 226.042 42.0319 226.042H70.6499C81.0786 226.042 89.5626 234.76 89.5626 245.476V256.871C89.5626 273.003 102.325 286.126 118.013 286.126C133.701 286.126 147.095 299.533 147.095 316.012C147.095 317.639 145.773 318.964 144.15 318.964V318.965ZM42.0319 226.677C32.748 226.677 25.195 234.444 25.195 243.992V274.32C25.195 298.589 44.3993 318.334 68.0041 318.334H144.15C145.426 318.334 146.464 317.294 146.464 316.015C146.464 299.884 133.702 286.76 118.014 286.76C102.326 286.76 88.9321 273.354 88.9321 256.873V245.478C88.9321 235.111 80.7309 226.677 70.6514 226.677H42.0334H42.0319Z" fill="#1B1B1B"/>
<path d="M87.3633 310.122H80.4629V376.765H87.3633V310.122Z" fill="#1B1B1B"/>
<path d="M116.255 375.659L85.7176 372.975H82.9171L51.7402 375.659V377.789H116.255V375.659Z" fill="#1B1B1B"/>
<path d="M65.4828 314.626L57.3125 320.1L61.4507 324.996L70.8613 320.397L65.4828 314.626Z" fill="#FDFDFD"/>
<path d="M61.4503 325.314C61.359 325.314 61.2706 325.274 61.2087 325.201L57.0691 320.306C57.0116 320.236 56.9851 320.146 56.9969 320.058C57.0087 319.968 57.0588 319.888 57.1339 319.84L65.3056 314.366C65.4338 314.28 65.6061 314.299 65.7122 314.413L71.0908 320.183C71.1586 320.257 71.188 320.357 71.1703 320.456C71.1527 320.555 71.0878 320.639 70.998 320.683L61.5873 325.283C61.5431 325.305 61.496 325.315 61.4488 325.315L61.4503 325.314ZM57.7806 320.167L61.5328 324.606L70.338 320.301L65.4338 315.04L57.7791 320.167H57.7806Z" fill="#1B1B1B"/>
<path d="M58.7203 317.632C57.4887 318.389 55.2318 319.831 53.3786 321.33C52.2148 322.271 51.9584 323.942 52.7554 325.208C55.0094 328.789 60.6104 336.508 66.3322 342.295C66.7241 342.692 67.6596 343.191 68.9015 342.518C73.1575 340.211 68.6113 332.986 65.5588 323.706L63.3682 323.462C62.2044 323.332 61.2306 322.515 60.8992 321.389L59.9283 318.098C59.7766 317.582 59.177 317.349 58.7189 317.631L58.7203 317.632Z" fill="#FDFDFD"/>
<path d="M67.7036 343.162C67.0171 343.162 66.4559 342.87 66.1082 342.518C60.3952 336.741 54.8339 329.102 52.4886 325.377C51.6003 323.967 51.8979 322.122 53.181 321.085C55.0608 319.564 57.3546 318.101 58.5552 317.363C58.8572 317.178 59.2211 317.145 59.5511 317.272C59.8825 317.399 60.1315 317.669 60.2317 318.011L61.201 321.302C61.4971 322.308 62.3619 323.034 63.402 323.15L65.5926 323.395C65.7163 323.408 65.8194 323.492 65.8577 323.61C66.6194 325.925 67.493 328.159 68.2634 330.132C70.6235 336.169 72.4871 340.936 69.0501 342.799C68.5699 343.059 68.1147 343.165 67.7022 343.165L67.7036 343.162ZM58.8852 317.902C57.6978 318.63 55.4291 320.079 53.5773 321.576C52.5446 322.411 52.306 323.901 53.0234 325.04C55.354 328.742 60.8813 336.333 66.5575 342.072C66.7033 342.22 67.493 342.922 68.7511 342.24C71.696 340.644 70.0106 336.33 67.6756 330.359C66.9229 328.434 66.0728 326.259 65.3215 323.998L63.3327 323.775C62.0393 323.631 60.9638 322.73 60.5955 321.479L59.6262 318.188C59.582 318.036 59.4715 317.917 59.3242 317.86C59.1783 317.804 59.0178 317.819 58.8852 317.9V317.902Z" fill="#1B1B1B"/>
<path d="M53.6585 321.107C53.6585 321.107 53.4699 321.257 53.3786 321.331C52.2148 322.272 51.9584 323.943 52.7554 325.209C55.0094 328.791 60.6104 336.51 66.3322 342.296C66.7241 342.693 67.6596 343.192 68.9015 342.519C69.2816 342.312 69.8384 341.784 69.8384 341.784L69.451 341.358C63.9295 335.294 58.8573 328.833 54.2787 322.027L53.6585 321.105V321.107Z" fill="#FDFDFD"/>
<path d="M67.7032 343.161C67.0167 343.161 66.4554 342.869 66.1062 342.517C60.3932 336.741 54.832 329.101 52.4867 325.377C51.5984 323.967 51.8959 322.121 53.1791 321.084C53.2704 321.01 53.4605 320.859 53.4605 320.859C53.5297 320.804 53.6181 320.78 53.705 320.794C53.7919 320.807 53.87 320.857 53.9186 320.929L54.5388 321.851C59.0954 328.623 64.1911 335.115 69.6831 341.145L70.0706 341.571C70.1869 341.698 70.1796 341.896 70.0543 342.014C70.0308 342.036 69.4621 342.573 69.0496 342.796C68.5694 343.055 68.1142 343.161 67.7032 343.161ZM53.5872 321.567C53.5872 321.567 53.5798 321.572 53.5768 321.575C52.5427 322.412 52.3055 323.9 53.0214 325.039C55.352 328.741 60.8794 336.332 66.5555 342.071C66.7014 342.219 67.491 342.921 68.7491 342.24C68.9362 342.138 69.194 341.93 69.3899 341.762L69.2161 341.571C63.7035 335.518 58.5886 329.002 54.0158 322.205L53.5872 321.568V321.567Z" fill="#1B1B1B"/>
<path d="M67.0448 329.35C67.0359 329.35 67.0286 329.35 67.0197 329.35L62.8654 329.022C62.6915 329.009 62.5619 328.856 62.5752 328.682C62.5884 328.508 62.746 328.378 62.9155 328.391L67.0698 328.719C67.2437 328.732 67.3733 328.885 67.36 329.058C67.3468 329.223 67.2083 329.35 67.0448 329.35Z" fill="#1B1B1B"/>
<path d="M64.3875 332.226C64.2137 332.226 64.0723 332.085 64.0723 331.91C64.0723 331.736 64.2122 331.593 64.3875 331.593L68.4447 331.582C68.6185 331.582 68.7599 331.723 68.7599 331.897C68.7599 332.071 68.62 332.214 68.4447 332.214L64.3875 332.226Z" fill="#1B1B1B"/>
<path d="M123.803 278.644C127.156 278.657 138.535 280.543 138.868 290.937C138.981 294.48 141.825 301.015 120.543 305.161C95.169 310.106 76.299 319.723 72.0474 322.012C71.4272 322.346 70.7039 322.419 70.0306 322.213C67.9019 321.561 63.4116 319.742 62.8474 315.892C62.7207 315.029 63.1067 314.169 63.8123 313.658L69.0495 309.858L64.0819 307.206C58.4131 304.179 53.9302 299.196 51.8943 293.091C50.0735 287.63 49.1719 278.284 49.1719 278.284L123.805 278.644H123.803Z" fill="#1B1B1B"/>
<path d="M181.047 378.02L159.531 303.633L138.017 378.02H132.859L156.499 294.082L162.563 294.074L186.203 378.02H181.047Z" fill="#FDFDFD"/>
<path d="M186.203 378.336H181.046C180.906 378.336 180.782 378.243 180.742 378.108L159.531 304.769L138.321 378.108C138.281 378.243 138.157 378.336 138.017 378.336H132.86C132.761 378.336 132.668 378.291 132.608 378.211C132.547 378.131 132.528 378.03 132.555 377.934L156.193 293.997C156.232 293.861 156.355 293.767 156.497 293.767L162.56 293.758C162.702 293.758 162.826 293.852 162.864 293.988L186.505 377.935C186.532 378.031 186.513 378.133 186.452 378.212C186.393 378.292 186.299 378.338 186.2 378.338L186.203 378.336ZM181.283 377.704H185.785L162.322 294.389L156.737 294.398L133.276 377.704H137.779L159.228 303.545C159.268 303.409 159.392 303.316 159.531 303.316C159.671 303.316 159.795 303.409 159.835 303.545L181.283 377.704Z" fill="#1B1B1B"/>
<path d="M127.602 359.216C128.413 362.265 128.618 365.444 128.206 368.571L140.42 366.537C137.398 365.404 135.085 362.915 134.172 359.818L133.475 357.453L127.602 359.216Z" fill="#FDFDFD"/>
<path d="M128.205 368.886C128.124 368.886 128.045 368.855 127.986 368.797C127.914 368.728 127.88 368.628 127.893 368.529C128.304 365.427 128.104 362.32 127.298 359.296C127.254 359.131 127.349 358.962 127.513 358.911L133.387 357.149C133.468 357.125 133.554 357.134 133.628 357.174C133.702 357.214 133.756 357.281 133.78 357.363L134.477 359.727C135.356 362.713 137.62 365.148 140.531 366.24C140.666 366.29 140.749 366.424 140.735 366.565C140.721 366.709 140.614 366.824 140.473 366.847L128.258 368.881C128.241 368.884 128.225 368.886 128.207 368.886H128.205ZM127.984 359.431C128.712 362.304 128.91 365.247 128.571 368.188L139.315 366.399C136.701 365.095 134.702 362.733 133.868 359.907L133.261 357.846L127.983 359.431H127.984Z" fill="#1B1B1B"/>
<path d="M127.758 364.655C127.365 366.175 126.556 370.452 126.234 373.021C126.032 374.633 127.087 376.134 128.66 376.522C133.112 377.619 143.697 377.35 152.517 377.556C153.121 377.57 154.227 377.255 154.693 375.793C156.287 370.781 146.768 369.472 137.411 364.523C137.411 364.523 136.87 364.979 136.067 365.414C134.722 366.143 132.512 366.078 131.184 365.321L129.053 364.109C128.547 363.82 127.904 364.09 127.757 364.656L127.758 364.655Z" fill="#FDFDFD"/>
<path d="M152.558 377.872C152.542 377.872 152.527 377.872 152.511 377.872C150.253 377.819 147.847 377.798 145.521 377.778C138.534 377.714 131.934 377.655 128.587 376.829C126.847 376.4 125.701 374.747 125.922 372.982C126.243 370.428 127.046 366.153 127.454 364.576C127.548 364.212 127.802 363.918 128.148 363.771C128.495 363.625 128.883 363.647 129.211 363.834L131.342 365.047C132.595 365.76 134.692 365.802 135.919 365.137C136.682 364.724 137.203 364.287 137.209 364.282C137.308 364.2 137.446 364.185 137.56 364.246C140.455 365.777 143.383 366.964 145.966 368.013C151.897 370.419 156.181 372.158 154.995 375.891C154.528 377.359 153.402 377.875 152.558 377.875V377.872ZM128.616 364.306C128.541 364.306 128.466 364.321 128.394 364.352C128.23 364.421 128.109 364.56 128.065 364.732C127.662 366.291 126.866 370.525 126.548 373.059C126.367 374.505 127.308 375.86 128.737 376.214C132.013 377.021 138.576 377.082 145.527 377.144C147.856 377.164 150.263 377.186 152.526 377.238C152.759 377.251 153.917 377.194 154.392 375.695C155.402 372.519 151.344 370.873 145.729 368.594C143.186 367.563 140.31 366.396 137.448 364.896C137.222 365.069 136.785 365.383 136.219 365.69C134.801 366.458 132.473 366.415 131.029 365.594L128.899 364.381C128.811 364.331 128.713 364.306 128.616 364.306Z" fill="#1B1B1B"/>
<path d="M125.991 374.189C125.984 374.233 125.978 374.264 125.977 374.279C125.775 375.891 127.332 376.847 128.817 377.502C133.309 379.483 151.516 377.856 151.516 377.856C151.516 377.856 153.957 377.881 154.605 376.415C154.701 376.199 154.745 375.879 154.767 375.614C154.791 375.327 154.763 375.038 154.693 374.76L154.531 374.103C152.053 375.09 140.9 375.841 132.806 374.836C129.411 374.416 127.445 372.948 126.311 372.389C126.311 372.389 126.153 373.268 125.991 374.189Z" fill="#FDFDFD"/>
<path d="M138.122 378.806C134.174 378.806 130.445 378.567 128.689 377.792C127.276 377.17 125.427 376.124 125.663 374.24C125.665 374.223 125.67 374.187 125.681 374.136C125.843 373.214 126 372.335 126 372.335C126.018 372.237 126.08 372.153 126.168 372.109C126.258 372.065 126.361 372.063 126.451 372.109C126.675 372.22 126.921 372.36 127.208 372.522C128.383 373.187 130.158 374.193 132.845 374.527C140.875 375.522 151.968 374.786 154.414 373.813C154.498 373.779 154.593 373.783 154.674 373.826C154.755 373.867 154.814 373.942 154.836 374.031L154.998 374.689C155.078 375.01 155.105 375.332 155.079 375.645C155.047 376.034 154.985 376.338 154.891 376.549C154.166 378.188 151.626 378.18 151.509 378.179C151.071 378.219 144.327 378.812 138.119 378.812L138.122 378.806ZM126.302 374.243L126.289 374.32C126.148 375.449 126.967 376.341 128.944 377.213C133.31 379.139 151.305 377.558 151.486 377.542C151.539 377.542 153.76 377.545 154.315 376.288C154.377 376.146 154.425 375.898 154.45 375.589C154.47 375.345 154.449 375.092 154.386 374.836L154.306 374.515C151.252 375.451 140.56 376.118 132.767 375.151C129.954 374.802 128.114 373.758 126.896 373.069C126.772 372.998 126.654 372.932 126.545 372.872C126.485 373.214 126.394 373.723 126.302 374.243Z" fill="#1B1B1B"/>
<path d="M138.428 368.965C138.335 368.965 138.242 368.924 138.179 368.844C138.071 368.707 138.095 368.508 138.232 368.4L140.863 366.325C141 366.217 141.199 366.241 141.306 366.378C141.414 366.515 141.39 366.714 141.253 366.822L138.622 368.897C138.565 368.943 138.495 368.965 138.426 368.965H138.428Z" fill="#1B1B1B"/>
<path d="M142.007 370.337C141.912 370.337 141.82 370.296 141.756 370.215C141.649 370.076 141.674 369.878 141.812 369.771L144.115 367.981C144.253 367.874 144.451 367.9 144.558 368.037C144.666 368.176 144.641 368.374 144.502 368.481L142.2 370.271C142.142 370.315 142.074 370.337 142.007 370.337Z" fill="#1B1B1B"/>
<path d="M101.901 294.877C101.901 294.877 111.199 296.926 118.12 301.702C124.118 305.841 130.44 313.756 136.199 355.238C136.585 358.023 134.203 360.017 132.572 360.396C130.262 360.933 128.365 360.722 126.411 359.46C123.083 357.306 110.52 325.4 103.032 318.628C95.5438 311.858 63.9132 310.411 57.8113 301.794C51.7094 293.176 66.6857 293.176 66.6857 293.176L101.899 294.877H101.901Z" fill="#1B1B1B"/>
<path d="M77.691 320.032C77.5746 320.032 77.4626 319.967 77.4081 319.856C77.3301 319.7 77.3949 319.509 77.551 319.433C79.4632 318.484 81.3091 317.508 83.0931 316.562C90.9452 312.407 98.3626 308.482 112.107 306.082C112.283 306.054 112.443 306.167 112.473 306.339C112.502 306.511 112.387 306.675 112.216 306.704C98.5704 309.087 91.1956 312.99 83.3892 317.121C81.6008 318.068 79.7505 319.046 77.8324 319.999C77.7867 320.021 77.7396 320.032 77.6925 320.032H77.691Z" fill="#FDFDFD"/>
<path d="M35.7648 240.909C37.3382 237.441 41.5264 235.201 44.7821 233.926C47.0317 233.046 49.4182 232.566 51.8328 232.472L60.3684 232.137C63.5932 231.905 67.391 232.054 71.538 232.792C77.0462 233.771 81.9887 236.782 85.5038 241.141C87.0933 243.112 88.4943 244.82 88.6077 244.854C93.2232 251.342 93.8478 252.486 97.1831 254.906C102.753 258.949 112.503 255.653 112.503 255.653C115.751 255.166 116.93 257.594 117.522 258.943C118.233 260.564 117.544 262.541 116.918 263.811C116.517 264.624 115.832 265.258 114.994 265.6C110.813 267.306 96.5953 272.623 90.075 268.924C84.6405 265.841 80.9899 259.404 78.0789 256.243C77.7843 255.922 77.2584 256.158 77.2967 256.592C77.9125 263.695 83.758 272.127 85.5376 274.548C85.8558 274.982 86.339 275.261 86.8723 275.322L99.7391 276.79C99.9144 276.803 100.109 276.876 100.299 276.979C101.142 277.43 101.691 278.29 101.818 279.239C102.021 280.755 101.893 283.599 101.427 284.517L100.985 285.385C100.629 286.086 99.9159 286.533 99.1321 286.546C92.2951 286.658 61.4762 286.669 53.1056 286.621C45.4524 286.577 42.3779 282.8 38.2928 272.114C36.6693 267.868 31.5648 250.17 35.7648 240.912V240.909Z" fill="#FDFDFD"/>
<path d="M68.7183 286.963C62.0625 286.963 56.1418 286.954 53.1041 286.936C44.9736 286.89 41.8726 282.36 37.9996 272.225C36.3776 267.984 31.1979 250.216 35.479 240.78C37.098 237.212 41.3687 234.924 44.6687 233.633C46.9212 232.753 49.3283 232.256 51.8224 232.158L60.358 231.823C63.8612 231.571 67.7504 231.8 71.5954 232.483C77.1169 233.465 82.1449 236.47 85.7512 240.944C88.1613 243.934 88.6696 244.491 88.7742 244.586C88.8095 244.608 88.8419 244.637 88.867 244.671C89.3414 245.336 89.773 245.947 90.1693 246.508C93.6033 251.358 94.4194 252.51 97.3717 254.651C102.744 258.55 112.31 255.386 112.405 255.354C112.423 255.348 112.441 255.343 112.46 255.34C116.055 254.803 117.288 257.616 117.815 258.817C118.563 260.524 117.896 262.552 117.204 263.953C116.769 264.832 116.028 265.521 115.115 265.894C111.941 267.189 103.098 270.513 96.0753 270.514C93.727 270.514 91.5835 270.143 89.9218 269.2C85.9958 266.973 82.9787 263.008 80.5538 259.823C79.5889 258.556 78.6785 257.358 77.8491 256.458C77.7916 256.395 77.7283 256.41 77.6944 256.424C77.6605 256.439 77.6045 256.478 77.6134 256.565C78.2218 263.578 84.0291 271.958 85.7939 274.36C86.0591 274.721 86.4657 274.956 86.9106 275.007L99.7774 276.475C99.9689 276.488 100.2 276.565 100.451 276.699C101.361 277.187 101.99 278.12 102.133 279.196C102.33 280.673 102.241 283.617 101.712 284.66L101.27 285.529C100.86 286.336 100.043 286.848 99.1395 286.862C94.7892 286.933 80.5877 286.964 68.7213 286.964L68.7183 286.963ZM35.7648 240.91L36.052 241.041C31.9036 250.186 37.0833 268.064 38.5874 272C42.864 283.189 45.9842 286.263 53.107 286.305C61.5616 286.352 92.3393 286.342 99.1262 286.231C99.7965 286.219 100.401 285.842 100.704 285.243L101.146 284.374C101.57 283.539 101.707 280.797 101.505 279.282C101.388 278.406 100.882 277.651 100.15 277.258C99.9365 277.143 99.795 277.112 99.7155 277.106L86.8369 275.639C86.2182 275.568 85.6525 275.24 85.2842 274.739C83.4943 272.303 77.606 263.801 76.9829 256.624C76.9534 256.289 77.1331 255.985 77.4381 255.849C77.7415 255.715 78.0848 255.787 78.3117 256.032C79.1602 256.952 80.0795 258.162 81.0532 259.441C83.4427 262.58 86.4171 266.487 90.2297 268.651C96.6159 272.275 110.707 267.009 114.873 265.31C115.642 264.996 116.268 264.415 116.633 263.674C117.265 262.394 117.883 260.556 117.232 259.074C116.46 257.312 115.302 255.566 112.575 255.964C111.884 256.194 102.541 259.19 96.996 255.165C93.9598 252.961 93.1333 251.793 89.6493 246.875C89.2589 246.323 88.8346 245.724 88.3705 245.072C88.1422 244.872 87.5205 244.153 85.2548 241.343C81.7442 236.988 76.8517 234.063 71.4805 233.107C67.6871 232.433 63.8509 232.207 60.389 232.455L51.843 232.791C49.4197 232.885 47.0817 233.368 44.8955 234.223C41.7061 235.471 37.5827 237.668 36.0506 241.041L35.7633 240.91H35.7648Z" fill="#1B1B1B"/>
<path d="M81.3882 275.17C81.3749 275.17 81.3602 275.17 81.3454 275.167C80.5809 275.064 79.6969 274.975 78.6746 274.873C69.7957 273.982 53.2666 272.323 47.5315 254.82C47.477 254.655 47.5669 254.475 47.7334 254.422C47.8998 254.369 48.0766 254.457 48.1311 254.624C53.7381 271.736 70.0005 273.367 78.7364 274.245C79.7662 274.348 80.6545 274.437 81.4294 274.541C81.6018 274.565 81.724 274.724 81.7005 274.897C81.6798 275.056 81.5428 275.171 81.3882 275.171V275.17Z" fill="#1B1B1B"/>
<path d="M64.8452 228.931C64.9748 228.48 65.3756 228.161 65.8411 228.142L69.3281 228.027C69.773 228.009 70.1531 227.692 70.2577 227.254L71.199 223.28L72.7694 222.568C72.8932 222.512 72.9492 222.369 72.8976 222.243L71.6646 219.275C71.2977 218.185 71.308 215.846 70.7409 215.833C70.7409 215.833 60.0883 211.195 57.7754 216.499C57.4263 217.302 57.4056 218.21 57.6841 219.039L58.2527 220.733C58.8199 222.425 58.8243 224.288 58.129 225.937C57.9846 226.279 57.444 227.396 56.5556 228.735C55.8072 229.863 54.2427 231.034 53.1187 231.787C52.4823 232.212 52.4425 233.134 53.0377 233.614C54.1912 234.547 55.9325 235.855 57.1876 236.361C60.1517 237.557 61.6469 237.866 63.1614 237.699C64.6331 237.537 65.4684 236.029 64.9601 234.637C63.9038 231.741 64.8482 228.93 64.8482 228.93L64.8452 228.931Z" fill="#FDFDFD"/>
<path d="M62.4011 238.059C61.0326 238.059 59.5461 237.656 57.0653 236.654C55.791 236.141 54.0615 234.852 52.8343 233.861C52.4719 233.567 52.2745 233.132 52.2966 232.664C52.3172 232.198 52.5515 231.782 52.9389 231.523C54.0747 230.763 55.5774 229.633 56.2889 228.559C57.164 227.241 57.7002 226.13 57.8343 225.813C58.4751 224.29 58.5164 222.522 57.9492 220.833L57.3805 219.14C57.0712 218.215 57.1065 217.232 57.4822 216.372C59.8378 210.971 69.9364 215.147 70.8159 215.523C71.3757 215.607 71.5039 216.512 71.6674 217.648C71.747 218.209 71.831 218.79 71.9606 219.175L73.1863 222.122C73.3041 222.407 73.1774 222.728 72.8975 222.857L71.4686 223.504L70.564 227.328C70.4285 227.901 69.9247 228.319 69.3413 228.342L65.8513 228.458C65.5243 228.471 65.2414 228.696 65.1486 229.018C65.1486 229.022 65.1457 229.027 65.1442 229.031C65.1354 229.058 64.25 231.778 65.2532 234.529C65.5405 235.317 65.4595 236.166 65.0308 236.858C64.6271 237.509 63.9568 237.929 63.1908 238.014C62.9271 238.044 62.6663 238.059 62.3997 238.059H62.4011ZM62.6855 214.275C60.6613 214.275 58.836 214.847 58.0597 216.626C57.7474 217.341 57.7179 218.163 57.9787 218.939L58.5473 220.632C59.1631 222.467 59.1159 224.395 58.4162 226.061C58.2424 226.474 57.684 227.599 56.8148 228.91C56.0458 230.071 54.474 231.259 53.2895 232.051C53.0715 232.197 52.9389 232.431 52.9271 232.694C52.9153 232.958 53.0258 233.204 53.2306 233.369C54.4239 234.333 56.0989 235.584 57.301 236.069C60.1516 237.219 61.6204 237.55 63.1215 237.386C63.702 237.323 64.1896 237.016 64.4931 236.526C64.8186 236.001 64.879 235.352 64.658 234.747C63.5915 231.825 64.4768 229.031 64.5402 228.838C64.7096 228.257 65.2237 227.851 65.8248 227.828L69.3148 227.713C69.6153 227.701 69.876 227.483 69.9468 227.183L70.8881 223.209C70.9102 223.113 70.9765 223.035 71.0649 222.994L72.5764 222.308L71.3669 219.399C71.2107 218.937 71.1238 218.328 71.0399 217.74C70.9633 217.206 70.838 216.325 70.6833 216.147C70.6568 216.142 70.6318 216.135 70.6082 216.125C70.5419 216.097 66.2947 214.276 62.684 214.276L62.6855 214.275Z" fill="#1B1B1B"/>
<path d="M73.6967 207.441C71.1967 206.537 73.6157 210.119 65.0285 204.559C61.6093 202.345 62.2015 207.304 61.3131 206.732C58.0309 204.62 58.1458 204.687 56.2557 204.628C55.005 204.59 53.6114 206.515 53.355 208.188C53.0147 210.394 54.9932 215.705 56.54 219.771C57.337 221.867 60.251 222.935 61.5444 220.471C61.9009 219.791 60.3733 217.633 61.5562 216.749C63.7306 215.125 63.7807 218.5 65.4646 218.035C67.0806 217.588 67.8099 217.203 69.6366 216.339C71.8478 215.293 74.009 218.631 76.0906 215.395C77.1763 213.707 77.1189 208.68 73.6967 207.441Z" fill="#1B1B1B"/>
<path d="M110.209 283.349H173.196V284.399C173.196 285.688 172.152 286.734 170.864 286.734H112.543C111.255 286.734 110.21 285.688 110.21 284.399V283.349H110.209Z" fill="#FDFDFD"/>
<path d="M170.923 287.05H112.481C111.053 287.05 109.893 285.888 109.893 284.459V283.348C109.893 283.174 110.034 283.032 110.208 283.032H173.195C173.369 283.032 173.51 283.174 173.51 283.348V284.459C173.51 285.888 172.349 287.05 170.922 287.05H170.923ZM110.525 283.664V284.459C110.525 285.538 111.403 286.417 112.481 286.417H170.923C172.002 286.417 172.88 285.538 172.88 284.459V283.664H110.525Z" fill="#1B1B1B"/>
<path d="M173.196 283.407H137.154L147.817 252.02C148.502 250.963 149.695 250.323 150.98 250.323H181.447C182.829 250.323 183.719 251.667 183.268 252.851C183.088 253.324 173.196 283.407 173.196 283.407Z" fill="#FDFDFD"/>
<path d="M173.194 283.724H137.153C137.051 283.724 136.956 283.676 136.897 283.592C136.838 283.509 136.821 283.403 136.855 283.305L147.518 251.918C147.527 251.892 147.537 251.869 147.552 251.847C148.301 250.695 149.581 250.006 150.979 250.006H181.446C182.209 250.006 182.889 250.36 183.312 250.975C183.719 251.564 183.812 252.307 183.563 252.963C183.415 253.356 176.913 273.113 173.495 283.506C173.452 283.636 173.331 283.723 173.194 283.723V283.724ZM137.593 283.092H172.964C173.928 280.161 182.796 253.196 182.97 252.739C183.146 252.277 183.078 251.754 182.791 251.335C182.486 250.892 181.995 250.639 181.444 250.639H150.977C149.808 250.639 148.735 251.207 148.102 252.158L137.593 283.09V283.092Z" fill="#1B1B1B"/>
<path d="M163.522 268.955C163.949 267.528 163.29 266.069 162.051 265.697C160.811 265.325 159.459 266.18 159.032 267.607C158.604 269.034 159.263 270.493 160.503 270.865C161.743 271.238 163.094 270.382 163.522 268.955Z" fill="#1B1B1B"/>
<path d="M71.0476 377.421L49.5332 303.024L28.0175 377.421H22.8613L46.5 293.473L52.5636 293.464L76.2052 377.421H71.0476Z" fill="#FDFDFD"/>
<path d="M76.2054 377.738H71.0477C70.9078 377.738 70.784 377.645 70.7443 377.509L49.5334 304.16L28.3226 377.509C28.2828 377.645 28.1591 377.738 28.0191 377.738H22.8615C22.7628 377.738 22.67 377.692 22.6096 377.612C22.5492 377.533 22.5301 377.431 22.5566 377.335L46.1952 293.386C46.2335 293.251 46.3573 293.156 46.4987 293.156L52.5623 293.147C52.7037 293.147 52.8275 293.242 52.8672 293.378L76.5074 377.335C76.5339 377.431 76.5147 377.533 76.4543 377.612C76.3954 377.692 76.3011 377.738 76.2024 377.738H76.2054ZM71.2864 377.105H75.7884L52.3266 293.78L46.7403 293.788L23.2784 377.105H27.7805L49.23 302.934C49.2697 302.799 49.3935 302.706 49.5334 302.706C49.6734 302.706 49.7971 302.799 49.8369 302.934L71.2864 377.105Z" fill="#1B1B1B"/>
<path d="M22.8175 294.73H186.678V286.647H22.8175V294.73Z" fill="#FDFDFD"/>
<path d="M186.677 295.045H22.8153C22.6414 295.045 22.5 294.904 22.5 294.73V286.646C22.5 286.472 22.6414 286.331 22.8153 286.331H186.676C186.849 286.331 186.991 286.472 186.991 286.646V294.73C186.991 294.904 186.849 295.045 186.676 295.045H186.677ZM23.132 294.412H186.362V286.96H23.132V294.412Z" fill="#1B1B1B"/>
<path d="M70.8817 293.147C70.7078 293.147 70.5664 293.006 70.5664 292.832V288.33C70.5664 288.156 70.7078 288.014 70.8817 288.014C71.0555 288.014 71.1969 288.156 71.1969 288.33V292.832C71.1969 293.006 71.0555 293.147 70.8817 293.147Z" fill="#1B1B1B"/>
<path d="M126.979 252.575C124.548 252.6 123.698 250.956 122.154 251.586C120.811 252.134 116.929 256.422 112.807 257.284C111.565 257.544 110.63 258.571 110.469 259.832C110.376 260.556 110.37 261.332 110.588 261.96C111.166 263.629 111.341 265.945 118.25 262.027C118.25 262.027 119.469 261.069 122.875 259.115C122.875 259.115 123.299 269.625 130.083 260.332C131.309 258.652 131.714 252.526 126.979 252.575Z" fill="#FDFDFD"/>
<path d="M112.687 264.516C112.349 264.516 112.055 264.466 111.798 264.365C110.892 264.011 110.617 263.154 110.372 262.398C110.337 262.287 110.302 262.178 110.265 262.072C110.058 261.474 110.013 260.706 110.129 259.787C110.309 258.378 111.356 257.238 112.735 256.949C115.465 256.378 118.168 254.193 119.958 252.748C120.882 252.001 121.549 251.463 122.024 251.27C122.964 250.886 123.691 251.224 124.459 251.582C125.126 251.892 125.897 252.248 126.973 252.233C129.086 252.212 130.126 253.351 130.62 254.311C131.698 256.413 131.185 259.4 130.357 260.533C128.126 263.591 126.341 264.864 124.908 264.427C123.174 263.899 122.698 260.936 122.573 259.68C119.591 261.414 118.47 262.284 118.459 262.293C118.445 262.303 118.431 262.313 118.416 262.321C115.813 263.797 113.952 264.513 112.684 264.513L112.687 264.516ZM122.854 251.786C122.672 251.786 122.483 251.821 122.283 251.902C121.903 252.057 121.202 252.624 120.388 253.28C118.548 254.767 115.767 257.014 112.877 257.618C111.782 257.847 110.951 258.754 110.808 259.874C110.705 260.686 110.739 261.35 110.911 261.847C110.95 261.958 110.987 262.072 111.023 262.187C111.24 262.856 111.443 263.491 112.047 263.727C113.033 264.11 115.055 263.442 118.062 261.74C118.243 261.601 119.516 260.648 122.706 258.818C122.809 258.757 122.937 258.757 123.04 258.815C123.145 258.872 123.211 258.981 123.217 259.099C123.264 260.253 123.697 263.343 125.11 263.774C125.872 264.005 127.302 263.561 129.808 260.13C130.525 259.148 130.928 256.403 130.014 254.624C129.432 253.49 128.43 252.916 127.037 252.916C127.019 252.916 127.001 252.916 126.984 252.916C126.965 252.916 126.944 252.916 126.926 252.916C125.711 252.916 124.859 252.521 124.174 252.2C123.678 251.97 123.279 251.785 122.857 251.785L122.854 251.786Z" fill="#1B1B1B"/>
<path d="M129.447 244.276C129.448 244.315 129.45 244.355 129.448 244.394C129.448 244.437 129.447 244.478 129.447 244.521L117.043 245.195C117.038 245.16 117.034 245.126 117.029 245.091C117.023 245.051 117.019 245.012 117.018 244.974L129.448 244.278L129.447 244.276Z" fill="#FDFDFD"/>
<path d="M129.446 244.277C129.447 244.315 129.449 244.355 129.447 244.395C129.447 244.438 129.446 244.479 129.446 244.522L117.042 245.196C117.037 245.16 117.033 245.126 117.028 245.091C117.022 245.051 117.018 245.013 117.017 244.975L129.447 244.278M130.141 243.501L129.406 243.542L116.975 244.239L116.24 244.28L116.281 245.016C116.284 245.069 116.29 245.122 116.298 245.184C116.301 245.205 116.304 245.225 116.305 245.244L116.309 245.283L116.391 245.97L117.08 245.933L129.484 245.259L130.184 245.221L130.181 244.52C130.181 244.486 130.181 244.451 130.182 244.417C130.184 244.362 130.182 244.303 130.179 244.239L130.138 243.502L130.141 243.501Z" fill="#1B1B1B"/>
<path d="M129.446 244.522C129.437 244.962 129.429 245.405 129.421 245.844C129.417 246.04 129.415 246.234 129.409 246.43C129.402 246.831 129.395 247.232 129.387 247.635C129.387 247.717 129.384 247.799 129.383 247.88C129.367 248.75 129.35 249.62 129.334 250.489C129.333 250.613 129.33 250.738 129.328 250.862C129.319 251.264 129.314 251.665 129.306 252.066C129.284 253.28 129.262 254.494 129.238 255.708C129.212 257.111 129.188 258.512 129.162 259.915C129.152 260.499 128.848 261.014 128.39 261.313C128.198 261.438 127.98 261.527 127.745 261.567C127.683 261.579 127.618 261.586 127.553 261.589L120.828 261.965C120.364 261.992 119.931 261.829 119.604 261.54C119.305 261.276 119.097 260.906 119.041 260.481C118.858 259.09 118.677 257.701 118.495 256.31C118.453 255.987 118.411 255.664 118.368 255.341C118.184 253.93 118.001 252.523 117.815 251.115C117.703 250.259 117.592 249.402 117.48 248.546C117.39 247.872 117.303 247.201 117.214 246.529C117.155 246.086 117.098 245.641 117.039 245.198L129.443 244.524L129.446 244.522Z" fill="#1B1B1B"/>
<path d="M129.446 244.522C129.438 244.962 129.429 245.405 129.421 245.844C129.417 246.04 129.416 246.234 129.41 246.43C129.402 246.831 129.396 247.232 129.388 247.635C129.388 247.717 129.385 247.799 129.383 247.88C129.367 248.75 129.351 249.62 129.335 250.489C129.333 250.613 129.33 250.738 129.329 250.862C129.32 251.264 129.314 251.665 129.307 252.066C129.284 253.28 129.262 254.494 129.239 255.708C129.214 257.111 129.189 258.512 129.162 259.915C129.152 260.499 128.848 261.014 128.39 261.313C128.199 261.439 127.981 261.527 127.745 261.567C127.683 261.579 127.618 261.586 127.553 261.589L120.828 261.965C120.796 261.967 120.764 261.968 120.731 261.968C120.304 261.968 119.908 261.809 119.606 261.54C119.307 261.276 119.099 260.906 119.043 260.481C118.86 259.09 118.679 257.701 118.496 256.31C118.455 255.987 118.412 255.664 118.37 255.341C118.186 253.93 118.003 252.523 117.817 251.115C117.705 250.259 117.593 249.402 117.481 248.546C117.391 247.872 117.305 247.201 117.218 246.529C117.159 246.086 117.101 245.641 117.042 245.198L129.446 244.524M130.201 243.744L129.407 243.786L117.003 244.461L116.207 244.503L116.313 245.294C116.353 245.587 116.391 245.883 116.429 246.178L116.488 246.624C116.575 247.297 116.664 247.97 116.754 248.644L117.088 251.21C117.274 252.619 117.456 254.028 117.64 255.436C117.679 255.726 117.717 256.015 117.754 256.302L117.767 256.404C117.858 257.1 117.95 257.794 118.04 258.488C118.131 259.185 118.222 259.881 118.314 260.577C118.39 261.163 118.676 261.701 119.12 262.093C119.566 262.489 120.139 262.706 120.733 262.706C120.778 262.706 120.825 262.706 120.873 262.701L127.598 262.325C127.688 262.321 127.78 262.309 127.873 262.293C128.205 262.237 128.514 262.114 128.797 261.93C129.474 261.487 129.887 260.738 129.902 259.928C129.916 259.136 129.931 258.345 129.944 257.553L129.978 255.721C129.99 255.072 130.002 254.425 130.014 253.776L130.045 252.079V252.054C130.052 251.662 130.059 251.269 130.067 250.877L130.071 250.654L130.074 250.502L130.105 248.816L130.123 247.893C130.123 247.847 130.123 247.805 130.126 247.763V247.644C130.136 247.245 130.143 246.844 130.149 246.442C130.152 246.315 130.155 246.183 130.157 246.051L130.16 245.857C130.167 245.416 130.174 244.975 130.185 244.537L130.202 243.742L130.201 243.744Z" fill="#1B1B1B"/>
<path d="M129.049 242.58L117.215 243.243C117.233 243.086 117.252 242.929 117.269 242.771C117.324 242.299 117.378 241.827 117.436 241.354C117.456 241.181 117.476 241.009 117.496 240.836C117.577 240.134 118.152 239.594 118.856 239.554L127.009 239.097C127.713 239.057 128.343 239.531 128.502 240.22C128.542 240.389 128.58 240.557 128.62 240.727C128.729 241.19 128.835 241.653 128.943 242.117C128.978 242.271 129.015 242.425 129.05 242.58H129.049Z" fill="#1B1B1B"/>
<path d="M127.09 239.094C127.76 239.094 128.349 239.558 128.501 240.218C128.541 240.388 128.579 240.556 128.619 240.726C128.728 241.189 128.834 241.652 128.942 242.115C128.977 242.27 129.014 242.424 129.049 242.579L117.215 243.242C117.233 243.085 117.252 242.928 117.27 242.77C117.324 242.298 117.379 241.826 117.436 241.354C117.457 241.182 117.476 241.009 117.496 240.837C117.578 240.134 118.152 239.595 118.856 239.555L127.009 239.097C127.037 239.096 127.063 239.094 127.091 239.094M127.091 238.357C127.05 238.357 127.009 238.357 126.969 238.36L118.816 238.817C117.751 238.876 116.89 239.69 116.767 240.751L116.738 241.008L116.707 241.269C116.651 241.733 116.596 242.201 116.543 242.667V242.685C116.533 242.764 116.523 242.843 116.514 242.919C116.505 242.999 116.495 243.079 116.486 243.16L116.389 244.027L117.259 243.978L129.093 243.315L129.965 243.266L129.771 242.413C129.753 242.335 129.734 242.257 129.717 242.179C129.699 242.102 129.681 242.027 129.663 241.95L129.637 241.832C129.538 241.407 129.44 240.981 129.341 240.556L129.28 240.298L129.223 240.052C128.993 239.053 128.117 238.355 127.094 238.355L127.091 238.357Z" fill="#1B1B1B"/>
<path d="M130.764 243.956C130.773 244.093 130.668 244.21 130.531 244.217L129.441 244.279L117.01 244.976L115.92 245.038C115.783 245.045 115.667 244.94 115.659 244.804L115.547 242.803C115.54 242.667 115.644 242.551 115.78 242.543L130.39 241.723C130.527 241.716 130.643 241.82 130.65 241.956L130.762 243.956H130.764Z" fill="#1B1B1B"/>
<path d="M130.405 241.723C130.536 241.723 130.645 241.825 130.652 241.956L130.764 243.956C130.773 244.093 130.669 244.21 130.532 244.217L129.442 244.279L117.011 244.975L115.921 245.037C115.921 245.037 115.912 245.037 115.907 245.037C115.776 245.037 115.667 244.936 115.66 244.804L115.548 242.803C115.541 242.667 115.645 242.55 115.781 242.543L130.39 241.723C130.39 241.723 130.399 241.723 130.403 241.723M130.403 240.985C130.386 240.985 130.368 240.985 130.349 240.985L115.738 241.805C115.477 241.82 115.236 241.935 115.06 242.131C114.885 242.328 114.797 242.58 114.81 242.842L114.922 244.846C114.95 245.366 115.381 245.775 115.904 245.775C115.922 245.775 115.94 245.775 115.957 245.775L117.049 245.713L129.478 245.017L130.568 244.955C130.831 244.94 131.072 244.823 131.249 244.626C131.424 244.428 131.513 244.174 131.495 243.91L131.383 241.915C131.355 241.394 130.924 240.985 130.401 240.985H130.403Z" fill="#1B1B1B"/>
<path d="M126.255 250.345C125.925 251.483 125.061 252.306 123.746 252.376C121.763 252.484 120.748 250.999 120.676 249.683C120.609 248.453 121.421 246.858 123.394 246.751C124.727 246.678 125.742 247.408 126.157 248.534L124.73 248.612C124.456 248.139 123.995 247.925 123.442 247.956C122.432 248.01 121.901 248.786 121.947 249.634C121.996 250.541 122.645 251.233 123.618 251.18C123.837 251.168 124.512 251.093 124.83 250.425L126.257 250.347L126.255 250.345Z" fill="#FDFDFD"/>
<path d="M129.247 246.432C127.626 246.52 126.514 247.862 126.598 249.408C126.678 250.863 127.814 252.022 129.303 252.063C129.31 251.662 129.318 251.261 129.325 250.86C128.479 250.824 127.909 250.147 127.865 249.339C127.818 248.481 128.367 247.685 129.312 247.634C129.335 247.634 129.359 247.631 129.383 247.632C129.391 247.231 129.397 246.83 129.405 246.427C129.353 246.427 129.3 246.427 129.246 246.432H129.247Z" fill="#FDFDFD"/>
<path d="M119.325 256.495L119.337 256.718L120.137 256.675L120.197 257.801L119.397 257.844L119.597 261.537C119.298 261.273 119.091 260.903 119.035 260.478C118.852 259.087 118.671 257.698 118.488 256.307C118.447 255.984 118.404 255.661 118.361 255.337C118.66 254.911 119.16 254.668 119.786 254.634L120.023 254.621L120.092 255.888L119.932 255.897C119.44 255.923 119.309 256.227 119.323 256.494L119.325 256.495Z" fill="#FDFDFD"/>
<path d="M122.122 254.501L120.855 254.57L120.924 255.838L122.191 255.77L122.122 254.501Z" fill="#FDFDFD"/>
<path d="M122.233 256.557L120.967 256.626L121.254 261.912L122.52 261.843L122.233 256.557Z" fill="#FDFDFD"/>
<path d="M128.386 261.31C128.194 261.436 127.976 261.524 127.74 261.564L126.952 261.607L125.656 259.899L124.551 261.738L122.942 261.825L124.726 259.011L122.812 256.533L124.328 256.45L125.544 258.036L126.581 256.328L128.095 256.245L126.419 258.919L128.386 261.312V261.31Z" fill="#FDFDFD"/>
<path d="M113.736 256.826C113.736 256.826 118.268 255.667 119.464 252.817C120.881 249.439 123.985 251.168 123.624 253.521C123.247 255.974 122.396 256.581 120.952 257.593C119.529 258.59 116.303 259.713 116.303 259.713L113.738 256.826H113.736Z" fill="#FDFDFD"/>
<path d="M117.305 259.929C117.153 259.929 117.016 259.827 116.975 259.674C116.926 259.491 117.035 259.303 117.218 259.255C117.228 259.252 119.406 258.256 120.755 257.312C122.158 256.33 122.93 255.79 123.286 253.468C123.451 252.393 122.779 251.533 122.035 251.323C121.156 251.074 120.312 251.682 119.778 252.949C118.531 255.921 114.012 257.108 113.821 257.157C113.638 257.206 113.453 257.094 113.405 256.911C113.358 256.728 113.469 256.542 113.651 256.495C113.696 256.483 118.033 255.341 119.148 252.685C119.946 250.782 121.259 250.395 122.219 250.665C123.395 250.997 124.16 252.275 123.959 253.574C123.559 256.185 122.598 256.856 121.146 257.874C119.689 258.895 117.44 259.905 117.39 259.917C117.361 259.924 117.333 259.929 117.303 259.929H117.305Z" fill="#1B1B1B"/>
<path d="M130.335 254.151C130.335 254.151 133.261 259.078 128.801 262.176C124.342 265.272 122.772 263.477 122.614 261.106C122.456 258.736 129.283 251.172 130.335 254.153V254.151Z" fill="#FDFDFD"/>
<path d="M124.884 264.192C124.472 264.192 124.099 264.112 123.767 263.951C122.879 263.522 122.338 262.52 122.246 261.129C122.167 259.954 123.455 257.981 124.687 256.527C125.921 255.07 127.715 253.413 129.05 253.137C129.819 252.978 130.407 253.291 130.669 253.996C130.923 254.452 133.499 259.361 129.01 262.477C127.368 263.619 125.986 264.192 124.884 264.192ZM129.438 253.834C129.365 253.834 129.287 253.842 129.199 253.86C128.25 254.056 126.699 255.29 125.248 257.004C123.862 258.641 122.929 260.317 122.981 261.079C123.023 261.725 123.224 262.87 124.087 263.286C125.039 263.745 126.597 263.256 128.592 261.87C130.322 260.669 131.091 259.044 130.874 257.039C130.71 255.518 130.025 254.348 130.018 254.337L129.987 254.272C129.88 253.969 129.715 253.831 129.438 253.831V253.834Z" fill="#1B1B1B"/>
<path d="M60.8653 254.536C60.69 255.263 60.1699 255.807 59.342 255.891C58.0942 256.018 57.4107 255.111 57.3267 254.282C57.2486 253.508 57.7141 252.478 58.9546 252.353C59.7943 252.267 60.4557 252.698 60.7504 253.395L59.8517 253.487C59.6646 253.196 59.3685 253.075 59.0194 253.111C58.3844 253.176 58.0721 253.68 58.1251 254.214C58.1826 254.785 58.6128 255.202 59.2241 255.14C59.3626 255.127 59.7854 255.059 59.9666 254.629L60.8638 254.537L60.8653 254.536Z" fill="#1B1B1B"/>
<path d="M61.8536 253.853C61.9081 254.393 62.3338 254.823 62.9202 254.763C63.5065 254.702 63.8379 254.197 63.7834 253.657C63.7289 253.117 63.3091 252.674 62.7154 252.733C62.1217 252.792 61.7991 253.311 61.8536 253.851M64.5819 253.576C64.6791 254.542 64.0103 255.416 62.9982 255.518C61.9847 255.621 61.1538 254.899 61.0566 253.932C60.9579 252.96 61.6208 252.08 62.6402 251.977C63.6597 251.873 64.4832 252.602 64.5819 253.576Z" fill="#1B1B1B"/>
<path d="M65.0233 252.562L64.6933 252.596L64.6211 251.888L64.9511 251.854L64.9364 251.713C64.8612 250.969 65.287 250.514 65.9705 250.445L66.1208 250.43L66.2018 251.228L66.1002 251.239C65.7908 251.269 65.7171 251.466 65.7333 251.634L65.7481 251.774L66.2519 251.722L66.3241 252.43L65.8203 252.482L66.084 255.1L65.287 255.181L65.0233 252.565V252.562Z" fill="#1B1B1B"/>
<path d="M67.4516 250.291L66.6543 250.372L66.735 251.17L67.5323 251.09L67.4516 250.291Z" fill="#1B1B1B"/>
<path d="M67.5825 251.583L66.7852 251.664L67.1213 254.99L67.9187 254.909L67.5825 251.583Z" fill="#1B1B1B"/>
<path d="M70.6943 254.632L71.7049 254.528L70.2804 252.95L71.2586 251.214L70.3054 251.311L69.7014 252.419L68.8882 251.454L67.9336 251.552L69.2138 253.058L68.1722 254.887L69.1843 254.785L69.8266 253.592L70.6943 254.632Z" fill="#1B1B1B"/>
<path d="M104.672 286.669H119.605C119.605 284.129 117.549 282.069 115.012 282.069H109.265C106.728 282.069 104.672 284.129 104.672 286.669Z" fill="#FDFDFD"/>
<path d="M119.604 286.984H104.671C104.497 286.984 104.355 286.842 104.355 286.668C104.355 283.958 106.558 281.753 109.264 281.753H115.011C117.717 281.753 119.92 283.958 119.92 286.668C119.92 286.842 119.778 286.984 119.604 286.984ZM104.998 286.351H119.277C119.115 284.137 117.263 282.384 115.011 282.384H109.264C107.012 282.384 105.16 284.137 104.998 286.351Z" fill="#1B1B1B"/>
<path d="M98.2054 280.267C98.4691 279.75 98.9125 279.34 99.4591 279.144C99.8495 279.004 100.235 278.818 100.602 278.623L105.685 275.927C106.636 275.461 107.998 276.548 108.986 276.872C111.968 277.852 118.142 280.16 117.634 282.327C117.084 284.665 111.779 283.559 109.895 283.087C109.465 282.979 105.565 284.391 104.334 284.485C102.631 284.614 102.238 284.181 101.405 283.743C101.025 283.544 100.602 283.454 100.144 283.451C99.4429 283.447 98.7741 283.152 98.335 282.603L98.3247 282.59C97.8401 281.985 97.7561 281.152 98.1082 280.461L98.2084 280.267H98.2054Z" fill="#FDFDFD"/>
<path d="M103.761 284.825C102.665 284.825 102.173 284.543 101.615 284.225C101.501 284.16 101.383 284.092 101.255 284.025C100.932 283.856 100.567 283.772 100.138 283.769C99.3208 283.763 98.5725 283.412 98.0848 282.803C97.5132 282.089 97.4145 281.12 97.8241 280.32L97.9243 280.124C98.2322 279.521 98.7389 279.068 99.3518 278.848C99.6773 278.731 100.026 278.572 100.454 278.345L105.535 275.649C106.352 275.247 107.313 275.731 108.16 276.157C108.494 276.326 108.808 276.483 109.082 276.573C113.412 277.995 118.465 280.161 117.939 282.401C117.825 282.888 117.535 283.276 117.077 283.555C115.401 284.577 111.807 283.894 109.816 283.396H109.807C109.589 283.396 108.506 283.717 107.633 283.977C106.352 284.357 105.028 284.751 104.355 284.801C104.138 284.818 103.941 284.825 103.761 284.825ZM98.487 280.412L98.3868 280.608C98.0907 281.186 98.1629 281.887 98.568 282.394C98.9466 282.866 99.5168 283.132 100.143 283.136C100.667 283.139 101.14 283.25 101.548 283.465C101.684 283.536 101.808 283.608 101.928 283.676C102.534 284.023 102.97 284.273 104.308 284.171C104.913 284.126 106.262 283.725 107.453 283.371C109.101 282.881 109.702 282.713 109.97 282.782C111.162 283.08 115.171 283.978 116.75 283.015C117.062 282.825 117.251 282.577 117.326 282.257C117.637 280.934 114.403 278.987 108.888 277.175C108.569 277.071 108.235 276.902 107.879 276.724C107.163 276.364 106.351 275.955 105.823 276.214L100.751 278.906C100.298 279.146 99.9204 279.317 99.5669 279.444C99.1058 279.609 98.7227 279.953 98.4885 280.413L98.487 280.412Z" fill="#1B1B1B"/>
<path d="M578.896 357.939H461.242C455.26 357.939 450.41 362.795 450.41 368.785C450.41 374.775 455.26 379.631 461.242 379.631H578.896C584.879 379.631 589.729 374.775 589.729 368.785C589.729 362.795 584.879 357.939 578.896 357.939Z" fill="#1B1B1B"/>
<path d="M578.896 379.999H461.242C455.066 379.999 450.041 374.968 450.041 368.784C450.041 362.601 455.066 357.569 461.242 357.569H578.896C585.071 357.569 590.096 362.601 590.096 368.784C590.096 374.968 585.071 379.999 578.896 379.999ZM461.242 358.307C455.471 358.307 450.778 363.008 450.778 368.784C450.778 374.561 455.473 379.262 461.242 379.262H578.896C584.666 379.262 589.36 374.562 589.36 368.784C589.36 363.006 584.665 358.307 578.896 358.307H461.242Z" fill="#1B1B1B"/>
<path d="M570.893 357.939H453.239C447.256 357.939 442.406 362.795 442.406 368.785C442.406 374.775 447.256 379.631 453.239 379.631H570.893C576.875 379.631 581.725 374.775 581.725 368.785C581.725 362.795 576.875 357.939 570.893 357.939Z" fill="#FDFDFD"/>
<path d="M570.892 379.999H453.238C447.062 379.999 442.037 374.968 442.037 368.784C442.037 362.601 447.062 357.569 453.238 357.569H570.892C577.067 357.569 582.092 362.601 582.092 368.784C582.092 374.968 577.067 379.999 570.892 379.999ZM453.238 358.307C447.467 358.307 442.774 363.008 442.774 368.784C442.774 374.561 447.469 379.262 453.238 379.262H570.892C576.662 379.262 581.356 374.562 581.356 368.784C581.356 363.006 576.662 358.307 570.892 358.307H453.238Z" fill="#1B1B1B"/>
<path d="M453.932 369.583V372.687H452.754V366.787H453.932V369.406L456.466 366.787H458.034L455.264 369.477L458.246 372.687H456.749L453.932 369.583Z" fill="#1B1B1B"/>
<path d="M458.471 369.737C458.471 367.932 459.744 366.669 461.452 366.669C463.161 366.669 464.434 367.932 464.434 369.737C464.434 371.543 463.161 372.805 461.452 372.805C459.744 372.805 458.471 371.543 458.471 369.737ZM463.256 369.737C463.256 368.545 462.478 367.755 461.452 367.755C460.427 367.755 459.649 368.545 459.649 369.737C459.649 370.929 460.427 371.72 461.452 371.72C462.478 371.72 463.256 370.929 463.256 369.737Z" fill="#1B1B1B"/>
<path d="M466.258 366.787H470.618V372.687H469.44V367.872H467.33C467.307 369.253 467.248 370.185 467.153 370.822C466.906 372.297 466.387 372.687 465.445 372.687H465.232V371.601H465.327C465.645 371.601 465.904 371.412 466.022 370.964C466.163 370.457 466.246 369.442 466.258 366.787Z" fill="#1B1B1B"/>
<path d="M473.497 371.495L476.196 366.787H477.692V372.687H476.561V367.978L473.862 372.687H472.365V366.787H473.497V371.495Z" fill="#1B1B1B"/>
<path d="M482.912 369.43V366.787H484.091V372.687H482.912V370.492C482.665 370.551 482.158 370.657 481.663 370.657C479.931 370.657 479.082 369.914 479.082 368.132V366.787H480.261V368.12C480.261 369.182 480.791 369.572 481.757 369.572C482.417 369.572 482.783 369.454 482.912 369.43Z" fill="#1B1B1B"/>
<path d="M491.164 370.138H486.544C486.685 371.165 487.345 371.767 488.335 371.767C489.054 371.767 489.525 371.448 489.761 370.917H491.034C490.669 372.133 489.643 372.805 488.288 372.805C486.614 372.805 485.389 371.543 485.389 369.737C485.389 367.932 486.614 366.669 488.288 366.669C489.961 366.669 491.187 367.932 491.187 369.737C491.187 369.879 491.175 370.008 491.164 370.138ZM486.555 369.289H490.02C489.879 368.297 489.231 367.707 488.288 367.707C487.345 367.707 486.697 368.297 486.555 369.289Z" fill="#1B1B1B"/>
<path d="M494.991 367.755C493.989 367.755 493.235 368.545 493.235 369.737C493.235 370.929 493.989 371.72 494.991 371.72C495.852 371.72 496.582 371.189 496.7 370.209H497.926C497.832 371.767 496.594 372.805 494.991 372.805C493.306 372.805 492.057 371.543 492.057 369.737C492.057 367.932 493.306 366.669 494.991 366.669C496.547 366.669 497.761 367.66 497.902 369.135H496.677C496.559 368.238 495.84 367.755 494.991 367.755Z" fill="#1B1B1B"/>
<path d="M498.352 366.787H503.349V367.872H501.439V372.687H500.261V367.872H498.352V366.787Z" fill="#1B1B1B"/>
<path d="M504.432 366.787H507.354C508.439 366.787 509.181 367.294 509.181 368.321C509.181 368.946 508.875 369.347 508.368 369.56C509.016 369.772 509.429 370.244 509.429 370.988C509.429 372.12 508.674 372.687 507.449 372.687H504.432V366.787ZM505.563 367.683V369.218H507.013C507.743 369.218 508.05 368.946 508.05 368.45C508.05 367.919 507.743 367.683 507.013 367.683H505.563ZM505.563 370.114V371.79H507.248C507.908 371.79 508.25 371.495 508.25 370.952C508.25 370.409 507.908 370.114 507.248 370.114H505.563Z" fill="#1B1B1B"/>
<path d="M510.523 369.737C510.523 367.932 511.796 366.669 513.505 366.669C515.214 366.669 516.487 367.932 516.487 369.737C516.487 371.543 515.214 372.805 513.505 372.805C511.796 372.805 510.523 371.543 510.523 369.737ZM515.308 369.737C515.308 368.545 514.53 367.755 513.505 367.755C512.48 367.755 511.702 368.545 511.702 369.737C511.702 370.929 512.48 371.72 513.505 371.72C514.53 371.72 515.308 370.929 515.308 369.737Z" fill="#1B1B1B"/>
<path d="M521.684 369.583V372.687H520.506V366.787H521.684V369.406L524.218 366.787H525.786L523.016 369.477L525.998 372.687H524.501L521.684 369.583Z" fill="#1B1B1B"/>
<path d="M526.223 369.737C526.223 367.932 527.495 366.669 529.204 366.669C530.913 366.669 532.186 367.932 532.186 369.737C532.186 371.543 530.913 372.805 529.204 372.805C527.495 372.805 526.223 371.543 526.223 369.737ZM531.008 369.737C531.008 368.545 530.23 367.755 529.204 367.755C528.179 367.755 527.401 368.545 527.401 369.737C527.401 370.929 528.179 371.72 529.204 371.72C530.23 371.72 531.008 370.929 531.008 369.737Z" fill="#1B1B1B"/>
<path d="M537.384 363.837V366.669C539.187 366.728 540.483 367.908 540.483 369.737C540.483 371.566 539.187 372.746 537.384 372.805V375.637H536.205V372.805C534.402 372.746 533.105 371.566 533.105 369.737C533.105 367.908 534.402 366.728 536.205 366.669V363.837H537.384ZM536.205 371.72V367.755C535.085 367.814 534.284 368.522 534.284 369.737C534.284 370.953 535.085 371.661 536.205 371.72ZM537.384 367.755V371.72C538.503 371.661 539.305 370.953 539.305 369.737C539.305 368.522 538.503 367.814 537.384 367.755Z" fill="#1B1B1B"/>
<path d="M547.179 370.138H542.559C542.701 371.165 543.361 371.767 544.351 371.767C545.07 371.767 545.541 371.448 545.777 370.917H547.049C546.684 372.133 545.659 372.805 544.304 372.805C542.63 372.805 541.404 371.543 541.404 369.737C541.404 367.932 542.63 366.669 544.304 366.669C545.977 366.669 547.203 367.932 547.203 369.737C547.203 369.879 547.191 370.008 547.179 370.138ZM542.571 369.289H546.036C545.895 368.297 545.246 367.707 544.304 367.707C543.361 367.707 542.712 368.297 542.571 369.289Z" fill="#1B1B1B"/>
<path d="M553.849 370.138H549.229C549.371 371.165 550.031 371.767 551.021 371.767C551.739 371.767 552.211 371.448 552.447 370.917H553.719C553.354 372.133 552.329 372.805 550.973 372.805C549.3 372.805 548.074 371.543 548.074 369.737C548.074 367.932 549.3 366.669 550.973 366.669C552.647 366.669 553.873 367.932 553.873 369.737C553.873 369.879 553.861 370.008 553.849 370.138ZM549.241 369.289H552.706C552.564 368.297 551.916 367.707 550.973 367.707C550.031 367.707 549.382 368.297 549.241 369.289Z" fill="#1B1B1B"/>
<path d="M559.187 370.244H556.358V372.687H555.18V366.787H556.358V369.17H559.187V366.787H560.365V372.687H559.187V370.244Z" fill="#1B1B1B"/>
<path d="M561.709 367.46C561.709 367.011 562.039 366.669 562.487 366.669C562.958 366.669 563.276 367.011 563.276 367.46C563.276 367.908 562.958 368.238 562.487 368.238C562.015 368.238 561.709 367.896 561.709 367.46ZM561.709 372.026C561.709 371.578 562.039 371.236 562.487 371.236C562.958 371.236 563.276 371.578 563.276 372.026C563.276 372.475 562.958 372.805 562.487 372.805C562.015 372.805 561.709 372.463 561.709 372.026Z" fill="#1B1B1B"/>
<path d="M568.345 368.616H567.214V363.837H571.621V364.923H568.345V367.424C568.64 366.964 569.135 366.669 569.783 366.669C571.126 366.669 571.833 367.554 571.833 369.242V370.186C571.833 371.92 570.785 372.805 569.476 372.805C568.168 372.805 567.096 371.944 567.096 370.327V369.997H568.274V370.138C568.274 371.259 568.734 371.72 569.476 371.72C570.172 371.72 570.655 371.248 570.655 370.186V369.312C570.655 368.144 570.183 367.707 569.476 367.707C568.769 367.707 568.427 368.132 568.345 368.616Z" fill="#1B1B1B"/>
<path d="M315.792 3.3224H315.791C315.611 3.3224 315.465 3.17489 315.467 2.99494L315.477 0.949025C315.477 0.769068 315.624 0.624512 315.803 0.624512H315.804C315.984 0.624512 316.13 0.772018 316.128 0.951975L316.118 2.99789C316.118 3.17784 315.972 3.3224 315.792 3.3224Z" fill="#1B1B1B"/>
<path d="M315.757 10.4826H315.756C315.576 10.4826 315.43 10.3351 315.432 10.1551L315.442 8.10918C315.442 7.92922 315.588 7.78467 315.768 7.78467H315.769C315.949 7.78467 316.095 7.93217 316.093 8.11213L316.083 10.158C316.083 10.338 315.937 10.4826 315.757 10.4826Z" fill="#1B1B1B"/>
<path d="M311.183 5.87952C311.003 5.87952 310.857 5.73349 310.857 5.55353C310.857 5.37357 311.003 5.22754 311.183 5.22754H313.226C313.406 5.22754 313.552 5.37209 313.552 5.55353C313.552 5.73496 313.406 5.87952 313.226 5.87952H311.183Z" fill="#1B1B1B"/>
<path d="M318.335 5.87854C318.156 5.87854 318.01 5.73251 318.01 5.55255C318.01 5.37259 318.156 5.22656 318.335 5.22656H320.379C320.558 5.22656 320.704 5.37112 320.704 5.55108C320.704 5.73103 320.558 5.87707 320.379 5.87707H318.335V5.87854Z" fill="#1B1B1B"/>
<path d="M463.876 39.7833C463.792 39.7833 463.708 39.7509 463.645 39.686C463.518 39.5577 463.52 39.3512 463.648 39.2258L465.1 37.7876C465.229 37.6607 465.435 37.6622 465.56 37.7905C465.687 37.9189 465.685 38.1254 465.557 38.2522L464.104 39.6904C464.041 39.7538 463.959 39.7848 463.876 39.7848V39.7833Z" fill="#1B1B1B"/>
<path d="M458.792 44.818C458.708 44.818 458.624 44.7856 458.561 44.7207C458.434 44.5923 458.436 44.3858 458.564 44.259L460.016 42.8208C460.145 42.6939 460.351 42.6954 460.478 42.8237C460.604 42.9521 460.603 43.1586 460.475 43.284L459.022 44.7221C458.959 44.7856 458.876 44.8165 458.794 44.8165L458.792 44.818Z" fill="#1B1B1B"/>
<path d="M460.254 39.775C460.17 39.775 460.088 39.7426 460.025 39.6791L458.579 38.2336C458.453 38.1067 458.453 37.9002 458.579 37.7734C458.706 37.6465 458.912 37.6465 459.041 37.7734L460.486 39.2189C460.612 39.3458 460.612 39.5523 460.486 39.6806C460.422 39.744 460.338 39.7765 460.256 39.7765L460.254 39.775Z" fill="#1B1B1B"/>
<path d="M465.311 44.8361C465.227 44.8361 465.145 44.8036 465.081 44.7402L463.636 43.2946C463.509 43.1678 463.509 42.9613 463.636 42.8329C463.763 42.7061 463.969 42.7061 464.097 42.8329L465.542 44.2785C465.669 44.4054 465.669 44.6119 465.542 44.7402C465.479 44.8036 465.395 44.8361 465.313 44.8361H465.311Z" fill="#1B1B1B"/>
</svg>
