<svg width="36" height="36" viewBox="0 0 36 36" fill="none" xmlns="http://www.w3.org/2000/svg">
<g clip-path="url(#clip0_116_104336)">
<rect y="26.5078" width="36" height="9.49219" fill="#73AF00"/>
<rect width="36" height="26.6484" fill="#FF4B55"/>
<path d="M0 28.1251C0 32.4743 3.52575 36.0001 7.875 36.0001H28.125C32.4742 36.0001 36 32.4743 36 28.1251V26.5264H0V28.1251Z" fill="#73AF00"/>
<path d="M28.125 0H7.875C3.52575 0 0 3.52575 0 7.875V26.5263H36V7.875C36 3.52575 32.4742 0 28.125 0Z" fill="#FF4B55"/>
<rect width="7.59375" height="36" fill="white"/>
<path d="M4.62926 26.5673H4.45925V26.0977H3.95736V26.5673H3.62218V26.0977H3.12205V26.5673H2.95533V27.0367H2.78687V27.6696H2.95533V28.1391H3.12205V28.6086H3.62218V28.1391H3.95736V28.6086H4.45925V28.1391H4.62926V27.6696H4.79267V27.0367H4.62926V26.5673ZM3.62218 27.513H3.45722V27.8261H3.287V27.513H3.12205V27.1932H3.287V26.8803H3.45722V27.1932H3.62218V27.513ZM4.45925 27.513H4.2943V27.8261H4.12583V27.513H3.95736V27.1932H4.12583V26.8803H4.2943V27.1932H4.45925V27.513Z" fill="#FF4B55"/>
<path d="M5.62623 9.43284H5.79119V9.90246H6.29476V9.43284H6.46147V8.96337H6.62643V8.3373H6.46147V7.86108H6.29476V7.3916H5.79119V7.86108H5.62623V8.3373H5.45776V8.96337H5.62616L5.62623 9.43284ZM5.79119 8.48707H5.9579V8.18086H6.12636V8.48707H6.29483V8.80692H6.12636V9.11981H5.9579V8.80692H5.79119V8.48707Z" fill="#FF4B55"/>
<path d="M3.95701 6.13965H3.62183V7.07874H3.95701V6.13965Z" fill="#FF4B55"/>
<path d="M1.95157 26.5673H1.7831V26.0977H1.28297V26.5673H1.11626V27.0367H0.947998V27.6696H1.11626V28.1391H1.28297V28.6086H1.7831V28.1391H1.95157V27.6696H2.11497V27.0367H1.95157V26.5673ZM1.7831 27.513H1.6199V27.8261H1.45144V27.513H1.28297V27.1932H1.45144V26.8803H1.6199V27.1932H1.7831V27.513Z" fill="#FF4B55"/>
<path d="M3.95701 28.9277H3.62183V29.8668H3.95701V28.9277Z" fill="#FF4B55"/>
<path d="M6.63166 33.4878H6.2981V34.4269H6.63166V33.4878Z" fill="#FF4B55"/>
<path d="M2.61853 31.1265H2.28687V31.909H2.61853V31.1265Z" fill="#FF4B55"/>
<path d="M4.62424 33.4874H4.29258V32.6981H3.9574V31.9087H3.62222V32.6981H3.28535V33.4874H2.95038V34.2699H2.61696V35.0526H2.2834V34.2699H1.94997V33.4874H1.61494V32.6981H1.27983V31.9087H0.947951V31.1262H1.28151V30.3368H1.61487V29.5543H1.9499V28.7649H2.28333V27.9824H2.61689V28.7649H2.95362V29.5543H3.28528V30.3368H3.62215V31.1262H3.95733V30.3368H4.29251V29.5543H4.62424V28.7649H4.96118V27.9824H5.29284V28.7649H5.62802V29.5543H5.95969V30.3368H6.29662V31.1262H6.63159V31.8738C6.62526 31.8855 6.61865 31.8971 6.61219 31.9087H6.29655V32.4337C6.23805 32.523 6.17808 32.6113 6.11606 32.698H5.95962V32.9088C5.5724 33.4143 5.12536 33.8714 4.62902 34.2698H4.62424V33.4874ZM3.28535 31.1263H2.95038V30.3368H2.61696V29.5543H2.2834V30.3368H1.94997V31.1263H1.61494V31.9088H1.94997V32.6981H2.2834V33.4875H2.61696V32.6981H2.95038V31.9087H3.28535V31.1263ZM4.96111 33.4874H5.29277V32.6981H5.62795V31.9087H5.95962V31.1262H5.62795V30.3368H5.29277V29.5543H4.96111V30.3368H4.62417V31.1262H4.29251V31.9087H4.62424V32.6981H4.96118L4.96111 33.4874Z" fill="#FF4B55"/>
<path d="M2.95535 33.4874H3.28701V32.6981H3.62219V31.9087H3.95737V32.6981H4.29424V33.4874H4.62921V34.2699H4.96263V35.0526H5.29619V34.2699H5.62962V33.4874H5.96465V32.6981H6.29976V31.9087H6.63164V31.1262H6.29808V30.3368H5.96472V29.5543H5.62969V28.7649H5.29626V27.9824H4.9627V28.7649H4.62597V29.5543H4.29431V30.3368H3.95744V31.1262H3.62226V30.3368H3.28708V29.5543H2.95535V28.7649H2.61841V27.9824H2.28675V28.7649H1.95157V29.5543H1.6199V30.3368H1.28297V31.1262H0.947998V31.8738C0.954326 31.8855 0.960936 31.8971 0.967404 31.9087H1.28304V32.4337C1.34154 32.523 1.40151 32.6113 1.46353 32.698H1.61997V32.9088C2.00719 33.4143 2.45423 33.8714 2.95057 34.2698H2.95535V33.4874ZM4.29424 31.1263H4.62921V30.3368H4.96263V29.5543H5.29619V30.3368H5.62962V31.1263H5.96465V31.9088H5.62962V32.6981H5.29619V33.4875H4.96263V32.6981H4.62921V31.9087H4.29424V31.1263ZM2.61848 33.4874H2.28682V32.6981H1.95164V31.9087H1.61997V31.1262H1.95164V30.3368H2.28682V29.5543H2.61848V30.3368H2.95542V31.1262H3.28708V31.9087H2.95535V32.6981H2.61841L2.61848 33.4874Z" fill="#FF4B55"/>
<path d="M3.95701 1.58008H3.62183V2.51917H3.95701V1.58008Z" fill="#FF4B55"/>
<path d="M3.95701 33.4878H3.62183V34.4269H3.95701V33.4878Z" fill="#FF4B55"/>
<path d="M1.28297 6.13965H0.947998V7.07874H1.28297V6.13965Z" fill="#FF4B55"/>
<path d="M2.95533 9.43968H3.12205V9.9093H3.62218V9.43968H3.95736V9.9093H4.45925V9.43968H4.62926V8.96338H4.79267V8.33732H4.62926V7.86109H4.45925V7.39844H3.95736V7.86109H3.62218V7.39844H3.12205V7.86109H2.95533V8.33732H2.78687V8.96338H2.95533V9.43968ZM3.95736 8.49391H4.12583V8.18087H4.2943V8.49391H4.45925V8.80694H4.2943V9.12679H4.12583V8.80694H3.95736V8.49391ZM3.12205 8.49391H3.287V8.18087H3.45722V8.49391H3.62218V8.80694H3.45722V9.12679H3.287V8.80694H3.12205V8.49391Z" fill="#FF4B55"/>
<path d="M1.28297 14.1553H0.947998V14.7812H1.28297V14.1553Z" fill="#FF4B55"/>
<path d="M6.63166 1.58008H6.2981V2.51917H6.63166V1.58008Z" fill="#FF4B55"/>
<path d="M1.28297 10.2217H0.947998V11.1674H1.28297V10.2217Z" fill="#FF4B55"/>
<path d="M1.28297 18.0066V17.9998V17.5303H0.947998V17.9998V18.0066V18.476H1.28297V18.0066Z" fill="#FF4B55"/>
<path d="M3.95701 10.2217H3.62183V11.1674H3.95701V10.2217Z" fill="#FF4B55"/>
<path d="M1.28297 24.8384H0.947998V25.7773H1.28297V24.8384Z" fill="#FF4B55"/>
<path d="M1.11626 9.43968H1.28297V9.9093H1.7831V9.43968H1.95157V8.96338H2.11497V8.33732H1.95157V7.86109H1.7831V7.39844H1.28297V7.86109H1.11626V8.33732H0.947998V8.96338H1.11626V9.43968ZM1.28297 8.49391H1.44813V8.18087H1.6199V8.49391H1.7831V8.80694H1.6199V9.12679H1.44813V8.80694H1.28297V8.49391Z" fill="#FF4B55"/>
<path d="M1.28297 28.9277H0.947998V29.8668H1.28297V28.9277Z" fill="#FF4B55"/>
<path d="M1.28297 21.2251H0.947998V21.851H1.28297V21.2251Z" fill="#FF4B55"/>
<path d="M5.29645 31.1265H4.96289V31.909H5.29645V31.1265Z" fill="#FF4B55"/>
<path d="M3.95701 18.8711H3.62183V19.6536H3.95701V18.8711Z" fill="#FF4B55"/>
<path d="M4.45923 17.9998V18.0066V18.476H4.79265V18.0066V17.9998V17.5303H4.45923V17.9998Z" fill="#FF4B55"/>
<path d="M3.95701 16.353H3.62183V17.1355H3.95701V16.353Z" fill="#FF4B55"/>
<path d="M3.12197 18.0066V17.9998V17.5303H2.78687V17.9998V18.0066V18.476H3.12197V18.0066Z" fill="#FF4B55"/>
<path d="M4.12585 17.292H3.95738V17.5302H3.6222V17.292H3.45725V16.979H3.12207V17.4485H3.28702V17.6866H3.45725V17.9997V18.0065V18.3127H3.28702V18.5508H3.12207V19.0203H3.45725V18.7074H3.6222V18.476H3.95738V18.7074H4.12585V19.0203H4.45927V18.5508H4.29425V18.3127H4.12585V18.0065V17.9997V17.6866H4.29425V17.4485H4.45927V16.979H4.12585V17.292Z" fill="#FF4B55"/>
<path d="M6.63166 6.13965H6.2981V7.07874H6.63166V6.13965Z" fill="#FF4B55"/>
<path d="M6.63166 10.2217H6.2981V11.1674H6.63166V10.2217Z" fill="#FF4B55"/>
<path d="M6.29808 11.6377H5.96472V10.8482H5.62969V10.0657H5.29626V9.27637H4.9627V10.0657H4.62597V10.8482H4.29431V11.6377H3.95744V12.2636V12.4202H3.62226V11.6377H3.28708V10.8482H2.95535V10.0657H2.61841V9.27637H2.28675V10.0657H1.95157V10.8482H1.61639V11.6377H1.28297V12.2636V12.4202H0.947998V13.2095H1.28297V13.9988H1.61639V14.7813H1.95157V15.5641H2.28675V14.7813H2.61841V13.9988H2.95535V13.2095H2.61841V12.2636H2.95535V12.4202V12.8964H3.28701V14.1554H3.45724V14.931L2.95535 14.9379V15.5639H2.61841V16.0334H2.28675V16.8227H1.95157V16.0334H1.61639V15.5639H1.28297V15.0943H0.947998V16.5097H1.28297V17.1426H1.61639V17.6869H1.95157V18V18.0068V18.313H1.61639V18.8709H1.28297V19.497H0.947998V20.9124H1.28297V20.4359H1.61639V19.9665H1.95157V19.184H2.28675V19.9665H2.61841V20.436H2.95535V21.0689L3.45724 21.0757V21.8514H3.28701V23.1104H2.95535V23.5798V23.7432H2.61841V22.7906H2.95535V22.0081H2.61841V21.2256H2.28675V20.4361H1.95157V21.2256H1.61639V22.0081H1.28297V22.7906H0.947998V23.5799H1.28297V23.7433V24.3624H1.6199V25.1519H1.95157V25.9412H2.28675V26.7237H2.61841V25.9411H2.95535V25.1517H3.28701V24.3623H3.62219V23.5798H3.95737V23.7432V24.3623H4.29424V25.1517H4.62921V25.9411H4.96263V26.7236H5.29619V25.9411H5.62962V25.1517H5.96465V24.3623H6.29808V23.5798H6.63164V22.7904H6.29808V22.0079H5.96472V21.2254H5.62969V20.4359H5.29626V21.2254H4.9627V22.0079H4.62597V22.7904H4.9627V23.5798V23.7432H4.62597V23.5798V23.1103H4.29431V21.8513H4.24657H4.12584V21.0688H4.24657H4.33678H4.45926H4.62928V20.4359H4.9627V19.9665H5.29626V19.184H5.62969V19.9665H5.96472V20.436H6.29983V20.9125H6.63171V19.4971H6.29983V18.871H5.96472V18.3131H5.62969V18.0069V18V17.6869H5.96472V17.1426H6.29983V16.5097H6.63171V15.0943H6.29983V15.5639H5.96472V16.0334H5.62969V16.8227H5.29626V16.0334H4.9627V15.5639H4.62928V14.9379H4.45926H4.33678H4.24657H4.12584V14.1554H4.24657H4.29431V12.8964H4.62597V12.4202V12.2636H4.9627V12.4202V13.2095H4.62597V13.9988H4.9627V14.7813H5.29626V15.5641H5.62969V14.7813H5.96472V13.9988H6.29815V13.2095H6.63171V12.4202H6.29815L6.29808 11.6377ZM4.62928 16.5097V16.8227V17.1426H4.9627V17.6869H5.29626V18V18.313H4.9627V18.8709H4.62928V19.184V19.497H4.12584V20.2387H3.95737V20.5925H3.79066H3.62219V20.2387H3.45724V19.497H2.95535V18.8709H2.61841V18.313H2.28675V18.0135V17.9931V17.6869H2.61841V17.1426H2.95535V16.5097H3.45724V15.7681H3.62219V15.4073H3.79066H3.95737V15.7611H4.12584V16.5097H4.62928Z" fill="#FF4B55"/>
<path d="M6.63166 14.1553H6.2981V14.7812H6.63166V14.1553Z" fill="#FF4B55"/>
<path d="M1.28304 4.88055V5.66305H1.61997V6.45238H1.95164V7.24171H2.28682V8.02422H2.61848V7.24171H2.95542V6.45231H3.28708V5.66305H3.62226V4.88055H3.95744V5.66305H4.29431V6.45238H4.62597V7.24171H4.9627V8.02422H5.29626V7.24171H5.62969V6.45231H5.96472V5.66305H6.29815V4.88055H6.63171V4.09101H6.29983V3.3085H5.96472V2.51924H5.62969V1.73673H5.29626V0.947266H4.9627V1.73673H4.62928V2.51924H4.29431V3.30857H3.95744V4.09108H3.62226V3.3085H3.28708V2.51924H2.95535V1.73673H2.94213C2.4491 2.13344 2.00494 2.58829 1.6199 3.09095V3.30857H1.45854C1.39828 3.39309 1.33999 3.47915 1.28304 3.56613V4.09108H0.967404C0.961006 4.10275 0.954396 4.11428 0.947998 4.12602V4.88055H1.28304ZM4.29424 4.09101H4.62921V3.3085H4.96263V2.51924H5.29619V3.30857H5.62962V4.09108H5.96465V4.88055H5.62962V5.66305H5.29619V6.45238H4.96263V5.66305H4.62921V4.88055H4.29424V4.09101ZM1.61997 4.09101H1.95164V3.3085H2.28682V2.51924H2.61848V3.30857H2.95542V4.09108H3.28708V4.88055H2.95535V5.66305H2.61841V6.45238H2.28675V5.66305H1.95157V4.88055H1.6199L1.61997 4.09101Z" fill="#FF4B55"/>
<path d="M6.29655 4.88055V5.66305H5.95962V6.45238H5.62795V7.24171H5.29277V8.02422H4.96111V7.24171H4.62417V6.45231H4.29251V5.66305H3.95733V4.88055H3.62215V5.66305H3.28528V6.45238H2.95362V7.24171H2.61689V8.02422H2.28333V7.24171H1.9499V6.45231H1.61487V5.66305H1.28144V4.88055H0.947881V4.09101H1.27976V3.3085H1.61487V2.51924H1.9499V1.73673H2.28333V0.947266H2.61689V1.73673H2.95031V2.51924H3.28528V3.30857H3.62215V4.09108H3.95733V3.3085H4.29251V2.51924H4.62424V1.73673H4.63746C5.13049 2.13344 5.57465 2.58829 5.95969 3.09095V3.30857H6.12105C6.18131 3.39309 6.2396 3.47915 6.29655 3.56613V4.09108H6.61219C6.61858 4.10275 6.62519 4.11428 6.63159 4.12602V4.88055H6.29655ZM3.28535 4.09101H2.95038V3.3085H2.61696V2.51924H2.2834V3.30857H1.94997V4.09108H1.61494V4.88055H1.94997V5.66305H2.2834V6.45238H2.61696V5.66305H2.95038V4.88055H3.28535V4.09101ZM5.95962 4.09101H5.62795V3.3085H5.29277V2.51924H4.96111V3.30857H4.62417V4.09108H4.29251V4.88055H4.62424V5.66305H4.96118V6.45238H5.29284V5.66305H5.62802V4.88055H5.95969L5.95962 4.09101Z" fill="#FF4B55"/>
<path d="M6.46147 27.6692H6.62643V27.0431H6.46147V26.5669H6.29476V26.104H5.79119V26.5669H5.62623V27.0431H5.45776V27.6692H5.62616V28.1386H5.79112V28.6081H6.29469V28.1386H6.4614L6.46147 27.6692ZM6.29476 27.5126H6.12629V27.8324H5.95783V27.5126H5.79112V27.1997H5.95783V26.8867H6.12629V27.1997H6.29476V27.5126Z" fill="#FF4B55"/>
<path d="M6.2981 17.9998V18.0066V18.476H6.63173V18.0066V17.9998V17.5303H6.2981V17.9998Z" fill="#FF4B55"/>
<path d="M2.61853 4.09131H2.28687V4.88078H2.61853V4.09131Z" fill="#FF4B55"/>
<path d="M3.95701 24.8384H3.62183V25.7773H3.95701V24.8384Z" fill="#FF4B55"/>
<path d="M6.63166 24.8384H6.2981V25.7773H6.63166V24.8384Z" fill="#FF4B55"/>
<path d="M6.63166 28.9277H6.2981V29.8668H6.63166V28.9277Z" fill="#FF4B55"/>
<path d="M6.63166 21.2251H6.2981V21.851H6.63166V21.2251Z" fill="#FF4B55"/>
<path d="M5.29645 4.09131H4.96289V4.88078H5.29645V4.09131Z" fill="#FF4B55"/>
</g>
<defs>
<clipPath id="clip0_116_104336">
<rect width="36" height="36" rx="18" fill="white"/>
</clipPath>
</defs>
</svg>
