<svg width="36" height="36" viewBox="0 0 36 36" fill="none" xmlns="http://www.w3.org/2000/svg">
<g clip-path="url(#clip0_116_104325)">
<rect width="36" height="36" rx="18" fill="#41479B"/>
<path d="M7.87491 35.9998H28.1249C32.0398 35.9998 35.2869 33.1429 35.8966 29.4004H0.103271C0.712951 33.1429 3.96005 35.9998 7.87491 35.9998Z" fill="#41479B"/>
<path d="M28.1249 0H7.87491C3.96005 0 0.712951 2.85687 0.103271 6.59939H35.8966C35.2869 2.85687 32.0398 0 28.1249 0Z" fill="#41479B"/>
<path d="M0.103359 6.59961C0.0357188 7.01488 0 7.44083 0 7.87522V28.1252C0 28.5596 0.0357188 28.9856 0.103359 29.4008H35.8966C35.9643 28.9856 36 28.5596 36 28.1252V7.87522C36 7.44083 35.9643 7.01488 35.8966 6.59961H0.103359Z" fill="#F5F5F5"/>
<path d="M22.3224 17.9998L24.4834 14.2568H20.1613L18 10.5132L15.8386 14.2568H11.5166L13.6776 17.9998L11.5166 21.7429H15.8386L18 25.4865L20.1613 21.7429H24.4834L22.3224 17.9998ZM22.3631 15.481L21.6156 16.7758L20.868 15.481H22.3631ZM20.9089 17.9998L19.4546 20.5187H16.5454L15.0911 17.9998L16.5454 15.481H19.4546L20.9089 17.9998ZM18 12.9615L18.7478 14.2568H17.2521L18 12.9615ZM13.6368 15.481H15.1319L14.3844 16.7758L13.6368 15.481ZM13.6368 20.5187L14.3844 19.2239L15.1319 20.5187H13.6368ZM18 23.0382L17.2521 21.7429H18.7478L18 23.0382ZM21.6156 19.2239L22.3631 20.5187H20.8681L21.6156 19.2239Z" fill="#41479B"/>
</g>
<defs>
<clipPath id="clip0_116_104325">
<rect width="36" height="36" rx="18" fill="white"/>
</clipPath>
</defs>
</svg>
