<svg width="35" height="36" viewBox="0 0 35 36" fill="none" xmlns="http://www.w3.org/2000/svg">
<g clip-path="url(#clip0_116_104320)">
<path d="M0 28.125C0 32.4742 3.42781 36 7.65625 36H27.3438C31.5722 36 35 32.4742 35 28.125V18H0V28.125Z" fill="#FF4B55"/>
<path d="M35 25.875C35 21.5258 31.5722 18 27.3438 18L7.65625 18C3.42781 18 1.23023e-06 21.5257 8.60568e-07 25.875L0 36L35 36L35 25.875Z" fill="#FF4B55"/>
<path d="M27.3438 0H7.65625C3.42781 0 0 3.52575 0 7.875V18H35V7.875C35 3.52575 31.5722 0 27.3438 0Z" fill="#F5F5F5"/>
<path d="M7.65625 18L27.3438 18C31.5722 18 35 14.4742 35 10.125L35 0L1.5299e-06 -3.14722e-06L6.69331e-07 10.125C2.99669e-07 14.4742 3.42781 18 7.65625 18Z" fill="#F5F5F5"/>
</g>
<defs>
<clipPath id="clip0_116_104320">
<rect width="35" height="36" rx="17.5" fill="white"/>
</clipPath>
</defs>
</svg>
