<svg width="36" height="36" viewBox="0 0 36 36" fill="none" xmlns="http://www.w3.org/2000/svg">
<g clip-path="url(#clip0_116_104385)">
<rect width="36" height="36" rx="18" fill="#E74C3C"/>
<path d="M28.125 0H7.875C3.52575 0 0 3.52575 0 7.875V28.125C0 32.4742 3.52575 36 7.875 36H28.125C32.4742 36 36 32.4742 36 28.125V7.875C36 3.52575 32.4742 0 28.125 0Z" fill="#E74C3C"/>
<path d="M36 7.49756H0V28.5027H36V7.49756Z" fill="#FFD250"/>
<path d="M15.6861 18.0291L16.2666 15.6621C16.32 15.4441 16.137 15.2373 15.8906 15.2373H15.4817C15.2354 15.2373 15.0523 15.4441 15.1058 15.6621L15.6861 18.0291Z" fill="#E74C3C"/>
<path d="M16.3704 16.7876H15.0012V22.061H16.3704V16.7876Z" fill="#F5F5F5"/>
<path d="M16.7133 16.1675H14.6594V16.7878H16.7133V16.1675Z" fill="#FAB446"/>
<path d="M16.7127 18.0288H13.2898V18.6492H16.7127V18.0288Z" fill="#E74C3C"/>
<path d="M16.7129 20.5108L14.6592 19.8904V19.27L16.7129 19.8904V20.5108Z" fill="#E74C3C"/>
<path d="M5.41734 18.0291L5.99777 15.6621C6.05121 15.4441 5.86818 15.2373 5.62181 15.2373H5.21294C4.96657 15.2373 4.78347 15.4441 4.83698 15.6621L5.41734 18.0291Z" fill="#E74C3C"/>
<path d="M7.81347 16.168C7.4354 16.168 7.12891 16.4457 7.12891 16.7884V20.821C7.12891 21.5749 7.90523 22.9924 10.5519 22.9924C13.1985 22.9924 13.9748 21.5748 13.9748 20.821V16.7884C13.9748 16.4458 13.6683 16.168 13.2903 16.168H7.81347Z" fill="#F5F5F5"/>
<path d="M10.5516 19.27H7.12866V16.8197C7.12866 16.4598 7.42046 16.168 7.78039 16.168H10.5516V19.27Z" fill="#E74C3C"/>
<path d="M10.5515 19.27H13.9745V20.7428C13.9745 21.6426 13.245 22.3721 12.3452 22.3721H12.1808C11.281 22.3721 10.5515 21.6426 10.5515 20.7428V19.27Z" fill="#E74C3C"/>
<path d="M7.12866 19.2695H10.5516V20.7423C10.5516 21.6421 9.82219 22.3716 8.92233 22.3716H8.75794C7.85815 22.3716 7.12866 21.6422 7.12866 20.7423V19.2695Z" fill="#FAB446"/>
<path d="M9.86718 22.0543V19.2695H9.18262V22.3403C9.43715 22.2934 9.66728 22.1912 9.86718 22.0543Z" fill="#E74C3C"/>
<path d="M8.49804 22.3403V19.2695H7.81348V22.0543C8.01337 22.1912 8.24344 22.2934 8.49804 22.3403Z" fill="#E74C3C"/>
<path d="M9.86706 18.0288H7.81323V18.6492H9.86706V18.0288Z" fill="#FFB441"/>
<path d="M9.86706 16.7876H7.81323V17.408H9.86706V16.7876Z" fill="#FAB446"/>
<path d="M9.52496 17.1567H8.15576V18.2807H9.52496V17.1567Z" fill="#FAB446"/>
<path d="M6.10186 16.7876H4.73267V22.061H6.10186V16.7876Z" fill="#F5F5F5"/>
<path d="M6.44421 21.751H4.39038V22.3713H6.44421V21.751Z" fill="#FAB446"/>
<path d="M6.44421 16.1675H4.39038V16.7878H6.44421V16.1675Z" fill="#FAB446"/>
<path d="M6.78617 22.3721H4.04785V22.9924H6.78617V22.3721Z" fill="#5064AA"/>
<path d="M17.055 21.751H15.0012V22.3713H17.055V21.751Z" fill="#FAB446"/>
<path d="M17.0555 22.3721H14.3171V22.9924H17.0555V22.3721Z" fill="#5064AA"/>
<path d="M12.6057 15.5474H8.49805V16.1677H12.6057V15.5474Z" fill="#FAB446"/>
<path d="M10.894 13.6865H10.2095V15.5478H10.894V13.6865Z" fill="#FFB441"/>
<path d="M9.86718 14.6165C9.30095 14.6165 8.84033 14.1991 8.84033 13.686C8.84033 13.1728 9.30095 12.7554 9.86718 12.7554C10.4334 12.7554 10.894 13.1728 10.894 13.686C10.894 14.1991 10.4334 14.6165 9.86718 14.6165ZM9.86718 13.3757C9.67832 13.3757 9.52489 13.5148 9.52489 13.686C9.52489 13.8571 9.67832 13.9962 9.86718 13.9962C10.056 13.9962 10.2095 13.8571 10.2095 13.686C10.2095 13.5148 10.056 13.3757 9.86718 13.3757Z" fill="#F5F5F5"/>
<path d="M11.2363 14.6165C10.6701 14.6165 10.2095 14.1991 10.2095 13.686C10.2095 13.1728 10.6701 12.7554 11.2363 12.7554C11.8025 12.7554 12.2632 13.1728 12.2632 13.686C12.2632 14.1991 11.8026 14.6165 11.2363 14.6165ZM11.2363 13.3757C11.0475 13.3757 10.894 13.5148 10.894 13.686C10.894 13.8571 11.0475 13.9962 11.2363 13.9962C11.4252 13.9962 11.5786 13.8571 11.5786 13.686C11.5786 13.5148 11.4252 13.3757 11.2363 13.3757Z" fill="#F5F5F5"/>
<path d="M12.6055 15.2371C12.0392 15.2371 11.5786 14.8197 11.5786 14.3066C11.5786 13.7934 12.0392 13.376 12.6055 13.376C13.1717 13.376 13.6324 13.7934 13.6324 14.3066C13.6324 14.8197 13.1717 15.2371 12.6055 15.2371ZM12.6055 13.9963C12.4166 13.9963 12.2632 14.1354 12.2632 14.3066C12.2632 14.4777 12.4166 14.6168 12.6055 14.6168C12.7943 14.6168 12.9477 14.4777 12.9477 14.3066C12.9477 14.1354 12.7943 13.9963 12.6055 13.9963Z" fill="#F5F5F5"/>
<path d="M8.49804 15.2371C7.93181 15.2371 7.47119 14.8197 7.47119 14.3066C7.47119 13.7934 7.93181 13.376 8.49804 13.376C9.06426 13.376 9.52488 13.7934 9.52488 14.3066C9.52488 14.8197 9.06426 15.2371 8.49804 15.2371ZM8.49804 13.9963C8.30918 13.9963 8.15575 14.1354 8.15575 14.3066C8.15575 14.4777 8.30918 14.6168 8.49804 14.6168C8.68689 14.6168 8.84032 14.4777 8.84032 14.3066C8.84032 14.1354 8.68689 13.9963 8.49804 13.9963Z" fill="#F5F5F5"/>
<path d="M12.6055 20.5106V20.8208C12.6055 20.9919 12.452 21.131 12.2632 21.131C12.0745 21.131 11.921 20.9919 11.921 20.8208V20.5106H12.6055ZM13.2901 19.8901H11.2363V20.8207C11.2363 21.3339 11.697 21.7513 12.2632 21.7513C12.8294 21.7513 13.2901 21.3338 13.2901 20.8207V19.8901Z" fill="#FAB446"/>
<path d="M12.2961 18.6493H12.2303C11.8704 18.6493 11.5786 18.3575 11.5786 17.9976V17.4398C11.5786 17.0799 11.8704 16.7881 12.2303 16.7881H12.2961C12.656 16.7881 12.9478 17.0799 12.9478 17.4398V17.9976C12.9478 18.3576 12.656 18.6493 12.2961 18.6493Z" fill="#FFA0D2"/>
<path d="M10.5517 20.2005C11.1189 20.2005 11.5786 19.7839 11.5786 19.2699C11.5786 18.756 11.1189 18.3394 10.5517 18.3394C9.98464 18.3394 9.5249 18.756 9.5249 19.2699C9.5249 19.7839 9.98464 20.2005 10.5517 20.2005Z" fill="#5064AA"/>
<path d="M10.894 12.4453H10.2095V14.3066H10.894V12.4453Z" fill="#FAB446"/>
<path d="M8.49804 15.5473L7.81348 14.9268L8.21447 14.5634C8.83434 14.0016 9.67514 13.686 10.5518 13.686C11.4285 13.686 12.2693 14.0017 12.8891 14.5634L13.2901 14.9268L12.6056 15.5473H8.49804Z" fill="#E74C3C"/>
<path d="M10.5518 15.2366C10.7408 15.2366 10.894 15.0978 10.894 14.9264C10.894 14.7551 10.7408 14.6162 10.5518 14.6162C10.3627 14.6162 10.2095 14.7551 10.2095 14.9264C10.2095 15.0978 10.3627 15.2366 10.5518 15.2366Z" fill="#FFD250"/>
<path d="M9.18286 15.2366C9.37189 15.2366 9.52514 15.0978 9.52514 14.9264C9.52514 14.7551 9.37189 14.6162 9.18286 14.6162C8.99382 14.6162 8.84058 14.7551 8.84058 14.9264C8.84058 15.0978 8.99382 15.2366 9.18286 15.2366Z" fill="#FFD250"/>
<path d="M11.9209 15.2366C12.1099 15.2366 12.2632 15.0978 12.2632 14.9264C12.2632 14.7551 12.1099 14.6162 11.9209 14.6162C11.7319 14.6162 11.5786 14.7551 11.5786 14.9264C11.5786 15.0978 11.7319 15.2366 11.9209 15.2366Z" fill="#FFD250"/>
<path d="M7.81326 18.0288H4.39038V18.6492H7.81326V18.0288Z" fill="#E74C3C"/>
<path d="M4.39062 20.5103L6.44438 19.8899V19.2695L4.39062 19.8899V20.5103Z" fill="#E74C3C"/>
</g>
<defs>
<clipPath id="clip0_116_104385">
<rect width="36" height="36" rx="18" fill="white"/>
</clipPath>
</defs>
</svg>
