<svg width="561" height="441" viewBox="0 0 561 441" fill="none" xmlns="http://www.w3.org/2000/svg">
<g clip-path="url(#clip0_22_77605)">
<path d="M559.665 438.24H0.5V439.906H559.665V438.24Z" fill="#1B1B1B"/>
<path d="M208.566 257.052V439.095H113.918V257.052C113.918 230.923 135.109 209.734 161.248 209.734C174.317 209.734 186.144 215.036 194.709 223.591C203.274 232.156 208.566 243.994 208.566 257.052Z" fill="#1B1B1B"/>
<path d="M121.684 431.329V257.053C121.684 235.244 139.433 217.5 161.248 217.5C171.806 217.5 181.742 221.615 189.222 229.087C196.688 236.552 200.801 246.486 200.801 257.053V431.329H121.684Z" fill="#FDFDFD"/>
<path d="M471.519 439.985H90.7897C90.3301 439.985 89.957 439.612 89.957 439.152V149.997C89.957 149.537 90.3301 149.164 90.7897 149.164H471.521C471.981 149.164 472.354 149.537 472.354 149.997V439.152C472.354 439.612 471.981 439.985 471.521 439.985H471.519ZM91.6207 438.319H470.687V150.829H91.6223V438.319H91.6207Z" fill="#1B1B1B"/>
<path d="M480.254 150.779H82.0553C81.5957 150.779 81.2227 150.406 81.2227 149.946V103.593C81.2227 103.134 81.5957 102.761 82.0553 102.761H480.256C480.716 102.761 481.089 103.134 481.089 103.593V149.946C481.089 150.406 480.716 150.779 480.256 150.779H480.254ZM82.8863 149.113H479.422V104.426H82.888V149.113H82.8863Z" fill="#1B1B1B"/>
<path d="M479.74 103.592H81.5391V149.944H479.74V103.592Z" fill="#1B1B1B"/>
<path d="M488.696 104.42H73.612C73.1523 104.42 72.7793 104.047 72.7793 103.588V82.0668C72.7793 81.6072 73.1523 81.2341 73.612 81.2341H488.696C489.155 81.2341 489.528 81.6072 489.528 82.0668V103.588C489.528 104.047 489.155 104.42 488.696 104.42ZM74.4446 102.755H487.863V82.8995H74.4446V102.755Z" fill="#1B1B1B"/>
<path d="M208.567 439.93H113.919C113.459 439.93 113.086 439.557 113.086 439.098V257.054C113.086 244.195 118.095 232.103 127.193 223.008C136.29 213.912 148.386 208.903 161.249 208.903C174.111 208.903 186.193 213.911 195.299 223.003C204.394 232.098 209.401 244.19 209.401 257.054V439.098C209.401 439.557 209.028 439.93 208.569 439.93H208.567ZM114.751 438.265H207.734V257.054C207.734 244.634 202.9 232.96 194.12 224.181C185.331 215.403 173.655 210.567 161.247 210.567C135.608 210.567 114.75 231.42 114.75 257.053V438.263L114.751 438.265Z" fill="#1B1B1B"/>
<path d="M200.802 432.163H121.684C121.225 432.163 120.852 431.79 120.852 431.331V257.054C120.852 234.786 138.974 216.669 161.249 216.669C172.028 216.669 182.172 220.87 189.811 228.499C197.435 236.123 201.634 246.265 201.634 257.054V431.331C201.634 431.79 201.261 432.163 200.802 432.163ZM122.517 430.498H199.969V257.054C199.969 246.709 195.944 236.986 188.633 229.677C181.309 222.362 171.584 218.334 161.247 218.334C139.891 218.334 122.515 235.703 122.515 257.054V430.498H122.517Z" fill="#1B1B1B"/>
<path d="M200.785 257.336H121.696C121.473 257.336 121.26 257.246 121.103 257.088C120.947 256.93 120.86 256.715 120.863 256.492C121.01 245.839 125.28 235.837 132.885 228.326C140.499 220.809 150.571 216.669 161.246 216.669C171.92 216.669 182.169 220.87 189.808 228.499C197.28 235.971 201.473 245.912 201.618 256.493C201.621 256.716 201.535 256.931 201.378 257.089C201.222 257.248 201.008 257.338 200.785 257.338V257.336ZM122.549 255.671H199.931C199.588 245.844 195.594 236.641 188.63 229.677C181.306 222.362 171.581 218.334 161.244 218.334C140.467 218.334 123.285 235.007 122.547 255.671H122.549Z" fill="#1B1B1B"/>
<path d="M448.392 417.122H236.128C235.668 417.122 235.295 416.749 235.295 416.289V211.058C235.295 210.598 235.668 210.225 236.128 210.225H448.392C448.852 210.225 449.225 210.598 449.225 211.058V416.289C449.225 416.749 448.852 417.122 448.392 417.122ZM236.96 415.456H447.56V211.89H236.96V415.456Z" fill="#1B1B1B"/>
<path d="M448.394 211.056H236.129V416.287H448.394V211.056Z" fill="#1B1B1B"/>
<path d="M440.75 218.697H243.771V408.641H440.75V218.697Z" fill="#FDFDFD"/>
<path d="M440.751 409.475H243.772C243.312 409.475 242.939 409.102 242.939 408.643V218.699C242.939 218.239 243.312 217.866 243.772 217.866H440.751C441.21 217.866 441.583 218.239 441.583 218.699V408.643C441.583 409.102 441.21 409.475 440.751 409.475ZM244.605 407.81H439.918V219.532H244.605V407.81Z" fill="#1B1B1B"/>
<path d="M345.78 417.122H338.739C338.279 417.122 337.906 416.749 337.906 416.289V211.058C337.906 210.598 338.279 210.225 338.739 210.225H345.78C346.24 210.225 346.613 210.598 346.613 211.058V416.289C346.613 416.749 346.24 417.122 345.78 417.122ZM339.572 415.456H344.947V211.89H339.572V415.456Z" fill="#1B1B1B"/>
<path d="M345.781 211.056H338.74V416.287H345.781V211.056Z" fill="#1B1B1B"/>
<path d="M404.932 363.858H322.936V368.898H404.932V363.858Z" fill="#FDFDFD"/>
<path d="M404.932 363.858H322.936V368.898H404.932V363.858Z" fill="#FDFDFD"/>
<path d="M366.453 368.898H361.414V439.076H366.453V368.898Z" fill="#FDFDFD"/>
<path d="M366.453 368.898H361.414V439.076H366.453V368.898Z" fill="#FDFDFD"/>
<path d="M404.933 369.733H322.936C322.477 369.733 322.104 369.36 322.104 368.901V363.861C322.104 363.402 322.477 363.029 322.936 363.029H404.933C405.393 363.029 405.766 363.402 405.766 363.861V368.901C405.766 369.36 405.393 369.733 404.933 369.733ZM323.769 368.068H404.1V364.694H323.769V368.068Z" fill="#1B1B1B"/>
<path d="M404.933 369.733H322.936C322.477 369.733 322.104 369.36 322.104 368.901V363.861C322.104 363.402 322.477 363.029 322.936 363.029H404.933C405.393 363.029 405.766 363.402 405.766 363.861V368.901C405.766 369.36 405.393 369.733 404.933 369.733ZM323.769 368.068H404.1V364.694H323.769V368.068Z" fill="#1B1B1B"/>
<path d="M366.454 439.913H361.415C360.955 439.913 360.582 439.54 360.582 439.08V368.902C360.582 368.442 360.955 368.069 361.415 368.069H366.454C366.914 368.069 367.287 368.442 367.287 368.902V439.08C367.287 439.54 366.914 439.913 366.454 439.913ZM362.247 438.248H365.621V369.735H362.247V438.248Z" fill="#1B1B1B"/>
<path d="M366.454 439.913H361.415C360.955 439.913 360.582 439.54 360.582 439.08V368.902C360.582 368.442 360.955 368.069 361.415 368.069H366.454C366.914 368.069 367.287 368.442 367.287 368.902V439.08C367.287 439.54 366.914 439.913 366.454 439.913ZM362.247 438.248H365.621V369.735H362.247V438.248Z" fill="#1B1B1B"/>
<path d="M302.17 339.26H295.381V388.447H302.17V339.26Z" fill="#FDFDFD"/>
<path d="M302.17 339.262V388.449C305.912 388.449 308.946 385.415 308.946 381.673V346.036C308.946 342.294 305.912 339.26 302.17 339.26V339.262Z" fill="#FDFDFD"/>
<path d="M342.611 388.448H295.381V395.238H342.611V388.448Z" fill="#FDFDFD"/>
<path d="M339.59 395.235H332.801V439.072H339.59V395.235Z" fill="#FDFDFD"/>
<path d="M302.17 395.235H295.381V439.072H302.17V395.235Z" fill="#FDFDFD"/>
<path d="M302.171 389.279H295.381C294.922 389.279 294.549 388.906 294.549 388.446V339.259C294.549 338.8 294.922 338.427 295.381 338.427H302.171C302.631 338.427 303.004 338.8 303.004 339.259V388.446C303.004 388.906 302.631 389.279 302.171 389.279ZM296.214 387.614H301.338V340.092H296.214V387.614Z" fill="#1B1B1B"/>
<path d="M302.171 389.279C301.711 389.279 301.338 388.906 301.338 388.446V339.259C301.338 338.8 301.711 338.427 302.171 338.427C306.365 338.427 309.779 341.839 309.779 346.036V381.672C309.779 385.867 306.367 389.281 302.171 389.281V389.279ZM303.003 340.15V387.556C305.888 387.149 308.114 384.664 308.114 381.67V346.034C308.114 343.04 305.888 340.555 303.003 340.149V340.15Z" fill="#1B1B1B"/>
<path d="M342.614 396.07H295.383C294.924 396.07 294.551 395.697 294.551 395.237V388.448C294.551 387.988 294.924 387.615 295.383 387.615H342.614C343.073 387.615 343.446 387.988 343.446 388.448V395.237C343.446 395.697 343.073 396.07 342.614 396.07ZM296.216 394.404H341.781V389.28H296.216V394.404Z" fill="#1B1B1B"/>
<path d="M339.591 439.904H332.801C332.342 439.904 331.969 439.531 331.969 439.071V395.235C331.969 394.775 332.342 394.402 332.801 394.402H339.591C340.051 394.402 340.424 394.775 340.424 395.235V439.071C340.424 439.531 340.051 439.904 339.591 439.904ZM333.634 438.238H338.758V396.067H333.634V438.238Z" fill="#1B1B1B"/>
<path d="M302.171 439.904H295.381C294.922 439.904 294.549 439.531 294.549 439.071V395.235C294.549 394.775 294.922 394.402 295.381 394.402H302.171C302.631 394.402 303.004 394.775 303.004 395.235V439.071C303.004 439.531 302.631 439.904 302.171 439.904ZM296.214 438.238H301.338V396.067H296.214V438.238Z" fill="#1B1B1B"/>
<path d="M432.485 339.264H425.695V388.451H432.485V339.264Z" fill="#FDFDFD"/>
<path d="M425.694 339.266V388.453C421.952 388.453 418.918 385.419 418.918 381.677V346.04C418.918 342.298 421.952 339.264 425.694 339.264V339.266Z" fill="#FDFDFD"/>
<path d="M432.484 388.452H385.254V395.242H432.484V388.452Z" fill="#FDFDFD"/>
<path d="M395.065 395.239H388.275V439.076H395.065V395.239Z" fill="#FDFDFD"/>
<path d="M432.485 395.239H425.695V439.076H432.485V395.239Z" fill="#FDFDFD"/>
<path d="M432.485 389.279H425.696C425.236 389.279 424.863 388.906 424.863 388.446V339.259C424.863 338.8 425.236 338.427 425.696 338.427H432.485C432.945 338.427 433.318 338.8 433.318 339.259V388.446C433.318 388.906 432.945 389.279 432.485 389.279ZM426.529 387.614H431.653V340.092H426.529V387.614Z" fill="#1B1B1B"/>
<path d="M425.695 389.281C421.5 389.281 418.086 385.869 418.086 381.672V346.036C418.086 341.841 421.498 338.427 425.695 338.427C426.154 338.427 426.527 338.8 426.527 339.259V388.446C426.527 388.906 426.154 389.279 425.695 389.279V389.281ZM424.862 340.152C421.978 340.558 419.751 343.043 419.751 346.037V381.674C419.751 384.668 421.978 387.153 424.862 387.559V340.154V340.152Z" fill="#1B1B1B"/>
<path d="M432.485 396.07H385.255C384.795 396.07 384.422 395.697 384.422 395.237V388.448C384.422 387.988 384.795 387.615 385.255 387.615H432.485C432.944 387.615 433.317 387.988 433.317 388.448V395.237C433.317 395.697 432.944 396.07 432.485 396.07ZM386.087 394.404H431.652V389.28H386.087V394.404Z" fill="#1B1B1B"/>
<path d="M395.066 439.907H388.276C387.816 439.907 387.443 439.534 387.443 439.075V395.238C387.443 394.779 387.816 394.406 388.276 394.406H395.066C395.525 394.406 395.898 394.779 395.898 395.238V439.075C395.898 439.534 395.525 439.907 395.066 439.907ZM389.109 438.242H394.233V396.071H389.109V438.242Z" fill="#1B1B1B"/>
<path d="M432.485 439.907H425.696C425.236 439.907 424.863 439.534 424.863 439.075V395.238C424.863 394.779 425.236 394.406 425.696 394.406H432.485C432.945 394.406 433.318 394.779 433.318 395.238V439.075C433.318 439.534 432.945 439.907 432.485 439.907ZM426.529 438.242H431.653V396.071H426.529V438.242Z" fill="#1B1B1B"/>
<path d="M162.079 217.5H160.414V256.501H162.079V217.5Z" fill="#1B1B1B"/>
<path d="M131.311 317.676V338.35C131.311 339.575 130.316 340.565 129.09 340.565C127.864 340.565 126.875 339.575 126.875 338.35V317.676C126.875 316.451 127.871 315.455 129.09 315.455C129.706 315.455 130.261 315.7 130.664 316.103C131.067 316.506 131.311 317.06 131.311 317.676Z" fill="#1B1B1B"/>
<path d="M503.402 439.916H498.221C497.762 439.916 497.389 439.543 497.389 439.084V227.939C497.389 227.479 497.762 227.106 498.221 227.106H503.402C503.862 227.106 504.235 227.479 504.235 227.939V439.084C504.235 439.543 503.862 439.916 503.402 439.916ZM499.054 438.251H502.569V228.772H499.054V438.251Z" fill="#1B1B1B"/>
<path d="M506.319 364.943H495.307V439.082H506.319V364.943Z" fill="#1B1B1B"/>
<path d="M506.316 439.917H495.303C494.844 439.917 494.471 439.543 494.471 439.084V364.945C494.471 364.486 494.844 364.113 495.303 364.113H506.316C506.776 364.113 507.149 364.486 507.149 364.945V439.084C507.149 439.543 506.776 439.917 506.316 439.917ZM496.136 438.251H505.483V365.778H496.136V438.251Z" fill="#1B1B1B"/>
<path d="M510.768 228.77H490.852C490.441 228.77 490.09 228.469 490.03 228.063L485.728 199.544C485.692 199.304 485.762 199.061 485.92 198.876C486.078 198.693 486.308 198.586 486.551 198.586H515.07C515.313 198.586 515.542 198.691 515.701 198.876C515.859 199.059 515.929 199.304 515.892 199.544L511.591 228.063C511.529 228.471 511.179 228.77 510.768 228.77ZM491.57 227.105H510.052L514.102 200.252H487.519L491.569 227.105H491.57Z" fill="#1B1B1B"/>
<path d="M505.032 228.77H496.592C496.152 228.77 495.789 228.429 495.761 227.991L493.937 199.472C493.922 199.243 494.004 199.018 494.16 198.85C494.317 198.681 494.538 198.586 494.768 198.586H506.855C507.085 198.586 507.305 198.681 507.463 198.85C507.621 199.018 507.701 199.243 507.686 199.472L505.863 227.991C505.834 228.429 505.471 228.77 505.032 228.77ZM497.373 227.105H504.251L505.968 200.252H495.656L497.373 227.105Z" fill="#1B1B1B"/>
<path d="M515.029 200.252H486.597C486.232 200.252 485.909 200.014 485.801 199.665C485.693 199.315 485.826 198.937 486.127 198.73L500.344 189.046C500.627 188.853 500.999 188.853 501.282 189.046L515.499 198.73C515.8 198.937 515.933 199.315 515.825 199.665C515.717 200.014 515.395 200.252 515.029 200.252ZM489.298 198.587H512.328L500.812 190.743L489.296 198.587H489.298Z" fill="#1B1B1B"/>
<path d="M499.85 191.227C499.717 191.227 499.583 191.195 499.46 191.13C499.187 190.986 499.017 190.702 499.017 190.394V188.561C497.963 187.935 497.285 186.779 497.285 185.527C497.285 183.582 498.867 181.998 500.814 181.998C502.761 181.998 504.343 183.58 504.343 185.527C504.343 186.787 503.663 187.943 502.603 188.566V190.388C502.603 190.696 502.433 190.979 502.16 191.124C501.886 191.269 501.557 191.25 501.302 191.077L500.816 190.746L500.319 191.084C500.178 191.18 500.015 191.229 499.85 191.229V191.227ZM500.814 183.663C499.786 183.663 498.95 184.499 498.95 185.527C498.95 186.306 499.42 186.987 500.145 187.264C500.468 187.387 500.681 187.697 500.681 188.041V188.914C500.766 188.901 500.851 188.901 500.936 188.914V188.043C500.936 187.695 501.152 187.383 501.478 187.262C502.195 186.995 502.676 186.298 502.676 185.527C502.676 184.499 501.84 183.663 500.812 183.663H500.814Z" fill="#1B1B1B"/>
<path d="M515.027 199.42L500.811 189.736L486.594 199.42H515.027Z" fill="#1B1B1B"/>
<path d="M503.512 185.525C503.512 186.679 502.791 187.661 501.771 188.039V190.384L500.816 189.735L499.851 190.393V188.039C498.832 187.651 498.121 186.669 498.121 185.525C498.121 184.038 499.32 182.829 500.817 182.829C502.314 182.829 503.513 184.036 503.513 185.525H503.512Z" fill="#1B1B1B"/>
<path d="M150.643 82.8999H134.559C134.1 82.8999 133.727 82.5268 133.727 82.0672V0.832662C133.727 0.373033 134.1 0 134.559 0H150.643C151.102 0 151.476 0.373033 151.476 0.832662V82.0672C151.476 82.5268 151.102 82.8999 150.643 82.8999ZM135.392 81.2345H149.81V1.66532H135.392V81.2345Z" fill="#1B1B1B"/>
<path d="M427.752 82.8999H411.669C411.209 82.8999 410.836 82.5268 410.836 82.0672V0.832662C410.836 0.373033 411.209 0 411.669 0H427.752C428.212 0 428.585 0.373033 428.585 0.832662V82.0672C428.585 82.5268 428.212 82.8999 427.752 82.8999ZM412.501 81.2345H426.92V1.66532H412.501V81.2345Z" fill="#1B1B1B"/>
<path d="M435.348 10.1294H126.961V20.5943H435.348V10.1294Z" fill="#1B1B1B"/>
<path d="M435.348 30.9851H126.961V41.45H435.348V30.9851Z" fill="#1B1B1B"/>
<path d="M435.348 51.8406H126.961V62.3055H435.348V51.8406Z" fill="#1B1B1B"/>
<path d="M435.348 21.4288H126.962C126.502 21.4288 126.129 21.0558 126.129 20.5961V10.1312C126.129 9.67162 126.502 9.29858 126.962 9.29858H435.348C435.808 9.29858 436.181 9.67162 436.181 10.1312V20.5961C436.181 21.0558 435.808 21.4288 435.348 21.4288ZM127.794 19.7635H434.516V10.9639H127.794V19.7635Z" fill="#1B1B1B"/>
<path d="M435.348 42.2845H126.962C126.502 42.2845 126.129 41.9115 126.129 41.4519V30.987C126.129 30.5273 126.502 30.1543 126.962 30.1543H435.348C435.808 30.1543 436.181 30.5273 436.181 30.987V41.4519C436.181 41.9115 435.808 42.2845 435.348 42.2845ZM127.794 40.6192H434.516V31.8196H127.794V40.6192Z" fill="#1B1B1B"/>
<path d="M435.348 63.14H126.962C126.502 63.14 126.129 62.767 126.129 62.3073V51.8424C126.129 51.3828 126.502 51.0098 126.962 51.0098H435.348C435.808 51.0098 436.181 51.3828 436.181 51.8424V62.3073C436.181 62.767 435.808 63.14 435.348 63.14ZM127.794 61.4747H434.516V52.6751H127.794V61.4747Z" fill="#1B1B1B"/>
<path d="M224.225 381.851C227.46 383.992 229.922 386.828 232.072 389.818C234.198 392.832 235.933 396.096 237.269 399.52C238.623 402.935 239.579 406.519 240.037 410.195C240.52 413.857 240.485 417.634 239.602 421.376C237.492 418.11 236.09 414.889 234.578 411.713C233.885 410.113 233.149 408.536 232.515 406.936L231.517 404.549C231.221 403.741 230.893 402.945 230.563 402.151C229.319 398.942 228.136 395.701 227.036 392.372C225.963 389.017 224.936 385.633 224.225 381.849V381.851Z" fill="#FDFDFD"/>
<path d="M239.602 422.209C239.322 422.209 239.058 422.067 238.903 421.828C237.102 419.043 235.805 416.28 234.551 413.611C234.31 413.096 234.068 412.583 233.825 412.072C233.82 412.064 233.817 412.054 233.814 412.045C233.594 411.536 233.367 411.03 233.144 410.523C232.669 409.454 232.178 408.348 231.742 407.243L230.751 404.871C230.746 404.86 230.741 404.848 230.738 404.836C230.448 404.045 230.126 403.266 229.797 402.471C229.793 402.465 229.792 402.458 229.788 402.453C228.436 398.961 227.277 395.75 226.246 392.634C225.212 389.402 224.145 385.926 223.407 382.005C223.345 381.677 223.485 381.342 223.765 381.157C224.043 380.972 224.406 380.972 224.684 381.157C227.564 383.062 230.05 385.583 232.748 389.332C234.888 392.363 236.668 395.687 238.045 399.217C239.461 402.79 240.41 406.45 240.863 410.092C241.399 414.157 241.247 418.021 240.413 421.568C240.337 421.892 240.073 422.141 239.744 422.197C239.697 422.206 239.649 422.209 239.602 422.209ZM235.336 411.369C235.579 411.879 235.819 412.39 236.06 412.903C237.014 414.933 237.993 417.018 239.194 419.105C239.612 416.339 239.619 413.388 239.212 410.303C238.776 406.795 237.862 403.271 236.496 399.827C235.166 396.418 233.449 393.214 231.392 390.298C229.379 387.5 227.499 385.425 225.479 383.798C226.155 386.794 227.004 389.539 227.83 392.12C228.848 395.197 229.997 398.38 231.337 401.842C231.672 402.646 231.997 403.434 232.295 404.247L233.286 406.616C233.717 407.706 234.2 408.795 234.668 409.849C234.893 410.355 235.117 410.861 235.337 411.371L235.336 411.369Z" fill="#1B1B1B"/>
<path d="M223.182 393.301C225.251 396.004 227.309 398.004 229.496 400.029C231.664 402.045 233.937 404.029 236.137 406.332C238.362 408.665 240.442 411.37 241.844 414.554C242.532 416.144 243.041 417.851 243.213 419.603C243.371 421.352 243.224 423.14 242.548 424.727C241.113 421.633 239.396 419.401 237.497 417.222C235.606 415.057 233.531 413.01 231.441 410.803C229.317 408.565 227.166 406.087 225.482 403.146C223.829 400.239 222.621 396.715 223.186 393.301H223.182Z" fill="#1B1B1B"/>
<path d="M242.544 425.563C242.221 425.563 241.925 425.375 241.788 425.08C240.345 421.969 238.569 419.728 236.864 417.771C235.592 416.314 234.25 414.927 232.827 413.458C232.175 412.783 231.5 412.085 230.831 411.379C228.834 409.274 226.551 406.7 224.754 403.562C223.3 401.004 221.705 397.128 222.358 393.167C222.411 392.839 222.656 392.576 222.977 392.495C223.298 392.415 223.638 392.533 223.84 392.796C225.935 395.535 228.06 397.57 230.056 399.419C230.598 399.922 231.144 400.422 231.693 400.924C233.35 402.442 235.064 404.01 236.734 405.757C239.41 408.563 241.329 411.331 242.599 414.219C243.387 416.041 243.87 417.824 244.035 419.524C244.225 421.618 243.98 423.476 243.307 425.055C243.179 425.358 242.883 425.556 242.554 425.561C242.549 425.561 242.546 425.561 242.541 425.561L242.544 425.563ZM223.883 395.497C223.998 398.257 225.144 400.875 226.201 402.736C227.908 405.717 230.111 408.199 232.04 410.232C232.704 410.933 233.375 411.628 234.025 412.299C235.46 413.782 236.817 415.185 238.12 416.675C239.539 418.305 241.007 420.126 242.318 422.46C242.45 421.606 242.47 420.677 242.38 419.679C242.231 418.157 241.793 416.542 241.076 414.885C239.885 412.182 238.071 409.571 235.532 406.908C233.901 405.201 232.21 403.652 230.573 402.153C230.02 401.647 229.47 401.144 228.927 400.64C227.307 399.139 225.602 397.517 223.883 395.497Z" fill="#1B1B1B"/>
<path d="M244.671 368.907C243.903 374.256 243.997 378.879 244.386 383.622C244.758 388.338 245.412 393.088 245.842 398.069C246.273 403.095 246.39 408.412 245.422 413.766C244.924 416.433 244.155 419.099 242.964 421.588C241.767 424.065 240.198 426.388 238.101 428.14C238.671 422.762 238.463 418.136 237.995 413.38C237.543 408.652 236.839 403.886 236.419 398.872C235.998 393.812 235.93 388.465 236.992 383.109C237.538 380.443 238.366 377.784 239.62 375.319C240.881 372.868 242.519 370.588 244.671 368.907Z" fill="#FDFDFD"/>
<path d="M238.103 428.972C237.97 428.972 237.835 428.94 237.712 428.874C237.412 428.714 237.24 428.389 237.275 428.051C237.883 422.322 237.562 417.461 237.169 413.461C236.969 411.373 236.726 409.321 236.468 407.148C236.153 404.492 235.827 401.745 235.592 398.939C235.07 392.674 235.255 387.593 236.178 382.946C236.791 379.953 237.7 377.262 238.881 374.94C240.343 372.094 242.12 369.844 244.161 368.249C244.43 368.041 244.798 368.014 245.091 368.184C245.385 368.354 245.545 368.687 245.497 369.023C244.673 374.77 244.893 379.593 245.217 383.552C245.412 386.031 245.682 388.471 245.965 391.056C246.213 393.307 246.47 395.634 246.673 397.995C247.011 401.934 247.336 407.869 246.243 413.912C245.684 416.907 244.834 419.608 243.717 421.946C242.323 424.827 240.614 427.125 238.638 428.777C238.484 428.905 238.295 428.97 238.103 428.97V428.972ZM243.569 371.043C242.376 372.309 241.302 373.868 240.361 375.7C239.25 377.885 238.391 380.436 237.808 383.275C236.919 387.762 236.741 392.696 237.25 398.801C237.484 401.577 237.808 404.31 238.121 406.951C238.369 409.038 238.624 411.194 238.826 413.299C239.175 416.85 239.469 421.071 239.129 425.978C240.283 424.675 241.317 423.085 242.216 421.223C243.269 419.02 244.073 416.459 244.604 413.611C245.66 407.769 245.344 401.982 245.012 398.138C244.811 395.797 244.554 393.48 244.308 391.239C244.022 388.643 243.752 386.19 243.555 383.687C243.265 380.164 243.057 375.968 243.569 371.043Z" fill="#1B1B1B"/>
<path d="M250.234 376.853C252.06 380.758 252.863 384.844 253.253 388.941C253.603 393.041 253.436 397.168 252.807 401.22C252.179 405.273 251.076 409.253 249.493 413.052C247.874 416.837 245.857 420.482 242.916 423.64C242.708 419.338 243.054 415.392 243.422 411.485C243.824 407.593 244.332 403.784 244.931 399.989C245.529 396.194 246.209 392.412 247.015 388.583C247.861 384.751 248.732 380.886 250.234 376.853Z" fill="#1B1B1B"/>
<path d="M242.917 424.472C242.82 424.472 242.724 424.455 242.63 424.422C242.316 424.307 242.101 424.014 242.084 423.681C241.864 419.151 242.269 414.858 242.592 411.407C242.985 407.602 243.48 403.827 244.107 399.86C244.747 395.8 245.431 392.054 246.199 388.412C246.992 384.825 247.886 380.767 249.453 376.564C249.57 376.249 249.864 376.036 250.199 376.022C250.536 376.009 250.845 376.197 250.987 376.502C252.631 380.013 253.613 383.941 254.081 388.865C254.431 392.97 254.279 397.167 253.63 401.35C252.985 405.515 251.851 409.562 250.261 413.374C248.314 417.925 246.174 421.366 243.525 424.209C243.365 424.38 243.142 424.473 242.915 424.473L242.917 424.472ZM250.307 379.167C249.2 382.547 248.477 385.818 247.828 388.762C247.068 392.369 246.389 396.086 245.753 400.118C245.13 404.057 244.639 407.802 244.249 411.569C243.916 415.121 243.656 418.208 243.686 421.471C245.586 419.089 247.213 416.258 248.727 412.725C250.262 409.042 251.36 405.127 251.984 401.094C252.614 397.042 252.762 392.977 252.424 389.014C252.061 385.195 251.38 382.009 250.307 379.168V379.167Z" fill="#1B1B1B"/>
<path d="M261.849 389.931C260.41 393.015 259.591 395.766 258.808 398.642C258.025 401.496 257.319 404.432 256.295 407.447C255.257 410.499 253.822 413.595 251.65 416.311C250.56 417.657 249.284 418.899 247.808 419.862C246.333 420.812 244.678 421.51 242.959 421.645C245.037 418.941 246.22 416.384 247.272 413.693C248.316 411.014 249.169 408.228 250.157 405.353C251.157 402.436 252.358 399.38 254.185 396.525C255.995 393.714 258.561 391.011 261.849 389.931Z" fill="#FDFDFD"/>
<path d="M242.96 422.477C242.657 422.477 242.376 422.311 242.229 422.041C242.073 421.751 242.101 421.398 242.301 421.137C244.391 418.417 245.553 415.806 246.499 413.388C247.202 411.584 247.81 409.752 248.454 407.812C248.749 406.921 249.055 406.002 249.372 405.081C250.313 402.337 251.538 399.119 253.487 396.075C255.081 393.602 257.778 390.393 261.59 389.137C261.905 389.034 262.253 389.127 262.473 389.376C262.693 389.624 262.746 389.98 262.605 390.28C261.147 393.406 260.328 396.232 259.614 398.858C259.417 399.571 259.227 400.288 259.036 401.01C258.46 403.179 257.863 405.423 257.087 407.711C255.838 411.381 254.275 414.364 252.305 416.828C251.054 418.371 249.697 419.623 248.266 420.557C246.499 421.695 244.737 422.339 243.027 422.474C243.005 422.476 242.984 422.477 242.962 422.477H242.96ZM260.23 391.569C257.838 392.949 256.048 395.176 254.887 396.976C253.036 399.87 251.857 402.971 250.947 405.622C250.633 406.535 250.329 407.453 250.035 408.339C249.384 410.299 248.769 412.151 248.051 413.996C247.264 416.009 246.329 418.152 244.867 420.396C245.685 420.116 246.519 419.703 247.36 419.162C248.641 418.326 249.868 417.19 251.007 415.786C252.851 413.479 254.326 410.663 255.51 407.178C256.268 404.945 256.857 402.728 257.427 400.585C257.62 399.859 257.812 399.138 258.008 398.422C258.588 396.29 259.237 394.028 260.231 391.57L260.23 391.569Z" fill="#1B1B1B"/>
<path d="M255.224 415.521L252.176 437.117C252.016 438.255 251.042 439.101 249.895 439.101H236.974C235.824 439.101 234.852 438.255 234.692 437.117L231.645 415.521H255.224Z" fill="#FDFDFD"/>
<path d="M249.895 439.931H236.974C235.42 439.931 234.085 438.771 233.868 437.232L230.821 415.636C230.787 415.398 230.859 415.156 231.017 414.973C231.175 414.79 231.405 414.687 231.645 414.687H255.224C255.466 414.687 255.694 414.792 255.852 414.973C256.01 415.155 256.082 415.396 256.048 415.636L253.001 437.232C252.784 438.771 251.449 439.931 249.895 439.931ZM232.604 416.352L235.517 437C235.618 437.722 236.244 438.266 236.974 438.266H249.895C250.624 438.266 251.251 437.722 251.352 437L254.265 416.352H232.602H232.604Z" fill="#1B1B1B"/>
<path d="M254.521 421.34H232.349C231.935 421.34 231.583 421.035 231.525 420.624L230.821 415.636C230.787 415.398 230.859 415.156 231.017 414.973C231.175 414.79 231.405 414.687 231.645 414.687H255.224C255.466 414.687 255.694 414.792 255.852 414.973C256.01 415.155 256.082 415.396 256.048 415.636L255.344 420.624C255.286 421.035 254.934 421.34 254.52 421.34H254.521ZM233.074 419.674H253.799L254.266 416.352H232.604L233.072 419.674H233.074Z" fill="#1B1B1B"/>
<path d="M254.521 420.509L255.224 415.521H231.645L232.349 420.509H254.521Z" fill="#1B1B1B"/>
<path d="M322.451 262.809L260.186 325.075L261.363 326.253L323.629 263.987L322.451 262.809Z" fill="#1B1B1B"/>
<path d="M317.597 287.079L287.846 316.83L289.023 318.008L318.774 288.257L317.597 287.079Z" fill="#1B1B1B"/>
<path d="M296.555 267.67L269.982 294.243L271.16 295.42L297.733 268.847L296.555 267.67Z" fill="#1B1B1B"/>
<path d="M152.081 231.613L135.051 248.643L136.228 249.82L153.258 232.79L152.081 231.613Z" fill="#1B1B1B"/>
<path d="M150.754 238.255L142.617 246.392L143.795 247.569L151.932 239.432L150.754 238.255Z" fill="#1B1B1B"/>
<path d="M145 232.942L137.732 240.21L138.91 241.387L146.178 234.119L145 232.942Z" fill="#1B1B1B"/>
<path d="M185.35 231.613L168.32 248.643L169.498 249.82L186.528 232.79L185.35 231.613Z" fill="#1B1B1B"/>
<path d="M184.024 238.255L175.887 246.392L177.064 247.569L185.201 239.432L184.024 238.255Z" fill="#1B1B1B"/>
<path d="M178.268 232.946L171 240.214L172.178 241.391L179.445 234.123L178.268 232.946Z" fill="#1B1B1B"/>
<path d="M424.244 262.817L361.979 325.083L363.156 326.261L425.422 263.995L424.244 262.817Z" fill="#1B1B1B"/>
<path d="M419.39 287.095L389.639 316.846L390.816 318.023L420.567 288.272L419.39 287.095Z" fill="#1B1B1B"/>
<path d="M398.35 267.678L371.777 294.25L372.955 295.428L399.528 268.855L398.35 267.678Z" fill="#1B1B1B"/>
<path d="M487.902 401.63V439.165H455.139V401.63C455.139 392.58 462.471 385.248 471.52 385.248C476.045 385.248 480.143 387.078 483.103 390.047C486.072 393.007 487.902 397.105 487.902 401.63Z" fill="#FDFDFD"/>
<path d="M487.895 401.483C487.855 397.017 486.039 392.975 483.102 390.047C480.143 387.078 476.044 385.248 471.52 385.248C462.52 385.248 455.224 392.502 455.145 401.483H487.893H487.895Z" fill="#FDFDFD"/>
<path d="M477.984 394.157L476.609 398.007H466.43L465.055 394.157H477.984Z" fill="#1B1B1B"/>
<path d="M487.901 440H455.137C454.678 440 454.305 439.627 454.305 439.168V401.633C454.305 392.141 462.027 384.418 471.519 384.418C476.125 384.418 480.448 386.21 483.691 389.463C486.942 392.703 488.733 397.027 488.733 401.633V439.168C488.733 439.627 488.36 440 487.901 440ZM455.97 438.335H487.068V401.633C487.068 397.473 485.451 393.569 482.513 390.64C479.584 387.701 475.679 386.084 471.519 386.084C462.946 386.084 455.97 393.058 455.97 401.633V438.335Z" fill="#1B1B1B"/>
<path d="M487.894 402.317H455.145C454.924 402.317 454.711 402.229 454.554 402.071C454.397 401.913 454.311 401.7 454.313 401.478C454.352 396.912 456.159 392.625 459.4 389.409C462.644 386.19 466.947 384.418 471.519 384.418C476.09 384.418 480.448 386.21 483.69 389.463C486.896 392.658 488.685 396.927 488.726 401.478C488.728 401.7 488.641 401.914 488.485 402.071C488.328 402.229 488.115 402.317 487.894 402.317ZM456.008 400.652H487.031C486.798 396.857 485.211 393.328 482.513 390.64C479.584 387.701 475.679 386.084 471.519 386.084C463.305 386.084 456.516 392.545 456.006 400.654L456.008 400.652Z" fill="#1B1B1B"/>
<path d="M476.608 398.843H466.429C466.078 398.843 465.763 398.621 465.645 398.29L464.269 394.44C464.178 394.185 464.218 393.902 464.373 393.68C464.529 393.459 464.782 393.327 465.054 393.327H477.983C478.255 393.327 478.508 393.459 478.664 393.68C478.821 393.902 478.859 394.185 478.768 394.44L477.392 398.29C477.274 398.621 476.959 398.843 476.608 398.843ZM467.015 397.177H476.02L476.801 394.992H466.234L467.015 397.177Z" fill="#1B1B1B"/>
<path d="M257.115 134.685C255.521 139.235 251.826 142.384 246.462 142.384C238.373 142.384 234.566 136.128 234.566 130.76C234.566 125.746 238.218 119.448 246.269 119.448C251.711 119.448 255.676 122.637 257.115 127.301H251.291C250.28 125.32 248.453 124.347 246.195 124.347C242.075 124.347 239.742 127.38 239.742 130.839C239.742 134.534 242.23 137.487 246.195 137.487C247.09 137.487 249.849 137.332 251.291 134.687H257.113L257.115 134.685Z" fill="#FDFDFD"/>
<path d="M263.893 130.957C263.893 134.454 266.343 137.487 270.153 137.487C273.963 137.487 276.411 134.454 276.411 130.957C276.411 127.46 274.005 124.347 270.153 124.347C266.301 124.347 263.893 127.456 263.893 130.957ZM281.58 130.957C281.58 137.215 276.721 142.384 270.153 142.384C263.585 142.384 258.719 137.213 258.719 130.957C258.719 124.7 263.54 119.448 270.149 119.448C276.759 119.448 281.577 124.659 281.577 130.957" fill="#FDFDFD"/>
<path d="M285.091 124.734H282.947V120.147H285.091V119.238C285.091 114.417 288.123 111.776 292.553 111.776H293.525V116.941H292.864C290.863 116.941 290.258 118.149 290.258 119.236V120.146H293.525V124.732H290.26V141.685H285.091V124.734Z" fill="#FDFDFD"/>
<path d="M302.015 111.772H296.844V116.941H302.015V111.772Z" fill="#FDFDFD"/>
<path d="M302.015 120.15H296.844V141.689H302.015V120.15Z" fill="#FDFDFD"/>
<path d="M320.154 141.689H326.71L318.582 130.643L325.991 120.15H319.811L315.215 126.859L310.618 120.15H304.433L311.672 130.643L303.799 141.689H310.36L315.256 134.462L320.154 141.689Z" fill="#FDFDFD"/>
<path d="M46.4729 417.513C46.4729 417.513 48.1332 424.246 46.2164 427.359L45.6719 428.649L56.7013 426.193L55.9602 425.066C54.6413 423.059 53.8502 420.809 53.6554 418.501L46.4729 417.513Z" fill="#FDFDFD"/>
<path d="M45.6723 429.024C45.5624 429.024 45.4574 428.976 45.3858 428.889C45.2959 428.783 45.2743 428.635 45.3276 428.505L45.8721 427.214C45.8804 427.196 45.8888 427.179 45.8988 427.163C47.7123 424.22 46.1269 417.667 46.1103 417.602C46.0803 417.482 46.1119 417.355 46.1952 417.262C46.2785 417.171 46.4017 417.126 46.5233 417.142L53.7058 418.13C53.879 418.153 54.0122 418.295 54.0272 418.468C54.2154 420.703 54.9931 422.914 56.272 424.859L57.0131 425.987C57.0797 426.09 57.093 426.218 57.0464 426.332C56.9998 426.445 56.9015 426.53 56.7816 426.556L45.7522 429.013C45.7256 429.019 45.6973 429.021 45.6706 429.021L45.6723 429.024ZM46.5499 427.531L46.2984 428.128L56.0938 425.947L55.6492 425.271C54.3586 423.307 53.5542 421.087 53.3128 418.829L46.9546 417.955C47.3076 419.634 48.2052 424.799 46.5482 427.529L46.5499 427.531Z" fill="#1B1B1B"/>
<path d="M45.6218 423.602L44.6409 425.02C42.6992 427.827 40.1046 430.122 37.0787 431.704L34.754 432.92C34.5325 433.036 34.3826 433.253 34.3543 433.501L34.3393 433.628C34.1778 435.03 36.1278 437.941 41.227 438.389C44.3812 438.665 51.6203 438.196 59.8836 433.804C60.4048 433.526 60.6879 432.943 60.5764 432.364C60.17 430.247 59.006 425.224 56.7661 422.943C56.5163 422.69 56.1067 422.698 55.8785 422.971L53.6953 425.606C52.7161 426.788 50.9608 426.948 49.7834 425.962L46.7759 423.446C46.4195 423.148 45.8849 423.221 45.6218 423.602Z" fill="#FDFDFD"/>
<path d="M42.7722 438.821C42.0211 438.821 41.4849 438.786 41.1968 438.761C37.4265 438.43 35.6063 436.839 34.8569 435.92C34.2141 435.131 33.891 434.28 33.971 433.585L33.9859 433.459C34.0292 433.087 34.2524 432.763 34.5838 432.589L36.9086 431.374C39.8695 429.825 42.4374 427.555 44.3359 424.807L45.3168 423.39C45.5016 423.122 45.793 422.944 46.1161 422.899C46.4409 422.855 46.7689 422.95 47.0187 423.159L50.0263 425.675C50.5192 426.088 51.142 426.283 51.7832 426.224C52.4227 426.166 53.0022 425.861 53.4119 425.367L55.5968 422.732C55.77 422.524 56.0248 422.398 56.2945 422.386C56.571 422.374 56.8408 422.482 57.0373 422.681C59.3554 425.04 60.5444 430.19 60.9474 432.293C61.0906 433.037 60.7343 433.777 60.0631 434.135C52.3244 438.248 45.8064 438.821 42.7755 438.821H42.7722ZM45.9296 423.813L44.9487 425.23C42.9803 428.076 40.3191 430.429 37.2533 432.033L34.9285 433.249C34.8169 433.307 34.7403 433.417 34.727 433.544L34.712 433.67C34.6687 434.046 34.8353 434.713 35.4348 435.447C36.1092 436.275 37.7646 437.71 41.2617 438.017C42.6822 438.141 50.2411 438.506 59.7101 433.475C60.0915 433.274 60.293 432.854 60.2114 432.434C59.82 430.396 58.6759 425.418 56.501 423.205C56.4361 423.139 56.3611 423.132 56.3228 423.134C56.2795 423.135 56.2179 423.15 56.168 423.21L53.9831 425.845C53.4452 426.493 52.6875 426.892 51.8481 426.969C51.0105 427.045 50.1911 426.791 49.545 426.249L46.5374 423.733C46.4475 423.656 46.3326 423.625 46.2144 423.64C46.0978 423.656 45.9962 423.718 45.9279 423.815L45.9296 423.813Z" fill="#1B1B1B"/>
<path d="M47.4931 433.955C47.1767 433.955 46.8786 433.823 46.6622 433.584C46.4174 433.312 46.3208 432.951 46.399 432.593L46.6172 431.584C46.6522 431.425 46.5539 431.335 46.5106 431.305C46.4673 431.274 46.3524 431.209 46.2125 431.292L45.3116 431.827C42.5538 433.462 39.2032 433.903 36.1157 433.037L35.5478 432.877C35.3497 432.823 35.2331 432.616 35.2897 432.418C35.3447 432.22 35.5528 432.105 35.7493 432.16L36.3172 432.32C39.2065 433.131 42.3473 432.718 44.9302 431.185L45.8312 430.651C46.1859 430.441 46.6139 430.459 46.9469 430.701C47.2817 430.941 47.4349 431.34 47.3483 431.743L47.1301 432.753C47.1035 432.872 47.1368 432.994 47.2184 433.086C47.3016 433.177 47.4199 433.221 47.5398 433.209C51.1435 432.809 54.5608 431.687 57.6982 429.872L59.5051 428.826C59.6833 428.722 59.9114 428.784 60.0147 428.962C60.1179 429.14 60.0563 429.369 59.8781 429.472L58.0712 430.518C54.8439 432.385 51.3267 433.54 47.6214 433.952C47.5781 433.957 47.5364 433.958 47.4931 433.958V433.955Z" fill="#1B1B1B"/>
<path d="M85.9277 402C85.9277 402 90.3875 407.321 90.2775 410.978L90.4358 412.382L98.7374 404.005L97.495 403.576C95.4983 402.357 93.4233 401.679 92.196 399.687L85.9294 402H85.9277Z" fill="#FDFDFD"/>
<path d="M90.4344 412.755C90.3928 412.755 90.3528 412.748 90.3112 412.735C90.1746 412.688 90.078 412.567 90.063 412.423L89.9048 411.02C89.9032 411.001 89.9015 410.985 89.9032 410.966C90.0081 407.494 85.6849 402.292 85.6416 402.24C85.5634 402.147 85.5367 402.022 85.5667 401.904C85.5983 401.787 85.6849 401.692 85.7982 401.649L92.0648 399.336C92.2313 399.274 92.4178 399.339 92.5127 399.491C93.382 400.903 94.7443 401.635 96.1864 402.411C96.666 402.67 97.1623 402.936 97.6536 403.234L98.8576 403.652C98.9791 403.694 99.0707 403.795 99.0991 403.92C99.129 404.045 99.0907 404.177 99.0008 404.267L90.7009 412.643C90.6293 412.715 90.5343 412.753 90.4361 412.753L90.4344 412.755ZM90.6509 410.961L90.7175 411.564L98.0516 404.163L97.3705 403.927C97.3455 403.919 97.3205 403.907 97.2988 403.894C96.8126 403.597 96.3146 403.329 95.8317 403.069C94.3845 402.292 93.0123 401.552 92.0431 400.14L86.5426 402.17C87.5917 403.504 90.7275 407.767 90.6492 410.961H90.6509Z" fill="#1B1B1B"/>
<path d="M88.6865 409.235L88.9097 410.944C89.3526 414.33 88.9663 417.772 87.7822 420.974L86.873 423.436C86.7864 423.67 86.8214 423.932 86.9662 424.135L87.0395 424.238C87.8588 425.387 91.2578 426.24 95.3411 423.152C97.8674 421.242 102.923 416.04 106.107 407.242C106.309 406.686 106.127 406.065 105.654 405.708C103.934 404.411 99.7026 401.463 96.5102 401.273C96.1555 401.252 95.8557 401.533 95.8707 401.89L96.0172 405.308C96.0822 406.842 94.8881 408.138 93.3544 408.196L89.4359 408.346C88.9729 408.364 88.6232 408.776 88.6848 409.237L88.6865 409.235Z" fill="#FDFDFD"/>
<path d="M89.8488 425.658C89.5024 425.658 89.2043 425.63 88.9595 425.593C87.9536 425.44 87.1426 425.025 86.7363 424.456L86.663 424.353C86.4465 424.049 86.3932 423.658 86.5231 423.307L87.4324 420.845C88.5898 417.713 88.9728 414.306 88.5398 410.993L88.3167 409.285C88.275 408.962 88.37 408.634 88.5815 408.384C88.7913 408.134 89.0994 407.984 89.4258 407.972L93.3443 407.823C93.9854 407.798 94.5799 407.524 95.0162 407.051C95.4526 406.579 95.6774 405.966 95.6491 405.323L95.5025 401.904C95.4909 401.633 95.5958 401.368 95.7889 401.178C95.9855 400.985 96.2602 400.881 96.5367 400.9C99.839 401.096 104.172 404.119 105.884 405.409C106.489 405.866 106.722 406.653 106.462 407.368C102.74 417.648 96.7348 422.567 95.5691 423.45C93.1794 425.257 91.1677 425.658 89.8504 425.658H89.8488ZM89.0561 409.188L89.2792 410.897C89.7272 414.329 89.3309 417.859 88.1318 421.103L87.2226 423.565C87.1793 423.683 87.1959 423.815 87.2692 423.918L87.3425 424.021C87.5623 424.329 88.1318 424.711 89.0711 424.854C90.1285 425.015 92.3168 424.97 95.1162 422.854C96.2519 421.994 102.107 417.197 105.758 407.113C105.904 406.708 105.773 406.262 105.431 406.004C103.776 404.755 99.5875 401.829 96.4901 401.644C96.3935 401.638 96.3368 401.682 96.3102 401.711C96.2786 401.741 96.2436 401.794 96.2469 401.872L96.3935 405.291C96.4284 406.134 96.1337 406.938 95.5625 407.558C94.9913 408.177 94.2136 408.535 93.3709 408.569L89.4524 408.718C89.3342 408.723 89.2276 408.775 89.151 408.865C89.0744 408.955 89.0411 409.07 89.0561 409.186V409.188Z" fill="#1B1B1B"/>
<path d="M87.2664 422.913C87.1281 422.913 86.9966 422.837 86.9316 422.707C86.84 422.522 86.915 422.299 87.0998 422.207L87.6277 421.944C90.3172 420.608 92.3689 418.197 93.2565 415.328L93.5662 414.325C93.6878 413.932 94.0176 413.659 94.4272 413.614C94.8336 413.567 95.2182 413.762 95.4231 414.119L95.9377 415.013C95.9993 415.119 96.1042 415.188 96.2274 415.201C96.3507 415.214 96.4672 415.168 96.5488 415.076C98.9536 412.363 100.737 409.239 101.846 405.789L102.486 403.802C102.549 403.605 102.759 403.499 102.955 403.56C103.152 403.624 103.26 403.834 103.197 404.03L102.557 406.017C101.415 409.566 99.5814 412.781 97.1067 415.572C96.8636 415.847 96.5172 415.982 96.1508 415.945C95.7861 415.909 95.473 415.706 95.2899 415.388L94.7753 414.493C94.6953 414.353 94.5621 414.353 94.5088 414.358C94.4555 414.365 94.3273 414.395 94.279 414.548L93.9693 415.551C93.02 418.613 90.8301 421.188 87.9591 422.613L87.4312 422.877C87.3779 422.903 87.3213 422.915 87.2647 422.915L87.2664 422.913Z" fill="#1B1B1B"/>
<path d="M72.5678 317.337L43.3964 315.423C43.3964 315.423 25.9422 353.509 34.9599 386.507C40.199 405.679 44.1242 415.401 45.6912 418.933C46.1192 419.899 47.0918 420.505 48.1476 420.463L53.0503 420.274C54.5041 420.217 55.6232 418.973 55.5216 417.521C54.7422 406.298 51.9079 363.035 54.2243 358.224C54.2243 358.224 55.3201 390.488 86.5664 405.54C87.3675 405.927 88.33 405.73 88.9129 405.058L92.3368 401.106C92.888 400.47 92.9746 399.554 92.5483 398.826C87.9736 391.004 63.3802 346.881 72.5661 317.335L72.5678 317.337Z" fill="#1B1B1B"/>
<path d="M81.3812 284.335C79.4261 282.851 77.158 281.83 74.7516 281.35L70.56 280.021C62.9278 277.602 54.6445 278.343 47.5636 282.081L34.316 301.909C33.5 303.129 34.2927 304.778 35.7565 304.903L41.4069 305.383C42.4761 305.473 43.2554 306.433 43.1239 307.498C42.5294 312.349 46.1131 316.71 50.9875 317.067L87.0116 319.706C87.0116 319.706 87.1199 286.077 81.3812 284.335Z" fill="#FDFDFD"/>
<path d="M59.623 301.683C59.4815 301.683 59.3449 301.601 59.2833 301.463C57.6296 297.811 57.6113 293.826 57.6113 293.657C57.6113 293.451 57.7779 293.284 57.9844 293.284C58.1909 293.284 58.3574 293.451 58.3574 293.657C58.3574 293.697 58.3774 297.654 59.9644 301.155C60.0494 301.343 59.9661 301.564 59.7779 301.649C59.7279 301.673 59.6763 301.683 59.6247 301.683H59.623Z" fill="#1B1B1B"/>
<path d="M79.0912 281.432C79.0912 281.432 86.332 283.891 87.5627 292.09C88.7917 300.288 92.2039 316.68 89.3396 321.876C87.3245 325.531 81.1412 324.335 80.4584 327.478C80.127 329.003 78.6682 341.042 80.5617 352.688C82.1737 362.605 85.9573 372.263 87.3828 375.677C87.6659 376.357 87.2613 377.126 86.5402 377.276C80.2969 378.577 54.9041 383.361 46.1396 377.095C45.9064 376.928 45.7982 376.637 45.8731 376.358C47.6267 369.84 68.1417 293.648 70.758 288.811C73.4907 283.755 79.0929 281.432 79.0929 281.432H79.0912Z" fill="#FDFDFD"/>
<path d="M61.2616 380.634C55.0567 380.634 49.3097 379.82 45.9224 377.398C45.5627 377.142 45.3978 376.684 45.5127 376.261C47.7876 367.801 67.8147 293.469 70.4292 288.631C73.1936 283.519 78.7158 281.182 78.949 281.086C79.0322 281.051 79.1255 281.048 79.2121 281.078C79.287 281.102 86.6844 283.707 87.9334 292.034C88.1265 293.318 88.3763 294.825 88.6395 296.42C90.1183 305.343 92.1449 317.563 89.667 322.056C88.5745 324.036 86.3813 324.679 84.4478 325.244C82.6593 325.767 81.1155 326.218 80.8241 327.557C80.541 328.857 79.0256 340.904 80.9307 352.627C82.5211 362.417 86.2147 371.908 87.7285 375.533C87.9067 375.959 87.8851 376.439 87.6702 376.849C87.4537 377.258 87.0707 377.546 86.6194 377.641C82.1214 378.579 71.1186 380.634 61.265 380.634H61.2616ZM79.1022 281.835C78.2495 282.222 73.4901 284.538 71.0853 288.988C68.9937 292.856 54.4805 345.789 46.2338 376.456C46.2005 376.582 46.2488 376.714 46.357 376.79C55.0966 383.037 81.3004 377.986 86.4645 376.909C86.6994 376.86 86.8959 376.71 87.0074 376.499C87.119 376.287 87.1307 376.039 87.0374 375.82C85.5137 372.169 81.795 362.615 80.1913 352.745C78.2679 340.911 79.8066 328.716 80.093 327.397C80.4777 325.625 82.3046 325.09 84.2364 324.526C86.1198 323.975 88.0682 323.405 89.0125 321.693C91.3656 317.427 89.2823 304.857 87.9017 296.54C87.6369 294.941 87.3871 293.433 87.1923 292.144C86.1032 284.879 80.0731 282.217 79.1022 281.834V281.835Z" fill="#1B1B1B"/>
<path d="M59.3896 278.284C59.4562 278.124 59.3329 277.951 59.1597 277.966C57.4112 278.126 49.5492 279.608 46.5383 282.493C34.4464 294.072 33.717 290.311 28.6478 293.122C25.3238 294.964 24.9008 300.828 27.5803 304.833C31.3739 310.502 38.27 307.812 40.8929 306.169C41.0311 306.082 41.1976 306.225 41.1294 306.373C39.3691 310.224 30.0034 331.087 29.0142 341.109C28.1049 350.321 26.721 360.53 26.2831 363.69C26.2048 364.257 26.5662 364.788 27.1207 364.923C29.2323 365.439 34.2849 366.583 37.3674 366.54L41.0144 366.552C41.6023 366.553 42.0902 366.1 42.1302 365.512C42.6831 357.171 46.6649 301.189 54.735 287.204C57.9457 281.642 59.0915 278.984 59.3879 278.281L59.3896 278.284Z" fill="#FDFDFD"/>
<path d="M41.0192 366.927H41.0142L37.3672 366.915C34.2248 366.962 29.0972 365.791 27.0339 365.286C26.2912 365.105 25.8099 364.397 25.9148 363.639C26.3228 360.69 27.7283 350.345 28.6443 341.071C29.5952 331.45 38.1616 312.019 40.5147 306.823C37.174 308.677 30.8225 310.349 27.2704 305.04C25.6567 302.628 25.0605 299.453 25.7133 296.751C26.1513 294.941 27.1288 293.537 28.4677 292.795C30.0581 291.914 31.2655 291.652 32.4329 291.399C35.1423 290.813 37.9434 290.207 46.28 282.221C49.3125 279.317 57.1728 277.772 59.1262 277.594C59.3394 277.574 59.5392 277.665 59.6658 277.837C59.7924 278.01 59.8173 278.23 59.7341 278.428C59.2312 279.622 57.9539 282.376 55.0595 287.392C46.9628 301.421 42.936 359.018 42.503 365.539C42.4514 366.319 41.8003 366.927 41.0192 366.927ZM37.3639 366.169L41.0176 366.181H41.0209C41.4106 366.181 41.7353 365.877 41.7603 365.491C42.4681 354.823 46.4032 300.903 54.4151 287.021C57.1195 282.333 58.3968 279.647 58.9514 278.365C56.7199 278.628 49.5756 280.102 46.7979 282.763C38.3081 290.893 35.4021 291.522 32.5927 292.13C31.427 292.383 30.3246 292.621 28.8308 293.449C27.6767 294.089 26.8291 295.324 26.4411 296.928C25.8349 299.431 26.3911 302.38 27.8932 304.625C32.2064 311.07 40.3531 306.067 40.6978 305.852C40.901 305.724 41.1575 305.746 41.339 305.902C41.5172 306.059 41.5721 306.31 41.4722 306.529C39.627 310.567 30.3695 331.215 29.3887 341.147C28.4711 350.435 27.0656 360.791 26.6559 363.744C26.6043 364.12 26.8441 364.474 27.2138 364.563C29.2504 365.061 34.303 366.217 37.3672 366.171L37.3639 366.169Z" fill="#1B1B1B"/>
<path d="M61.5339 295.676C61.5339 295.724 61.5339 295.774 61.5289 295.824C61.5239 295.877 61.5206 295.93 61.5173 295.982H45.8799C45.8766 295.937 45.8733 295.894 45.8699 295.85C45.8649 295.8 45.8633 295.752 45.8633 295.702L61.5339 295.676Z" fill="#FDFDFD"/>
<path d="M61.5182 295.984C61.4766 296.535 61.4366 297.089 61.3966 297.641C61.3783 297.885 61.3616 298.129 61.3417 298.375C61.305 298.88 61.2701 299.381 61.2318 299.886C61.2251 299.989 61.2168 300.09 61.2101 300.194C61.1302 301.284 61.0519 302.377 60.972 303.466C60.9603 303.622 60.9503 303.777 60.9387 303.934C60.9004 304.437 60.8654 304.94 60.8287 305.443C60.7172 306.966 60.6073 308.487 60.4957 310.011C60.3675 311.771 60.2409 313.528 60.1127 315.286C60.0594 316.019 59.643 316.644 59.0469 316.988C58.7971 317.133 58.5173 317.23 58.2192 317.263C58.1393 317.273 58.0593 317.278 57.9777 317.278L49.4979 317.291C48.9134 317.291 48.3788 317.058 47.9892 316.675C47.6311 316.322 47.3946 315.844 47.3547 315.306C47.2198 313.548 47.0882 311.791 46.9517 310.032C46.9217 309.624 46.89 309.215 46.8584 308.807C46.7235 307.025 46.5886 305.245 46.4521 303.464C46.3705 302.382 46.2872 301.299 46.2056 300.219C46.139 299.366 46.074 298.517 46.0108 297.667C45.9675 297.108 45.9258 296.545 45.8809 295.984H61.5182Z" fill="#1B1B1B"/>
<path d="M61.1559 293.519L46.2363 293.544C46.2696 293.347 46.3046 293.151 46.3379 292.954C46.4395 292.365 46.5394 291.777 46.6427 291.187C46.6793 290.971 46.7159 290.758 46.7542 290.541C46.9041 289.665 47.6618 289.026 48.5495 289.024L58.8278 289.006C59.7154 289.006 60.4765 289.64 60.628 290.516C60.6663 290.733 60.7029 290.946 60.7412 291.162C60.8462 291.752 60.9494 292.34 61.0527 292.929C61.086 293.126 61.1226 293.322 61.1559 293.519Z" fill="#1B1B1B"/>
<path d="M63.2184 295.362C63.2184 295.535 63.0802 295.673 62.9086 295.673L61.5348 295.676L45.8641 295.703L44.4902 295.706C44.317 295.706 44.1788 295.567 44.1788 295.397L44.1738 292.877C44.1738 292.706 44.3137 292.567 44.4836 292.567L62.902 292.536C63.0752 292.536 63.2134 292.676 63.2134 292.845L63.2184 295.363V295.362Z" fill="#1B1B1B"/>
<path d="M57.1145 303.076C56.6215 304.482 55.4808 305.455 53.8238 305.455C51.3242 305.455 50.1484 303.521 50.1484 301.862C50.1484 300.314 51.2775 298.367 53.7638 298.367C55.4458 298.367 56.6698 299.353 57.1145 300.793H55.3142C55.0028 300.18 54.4383 299.881 53.7405 299.881C52.4682 299.881 51.7471 300.818 51.7471 301.886C51.7471 303.027 52.5165 303.939 53.7405 303.939C54.017 303.939 54.8696 303.891 55.3142 303.075H57.1128L57.1145 303.076Z" fill="#FDFDFD"/>
<path d="M61.1415 298.367C59.0998 298.367 57.6094 299.975 57.6094 301.922C57.6094 303.754 58.96 305.286 60.8284 305.439C60.8651 304.936 60.9 304.433 60.9383 303.931C59.8775 303.829 59.2081 302.94 59.2081 301.922C59.2081 300.84 59.9508 299.88 61.1432 299.88C61.1732 299.88 61.2031 299.88 61.2314 299.884C61.2697 299.379 61.3047 298.878 61.3414 298.373C61.2764 298.368 61.2098 298.368 61.1415 298.368V298.367Z" fill="#FDFDFD"/>
<path d="M47.9865 310.326V310.608H48.9957V312.025H47.9882V316.676C47.6301 316.323 47.3937 315.845 47.3537 315.307C47.2188 313.549 47.0872 311.792 46.9507 310.033C46.9207 309.625 46.8891 309.216 46.8574 308.808C47.2621 308.293 47.9066 308.021 48.6959 308.021H48.9957V309.617H48.7925C48.173 309.617 47.9865 309.99 47.9865 310.325V310.326Z" fill="#FDFDFD"/>
<path d="M51.6205 308.021H50.0234V309.619H51.6205V308.021Z" fill="#FDFDFD"/>
<path d="M51.6205 310.607H50.0234V317.262H51.6205V310.607Z" fill="#FDFDFD"/>
<path d="M59.0477 316.987C58.7979 317.132 58.5181 317.229 58.22 317.262H57.2258L55.712 315.029L54.1983 317.262H52.1699L54.6029 313.85L52.3664 310.607H54.2782L55.6987 312.681L57.1192 310.607H59.0294L56.7412 313.85L59.0493 316.987H59.0477Z" fill="#FDFDFD"/>
<path d="M53.3719 313.684C52.3061 313.553 52.8023 314.437 53.6866 315.067C54.3411 315.533 57.6584 316.975 57.5335 316.995C52.5226 317.816 48.709 317.465 48.709 317.465C50.724 323.983 61.5003 321.488 62.7709 321.378C63.7585 321.293 71.2757 325.786 71.2757 325.786C74.7429 328.143 79.101 329.718 82.1819 330.527C88.4917 332.186 86.933 322.239 87.0113 319.711C87.0113 319.711 69.687 318.395 62.721 316.572C61.805 316.332 60.9307 315.959 60.1064 315.494C59.1572 314.96 57.1771 314.157 53.3719 313.686V313.684Z" fill="#FDFDFD"/>
<path d="M83.4907 331.085C83.0544 331.085 82.5864 331.02 82.0868 330.889C80.1401 330.378 75.1708 328.885 71.0658 326.094C67.4837 323.954 63.392 321.74 62.8008 321.751C62.6776 321.761 62.4527 321.798 62.148 321.846C59.207 322.311 50.2543 323.726 48.3525 317.576C48.3159 317.458 48.3408 317.328 48.4191 317.232C48.4974 317.135 48.6156 317.083 48.7439 317.095C48.7788 317.098 51.9846 317.38 56.3077 316.802C56.2694 316.784 56.2311 316.765 56.1928 316.747C55.1637 316.264 53.8814 315.664 53.47 315.371C53.2502 315.215 52.1661 314.399 52.4359 313.709C52.5225 313.485 52.7639 313.235 53.4184 313.316C57.2137 313.788 59.2503 314.585 60.2912 315.172C61.1288 315.643 61.9781 315.994 62.8174 316.214C69.6702 318.009 86.868 319.328 87.0411 319.342C87.241 319.356 87.3925 319.526 87.3859 319.725C87.3742 320.089 87.3992 320.637 87.4292 321.272C87.5557 324.024 87.7672 328.632 85.6023 330.384C85.0228 330.852 84.3167 331.087 83.494 331.087L83.4907 331.085ZM62.7791 321.005C63.9132 321.005 69.7002 324.411 71.4671 325.465C75.4938 328.203 80.3682 329.665 82.2767 330.166C83.4974 330.488 84.4316 330.368 85.131 329.801C87.0028 328.288 86.803 323.916 86.6814 321.303C86.6598 320.83 86.6398 320.404 86.6348 320.054C84.1485 319.856 68.9974 318.6 62.6259 316.932C61.725 316.695 60.8157 316.321 59.9231 315.818C58.9423 315.265 57.0005 314.509 53.3251 314.054C53.2685 314.047 53.2219 314.044 53.1852 314.044C53.2768 314.206 53.51 314.482 53.903 314.762C54.2594 315.015 55.6133 315.649 56.5092 316.069C57.4684 316.519 57.9342 316.844 57.9064 317.043C57.8831 317.205 57.7549 317.336 57.5933 317.363C53.7198 317.998 50.5174 317.934 49.2534 317.873C51.3218 322.8 59.3386 321.533 62.0298 321.107C62.3562 321.055 62.5926 321.018 62.7375 321.005C62.7508 321.005 62.7642 321.005 62.7791 321.005Z" fill="#1B1B1B"/>
<path d="M29.8883 294.394C25.9465 294.113 20.5093 284.362 19.9614 283.18C19.4152 281.999 18.1062 277.559 16.4226 275.486C14.8405 273.538 13.9513 272.056 13.2735 270.752C12.8638 269.966 11.9912 269.736 11.4466 269.964C10.9687 270.164 10.5923 271.266 11.1835 272.444C11.6198 273.311 11.8913 274.027 12.2543 274.883C12.4441 275.333 12.2909 275.846 11.8963 276.132C10.6889 277.003 9.16513 278.745 10.6756 281.436C12.221 284.191 14.4109 283.655 15.1603 285.102C15.9097 286.549 21.4219 302.591 23.8333 305.783C26.1597 308.864 30.5095 306.619 36.7927 304.613C40.5647 303.409 32.836 294.604 29.8883 294.394Z" fill="#FDFDFD"/>
<path d="M27.051 307.678C25.6205 307.678 24.4482 307.217 23.5339 306.008C21.7936 303.703 18.5996 295.183 16.4863 289.546C15.6753 287.383 15.0358 285.676 14.826 285.273C14.5695 284.775 14.0699 284.552 13.4371 284.269C12.4845 283.842 11.2988 283.313 10.3479 281.617C8.66928 278.628 10.4595 276.708 11.6752 275.829C11.9333 275.642 12.0299 275.312 11.9083 275.028C11.8201 274.821 11.7385 274.621 11.6585 274.427C11.4087 273.824 11.1739 273.256 10.8492 272.61C10.4795 271.875 10.4045 271.048 10.6477 270.393C10.7892 270.012 11.0224 269.735 11.3021 269.619C12.0132 269.321 13.0957 269.602 13.6036 270.578C14.1731 271.674 15.0408 273.194 16.7111 275.249C17.9967 276.833 19.0459 279.684 19.7386 281.571C19.9668 282.192 20.1633 282.728 20.2999 283.021C20.886 284.289 26.2234 293.756 29.9154 294.019C32.49 294.202 37.8073 299.916 38.162 302.879C38.2869 303.926 37.8423 304.669 36.9064 304.967C35.8872 305.293 34.9263 305.621 33.9971 305.939C31.246 306.882 28.9279 307.676 27.051 307.676V307.678ZM11.8833 270.255C11.7734 270.255 11.6718 270.273 11.5902 270.308C11.5403 270.33 11.432 270.426 11.3471 270.653C11.1756 271.118 11.2389 271.724 11.517 272.277C11.8534 272.948 12.0948 273.529 12.3496 274.143C12.4296 274.337 12.5112 274.533 12.5978 274.738C12.8542 275.346 12.656 276.044 12.1148 276.435C10.8758 277.331 9.67679 278.893 11.0007 281.253C11.8317 282.733 12.8476 283.188 13.7435 283.587C14.4479 283.902 15.1141 284.2 15.4921 284.93C15.7202 285.373 16.3364 287.013 17.1874 289.285C19.1574 294.542 22.4564 303.34 24.1317 305.558C25.917 307.921 29.0361 306.854 33.7556 305.235C34.6882 304.915 35.6524 304.586 36.6799 304.257C37.0496 304.139 37.5292 303.878 37.421 302.97C37.0862 300.171 31.9188 294.913 29.8621 294.767C25.3674 294.447 19.6737 283.448 19.6237 283.338C19.4755 283.018 19.284 282.495 19.0392 281.832C18.3631 279.992 17.3406 277.211 16.1332 275.724C14.4196 273.616 13.5287 272.052 12.9425 270.926C12.6943 270.45 12.2397 270.258 11.885 270.258L11.8833 270.255Z" fill="#1B1B1B"/>
<path d="M58.3406 254.771C58.7586 253.544 59.7528 252.602 61.0001 252.247L66.3691 250.726C69.4233 249.86 72.7073 250.693 74.9805 252.91L75.0304 252.958C75.8264 253.734 76.4526 254.633 76.9072 255.602C78.844 254.618 85.2688 251.522 90.7727 248.883C96.0634 246.345 102.352 247.154 106.826 250.948C110.547 254.102 114.855 256.488 119.503 257.967L135.05 262.917C135.25 262.98 135.297 263.24 135.133 263.369L132.929 265.128C129.475 267.884 125.231 269.468 120.817 269.649L115.772 269.858C115.175 269.883 114.941 270.647 115.423 271.002C118.44 273.218 121.844 274.855 125.46 275.829L129.898 277.025C130.154 277.093 130.156 277.456 129.901 277.53L124.092 279.173C119.231 280.549 114.024 279.963 109.589 277.541L102.203 273.508C103.686 276.78 105.969 279.625 108.841 281.78C109.063 281.946 108.91 282.296 108.637 282.246L106.047 281.77C100.278 280.709 95.2923 277.113 92.4646 271.976C90.3314 268.099 87.2855 264.8 83.5918 262.364L77.7149 258.487C77.8798 260.011 77.665 261.583 77.0321 263.055L76.2228 264.935C74.9971 267.783 72.3359 269.753 69.2534 270.091L58.742 257.046C58.2257 256.405 58.0742 255.544 58.339 254.766L58.3406 254.771Z" fill="#1B1B1B"/>
<path d="M70.6476 260.964C70.3312 261.08 69.9882 260.897 69.9182 260.568C69.5818 259.005 68.1963 256.446 66.3178 255.646C63.9098 254.622 60.8872 254.877 59.913 256.671C59.0637 258.236 59.4184 259.335 57.1985 261.162C56.9854 261.337 57.0786 261.695 57.2652 261.896L58.246 263.067C58.4559 263.294 58.5541 263.945 58.5291 264.253C58.4525 265.205 58.2144 267.217 58.4942 267.532C59.0404 268.146 62.2511 268.523 62.2511 268.523L63.242 277.657C63.2803 278.003 63.0222 278.312 62.6741 278.337L59.3485 278.566C59.3485 278.566 61.2869 282.63 68.9807 283.486C73.9 284.032 77.6903 282.137 77.6903 282.137C77.6903 282.137 68.8541 278.252 69.5652 266.957C69.5802 266.709 69.7301 266.488 69.9532 266.376C70.8075 265.95 73.134 264.661 73.0807 262.922C73.0224 261.075 71.7301 260.564 70.6476 260.966V260.964Z" fill="#FDFDFD"/>
<path d="M70.7997 283.958C70.2036 283.958 69.5824 283.926 68.9396 283.856C61.1276 282.988 59.0942 278.9 59.011 278.727C58.9577 278.615 58.9627 278.485 59.0259 278.379C59.0876 278.272 59.1991 278.202 59.3224 278.194L62.648 277.964C62.713 277.959 62.7729 277.929 62.8162 277.879C62.8578 277.829 62.8778 277.764 62.8712 277.698L61.9136 268.858C60.9078 268.727 58.7495 268.382 58.2166 267.781C57.9202 267.446 57.9435 266.607 58.1134 264.723C58.13 264.538 58.145 264.368 58.1567 264.223C58.18 263.924 58.0651 263.421 57.9718 263.321L56.9776 262.135C56.7961 261.94 56.6862 261.647 56.7028 261.386C56.7162 261.181 56.8077 260.998 56.9593 260.873C58.4081 259.68 58.6829 258.859 59.001 257.909C59.1492 257.464 59.3041 257.006 59.5822 256.491C60.7046 254.425 64.0269 254.265 66.4616 255.301C68.5133 256.173 69.9304 258.859 70.2802 260.486C70.2952 260.555 70.3401 260.588 70.3651 260.601C70.3917 260.616 70.4467 260.636 70.515 260.611C71.2011 260.357 71.9105 260.423 72.4617 260.793C72.8914 261.083 73.411 261.684 73.4493 262.906C73.5059 264.74 71.3859 266.074 70.1153 266.706C70.0104 266.758 69.9404 266.861 69.9338 266.976C69.2477 277.884 77.7508 281.753 77.8374 281.789C77.9706 281.848 78.0572 281.977 78.0605 282.122C78.0639 282.267 77.9839 282.4 77.854 282.465C77.7158 282.535 74.8231 283.954 70.7947 283.954L70.7997 283.958ZM60.0035 278.895C60.7995 279.966 63.2475 282.472 69.0228 283.113C72.5616 283.506 75.5309 282.594 76.8265 282.096C74.6999 280.852 68.5949 276.429 69.1927 266.933C69.216 266.553 69.4442 266.212 69.7856 266.042C70.6782 265.597 72.7515 264.403 72.7065 262.933C72.6849 262.215 72.4567 261.691 72.0471 261.416C71.699 261.181 71.2344 261.144 70.7764 261.314C70.5233 261.409 70.2435 261.387 70.0087 261.259C69.7756 261.131 69.609 260.908 69.5524 260.646C69.2443 259.218 67.957 256.75 66.1702 255.99C64.0269 255.078 61.1326 255.206 60.24 256.849C59.9918 257.306 59.8553 257.715 59.7104 258.147C59.3857 259.118 59.0476 260.122 57.4356 261.451C57.4422 261.462 57.4689 261.567 57.5388 261.644L58.5313 262.83C58.8394 263.159 58.9277 263.955 58.901 264.285C58.8894 264.433 58.8744 264.605 58.8561 264.793C58.7945 265.462 58.6529 267.028 58.7928 267.314C59.0526 267.602 60.8195 267.982 62.295 268.155C62.4682 268.175 62.6047 268.312 62.623 268.485L63.6139 277.619C63.6439 277.889 63.5639 278.152 63.3891 278.36C63.2142 278.569 62.9711 278.693 62.6996 278.712L60.0035 278.898V278.895Z" fill="#1B1B1B"/>
</g>
<defs>
<clipPath id="clip0_22_77605">
<rect width="560" height="440.656" fill="white" transform="translate(0.5)"/>
</clipPath>
</defs>
</svg>
