<svg width="104" height="16" viewBox="0 0 104 16" fill="none" xmlns="http://www.w3.org/2000/svg">
<path d="M8.49604 15.9C4.15347 15.9 0.632227 12.3634 0.632227 7.99989C0.632227 3.63646 4.15346 0.1 8.49604 0.1C12.8388 0.1 16.3601 3.63646 16.3601 7.99989C16.3601 12.3634 12.8388 15.9 8.49604 15.9Z" fill="url(#paint0_linear_49_102823)" stroke="#D9D9D9" stroke-width="0.2"/>
<path d="M3.42969 8.00024C3.42969 10.8102 5.6973 13.0881 8.4944 13.0881C11.2917 13.0881 13.5593 10.8102 13.5593 8.00024C13.5593 5.19035 11.2917 2.91248 8.4944 2.91248C5.6973 2.91248 3.42969 5.19035 3.42969 8.00024Z" fill="url(#paint1_linear_49_102823)"/>
<path d="M4.04297 8.00008C4.04297 10.4714 6.03741 12.4749 8.49746 12.4749C10.9577 12.4749 12.9522 10.4714 12.9522 8.00008C12.9522 5.52888 10.9577 3.52539 8.49746 3.52539C6.03741 3.52539 4.04297 5.52888 4.04297 8.00008Z" fill="url(#paint2_linear_49_102823)"/>
<path d="M14.671 7.99967C14.671 7.80207 15.7189 7.56063 15.7023 7.36719C15.6854 7.17049 14.6116 7.11369 14.5782 6.92223C14.5443 6.72804 15.5346 6.30777 15.4846 6.11972C15.434 5.92959 14.3669 6.0618 14.3004 5.87865C14.2335 5.69385 15.1355 5.10611 15.0532 4.92924C14.9705 4.7513 13.9427 5.06882 13.8453 4.8997C13.7475 4.72991 14.5338 3.99326 14.422 3.83321C14.3099 3.67266 13.3526 4.16446 13.2273 4.01473C13.1019 3.86467 13.7494 3.00242 13.6116 2.86401C13.4737 2.72552 12.6154 3.37604 12.4661 3.25003C12.317 3.12418 12.8065 2.16257 12.6468 2.04996C12.4874 1.93768 11.7541 2.72752 11.5851 2.62931C11.4168 2.53143 11.7328 1.49906 11.5556 1.41592C11.3796 1.33336 10.7945 2.23938 10.6105 2.17206C10.4283 2.10539 10.56 1.0334 10.3707 0.982551C10.1834 0.932279 9.7651 1.92719 9.57184 1.89315C9.38119 1.85961 9.32464 0.780967 9.12884 0.763991C8.93643 0.747261 8.69592 1.79994 8.49921 1.79994C8.30234 1.79994 8.06199 0.747261 7.86948 0.763991C7.67372 0.780967 7.61713 1.85961 7.42647 1.89315C7.23326 1.92719 6.81484 0.932279 6.62769 0.982551C6.43836 1.0334 6.57003 2.10547 6.38766 2.17206C6.20374 2.23938 5.61862 1.33336 5.44264 1.41601C5.26542 1.49906 5.58149 2.53151 5.41323 2.62931C5.24412 2.7276 4.51079 1.93776 4.35146 2.05004C4.19172 2.16265 4.68122 3.12427 4.53208 3.25011C4.38278 3.37612 3.52442 2.72569 3.38664 2.86409C3.24886 3.00251 3.89635 3.86475 3.77091 4.01481C3.64564 4.16454 2.68836 3.67282 2.57626 3.83329C2.46449 3.99334 3.25076 4.72999 3.15291 4.89978C3.05556 5.0689 2.02777 4.75147 1.94509 4.92933C1.86289 5.10619 2.76474 5.69396 2.6978 5.87871C2.63144 6.0618 1.56429 5.92959 1.51366 6.11972C1.4637 6.30777 2.45396 6.72804 2.42016 6.92223C2.38677 7.11369 1.31299 7.17049 1.29609 7.36719C1.27944 7.56047 2.32737 7.80207 2.32737 7.99967C2.32737 8.19737 1.27944 8.43881 1.29609 8.63225C1.31299 8.82889 2.38677 8.88574 2.42016 9.07721C2.45396 9.27134 1.4637 9.69167 1.51366 9.87967C1.56429 10.0698 2.63144 9.93759 2.69788 10.1207C2.76483 10.3055 1.86289 10.8933 1.94509 11.0702C2.02785 11.2481 3.05564 10.9306 3.15299 11.0997C3.25084 11.2695 2.46457 12.0061 2.57634 12.1662C2.68844 12.3267 3.64573 11.835 3.771 11.9847C3.89644 12.1347 3.24894 12.997 3.38672 13.1354C3.52451 13.2739 4.38286 12.6233 4.53217 12.7494C4.68138 12.8752 4.1918 13.8368 4.35155 13.9494C4.51087 14.0617 5.2442 13.2719 5.41331 13.3701C5.58159 13.468 5.2655 14.5004 5.44272 14.5835C5.6187 14.666 6.2038 13.76 6.38776 13.8273C6.57003 13.894 6.43836 14.966 6.62769 15.0168C6.81484 15.0671 7.23326 14.0722 7.42647 14.1062C7.61713 14.1398 7.67372 15.2184 7.86948 15.2355C8.06199 15.2521 8.30234 14.1995 8.49921 14.1995C8.69592 14.1995 8.93643 15.2521 9.12884 15.2355C9.32464 15.2184 9.38119 14.1398 9.57179 14.1062C9.7651 14.0722 10.1834 15.0671 10.3707 15.0168C10.56 14.966 10.4283 13.894 10.6107 13.8273C10.7946 13.76 11.3798 14.666 11.5557 14.5834C11.7329 14.5004 11.4168 13.4679 11.5851 13.3701C11.7542 13.2718 12.4876 14.0617 12.6469 13.9494C12.8067 13.8368 12.3171 12.8752 12.4662 12.7493C12.6156 12.6233 13.4739 13.2737 13.6117 13.1353C13.7495 12.9969 13.102 12.1347 13.2274 11.9846C13.3527 11.8349 14.31 12.3266 14.4221 12.1661C14.5338 12.0061 13.7476 11.2694 13.8454 11.0997C13.9428 10.9305 14.9705 11.248 15.0532 11.0701C15.1355 10.8932 14.2335 10.3055 14.3004 10.1207C14.3669 9.93764 15.434 10.0698 15.4846 9.87967C15.5346 9.69167 14.5443 9.27134 14.5782 9.07721C14.6116 8.88574 15.6854 8.82889 15.7023 8.63225C15.7188 8.43887 14.671 8.19737 14.671 7.99967Z" stroke="#1B1B1B" stroke-width="0.5" stroke-miterlimit="10"/>
<path d="M26.0752 5.69467H29.3988V4.5H24.6523V11.924C25.2576 11.956 26.0115 11.988 26.7336 11.988C28.4963 11.988 29.8767 11.476 29.8767 9.59867C29.8767 8.084 29.0909 7.32667 27.1583 7.32667C26.8291 7.32667 26.4044 7.348 26.0752 7.36933V5.69467ZM26.0752 8.532C26.4044 8.48933 26.7123 8.48933 27.0734 8.48933C28.1777 8.48933 28.4219 8.95867 28.4219 9.66267C28.4219 10.3133 28.1034 10.8253 27.2008 10.8253C26.861 10.8253 26.4787 10.8253 26.0752 10.7933V8.532Z" fill="#1B1B1B"/>
<path d="M37.1357 8.4042H38.2825V7.52953C38.5161 7.4442 38.9196 7.35886 39.3444 7.35886C39.9921 7.35886 40.2682 7.51886 40.2682 8.0202C40.2682 8.41486 39.9921 8.64953 39.3125 8.64953H38.4312V9.66286H39.3974C40.1726 9.66286 40.4274 9.8122 40.4274 10.2815C40.4274 10.7082 40.1514 10.8789 39.4399 10.8789H36.0845V6.34553H34.9801L32.5591 9.9082V6.34553H30.4141L30.1487 7.49753H31.2424V11.9242H32.3467L34.7678 8.4362V11.9242H39.5142C40.7354 11.9242 41.7654 11.6469 41.7654 10.3455C41.7654 9.75886 41.4574 9.21486 40.6611 9.03353C41.2663 8.8202 41.5849 8.2442 41.5849 7.68953C41.5849 6.6122 40.7035 6.21753 39.4399 6.21753C38.6329 6.21753 37.7091 6.3882 37.1357 6.69753V8.4042Z" fill="#1B1B1B"/>
<path d="M44.6632 9.716H46.7551V11.924H49.0062V10.772H48.093V6.34534H46.7551V8.58534H44.6632V6.34534H42.4864L42.2209 7.49734H43.3147V11.924H44.6632V9.716Z" fill="#1B1B1B"/>
<path d="M54.591 9.57753C54.6335 9.32153 54.6654 9.00153 54.6654 8.6922C54.6654 7.43353 54.0707 6.21753 52.2866 6.21753C50.4814 6.21753 49.6213 7.4762 49.6213 9.16153C49.6213 10.9535 50.5452 12.0629 52.4565 12.0629C53.0617 12.0629 53.8584 11.9882 54.4318 11.7322V10.6015C54.0283 10.7722 53.3272 10.8895 52.7007 10.8895C51.745 10.8895 50.9593 10.6655 50.9062 9.57753H54.591ZM50.9274 8.47886C50.9699 7.65753 51.5752 7.27353 52.2016 7.27353C52.8069 7.27353 53.3909 7.62553 53.4015 8.47886H50.9274Z" fill="#1B1B1B"/>
<path d="M68.4353 10.8575H67.5858V7.45486H68.4353V6.34553H66.3116L64.6445 8.8522L63.0198 6.34553H60.8006L60.567 7.45486H61.6925V10.8575H58.2733C57.3177 10.8575 56.4682 10.4415 56.4682 9.16153C56.4682 7.8602 57.2009 7.35886 58.2415 7.35886C58.4114 7.35886 58.56 7.36953 58.7406 7.40153V8.5322H59.9405V6.4842C59.5051 6.31353 58.9211 6.21753 58.3795 6.21753C56.9779 6.21753 55.1409 6.69753 55.1409 9.16153C55.1409 11.3375 56.585 11.9242 58.1034 11.9242H63.6888V10.8575H62.9561V8.1482L64.6445 10.6335L66.3116 8.15886V10.8575H65.5789V11.9242H68.4353V10.8575Z" fill="#1B1B1B"/>
<path d="M74.4541 9.57753C74.4966 9.32153 74.5284 9.00153 74.5284 8.6922C74.5284 7.43353 73.9338 6.21753 72.1499 6.21753C70.3447 6.21753 69.4846 7.4762 69.4846 9.16153C69.4846 10.9535 70.4084 12.0629 72.3198 12.0629C72.925 12.0629 73.7214 11.9882 74.2948 11.7322V10.6015C73.8913 10.7722 73.1905 10.8895 72.564 10.8895C71.6083 10.8895 70.8226 10.6655 70.7695 9.57753H74.4541ZM70.7907 8.47886C70.8332 7.65753 71.4384 7.27353 72.0649 7.27353C72.6702 7.27353 73.2542 7.62553 73.2648 8.47886H70.7907Z" fill="#1B1B1B"/>
<path d="M77.4828 9.716H79.5747V11.924H81.8258V10.772H80.9126V6.34534H79.5747V8.58534H77.4828V6.34534H75.306L75.0405 7.49734H76.1342V11.924H77.4828V9.716Z" fill="#1B1B1B"/>
<path d="M87.3042 10.5375C86.7627 10.7295 86.1787 10.8575 85.5734 10.8575C84.6177 10.8575 83.7682 10.4415 83.7682 9.16153C83.7682 7.8602 84.5009 7.35886 85.5415 7.35886C85.7114 7.35886 85.8601 7.36953 86.0406 7.40153V8.5322H87.2405V6.4842C86.8051 6.31353 86.2211 6.21753 85.6796 6.21753C84.2779 6.21753 82.4409 6.69753 82.4409 9.16153C82.4409 11.3375 83.885 12.0629 85.4035 12.0629C86.0618 12.0629 86.8158 11.9989 87.3042 11.6895V10.5375Z" fill="#1B1B1B"/>
<path d="M89.3076 12.2652L90.4438 11.2092L89.3076 10.1318L88.2139 11.2092L89.3076 12.2652Z" fill="#1B1B1B"/>
<path d="M94.6099 7.4122C95.47 7.4122 95.8417 8.0522 95.8841 8.8842C95.8841 10.1109 95.4806 10.9109 94.4506 10.9109C94.079 10.9109 93.6649 10.8149 93.3145 10.6442V8.2762C93.4419 7.74286 94.0259 7.4122 94.6099 7.4122ZM93.3145 13.1509V11.7962C93.7073 11.9775 94.2064 12.0735 94.663 12.0735C96.1178 12.0735 97.1902 11.0602 97.1902 9.02286C97.1902 7.07086 96.2346 6.21753 94.9497 6.21753C94.2489 6.21753 93.5268 6.4842 93.0596 7.01753L92.7092 6.34553H91.1483L90.8828 7.49753H91.9765V13.1509H90.989V14.1642H94.3338V13.1509H93.3145Z" fill="#1B1B1B"/>
<path d="M97.7996 6.34534L99.3499 11.3693C99.4985 11.8387 99.7428 11.9347 100.104 11.924C99.6472 12.7773 99.0419 12.98 98.4154 12.98C98.2349 12.98 97.9907 12.9693 97.8102 12.8947V14.0573C98.0756 14.1853 98.3517 14.2173 98.6278 14.2173C99.9445 14.2173 100.858 13.428 101.548 11.38L103.268 6.34534H101.941L100.497 10.8573L99.2331 6.34534H97.7996Z" fill="#1B1B1B"/>
<defs>
<linearGradient id="paint0_linear_49_102823" x1="8.49614" y1="-0.117393" x2="8.49614" y2="16.1548" gradientUnits="userSpaceOnUse">
<stop stop-color="#FAFAFA"/>
<stop offset="1" stop-color="#D4D4D4"/>
</linearGradient>
<linearGradient id="paint1_linear_49_102823" x1="8.49451" y1="2.77965" x2="8.49451" y2="13.2187" gradientUnits="userSpaceOnUse">
<stop stop-color="#D0D0D0"/>
<stop offset="1" stop-color="white"/>
</linearGradient>
<linearGradient id="paint2_linear_49_102823" x1="8.49757" y1="2.64187" x2="8.49757" y2="13.2075" gradientUnits="userSpaceOnUse">
<stop stop-color="white"/>
<stop offset="1" stop-color="#CFCDCD"/>
</linearGradient>
</defs>
</svg>
