<svg width="97" height="31" viewBox="0 0 97 31" fill="none" xmlns="http://www.w3.org/2000/svg">
<path d="M9.28245 2.33043H11.3882C12.6706 2.14276 13.9802 2.30776 15.1748 2.80753C16.6736 3.70329 17.7606 5.14538 18.2041 6.82615C18.5182 7.70695 18.5182 7.70695 19.2755 7.395H19.8666V0.422047H0.0467329V1.65149H0.859476C1.21266 1.64906 1.5619 1.72527 1.88155 1.87451C2.2012 2.02376 2.48312 2.24225 2.70662 2.51393C3.46395 3.72502 3.59325 5.08291 3.59325 12.1476C3.59325 19.6527 3.427 21.4877 2.70662 22.4235C2.52878 22.6641 2.29852 22.8617 2.03305 23.0015C1.76758 23.1413 1.47375 23.2197 1.17349 23.2309C0.046733 23.4328 0.0467329 23.4144 0.0467329 23.9099C-0.0155776 24.0756 -0.0155776 24.258 0.0467329 24.4237H12.5519C12.6346 24.2616 12.6778 24.0824 12.6778 23.9007C12.6778 23.719 12.6346 23.5398 12.5519 23.3777C12.249 23.294 11.9403 23.2327 11.6283 23.1942C11.2908 23.1544 10.9572 23.0869 10.6309 22.9924C10.1636 22.6535 9.79338 22.1993 9.55689 21.6747C9.32041 21.1502 9.22581 20.5734 9.28245 20.0014C9.09773 18.7903 9.00538 16.5699 9.00538 14.7349V13.2853H9.74423C10.6648 13.2573 11.5848 13.3561 12.478 13.5789C12.9059 13.8416 13.2702 14.1949 13.5448 14.6136C13.8194 15.0323 13.9975 15.5061 14.0665 16.0011L14.2328 16.5699H15.3595V8.44094H14.3251L14.1589 9.22999C14.089 9.7362 13.9005 10.219 13.6085 10.6397C13.3166 11.0604 12.9294 11.4072 12.478 11.6522C12.0409 11.7814 11.5804 11.8127 11.1296 11.7439H9.00538V9.76213C9.00538 7.70695 9.1162 3.37638 9.19009 2.69743L9.28245 2.33043ZM95.7287 16.8819C94.8556 15.4858 93.4938 14.4598 91.9052 14.001C90.6873 13.6228 89.5615 12.998 88.5988 12.166C88.3821 11.9578 88.2201 11.7002 88.1267 11.4155C88.0333 11.1308 88.0115 10.8278 88.0631 10.5328C88.0645 9.95423 88.297 9.39986 88.7096 8.99144C88.9892 8.70052 89.3431 8.49051 89.7335 8.38386C90.1239 8.27721 90.5361 8.27791 90.9262 8.38589C91.7337 8.61451 92.4639 9.05586 93.0395 9.66318C93.615 10.2705 94.0145 11.0212 94.1956 11.8357C94.4912 12.6614 94.5281 12.6614 95.0638 12.4412L95.3963 12.3128V7.74365L95.1561 7.63355C93.3376 6.99906 91.4086 6.7369 89.4854 6.86285C87.8292 6.90454 86.2483 7.55892 85.0523 8.69784C84.5098 9.20226 84.085 9.81836 83.8074 10.503C83.5298 11.1877 83.4062 11.9243 83.4452 12.6614C83.4556 13.7883 83.9059 14.8672 84.7013 15.6708C85.5803 16.5296 86.6588 17.1598 87.8414 17.5058C90.7045 18.6251 91.5357 19.3408 91.5357 20.6436C91.548 21.193 91.3718 21.7303 91.0362 22.1671C90.7005 22.6039 90.2253 22.9143 89.6886 23.0474C89.0436 23.1882 88.3756 23.1882 87.7306 23.0474C86.8862 22.7218 86.1322 22.2007 85.5314 21.5272C84.9306 20.8538 84.5004 20.0475 84.2765 19.1756L84.0363 18.5884H83.7038C83.5449 18.6001 83.389 18.6373 83.2421 18.6985H83.0573V23.9099H83.3714C84.6193 24.3223 85.9068 24.6052 87.2134 24.754H89.0606C89.8616 24.8124 90.6669 24.738 91.4434 24.5338C92.4291 24.3531 93.3502 23.9192 94.1149 23.2754C94.8796 22.6316 95.4615 21.8002 95.8026 20.8638C96.0231 20.3408 96.1361 19.7793 96.1351 19.2123C96.2079 18.4135 96.0677 17.6098 95.7287 16.8819ZM78.3287 7.395C77.2218 6.93333 76.0292 6.70939 74.829 6.73785C73.6289 6.76631 72.4484 7.04654 71.3649 7.56015C70.3465 8.05501 69.4439 8.75652 68.7153 9.61939C67.9867 10.4823 67.4484 11.4873 67.135 12.5697C66.7354 13.7504 66.5662 14.9959 66.6362 16.2396C66.623 16.9163 66.6787 17.5926 66.8025 18.2581C67.1008 19.8946 67.896 21.4011 69.0814 22.5755C70.2668 23.7498 71.7856 24.5356 73.4337 24.8274C74.507 24.9617 75.593 24.9617 76.6662 24.8274C77.7799 24.6324 78.8458 24.2275 79.8064 23.6346C80.6009 23.1921 81.2734 22.5619 81.7643 21.7996C81.7328 21.6801 81.6773 21.568 81.6011 21.4703C81.525 21.3725 81.4297 21.2911 81.321 21.2308C81.1102 21.3066 80.9112 21.4117 80.7299 21.5427C79.8112 22.1443 78.7263 22.4458 77.6267 22.4052C76.8969 22.4542 76.1653 22.3413 75.4848 22.0747C74.8043 21.8081 74.192 21.3945 73.6923 20.8638C73.3058 20.5071 72.9867 20.0845 72.7503 19.616C72.1763 18.4753 71.867 17.2212 71.8452 15.946V15.2304H82.0784V14.8634C82.1009 14.4967 82.1009 14.1291 82.0784 13.7624C82.0747 12.4667 81.7258 11.1951 81.0672 10.0767C80.4086 8.95837 79.4638 8.03312 78.3287 7.395ZM73.1751 13.7441H71.8821V12.6614C72.307 9.89058 73.3598 8.23909 74.6528 8.23909C75.9458 8.23909 76.5 9.87223 76.7401 12.8633V13.7074H75.6318L73.1751 13.7441ZM46.6132 6.78945C45.9749 6.76486 45.3405 6.89723 44.7661 7.1748C43.5176 7.77709 42.5093 8.77882 41.903 10.019L41.6629 10.4594V6.78945H41.5705C41.3489 6.78945 34.5144 8.14734 34.2928 8.23909C34.0711 8.33084 34.145 8.34919 34.145 8.67949C34.145 9.00979 34.145 9.06484 34.2928 9.08319L35.0132 9.22999C35.2149 9.2349 35.4129 9.28537 35.5921 9.37757C35.7713 9.46977 35.9271 9.60128 36.0476 9.76213C36.5093 10.3677 36.6017 11.432 36.6017 15.9644C36.6929 18.0048 36.6064 20.0493 36.3431 22.0749C36.2811 22.3803 36.1252 22.6591 35.8969 22.8728C35.6686 23.0864 35.3792 23.2244 35.0686 23.2676L34.4405 23.3961H34.2004V23.9099C34.1334 24.081 34.1334 24.2709 34.2004 24.442H44.5259V23.9099C44.5618 23.7343 44.5618 23.5533 44.5259 23.3777C43.9042 23.3537 43.286 23.2738 42.6788 23.1392C42.3481 22.9674 42.0776 22.7001 41.9029 22.3725C41.7281 22.045 41.6573 21.6725 41.6998 21.3042C41.552 20.2399 41.4782 17.1204 41.5151 14.7349C41.552 12.3495 41.5151 12.2027 41.7183 12.0375C42.3364 11.5667 43.1012 11.3264 43.8794 11.3586C44.613 11.3745 45.3332 11.5565 45.9852 11.8907C46.2112 12.0154 46.4537 12.1081 46.7056 12.166C46.7056 12.166 48.5527 7.7253 48.5527 7.52345C48.3163 7.25058 48.0152 7.04056 47.6765 6.9124C47.3379 6.78424 46.9724 6.74198 46.6132 6.78945ZM34.1635 14.4964C34.099 13.1851 33.72 11.9081 33.0582 10.7718C32.3963 9.63552 31.4706 8.67279 30.3584 7.96384C29.0365 7.25544 27.5659 6.86484 26.0646 6.82342C24.5633 6.78199 23.0731 7.09088 21.7137 7.7253C19.7918 8.73212 18.3406 10.4436 17.6685 12.4963C16.9743 14.7944 16.9743 17.2445 17.6685 19.5426C18.0324 20.7986 18.7126 21.9417 19.6449 22.8639C20.806 23.9894 22.3032 24.7106 23.9118 24.9191C24.9444 25.0049 25.9824 25.0049 27.015 24.9191C27.395 24.8617 27.7712 24.782 28.1418 24.6806C29.6453 24.2628 30.9979 23.4282 32.0414 22.2746C33.0849 21.121 33.7761 19.696 34.0342 18.1664C34.2186 16.952 34.262 15.7206 34.1635 14.4964ZM26.4794 23.6713C24.6322 24.2218 23.2469 22.4419 22.7851 18.6985C22.6155 16.7387 22.6155 14.768 22.7851 12.8082C23.1545 9.79883 24.0965 8.27579 25.5558 8.27579C25.8502 8.25767 26.1447 8.30985 26.4146 8.42797C26.6846 8.54609 26.9221 8.72672 27.1074 8.95474C28.345 10.1842 28.9545 12.6247 28.9545 16.2947C29.1082 18.3717 28.7796 20.456 27.994 22.3868C27.6471 22.95 27.1104 23.3726 26.4794 23.5796V23.6713ZM59.7279 7.15645C59.2067 7.08982 58.6791 7.08982 58.1579 7.15645C57.1574 7.1556 56.1683 7.36837 55.2578 7.78035L54.6852 8.01889V4.03697C54.7853 2.69315 54.7853 1.34382 54.6852 0C54.4636 0 47.4075 1.33954 47.2967 1.39459C47.2422 1.53007 47.2422 1.68116 47.2967 1.81664C47.2967 2.20198 47.2967 2.18363 48.1279 2.36713C48.3612 2.41913 48.5854 2.50573 48.7928 2.62403C49.1534 2.96086 49.3934 3.40544 49.4763 3.89017C49.6866 5.28664 49.7547 6.70061 49.6795 8.11064V24.2218L50.1782 24.3319C50.9171 24.4971 53.0043 24.8457 53.6878 24.9191C55.0525 25.027 56.4237 25.027 57.7884 24.9191C59.3032 24.7654 60.7471 24.204 61.9644 23.2954C63.1818 22.3868 64.1265 21.1654 64.6967 19.7628C65.0367 18.8626 65.2722 17.9268 65.3987 16.9736C65.5086 15.6825 65.4652 14.3829 65.2694 13.1018C65.0712 11.6658 64.4332 10.3251 63.4419 9.2615C62.4506 8.19794 61.154 7.46303 59.7279 7.15645ZM54.8884 23.3594C54.8884 23.1208 54.7037 15.0836 54.7406 11.8724V9.35844L55.2763 9.22999C55.6377 9.17854 56.0047 9.17854 56.3661 9.22999C56.7658 9.18961 57.1679 9.2798 57.5114 9.48688C58.2012 9.95983 58.774 10.5821 59.1867 11.3067C59.5995 12.0314 59.8413 12.8397 59.8942 13.6707C60.0287 15.0069 60.0287 16.3531 59.8942 17.6893C59.7836 19.6313 59.0304 21.4827 57.7515 22.9557C57.3885 23.2982 56.9327 23.5278 56.44 23.6163C56.0672 23.6807 55.686 23.6807 55.3133 23.6163C54.9623 23.6163 54.9623 23.5062 54.9623 23.3594H54.8884Z" fill="#1B1B1B"/>
</svg>
