<svg width="64" height="24" viewBox="0 0 64 24" fill="none" xmlns="http://www.w3.org/2000/svg">
<path fill-rule="evenodd" clip-rule="evenodd" d="M8.40493 11.4798C11.1375 11.4798 12.5902 10.2043 12.5902 7.82125V7.6866C12.5902 5.13572 11.0682 4.12879 8.40493 4.12879H5.56855V11.4798H8.40493ZM0 0H8.54323C14.5615 0 17.9859 2.58445 17.9859 7.65343V7.7873C17.9859 12.8559 14.3543 15.2729 8.71599 15.2729H5.56855V24H0V0Z" fill="#1B1B1B"/>
<path fill-rule="evenodd" clip-rule="evenodd" d="M29.0714 19.8712C31.7524 19.8712 33.11 18.73 33.11 16.548V16.4141C33.11 14.2656 31.7524 13.0908 28.9357 13.0908H25.8134V19.8712H29.0714ZM29.2751 24H20.3838V0H36.198V4.22948H25.8476L25.8134 9.26413H29.4446C35.0441 9.26413 38.3697 11.6476 38.3697 16.4473V16.5819C38.3697 21.2809 35.2817 24 29.2751 24Z" fill="#1B1B1B"/>
<path fill-rule="evenodd" clip-rule="evenodd" d="M42.417 0.0335174H48.264V10.3576L57.2869 0H63.4949L53.2807 11.3632L64.0001 24H57.1786L48.264 13.2401V24H42.417V0.0335174Z" fill="#1B1B1B"/>
</svg>
