<svg width="31" height="32" viewBox="0 0 31 32" fill="none" xmlns="http://www.w3.org/2000/svg">
<g id="Group 5">
<path id="Ellipse 1 (Stroke)" fill-rule="evenodd" clip-rule="evenodd" d="M15.4645 2.63761C8.10467 2.63761 2.13834 8.60394 2.13834 15.9638C2.13834 23.3236 8.10467 29.2899 15.4645 29.2899C22.8244 29.2899 28.7907 23.3236 28.7907 15.9638C28.7907 8.60394 22.8244 2.63761 15.4645 2.63761ZM0.0722656 15.9638C0.0722656 7.46288 6.96361 0.571533 15.4645 0.571533C23.9654 0.571533 30.8568 7.46288 30.8568 15.9638C30.8568 24.4647 23.9654 31.356 15.4645 31.356C6.96361 31.356 0.0722656 24.4647 0.0722656 15.9638Z" fill="#FDFDFD"/>
<path id="Ellipse 2 (Stroke)" fill-rule="evenodd" clip-rule="evenodd" d="M15.4637 6.04654C9.9866 6.04654 5.54654 10.4866 5.54654 15.9637C5.54654 21.4408 9.9866 25.8808 15.4637 25.8808C20.9408 25.8808 25.3808 21.4408 25.3808 15.9637C25.3808 10.4866 20.9408 6.04654 15.4637 6.04654ZM3.48047 15.9637C3.48047 9.34554 8.84554 3.98047 15.4637 3.98047C22.0818 3.98047 27.4469 9.34554 27.4469 15.9637C27.4469 22.5818 22.0818 27.9469 15.4637 27.9469C8.84554 27.9469 3.48047 22.5818 3.48047 15.9637Z" fill="#FDFDFD"/>
<path id="Ellipse 3 (Stroke)" fill-rule="evenodd" clip-rule="evenodd" d="M15.4637 9.86881C12.0976 9.86881 9.36881 12.5976 9.36881 15.9637C9.36881 19.3299 12.0976 22.0586 15.4637 22.0586C18.8299 22.0586 21.5586 19.3299 21.5586 15.9637C21.5586 12.5976 18.8299 9.86881 15.4637 9.86881ZM7.30273 15.9637C7.30273 11.4565 10.9565 7.80273 15.4637 7.80273C19.9709 7.80273 23.6247 11.4565 23.6247 15.9637C23.6247 20.4709 19.9709 24.1247 15.4637 24.1247C10.9565 24.1247 7.30273 20.4709 7.30273 15.9637Z" fill="#FDFDFD"/>
<path id="Ellipse 4 (Stroke)" fill-rule="evenodd" clip-rule="evenodd" d="M15.4638 13.6911C14.2086 13.6911 13.1911 14.7086 13.1911 15.9638C13.1911 17.2189 14.2086 18.2364 15.4638 18.2364C16.7189 18.2364 17.7364 17.2189 17.7364 15.9638C17.7364 14.7086 16.7189 13.6911 15.4638 13.6911ZM11.125 15.9638C11.125 13.5675 13.0675 11.625 15.4638 11.625C17.86 11.625 19.8025 13.5675 19.8025 15.9638C19.8025 18.36 17.86 20.3025 15.4638 20.3025C13.0675 20.3025 11.125 18.36 11.125 15.9638Z" fill="#FDFDFD"/>
</g>
</svg>
