<svg width="52" height="35" viewBox="0 0 52 35" fill="none" xmlns="http://www.w3.org/2000/svg">
<g id="Stories/Component/Graphic Elements/01">
<path id="Vector" d="M26.96 8.2C26.96 8.2 35.76 6.99 37.2 1C37.2 1 34.86 8.2 39.34 9.93C43.3 11.46 46.06 8.4 46.06 8.4C40.38 14.18 51.51 19.03 51.51 19.03C36.27 17.07 43.19 29.36 43.19 29.36C43.19 29.36 36.04 22.77 32.88 24.18C29.72 25.59 33.57 34.36 33.57 34.36C33.57 34.36 27.59 22.95 23.31 23.74C19.03 24.53 20.27 33.33 20.27 33.33C20.27 33.33 19.15 25.19 12.32 24.78C7.78 24.51 5.02 29.38 5.02 29.38C7.54 23.96 0.5 20.36 0.5 20.36" stroke="#F05633" stroke-width="0.94" stroke-linejoin="bevel"/>
</g>
</svg>
