<svg width="32" height="26" viewBox="0 0 32 26" fill="none" xmlns="http://www.w3.org/2000/svg">
<g id="Quote">
<path id="Vector" d="M0 0.8125L0 13.9375L11.2081 13.9375C10.7325 19.1863 6.3075 23.3125 0.9375 23.3125H0L0 25.1875H0.9375C7.34188 25.1875 12.6087 20.2213 13.0894 13.9375C13.1131 13.6281 13.125 13.3156 13.125 13L13.125 0.8125L0 0.8125Z" fill="#D9D9D9"/>
<path id="Vector_2" d="M18.875 0.8125V13.9375L30.0831 13.9375C29.6075 19.1863 25.1825 23.3125 19.8125 23.3125H18.875V25.1875H19.8125C26.2169 25.1875 31.4837 20.2213 31.9644 13.9375C31.9881 13.6281 32 13.3156 32 13V0.8125L18.875 0.8125Z" fill="#D9D9D9"/>
</g>
</svg>
