<svg width="32" height="26" viewBox="0 0 32 26" fill="none" xmlns="http://www.w3.org/2000/svg">
<g id="Quote">
<path id="Vector" d="M32 25.1875L32 12.0625L20.7919 12.0625C21.2675 6.81375 25.6925 2.6875 31.0625 2.6875L32 2.6875L32 0.8125L31.0625 0.8125C24.6581 0.812499 19.3913 5.77875 18.9106 12.0625C18.8869 12.3719 18.875 12.6844 18.875 13L18.875 25.1875L32 25.1875Z" fill="#D9D9D9"/>
<path id="Vector_2" d="M13.125 25.1875L13.125 12.0625L1.91688 12.0625C2.3925 6.81375 6.8175 2.6875 12.1875 2.6875L13.125 2.6875L13.125 0.8125L12.1875 0.8125C5.78313 0.812499 0.516252 5.77875 0.0356266 12.0625C0.0118763 12.3719 1.09306e-06 12.6844 1.06547e-06 13L0 25.1875L13.125 25.1875Z" fill="#D9D9D9"/>
</g>
</svg>
